<svg width="216" height="92" viewBox="0 0 216 92" fill="none" xmlns="http://www.w3.org/2000/svg">
<path d="M80.435 74.4276V64.2389L54.0991 90.9904C51.1663 91.6001 48.1301 91.9209 45.0196 91.9209C40.2559 91.9209 35.6651 91.1697 31.3552 89.7758C13.1721 83.9004 0 66.6083 0 46.1907C0 20.9342 20.1556 0.460541 45.0196 0.460541C66.9699 0.460541 85.2503 16.4161 89.2336 37.5325C89.7618 40.336 90.0392 43.2298 90.0392 46.1907C90.0392 56.8477 86.4508 66.6522 80.435 74.4276Z" fill="#E9FFC1"/>
<path d="M94 37.5327V87.7749H80.4341V64.2391L54.0983 90.9906C51.1654 91.6004 48.1293 91.9211 45.0187 91.9211C40.255 91.9211 35.6642 91.1699 31.3544 89.776L69.22 51.3127H42.7377V37.5327H94Z" fill="#38EF7D"/>
<path d="M117.497 47.9357H121.938V56.4945C120.745 57.3876 119.404 58.0616 117.978 58.4854C116.513 58.9453 114.988 59.1805 113.454 59.1831C111.409 59.2188 109.389 58.7356 107.579 57.7783C105.882 56.8869 104.464 55.5411 103.48 53.8897C102.51 52.1776 102 50.2411 102 48.2706C102 46.3001 102.51 44.3636 103.48 42.6516C104.465 40.9891 105.895 39.6385 107.607 38.7536C109.437 37.7984 111.475 37.3157 113.537 37.3488C115.25 37.3281 116.95 37.6441 118.542 38.2791C119.998 38.8728 121.295 39.8035 122.326 40.9956L119.208 43.8889C118.518 43.1362 117.677 42.5384 116.741 42.1345C115.806 41.7305 114.796 41.5295 113.778 41.5445C112.538 41.5188 111.312 41.8101 110.216 42.3911C109.187 42.9207 108.332 43.7381 107.755 44.7448C107.182 45.8275 106.883 47.035 106.883 48.2613C106.883 49.4876 107.182 50.6952 107.755 51.7779C108.321 52.7864 109.158 53.6148 110.169 54.1688C111.25 54.759 112.465 55.0572 113.694 55.0339C115.01 55.0424 116.307 54.7227 117.469 54.1036L117.497 47.9357ZM132.827 42.9679C133.871 42.5488 134.987 42.3432 136.111 42.3632V46.6984C135.593 46.6984 135.242 46.6426 135.066 46.6426C134.493 46.6084 133.92 46.6904 133.379 46.8838C132.839 47.0772 132.343 47.378 131.92 47.7683C131.51 48.2265 131.197 48.7639 131 49.3476C130.803 49.9313 130.725 50.5492 130.773 51.1639V58.8203H126.147V42.6051H130.616V44.7448C131.175 43.9579 131.94 43.3427 132.827 42.9679ZM141.857 57.9923C140.548 57.3176 139.453 56.29 138.692 55.0246C137.947 53.7112 137.555 52.225 137.555 50.7127C137.555 49.2003 137.947 47.7141 138.692 46.4007C139.449 45.125 140.545 44.0874 141.857 43.4051C143.275 42.7012 144.836 42.335 146.418 42.335C148 42.335 149.56 42.7012 150.979 43.4051C152.28 44.083 153.369 45.1103 154.124 46.3728C154.876 47.6841 155.272 49.1711 155.272 50.6848C155.272 52.1984 154.876 53.6854 154.124 54.9967C153.369 56.2592 152.28 57.2865 150.979 57.9644C149.56 58.6684 148 59.0345 146.418 59.0345C144.836 59.0345 143.275 58.6684 141.857 57.9644V57.9923ZM149.387 53.9827C150.128 53.0609 150.532 51.9116 150.532 50.7266C150.532 49.5416 150.128 48.3924 149.387 47.4706C149.014 47.0572 148.556 46.7294 148.045 46.5095C147.534 46.2896 146.982 46.1827 146.427 46.196C145.874 46.1773 145.324 46.2762 144.812 46.4862C144.301 46.6962 143.839 47.0127 143.457 47.4147C142.71 48.3336 142.302 49.484 142.302 50.6708C142.302 51.8577 142.71 53.008 143.457 53.9269C143.84 54.3275 144.302 54.643 144.813 54.853C145.325 55.0629 145.875 55.1626 146.427 55.1456C146.974 55.1708 147.52 55.0803 148.03 54.88C148.54 54.6797 149.002 54.374 149.387 53.9827ZM183.841 42.6051L178.003 58.8203H173.507L169.88 48.7544L166.124 58.8203H161.628L155.817 42.6051H160.221L164.033 53.5734L167.983 42.6051H171.943L175.783 53.5734L179.705 42.6051H183.841ZM196.886 58.0388C196.375 58.3989 195.8 58.6578 195.193 58.8017C194.501 58.9795 193.789 59.0671 193.074 59.0622C191.457 59.1648 189.862 58.6348 188.624 57.583C188.074 57.0121 187.649 56.331 187.378 55.584C187.107 54.837 186.996 54.0409 187.051 53.2478V46.5868H184.544V42.9679H187.033V39.0141H191.714V42.9679H195.729V46.5868H191.714V53.1826C191.674 53.7578 191.86 54.3258 192.232 54.7642C192.427 54.9575 192.661 55.1072 192.918 55.2034C193.174 55.2996 193.448 55.3402 193.722 55.3223C194.389 55.3354 195.04 55.1224 195.572 54.7176L196.886 58.0388ZM214.15 44.168C215.383 45.3774 216 47.1667 216 49.5358V58.8389H211.374V50.2801C211.45 49.2479 211.151 48.2231 210.532 47.3961C210.218 47.0724 209.838 46.8214 209.418 46.6608C208.998 46.5001 208.547 46.4336 208.099 46.4658C207.585 46.4464 207.073 46.5348 206.595 46.7254C206.117 46.916 205.684 47.2046 205.323 47.5729C204.929 48.0165 204.625 48.5342 204.43 49.0961C204.234 49.6581 204.151 50.2533 204.186 50.8476V58.8668H199.56V36.5395H204.186V44.3354C204.824 43.7017 205.591 43.2131 206.434 42.9028C207.356 42.5682 208.33 42.4012 209.311 42.4097C210.193 42.3666 211.075 42.4998 211.905 42.8016C212.736 43.1034 213.499 43.5678 214.15 44.168ZM105.525 90.8507C104.247 90.4647 103.065 89.8116 102.056 88.9343L103.166 86.5806C104.067 87.3631 105.11 87.9632 106.237 88.3482C107.475 88.7958 108.78 89.0255 110.095 89.0273C111.457 89.1104 112.812 88.7867 113.99 88.097C114.386 87.8442 114.711 87.495 114.936 87.0819C115.16 86.6687 115.278 86.205 115.276 85.734C115.289 85.4063 115.233 85.0795 115.112 84.7749C114.991 84.4704 114.807 84.1949 114.573 83.9664C114.077 83.4943 113.483 83.1384 112.834 82.9245C112.149 82.6826 111.169 82.4128 109.91 82.1151C108.613 81.8178 107.337 81.4356 106.089 80.9709C105.13 80.5926 104.276 79.9861 103.601 79.2033C102.868 78.2908 102.498 77.1369 102.564 75.9658C102.562 74.8814 102.885 73.8215 103.49 72.9237C104.157 71.9556 105.089 71.2027 106.173 70.7561C107.588 70.168 109.111 69.8889 110.641 69.9374C111.875 69.9356 113.104 70.0982 114.296 70.4212C115.399 70.695 116.446 71.1643 117.386 71.8074L116.396 74.2169C115.519 73.6601 114.569 73.2281 113.574 72.933C112.622 72.6502 111.634 72.5031 110.641 72.4958C109.302 72.4003 107.967 72.7254 106.82 73.4261C106.424 73.6886 106.1 74.0466 105.877 74.4675C105.654 74.8884 105.539 75.3587 105.543 75.8356C105.532 76.1649 105.59 76.4929 105.715 76.7977C105.839 77.1025 106.027 77.3771 106.265 77.6032C106.782 78.0735 107.39 78.4314 108.051 78.6544C108.997 78.9755 109.961 79.2426 110.937 79.4545C112.22 79.7566 113.481 80.1451 114.712 80.6174C115.661 80.9964 116.507 81.5957 117.182 82.3663C117.909 83.2529 118.279 84.3817 118.218 85.5294C118.216 86.6102 117.894 87.666 117.293 88.5622C116.6 89.5437 115.635 90.2978 114.518 90.7298C113.088 91.3004 111.559 91.5727 110.021 91.5298C108.496 91.5463 106.978 91.317 105.525 90.8507ZM127.729 90.4693C126.488 89.7906 125.454 88.7837 124.741 87.5574C124.044 86.2735 123.678 84.834 123.678 83.3711C123.678 81.9081 124.044 80.4687 124.741 79.1847C125.455 77.9637 126.489 76.9631 127.729 76.2914C129.063 75.5868 130.552 75.2316 132.059 75.2588C133.393 75.2338 134.714 75.5338 135.908 76.1333C137.017 76.6916 137.933 77.5735 138.535 78.6637L136.343 80.0778C135.886 79.3515 135.248 78.7581 134.492 78.3567C133.732 77.9718 132.891 77.7771 132.04 77.7892C131.072 77.7787 130.117 78.0155 129.265 78.4776C128.442 78.9363 127.765 79.6202 127.313 80.4499C126.832 81.353 126.589 82.3653 126.61 83.3897C126.586 84.4262 126.829 85.4513 127.313 86.3666C127.765 87.1964 128.442 87.8802 129.265 88.3389C130.116 88.8053 131.072 89.0424 132.04 89.0273C132.891 89.0394 133.732 88.8448 134.492 88.4598C135.248 88.0584 135.886 87.4651 136.343 86.7388L138.572 88.0598C137.965 89.1513 137.051 90.0381 135.945 90.6088C134.757 91.2315 133.435 91.551 132.096 91.5391C130.582 91.5521 129.09 91.1707 127.766 90.4321L127.729 90.4693ZM158.334 76.9799C158.964 77.6758 159.447 78.493 159.754 79.3821C160.061 80.2712 160.185 81.2136 160.119 82.1524V91.3438H157.242V82.478C157.336 81.2143 156.938 79.9633 156.132 78.9893C155.714 78.5788 155.214 78.2614 154.666 78.0578C154.117 77.8542 153.533 77.7691 152.949 77.8078C152.271 77.7682 151.593 77.8701 150.956 78.107C150.319 78.344 149.738 78.7109 149.249 79.1847C148.775 79.7154 148.411 80.3362 148.179 81.0104C147.947 81.6846 147.851 82.3987 147.898 83.1106V91.3438H145.021V69.0164H147.898V77.6683C148.531 76.8521 149.362 76.2144 150.313 75.817C151.343 75.3803 152.452 75.1648 153.569 75.1844C154.446 75.1411 155.322 75.2743 156.147 75.5762C156.971 75.8782 157.727 76.3427 158.371 76.9426L158.334 76.9799ZM171.092 90.4693C169.857 89.7924 168.832 88.7845 168.131 87.5574C167.44 86.2716 167.078 84.8328 167.078 83.3711C167.078 81.9093 167.44 80.4705 168.131 79.1847C168.833 77.963 169.858 76.9613 171.092 76.2914C172.405 75.6094 173.861 75.2535 175.339 75.2535C176.816 75.2535 178.272 75.6094 179.585 76.2914C180.81 76.9672 181.828 77.9679 182.527 79.1847C183.219 80.4705 183.581 81.9093 183.581 83.3711C183.581 84.8328 183.219 86.2716 182.527 87.5574C181.829 88.7796 180.811 89.7865 179.585 90.4693C178.275 91.1596 176.818 91.5202 175.339 91.5202C173.859 91.5202 172.402 91.1596 171.092 90.4693ZM178.086 88.2831C178.895 87.8128 179.556 87.1228 179.992 86.2922C180.442 85.3783 180.677 84.3723 180.677 83.3525C180.677 82.3326 180.442 81.3266 179.992 80.4127C179.555 79.5874 178.894 78.9036 178.086 78.4404C177.242 77.9884 176.3 77.752 175.343 77.752C174.387 77.752 173.445 77.9884 172.6 78.4404C171.794 78.9086 171.131 79.5909 170.685 80.4127C170.223 81.323 169.982 82.3304 169.982 83.3525C169.982 84.3745 170.223 85.3819 170.685 86.2922C171.13 87.1194 171.793 87.808 172.6 88.2831C173.441 88.7472 174.384 88.9906 175.343 88.9906C176.302 88.9906 177.246 88.7472 178.086 88.2831ZM193.12 90.4693C191.888 89.7922 190.866 88.7841 190.169 87.5574C189.478 86.2716 189.116 84.8328 189.116 83.3711C189.116 81.9093 189.478 80.4705 190.169 79.1847C190.867 77.9637 191.889 76.9619 193.12 76.2914C194.436 75.6131 195.893 75.2593 197.372 75.2593C198.85 75.2593 200.307 75.6131 201.623 76.2914C202.845 76.9678 203.86 77.9686 204.556 79.1847C205.247 80.4705 205.609 81.9093 205.609 83.3711C205.609 84.8328 205.247 86.2716 204.556 87.5574C203.861 88.7789 202.846 89.7859 201.623 90.4693C200.311 91.1596 198.852 91.5202 197.372 91.5202C195.891 91.5202 194.432 91.1596 193.12 90.4693ZM200.124 88.2831C200.93 87.8123 201.587 87.1222 202.021 86.2922C202.479 85.3808 202.718 84.3738 202.718 83.3525C202.718 82.3311 202.479 81.3241 202.021 80.4127C201.587 79.5881 200.929 78.9042 200.124 78.4404C199.274 77.9712 198.318 77.7339 197.348 77.752C196.379 77.7313 195.422 77.9688 194.573 78.4404C193.762 78.9056 193.096 79.5885 192.649 80.4127C192.186 81.323 191.946 82.3304 191.946 83.3525C191.946 84.3745 192.186 85.3819 192.649 86.2922C193.141 87.1284 193.859 87.8061 194.721 88.2459C195.565 88.7322 196.524 88.9767 197.497 88.9529C198.431 88.954 199.349 88.7104 200.161 88.2459L200.124 88.2831ZM212.605 68.9792H215.482V91.3066H212.605V68.9792Z" fill="white"/>
</svg>
