<svg width="200" height="89" viewBox="0 0 144 49" fill="none" xmlns="http://www.w3.org/2000/svg">
<rect x="10" y="6.35547" width="34.4036" height="34.4036" rx="2.67213" fill="#48BF84"/>
<path d="M29.0684 33H25.0739V14.4778H29.0684V33ZM34.6912 17.709H19.5274V14.4778H34.6912V17.709Z" fill="white"/>
<path d="M61.6883 21.1096H54.5694V18.6587H61.6883V21.1096ZM59.6496 15.6841V26.9473C59.6496 27.2741 59.6904 27.5266 59.7721 27.7049C59.8612 27.8832 59.9987 28.0057 60.1843 28.0725C60.37 28.1394 60.6002 28.1728 60.8751 28.1728C61.0756 28.1728 61.2538 28.1654 61.4098 28.1505C61.5658 28.1357 61.6995 28.1171 61.8109 28.0948L61.7997 30.6349C61.5249 30.7315 61.2241 30.8057 60.8973 30.8577C60.578 30.9097 60.2178 30.9357 59.8167 30.9357C59.0963 30.9357 58.4687 30.8169 57.9339 30.5792C57.4066 30.3341 56.9981 29.9479 56.7084 29.4206C56.4262 28.8858 56.2851 28.1877 56.2851 27.3261V15.6841H59.6496ZM67.6923 30.7129H64.3278V18.6587H67.4917L67.6923 21.4327V30.7129ZM71.2127 21.8226C71.0493 21.8003 70.8562 21.7818 70.6334 21.7669C70.4106 21.7446 70.2101 21.7335 70.0318 21.7335C69.4451 21.7335 68.9623 21.8263 68.5835 22.012C68.2047 22.1903 67.9225 22.4576 67.7368 22.8141C67.5512 23.1706 67.4509 23.6125 67.436 24.1399L66.7787 23.8502C66.7787 22.803 66.9124 21.8709 67.1798 21.0539C67.4472 20.2369 67.8408 19.5982 68.3607 19.1377C68.8806 18.6698 69.5119 18.4358 70.2546 18.4358C70.4255 18.4358 70.6037 18.447 70.7894 18.4693C70.9825 18.4915 71.1385 18.5287 71.2573 18.5807L71.2127 21.8226ZM80.0241 22.6804C80.0241 22.1383 79.8904 21.7075 79.6231 21.3881C79.3557 21.0688 78.9286 20.9091 78.3419 20.9091C78.0077 20.9091 77.718 20.9648 77.4729 21.0762C77.2278 21.1876 77.0421 21.3473 76.9159 21.5552C76.7896 21.7558 76.7265 22.0046 76.7265 22.3017H73.362C73.362 21.5887 73.5737 20.9425 73.997 20.3632C74.4204 19.7764 75.0182 19.3085 75.7907 18.9594C76.5631 18.6104 77.4729 18.4358 78.5201 18.4358C79.456 18.4358 80.2915 18.5955 81.0268 18.9149C81.7621 19.2268 82.3414 19.6984 82.7647 20.3298C83.1881 20.9611 83.3998 21.7521 83.3998 22.7027V27.7383C83.3998 28.4513 83.4406 29.0158 83.5223 29.4317C83.6114 29.8476 83.734 30.2116 83.89 30.5235V30.7129H80.5032C80.3398 30.3712 80.2172 29.9442 80.1355 29.4317C80.0613 28.9192 80.0241 28.3993 80.0241 27.872V22.6804ZM80.4809 25.2762H78.7652C77.9483 25.2762 77.3578 25.4545 76.9939 25.811C76.6299 26.1601 76.448 26.5834 76.448 27.081C76.448 27.4598 76.5817 27.7717 76.849 28.0168C77.1164 28.2619 77.4766 28.3845 77.9297 28.3845C78.3976 28.3845 78.7987 28.2954 79.1329 28.1171C79.4745 27.9314 79.7345 27.7123 79.9127 27.4598C80.0984 27.1999 80.1875 26.9622 80.1801 26.7468L81.0491 28.1951C80.9302 28.4922 80.7706 28.8004 80.57 29.1198C80.3769 29.4391 80.1281 29.7362 79.8236 30.011C79.5191 30.2858 79.1477 30.5086 78.7095 30.6795C78.2788 30.8503 77.77 30.9357 77.1833 30.9357C76.4257 30.9357 75.735 30.7834 75.1111 30.4789C74.4872 30.167 73.9933 29.7399 73.6294 29.1978C73.2654 28.6481 73.0835 28.0206 73.0835 27.315C73.0835 26.0524 73.5514 25.0757 74.4872 24.385C75.423 23.6868 76.8156 23.3377 78.665 23.3377H80.4586L80.4809 25.2762ZM90.2616 30.7129H86.8859V18.6587H90.2616V30.7129ZM86.6854 15.5504C86.6854 15.0453 86.8562 14.6331 87.1979 14.3138C87.5395 13.987 87.9963 13.8236 88.5682 13.8236C89.1401 13.8236 89.5931 13.987 89.9273 14.3138C90.269 14.6331 90.4398 15.0453 90.4398 15.5504C90.4398 16.048 90.269 16.4602 89.9273 16.787C89.5931 17.1138 89.1401 17.2772 88.5682 17.2772C87.9963 17.2772 87.5395 17.1138 87.1979 16.787C86.8562 16.4602 86.6854 16.048 86.6854 15.5504ZM97.0453 30.7129H93.6809V18.6587H96.8448L97.0453 21.2322V30.7129ZM95.6639 24.3293C95.6639 23.1112 95.8607 22.064 96.2544 21.1876C96.648 20.3038 97.2013 19.6242 97.9143 19.1488C98.6273 18.6735 99.4555 18.4358 100.399 18.4358C101.156 18.4358 101.817 18.5844 102.382 18.8815C102.954 19.1786 103.399 19.665 103.719 20.3409C104.045 21.0093 104.209 21.9192 104.209 23.0704V30.7129H100.833V23.0481C100.833 22.5505 100.759 22.168 100.61 21.9006C100.469 21.6258 100.261 21.4364 99.9865 21.3324C99.7117 21.221 99.3738 21.1653 98.9727 21.1653C98.5642 21.1653 98.2077 21.2433 97.9032 21.3993C97.6061 21.5478 97.3573 21.7632 97.1568 22.0454C96.9636 22.3277 96.8188 22.6619 96.7223 23.0481C96.6257 23.4269 96.5774 23.8391 96.5774 24.2847L95.6639 24.3293ZM111.026 30.7129H107.65V18.6587H111.026V30.7129ZM107.45 15.5504C107.45 15.0453 107.621 14.6331 107.962 14.3138C108.304 13.987 108.761 13.8236 109.333 13.8236C109.905 13.8236 110.358 13.987 110.692 14.3138C111.033 14.6331 111.204 15.0453 111.204 15.5504C111.204 16.048 111.033 16.4602 110.692 16.787C110.358 17.1138 109.905 17.2772 109.333 17.2772C108.761 17.2772 108.304 17.1138 107.962 16.787C107.621 16.4602 107.45 16.048 107.45 15.5504ZM120.55 21.1096H113.432V18.6587H120.55V21.1096ZM118.512 15.6841V26.9473C118.512 27.2741 118.553 27.5266 118.634 27.7049C118.723 27.8832 118.861 28.0057 119.046 28.0725C119.232 28.1394 119.462 28.1728 119.737 28.1728C119.938 28.1728 120.116 28.1654 120.272 28.1505C120.428 28.1357 120.562 28.1171 120.673 28.0948L120.662 30.6349C120.387 30.7315 120.086 30.8057 119.759 30.8577C119.44 30.9097 119.08 30.9357 118.679 30.9357C117.958 30.9357 117.331 30.8169 116.796 30.5792C116.269 30.3341 115.86 29.9479 115.571 29.4206C115.288 28.8858 115.147 28.1877 115.147 27.3261V15.6841H118.512ZM129.908 18.6587H133.506L128.693 32.5177C128.589 32.8148 128.448 33.1379 128.27 33.4869C128.092 33.8434 127.854 34.1814 127.557 34.5007C127.267 34.8201 126.896 35.08 126.443 35.2806C125.997 35.4811 125.451 35.5814 124.805 35.5814C124.597 35.5814 124.415 35.574 124.259 35.5591C124.111 35.5442 123.966 35.5182 123.825 35.4811C123.684 35.4514 123.524 35.4143 123.346 35.3697V32.8296C123.428 32.8296 123.509 32.8296 123.591 32.8296C123.68 32.8371 123.762 32.8408 123.836 32.8408C124.467 32.8408 124.928 32.7442 125.218 32.5511C125.507 32.358 125.726 32.0498 125.875 31.6264L126.755 29.3203L129.908 18.6587ZM128.125 27.1813L128.582 30.8911L126.309 31.0471L121.998 18.6587H125.619L128.125 27.1813Z" fill="white"/>
<path d="M125.623 18.5293H121.956L124.944 27.0854L128.882 31.8387L133.5 18.5293H129.969L127.66 25.5914L125.623 18.5293Z" fill="#48BF84"/>
<path d="M90.0512 14.4431C89.8702 14.1336 89.6052 13.8816 89.2871 13.7163C88.9689 13.5509 88.6105 13.4788 88.2531 13.5085C87.8957 13.5381 87.554 13.6681 87.2674 13.8836C86.9808 14.0992 86.761 14.3913 86.6334 14.7264C86.5057 15.0615 86.4754 15.4259 86.546 15.7774C86.6165 16.129 86.7851 16.4535 87.0321 16.7134C87.2792 16.9732 87.5947 17.158 87.9423 17.2462C88.2899 17.3344 88.6553 17.3226 88.9964 17.212L88.4101 15.4033L90.0512 14.4431Z" fill="#48BF84"/>
</svg>
