<svg width="122" height="56" viewBox="0 0 122 56" fill="none" xmlns="http://www.w3.org/2000/svg">
<rect x="2" y="10.3379" width="32.6184" height="32.6184" rx="2.53347" fill="#48BF84"/>
<path d="M20.0791 36H16.2919V18.4389H20.0791V36ZM25.4102 21.5024H11.0332V18.4389H25.4102V21.5024Z" fill="white"/>
<path d="M51.0055 24.5708H44.256V22.247H51.0055V24.5708ZM49.0726 19.4268V30.1056C49.0726 30.4155 49.1113 30.6549 49.1888 30.8239C49.2733 30.9929 49.4035 31.1091 49.5796 31.1724C49.7556 31.2358 49.9739 31.2675 50.2345 31.2675C50.4246 31.2675 50.5936 31.2605 50.7415 31.2464C50.8893 31.2323 51.0161 31.2147 51.1217 31.1936L51.1111 33.6018C50.8506 33.6934 50.5654 33.7638 50.2556 33.8131C49.9528 33.8624 49.6113 33.887 49.231 33.887C48.548 33.887 47.9529 33.7744 47.4459 33.549C46.946 33.3167 46.5587 32.9505 46.284 32.4505C46.0165 31.9435 45.8827 31.2816 45.8827 30.4647V19.4268H49.0726ZM56.6979 33.6758H53.508V22.247H56.5078L56.6979 24.8771V33.6758ZM60.0357 25.2468C59.8808 25.2257 59.6977 25.2081 59.4865 25.194C59.2752 25.1729 59.0851 25.1623 58.9161 25.1623C58.3598 25.1623 57.9021 25.2503 57.5429 25.4264C57.1838 25.5954 56.9162 25.8489 56.7402 26.1869C56.5641 26.5249 56.4691 26.9439 56.455 27.4438L55.8318 27.1692C55.8318 26.1763 55.9585 25.2926 56.212 24.518C56.4655 23.7434 56.8388 23.1378 57.3317 22.7012C57.8246 22.2576 58.4232 22.0358 59.1273 22.0358C59.2893 22.0358 59.4583 22.0463 59.6343 22.0675C59.8174 22.0886 59.9653 22.1238 60.078 22.1731L60.0357 25.2468ZM68.3899 26.0601C68.3899 25.5461 68.2631 25.1377 68.0096 24.8349C67.7561 24.5321 67.3512 24.3807 66.7949 24.3807C66.4781 24.3807 66.2034 24.4335 65.971 24.5391C65.7387 24.6448 65.5626 24.7961 65.4429 24.9933C65.3232 25.1834 65.2634 25.4193 65.2634 25.701H62.0734C62.0734 25.025 62.2741 24.4124 62.6755 23.8631C63.0769 23.3068 63.6438 22.8632 64.3761 22.5322C65.1084 22.2013 65.971 22.0358 66.9639 22.0358C67.8512 22.0358 68.6434 22.1872 69.3405 22.49C70.0377 22.7857 70.5869 23.2329 70.9883 23.8314C71.3897 24.43 71.5904 25.1799 71.5904 26.0813V30.8556C71.5904 31.5316 71.6291 32.0667 71.7065 32.4611C71.791 32.8554 71.9072 33.2005 72.0551 33.4962V33.6758H68.8441C68.6892 33.3519 68.573 32.947 68.4955 32.4611C68.4251 31.9752 68.3899 31.4823 68.3899 30.9823V26.0601ZM68.823 28.5212H67.1963C66.4217 28.5212 65.8619 28.6902 65.5169 29.0282C65.1718 29.3592 64.9993 29.7606 64.9993 30.2324C64.9993 30.5915 65.126 30.8873 65.3795 31.1196C65.633 31.352 65.9746 31.4682 66.4041 31.4682C66.8477 31.4682 67.228 31.3837 67.5449 31.2147C67.8688 31.0387 68.1153 30.8309 68.2843 30.5915C68.4603 30.345 68.5448 30.1197 68.5378 29.9155L69.3616 31.2886C69.249 31.5703 69.0976 31.8625 68.9075 32.1653C68.7244 32.4681 68.4885 32.7498 68.1998 33.0103C67.911 33.2709 67.559 33.4821 67.1435 33.6441C66.7351 33.8061 66.2527 33.887 65.6964 33.887C64.9782 33.887 64.3233 33.7427 63.7318 33.454C63.1403 33.1582 62.672 32.7533 62.3269 32.2393C61.9819 31.7182 61.8094 31.1232 61.8094 30.4542C61.8094 29.2571 62.253 28.3311 63.1403 27.6762C64.0275 27.0143 65.3479 26.6833 67.1012 26.6833H68.8018L68.823 28.5212ZM78.0961 33.6758H74.8956V22.247H78.0961V33.6758ZM74.7055 19.3001C74.7055 18.8212 74.8674 18.4304 75.1914 18.1276C75.5153 17.8178 75.9483 17.6629 76.4906 17.6629C77.0328 17.6629 77.4623 17.8178 77.7792 18.1276C78.1031 18.4304 78.2651 18.8212 78.2651 19.3001C78.2651 19.7719 78.1031 20.1627 77.7792 20.4725C77.4623 20.7824 77.0328 20.9373 76.4906 20.9373C75.9483 20.9373 75.5153 20.7824 75.1914 20.4725C74.8674 20.1627 74.7055 19.7719 74.7055 19.3001ZM84.5279 33.6758H81.338V22.247H84.3377L84.5279 24.687V33.6758ZM83.2181 27.6234C83.2181 26.4686 83.4047 25.4757 83.7779 24.6448C84.1511 23.8068 84.6757 23.1625 85.3517 22.7118C86.0278 22.2611 86.8129 22.0358 87.7072 22.0358C88.4255 22.0358 89.0522 22.1766 89.5873 22.4583C90.1296 22.74 90.5521 23.2012 90.8549 23.842C91.1647 24.4757 91.3196 25.3384 91.3196 26.4298V33.6758H88.1191V26.4087C88.1191 25.9369 88.0487 25.5743 87.9079 25.3208C87.7741 25.0602 87.5769 24.8806 87.3164 24.7821C87.0558 24.6764 86.7354 24.6236 86.3552 24.6236C85.9679 24.6236 85.6299 24.6976 85.3412 24.8454C85.0595 24.9863 84.8236 25.1905 84.6335 25.4581C84.4504 25.7257 84.3131 26.0425 84.2215 26.4087C84.13 26.7678 84.0842 27.1587 84.0842 27.5812L83.2181 27.6234ZM97.7831 33.6758H94.5826V22.247H97.7831V33.6758ZM94.3925 19.3001C94.3925 18.8212 94.5545 18.4304 94.8784 18.1276C95.2023 17.8178 95.6354 17.6629 96.1776 17.6629C96.7198 17.6629 97.1493 17.8178 97.4662 18.1276C97.7901 18.4304 97.9521 18.8212 97.9521 19.3001C97.9521 19.7719 97.7901 20.1627 97.4662 20.4725C97.1493 20.7824 96.7198 20.9373 96.1776 20.9373C95.6354 20.9373 95.2023 20.7824 94.8784 20.4725C94.5545 20.1627 94.3925 19.7719 94.3925 19.3001ZM106.813 24.5708H100.064V22.247H106.813V24.5708ZM104.88 19.4268V30.1056C104.88 30.4155 104.919 30.6549 104.997 30.8239C105.081 30.9929 105.211 31.1091 105.387 31.1724C105.563 31.2358 105.782 31.2675 106.042 31.2675C106.232 31.2675 106.401 31.2605 106.549 31.2464C106.697 31.2323 106.824 31.2147 106.929 31.1936L106.919 33.6018C106.658 33.6934 106.373 33.7638 106.063 33.8131C105.761 33.8624 105.419 33.887 105.039 33.887C104.356 33.887 103.761 33.7744 103.254 33.549C102.754 33.3167 102.366 32.9505 102.092 32.4505C101.824 31.9435 101.69 31.2816 101.69 30.4647V19.4268H104.88ZM115.685 22.247H119.097L114.534 35.3869C114.435 35.6686 114.301 35.9749 114.132 36.3059C113.963 36.6439 113.738 36.9643 113.456 37.2671C113.182 37.5699 112.83 37.8163 112.4 38.0065C111.978 38.1966 111.46 38.2916 110.847 38.2916C110.65 38.2916 110.478 38.2846 110.33 38.2705C110.189 38.2564 110.052 38.2318 109.918 38.1966C109.784 38.1684 109.633 38.1332 109.464 38.091V35.6827C109.541 35.6827 109.619 35.6827 109.696 35.6827C109.781 35.6897 109.858 35.6932 109.928 35.6932C110.527 35.6932 110.964 35.6017 111.238 35.4186C111.513 35.2355 111.721 34.9433 111.861 34.5419L112.696 32.3555L115.685 22.247ZM113.995 30.3274L114.428 33.8448L112.273 33.9927L108.186 22.247H111.618L113.995 30.3274Z" fill="white"/>
<path d="M111.622 21.8789H108.146L110.978 29.991L114.712 34.4977L119.09 21.8789H115.743L113.554 28.5746L111.622 21.8789Z" fill="#48BF84"/>
<path d="M77.8967 18.0056C77.725 17.7122 77.4739 17.4733 77.1722 17.3165C76.8705 17.1597 76.5307 17.0914 76.1919 17.1194C75.8531 17.1475 75.5291 17.2708 75.2574 17.4752C74.9856 17.6795 74.7772 17.9565 74.6562 18.2742C74.5352 18.5919 74.5064 18.9374 74.5733 19.2707C74.6402 19.604 74.8 19.9116 75.0343 20.158C75.2685 20.4044 75.5677 20.5796 75.8972 20.6632C76.2267 20.7469 76.5732 20.7356 76.8966 20.6308L76.3408 18.916L77.8967 18.0056Z" fill="#48BF84"/>
</svg>
