<svg width="24" height="24" viewBox="0 0 24 24" fill="none" xmlns="http://www.w3.org/2000/svg">
<path fill-rule="evenodd" clip-rule="evenodd" d="M10.2073 8.71739C10.0928 8.96867 10.2037 9.2652 10.455 9.37971C10.7063 9.49423 11.0028 9.38336 11.1173 9.13208L13.6055 3.67231C13.72 3.42103 13.6091 3.1245 13.3578 3.00999C13.1066 2.89547 12.81 3.00634 12.6955 3.25762L10.2073 8.71739ZM13.3536 10.7683C13.1583 10.9635 13.1583 11.2801 13.3536 11.4754C13.5488 11.6706 13.8654 11.6706 14.0607 11.4754L18.3033 7.23274C18.4986 7.03748 18.4986 6.7209 18.3033 6.52564C18.108 6.33037 17.7915 6.33037 17.5962 6.52564L13.3536 10.7683ZM12 15C12 17.2091 10.2091 19 8 19C5.79086 19 4 17.2091 4 15C4 12.7909 5.79086 11 8 11C10.2091 11 12 12.7909 12 15ZM13 15C13 17.7614 10.7614 20 8 20C5.23858 20 3 17.7614 3 15C3 12.2386 5.23858 10 8 10C10.7614 10 13 12.2386 13 15ZM14 14.5508C14 14.2746 14.2239 14.0508 14.5 14.0508H20.5C20.7761 14.0508 21 14.2746 21 14.5508C21 14.8269 20.7761 15.0508 20.5 15.0508H14.5C14.2239 15.0508 14 14.8269 14 14.5508Z" fill="white"/>
</svg>
