<svg width="104" height="29" viewBox="0 0 104 29" fill="none" xmlns="http://www.w3.org/2000/svg">
<path d="M10.5249 7.18182V10.8892H0.54581V7.18182H10.5249ZM2.63636 3.39205H7.67223V18.0259C7.67223 18.3349 7.72029 18.5855 7.81641 18.7777C7.91939 18.9631 8.067 19.0969 8.25923 19.1793C8.45147 19.2549 8.68146 19.2926 8.94922 19.2926C9.14145 19.2926 9.34399 19.2754 9.55682 19.2411C9.77652 19.1999 9.94129 19.1656 10.0511 19.1381L10.8132 22.7734C10.5729 22.8421 10.2331 22.9279 9.79368 23.0309C9.36115 23.1339 8.8428 23.1991 8.23864 23.2266C7.05777 23.2815 6.0451 23.1442 5.20064 22.8146C4.36304 22.4782 3.72112 21.9564 3.27486 21.2493C2.83546 20.5421 2.62263 19.6531 2.63636 18.582V3.39205ZM13.0943 23V7.18182H17.986V10.0653H18.1507C18.4391 9.02178 18.9094 8.24598 19.5616 7.73793C20.2138 7.22301 20.9725 6.96555 21.8375 6.96555C22.071 6.96555 22.3113 6.98272 22.5584 7.01705C22.8056 7.04451 23.0356 7.08913 23.2484 7.15092V11.5277C23.0081 11.4453 22.6923 11.3801 22.301 11.332C21.9165 11.284 21.5732 11.2599 21.2711 11.2599C20.6738 11.2599 20.1349 11.3938 19.6543 11.6616C19.1806 11.9225 18.8064 12.2898 18.5318 12.7635C18.264 13.2303 18.1301 13.7796 18.1301 14.4112V23H13.0943ZM29.1648 23.2678C28.1555 23.2678 27.2596 23.0996 26.4769 22.7631C25.7011 22.4199 25.0866 21.9049 24.6335 21.2184C24.1873 20.525 23.9641 19.6565 23.9641 18.6129C23.9641 17.7341 24.1186 16.9927 24.4276 16.3885C24.7365 15.7843 25.1622 15.2934 25.7045 14.9158C26.2469 14.5382 26.8717 14.2533 27.5788 14.0611C28.286 13.862 29.0412 13.7281 29.8445 13.6594C30.7438 13.5771 31.4682 13.4912 32.0174 13.402C32.5666 13.3059 32.9648 13.172 33.212 13.0004C33.466 12.8219 33.593 12.5713 33.593 12.2486V12.1971C33.593 11.6684 33.4111 11.2599 33.0472 10.9716C32.6834 10.6832 32.1925 10.5391 31.5746 10.5391C30.9086 10.5391 30.3731 10.6832 29.968 10.9716C29.563 11.2599 29.3055 11.6581 29.1957 12.1662L24.5511 12.0014C24.6884 11.0402 25.042 10.1821 25.6119 9.42685C26.1886 8.66477 26.9781 8.06747 27.9805 7.63494C28.9897 7.19555 30.2015 6.97585 31.6158 6.97585C32.625 6.97585 33.5553 7.096 34.4066 7.33629C35.2579 7.56972 35.9994 7.913 36.631 8.36612C37.2627 8.81238 37.7501 9.36162 38.0934 10.0138C38.4435 10.6661 38.6186 11.411 38.6186 12.2486V23H33.8814V20.7962H33.7578C33.4763 21.3317 33.1159 21.7848 32.6765 22.1555C32.244 22.5263 31.7325 22.8043 31.142 22.9897C30.5585 23.1751 29.8994 23.2678 29.1648 23.2678ZM30.7198 19.9723C31.2622 19.9723 31.7496 19.8625 32.1822 19.6428C32.6216 19.4231 32.9717 19.121 33.2326 18.7365C33.4935 18.3452 33.6239 17.892 33.6239 17.3771V15.8736C33.4798 15.9491 33.3047 16.0178 33.0987 16.0795C32.8996 16.1413 32.6799 16.1997 32.4396 16.2546C32.1993 16.3095 31.9522 16.3576 31.6982 16.3988C31.4441 16.44 31.2004 16.4777 30.967 16.5121C30.4933 16.5876 30.0882 16.7043 29.7518 16.8622C29.4222 17.0201 29.1682 17.2261 28.9897 17.4801C28.8181 17.7273 28.7322 18.0225 28.7322 18.3658C28.7322 18.8875 28.9176 19.2857 29.2884 19.5604C29.666 19.835 30.1431 19.9723 30.7198 19.9723ZM41.6978 23V7.18182H46.7337V23H41.6978ZM44.2209 5.33842C43.5137 5.33842 42.9061 5.105 42.3981 4.63814C41.89 4.16442 41.636 3.59458 41.636 2.92862C41.636 2.26953 41.89 1.70656 42.3981 1.2397C42.9061 0.765979 43.5137 0.529118 44.2209 0.529118C44.9349 0.529118 45.5425 0.765979 46.0437 1.2397C46.5517 1.70656 46.8058 2.26953 46.8058 2.92862C46.8058 3.59458 46.5517 4.16442 46.0437 4.63814C45.5425 5.105 44.9349 5.33842 44.2209 5.33842ZM54.9749 13.9787V23H49.939V7.18182H54.7277V10.0859H54.9028C55.2529 9.1179 55.8502 8.35926 56.6947 7.81001C57.5392 7.25391 58.545 6.97585 59.7121 6.97585C60.8243 6.97585 61.7889 7.22644 62.6059 7.72763C63.4298 8.22195 64.0683 8.91536 64.5214 9.80788C64.9814 10.6935 65.2079 11.7302 65.2011 12.918V23H60.1652V13.9066C60.1721 13.0278 59.949 12.3413 59.4958 11.8469C59.0496 11.3526 58.4282 11.1055 57.6318 11.1055C57.1032 11.1055 56.6363 11.2222 56.2313 11.4556C55.8331 11.6822 55.5241 12.0083 55.3044 12.4339C55.0916 12.8596 54.9817 13.3745 54.9749 13.9787ZM68.3189 23V7.18182H73.3548V23H68.3189ZM70.842 5.33842C70.1348 5.33842 69.5272 5.105 69.0192 4.63814C68.5111 4.16442 68.2571 3.59458 68.2571 2.92862C68.2571 2.26953 68.5111 1.70656 69.0192 1.2397C69.5272 0.765979 70.1348 0.529118 70.842 0.529118C71.556 0.529118 72.1636 0.765979 72.6648 1.2397C73.1728 1.70656 73.4268 2.26953 73.4268 2.92862C73.4268 3.59458 73.1728 4.16442 72.6648 4.63814C72.1636 5.105 71.556 5.33842 70.842 5.33842ZM85.4887 7.18182V10.8892H75.5097V7.18182H85.4887ZM77.6002 3.39205H82.6361V18.0259C82.6361 18.3349 82.6842 18.5855 82.7803 18.7777C82.8833 18.9631 83.0309 19.0969 83.2231 19.1793C83.4153 19.2549 83.6453 19.2926 83.9131 19.2926C84.1053 19.2926 84.3079 19.2754 84.5207 19.2411C84.7404 19.1999 84.9052 19.1656 85.015 19.1381L85.7771 22.7734C85.5368 22.8421 85.1969 22.9279 84.7575 23.0309C84.325 23.1339 83.8067 23.1991 83.2025 23.2266C82.0216 23.2815 81.009 23.1442 80.1645 22.8146C79.3269 22.4782 78.685 21.9564 78.2387 21.2493C77.7993 20.5421 77.5865 19.6531 77.6002 18.582V3.39205ZM91.1373 28.9318C90.5332 28.9318 89.9633 28.8838 89.4278 28.7876C88.8923 28.6984 88.4323 28.5782 88.0479 28.4272L89.1601 24.7713C89.6544 24.9361 90.1006 25.0322 90.4988 25.0597C90.9039 25.0871 91.2506 25.0219 91.539 24.864C91.8342 24.7129 92.0608 24.4418 92.2187 24.0504L92.4143 23.5767L86.7915 7.18182H92.0642L94.9786 18.4688H95.1434L98.099 7.18182H103.403L97.4399 24.5138C97.1515 25.3789 96.743 26.141 96.2144 26.8001C95.6926 27.466 95.0164 27.9878 94.1856 28.3654C93.3618 28.743 92.3457 28.9318 91.1373 28.9318Z" fill="white"/>
</svg>
