<svg width="134" height="33" viewBox="0 0 134 33" fill="none" xmlns="http://www.w3.org/2000/svg">
<path d="M9.72871 31.5875L6.5 25.9801L11.2383 17.7734L14.2493 23.0031L32.0238 22.9936L26.9802 31.665L9.72871 31.5875Z" fill="#1D1D1D"/>
<path d="M35.1872 17.4327L31.9585 23.0401L22.5014 23.0289L25.5127 17.7993L16.6172 2.36914L26.6283 2.41319L35.1872 17.4327Z" fill="#1D1D1D"/>
<path d="M10.2317 2.32812H16.6892L21.408 10.5462L15.3855 10.5459L6.50663 25.9856L1.53906 17.2702L10.2317 2.32812Z" fill="#1D1D1D"/>
<path fill-rule="evenodd" clip-rule="evenodd" d="M17.4714 1.03154L17.4521 0.998047H9.46368L0 17.2652L6.49632 28.6625L6.50429 28.6487L8.96017 32.9138L27.7419 32.998L34.3376 21.6582H34.2938L36.7303 17.4267L27.4122 1.07527L17.4714 1.03154ZM23.6509 11.8797H23.7007L19.0048 3.7021L25.8666 3.73227L33.6667 17.4198L31.2253 21.66L24.8272 21.6634L27.0579 17.7894L23.6509 11.8797ZM15.8446 3.66178L19.0465 9.21587L14.6132 9.21577L7.02333 22.4136L6.5056 23.3104L3.06767 17.2788L10.9896 3.66178H15.8446ZM12.7661 17.7601L16.1479 11.8795L20.5824 11.8797L23.9898 17.7902L21.7585 21.6651L15.0165 21.6688L12.7661 17.7601ZM8.03711 25.9832L9.3237 23.746L11.237 20.4323L13.483 24.3333L20.2241 24.3296L20.2132 24.3486L29.6909 24.3598L26.2198 30.3275L10.4979 30.2569L8.03711 25.9832Z" fill="#C6FF53"/>
<path d="M85.1049 10.7396C86.0145 10.7396 86.7534 9.99843 86.7534 9.06733C86.7534 8.13617 86.0145 7.41406 85.1049 7.41406C84.1765 7.41406 83.4375 8.13617 83.4375 9.06733C83.4375 9.99843 84.1765 10.7396 85.1049 10.7396ZM83.627 21.7233H86.5639V12.2218H83.627V21.7233Z" fill="#1D1D1D"/>
<path d="M88.2812 26.2941H91.1618V20.7832C91.7113 21.5053 92.9621 21.9993 94.2697 21.9993C97.0933 21.9993 98.799 19.8331 98.7235 16.8306C98.6471 13.771 96.8848 11.9277 94.2507 11.9277C92.9052 11.9277 91.6355 12.5168 91.1049 13.391L90.9534 12.2318H88.2812V26.2941ZM91.2186 16.9825C91.2186 15.5573 92.1662 14.6072 93.5306 14.6072C94.914 14.6072 95.7858 15.5764 95.7858 16.9825C95.7858 18.3887 94.914 19.358 93.5306 19.358C92.1662 19.358 91.2186 18.4078 91.2186 16.9825Z" fill="#1D1D1D"/>
<path d="M99.0391 18.7309C99.1145 20.6502 100.631 21.9803 103.019 21.9803C105.312 21.9803 106.904 20.7642 106.904 18.8068C106.904 17.4006 106.07 16.4695 104.515 16.0894L102.829 15.6713C102.222 15.5193 101.843 15.3673 101.843 14.8732C101.843 14.3792 102.241 14.0561 102.829 14.0561C103.492 14.0561 103.928 14.4932 103.909 15.1393H106.543C106.468 13.1629 104.97 11.9277 102.886 11.9277C100.782 11.9277 99.2098 13.1819 99.2098 15.0822C99.2098 16.3555 99.9106 17.4006 101.787 17.8947L103.454 18.3318C103.947 18.4648 104.155 18.6928 104.155 19.0158C104.155 19.4909 103.719 19.795 102.981 19.795C102.128 19.795 101.674 19.396 101.674 18.7309H99.0391Z" fill="#1D1D1D"/>
<path d="M111.378 21.9712C112.533 21.9712 113.69 21.4391 114.277 20.66L114.467 21.7241H117.215V12.2227H114.296V17.1634C114.296 18.5886 113.879 19.3678 112.533 19.3678C111.491 19.3678 110.809 18.8927 110.809 17.1254V12.2227H107.891V18.1896C107.891 20.451 109.141 21.9712 111.378 21.9712Z" fill="#1D1D1D"/>
<path d="M121.836 21.7288V16.541C121.836 14.9448 122.689 14.4887 123.523 14.4887C124.452 14.4887 125.058 15.0588 125.058 16.2371V21.7288H127.938V16.541C127.938 14.9258 128.772 14.4697 129.606 14.4697C130.535 14.4697 131.161 15.0398 131.161 16.2371V21.7288H134.003V15.5149C134.003 13.3485 132.866 11.9043 130.421 11.9043C129.057 11.9043 127.938 12.5694 127.446 13.5956C126.877 12.5694 125.892 11.9043 124.319 11.9043C123.276 11.9043 122.309 12.3794 121.742 13.1395L121.627 12.2274H118.898V21.7288H121.836Z" fill="#1D1D1D"/>
<path d="M45.0766 7.66797H41.9688V21.7302H50.5723V18.9748H45.0766V7.66797Z" fill="#1D1D1D"/>
<path d="M50.875 16.9622C50.875 19.9646 52.8838 21.96 55.9159 21.96C58.929 21.96 60.9378 19.9646 60.9378 16.9622C60.9378 13.9597 58.929 11.9453 55.9159 11.9453C52.8838 11.9453 50.875 13.9597 50.875 16.9622ZM53.8123 16.9432C53.8123 15.5179 54.6462 14.5678 55.9159 14.5678C57.1666 14.5678 58.0004 15.5179 58.0004 16.9432C58.0004 18.3874 57.1666 19.3375 55.9159 19.3375C54.6462 19.3375 53.8123 18.3874 53.8123 16.9432Z" fill="#1D1D1D"/>
<path d="M61.3972 16.8109C61.3972 19.6804 63.2544 21.6187 65.8885 21.6187C67.1582 21.6187 68.2574 21.1627 68.8069 20.4215V21.7328C68.8069 23.044 67.992 23.918 66.5518 23.918C65.2632 23.918 64.3725 23.31 64.3156 22.2268H61.3594C61.6246 24.8302 63.6334 26.5785 66.3813 26.5785C69.6218 26.5785 71.6684 24.4692 71.6684 21.1247V12.2312H69.0343L68.8827 13.2004C68.3521 12.4212 67.2341 11.9082 65.9454 11.9082C63.2923 11.9082 61.3972 13.9035 61.3972 16.8109ZM64.3535 16.735C64.3535 15.3667 65.2632 14.4546 66.4191 14.4546C67.7646 14.4546 68.75 15.3477 68.75 16.735C68.75 18.1222 67.7836 19.0723 66.4381 19.0723C65.2821 19.0723 64.3535 18.1222 64.3535 16.735Z" fill="#1D1D1D"/>
<path d="M72.5312 16.9622C72.5312 19.9646 74.54 21.96 77.5721 21.96C80.5852 21.96 82.594 19.9646 82.594 16.9622C82.594 13.9597 80.5852 11.9453 77.5721 11.9453C74.54 11.9453 72.5312 13.9597 72.5312 16.9622ZM75.4686 16.9432C75.4686 15.5179 76.3024 14.5678 77.5721 14.5678C78.8229 14.5678 79.6567 15.5179 79.6567 16.9432C79.6567 18.3874 78.8229 19.3375 77.5721 19.3375C76.3024 19.3375 75.4686 18.3874 75.4686 16.9432Z" fill="#1D1D1D"/>
</svg>
