<svg width="160" height="33" viewBox="0 0 160 33" fill="none" xmlns="http://www.w3.org/2000/svg">
<path d="M22.5832 27.4813L1.26293 12.7116C-0.897617 11.2149 -0.163174 8.0986 2.53097 7.36579L25.1905 1.18935C25.6705 1.0154 26.1849 0.958937 26.691 1.02464C27.1971 1.09034 27.6803 1.27632 28.1005 1.56713C28.5206 1.85794 28.8657 2.2452 29.107 2.69677C29.3482 3.14833 29.4788 3.65118 29.4879 4.16358L28.145 25.1086C27.9857 27.5947 24.7437 28.978 22.5832 27.4813Z" fill="#1D1D1D"/>
<path d="M15.8184 31.1303L3.25799 6.46154C2.97087 5.8972 2.84453 5.26417 2.89289 4.63229C2.94125 4.00041 3.16243 3.39421 3.53204 2.88056C3.90167 2.3669 4.40535 1.96574 4.98757 1.72131C5.56979 1.47687 6.20791 1.39868 6.83157 1.49534L30.1091 5.10332C30.645 5.1864 31.1536 5.39604 31.5932 5.71501C32.0327 6.03399 32.3906 6.45318 32.6374 6.93811C32.8841 7.42305 33.0128 7.95988 33.0127 8.50448C33.0126 9.04907 32.8837 9.58588 32.6369 10.0707L21.9138 31.1315C21.6259 31.6942 21.189 32.1664 20.6512 32.4959C20.1135 32.8255 19.4957 32.9998 18.8658 32.9997C18.2358 32.9995 17.618 32.8251 17.0804 32.4953C16.5428 32.1654 16.1061 31.6931 15.8184 31.1303Z" fill="#1D1D1D"/>
<path d="M29.4281 4.99394L17.8246 3.19531L3.57812 7.0802L9.2646 18.2527L22.5806 27.4809C22.8743 27.6823 23.1975 27.8365 23.5384 27.9381L28.5962 18.0044L29.4281 4.99394Z" fill="#1D1D1D"/>
<path d="M88.2031 7.87564C88.2031 7.44248 88.331 7.01906 88.5705 6.65889C88.8102 6.29874 89.1507 6.01802 89.5491 5.85225C89.9475 5.6865 90.3858 5.64313 90.8088 5.72763C91.2317 5.81214 91.6202 6.02073 91.9251 6.32701C92.2301 6.6333 92.4376 7.02355 92.5218 7.44838C92.6059 7.87322 92.5628 8.31358 92.3977 8.71377C92.2327 9.11395 91.9532 9.456 91.5948 9.69665C91.2362 9.9373 90.8146 10.0657 90.3834 10.0657C89.8069 10.0598 89.2558 9.82721 88.8482 9.41776C88.4406 9.0083 88.2089 8.45467 88.2031 7.87564ZM88.5667 11.1363H92.2013V23.303H88.5667V11.1363Z" fill="#1D1D1D"/>
<path d="M107.893 17.2174C107.935 18.0216 107.819 18.8263 107.55 19.5851C107.282 20.3439 106.866 21.0419 106.329 21.6391C105.79 22.2361 105.14 22.7204 104.415 23.0642C103.69 23.408 102.904 23.6044 102.103 23.6421C101.43 23.6789 100.756 23.5648 100.132 23.3081C99.5075 23.0512 98.9478 22.6582 98.4933 22.1574V28.1679H94.8594V11.1341H98.4933V12.2775C98.9479 11.7768 99.5076 11.384 100.132 11.1274C100.756 10.8709 101.43 10.7569 102.103 10.7939C102.904 10.8315 103.69 11.0278 104.415 11.3714C105.14 11.7151 105.79 12.1993 106.328 12.7963C106.866 13.3933 107.282 14.0912 107.55 14.85C107.819 15.6087 107.935 16.4133 107.893 17.2174ZM104.259 17.2174C104.245 16.6478 104.064 16.0951 103.738 15.6283C103.413 15.1616 102.957 14.8017 102.429 14.5936C101.901 14.3855 101.323 14.3386 100.769 14.4585C100.214 14.5785 99.707 14.86 99.311 15.268C98.9149 15.6759 98.6474 16.1922 98.542 16.7521C98.4366 17.312 98.498 17.8907 98.7185 18.4157C98.9389 18.9408 99.3086 19.3888 99.7813 19.7039C100.254 20.019 100.809 20.1869 101.376 20.1869C101.766 20.2046 102.155 20.1392 102.517 19.9952C102.88 19.8512 103.208 19.6317 103.48 19.3513C103.753 19.0709 103.963 18.7358 104.097 18.368C104.231 18.0003 104.287 17.6081 104.259 17.2174Z" fill="#1D1D1D"/>
<path d="M119.123 19.6465C119.123 22.4453 116.7 23.6376 114.083 23.6376C113.026 23.7337 111.965 23.5089 111.036 22.9925C110.108 22.4762 109.355 21.6918 108.875 20.7409L112.024 18.9411C112.152 19.3807 112.426 19.7627 112.801 20.0234C113.176 20.2841 113.629 20.4076 114.083 20.3733C114.956 20.3733 115.391 20.1048 115.391 19.619C115.391 18.2799 109.431 18.9865 109.431 14.7757C109.431 12.1238 111.659 10.7858 114.184 10.7858C115.132 10.756 116.069 10.9817 116.9 11.4395C117.731 11.8973 118.424 12.5705 118.908 13.3889L115.808 15.0682C115.672 14.7488 115.446 14.4765 115.157 14.2856C114.868 14.0945 114.53 13.9932 114.184 13.994C113.555 13.994 113.167 14.2327 113.167 14.6755C113.164 16.0719 119.123 15.1469 119.123 19.6465Z" fill="#1D1D1D"/>
<path d="M132.395 11.1348V23.3015H128.761V22.1557C128.341 22.6604 127.808 23.0581 127.205 23.3163C126.604 23.5743 125.949 23.6854 125.296 23.6404C122.849 23.6404 120.766 21.8883 120.766 18.6026V11.1348H124.4V18.0703C124.369 18.3603 124.402 18.6536 124.496 18.9295C124.59 19.2054 124.742 19.4576 124.943 19.6684C125.143 19.8792 125.387 20.0434 125.657 20.1497C125.928 20.2562 126.218 20.302 126.508 20.2843C127.84 20.2843 128.765 19.5061 128.765 17.7779V11.1348H132.395Z" fill="#1D1D1D"/>
<path d="M153.234 15.8277V23.2991H149.6V16.1452C149.6 14.929 149.018 14.1496 147.856 14.1496C146.643 14.1496 145.966 15.0018 145.966 16.4376V23.2991H142.331V16.1452C142.331 14.929 141.75 14.1496 140.586 14.1496C139.375 14.1496 138.697 15.0018 138.697 16.4376V23.2991H135.062V11.1324H138.703V12.2472C139.079 11.7508 139.574 11.3572 140.141 11.1021C140.707 10.8472 141.33 10.739 141.949 10.7875C142.571 10.757 143.191 10.8888 143.747 11.1702C144.303 11.4515 144.778 11.8727 145.123 12.3928C145.526 11.8487 146.06 11.4159 146.674 11.1352C147.289 10.8544 147.965 10.7348 148.638 10.7875C151.418 10.7923 153.234 12.7867 153.234 15.8277Z" fill="#1D1D1D"/>
<path d="M156.307 11.0631C157.797 11.0631 159.005 9.85011 159.005 8.35381C159.005 6.85752 157.797 5.64453 156.307 5.64453C154.817 5.64453 153.609 6.85752 153.609 8.35381C153.609 9.85011 154.817 11.0631 156.307 11.0631Z" fill="#1D1D1D"/>
<path d="M38.5781 5.54492H42.2135V23.3081H38.5781V5.54492ZM44.2718 17.2247C44.2679 15.9491 44.6408 14.701 45.3436 13.6386C46.0463 12.576 47.0471 11.7467 48.2194 11.2558C49.3918 10.7649 50.6826 10.6344 51.9289 10.8808C53.1751 11.1272 54.3205 11.7393 55.22 12.64C56.1195 13.5405 56.7328 14.6887 56.982 15.9395C57.2312 17.1903 57.1053 18.4872 56.6202 19.6661C56.1351 20.8449 55.3126 21.8527 54.2568 22.5618C53.201 23.2708 51.9595 23.6494 50.6893 23.6494C49.8458 23.6584 49.0089 23.4986 48.2275 23.1792C47.4462 22.8598 46.736 22.3872 46.1386 21.7891C45.5411 21.1909 45.0683 20.4792 44.7478 19.6955C44.4273 18.9119 44.2655 18.0719 44.2718 17.2247ZM53.4797 17.2247C53.4654 16.6744 53.29 16.1407 52.9752 15.6901C52.6605 15.2395 52.2205 14.8921 51.7101 14.6914C51.1997 14.4907 50.6419 14.4455 50.1061 14.5616C49.5704 14.6776 49.0807 14.9499 48.6981 15.344C48.3155 15.7382 48.0573 16.2368 47.9555 16.7776C47.8537 17.3185 47.9129 17.8775 48.1259 18.3847C48.3387 18.8918 48.6958 19.3247 49.1524 19.6292C49.609 19.9336 50.1449 20.0961 50.6929 20.0963C51.0682 20.1071 51.4417 20.0395 51.7896 19.8981C52.1377 19.7568 52.4528 19.5444 52.7151 19.2746C52.9774 19.0049 53.1812 18.6834 53.3136 18.3306C53.4459 17.9777 53.5042 17.6012 53.4845 17.2247H53.4797ZM71.6019 11.1378V22.697C71.6019 26.7848 68.4276 28.5118 65.2058 28.5118C64.0718 28.5977 62.9361 28.3685 61.9231 27.849C60.9102 27.3297 60.0591 26.5402 59.4634 25.5674L62.564 23.7664C62.8142 24.2741 63.213 24.693 63.7068 24.9672C64.2005 25.2412 64.7658 25.3573 65.327 25.3C65.6853 25.3491 66.05 25.3169 66.3941 25.2055C66.7383 25.0942 67.0531 24.9068 67.3155 24.6569C67.5778 24.4071 67.7809 24.1013 67.9098 23.762C68.0388 23.4228 68.0902 23.0587 68.0604 22.697V21.5775C67.6347 22.1002 67.0929 22.5156 66.4786 22.7902C65.8642 23.0648 65.1943 23.1911 64.5225 23.1589C62.9235 23.1089 61.4064 22.4358 60.2929 21.2822C59.1794 20.1285 58.5566 18.585 58.5566 16.9783C58.5566 15.3714 59.1794 13.8279 60.2929 12.6742C61.4064 11.5206 62.9235 10.8475 64.5225 10.7976C65.1943 10.7653 65.8642 10.8915 66.4786 11.1662C67.0929 11.4408 67.6347 11.8562 68.0604 12.379V11.1378H71.6019ZM68.0652 16.9777C68.0892 16.39 67.9375 15.8086 67.6298 15.3082C67.3222 14.8077 66.8725 14.4111 66.3385 14.1694C65.8047 13.9278 65.2109 13.852 64.6338 13.9519C64.0567 14.0518 63.5225 14.3227 63.0999 14.7299C62.6773 15.1371 62.3857 15.6619 62.2626 16.2368C62.1393 16.8119 62.1902 17.4107 62.4086 17.9565C62.627 18.5021 63.003 18.9698 63.4881 19.2992C63.9732 19.6286 64.5454 19.8047 65.1309 19.8051C65.5128 19.832 65.8961 19.7784 66.256 19.6477C66.616 19.517 66.9447 19.3121 67.2211 19.046C67.4974 18.7801 67.7154 18.4589 67.8607 18.1034C68.0061 17.7477 68.0757 17.3654 68.0652 16.9812V16.9777ZM73.6602 17.2164C73.6563 15.9407 74.0292 14.6927 74.7319 13.6302C75.4347 12.5676 76.4355 11.7384 77.6078 11.2475C78.7802 10.7566 80.071 10.626 81.3173 10.8724C82.5635 11.1188 83.7088 11.731 84.6084 12.6316C85.5079 13.5321 86.1211 14.6804 86.3704 15.9312C86.6196 17.182 86.4937 18.4789 86.0086 19.6577C85.5235 20.8365 84.701 21.8443 83.6452 22.5534C82.5894 23.2625 81.3479 23.6411 80.0777 23.6411C79.2349 23.65 78.3987 23.4904 77.6179 23.1715C76.8371 22.8527 76.1273 22.3808 75.53 21.7836C74.9325 21.1864 74.4597 20.4757 74.1387 19.6929C73.8176 18.9102 73.655 18.0712 73.6602 17.2247V17.2164ZM82.8681 17.2164C82.8541 16.6658 82.6787 16.1316 82.364 15.6806C82.0491 15.2296 81.6088 14.882 81.0983 14.681C80.5876 14.48 80.0294 14.4348 79.4933 14.5509C78.9572 14.6669 78.4671 14.9393 78.0845 15.3336C77.7017 15.7281 77.4432 16.2271 77.3415 16.7682C77.2396 17.3093 77.299 17.8687 77.5121 18.3761C77.7253 18.8836 78.0827 19.3166 78.5396 19.6212C78.9967 19.9256 79.5329 20.088 80.0812 20.088C80.4555 20.0979 80.8276 20.0302 81.1745 19.889C81.5214 19.7478 81.8355 19.5361 82.0972 19.2673C82.3587 18.9985 82.5623 18.6783 82.6949 18.3268C82.8277 17.9753 82.8866 17.6001 82.8681 17.2247V17.2164Z" fill="#1D1D1D"/>
</svg>
