<svg width="123" height="33" viewBox="0 0 123 33" fill="none" xmlns="http://www.w3.org/2000/svg">
<path d="M41.1802 9.22461H38.3203V22.1552H46.2373V19.6216H41.1802V9.22461Z" fill="#1D1D1D"/>
<path d="M46.5078 17.7713C46.5078 20.5322 48.3563 22.3669 51.1463 22.3669C53.919 22.3669 55.7675 20.5322 55.7675 17.7713C55.7675 15.0104 53.919 13.1582 51.1463 13.1582C48.3563 13.1582 46.5078 15.0104 46.5078 17.7713ZM49.2107 17.7538C49.2107 16.4433 49.978 15.5696 51.1463 15.5696C52.2973 15.5696 53.0646 16.4433 53.0646 17.7538C53.0646 19.0819 52.2973 19.9556 51.1463 19.9556C49.978 19.9556 49.2107 19.0819 49.2107 17.7538Z" fill="#1D1D1D"/>
<path d="M56.2224 17.6293C56.2224 20.2678 57.9314 22.0501 60.3552 22.0501C61.5236 22.0501 62.535 21.6308 63.0407 20.9493V22.155C63.0407 23.3607 62.2909 24.1645 60.9656 24.1645C59.7798 24.1645 58.9602 23.6053 58.9079 22.6093H56.1875C56.4316 25.0033 58.2801 26.6108 60.8086 26.6108C63.7905 26.6108 65.6739 24.6713 65.6739 21.5958V13.4181H63.25L63.1105 14.3093C62.6222 13.5929 61.5933 13.1211 60.4076 13.1211C57.9662 13.1211 56.2224 14.9558 56.2224 17.6293ZM58.9428 17.5594C58.9428 16.3013 59.7798 15.4625 60.8435 15.4625C62.0816 15.4625 62.9884 16.2838 62.9884 17.5594C62.9884 18.835 62.099 19.7087 60.8609 19.7087C59.7973 19.7087 58.9428 18.835 58.9428 17.5594Z" fill="#1D1D1D"/>
<path d="M66.4531 17.7713C66.4531 20.5322 68.3016 22.3669 71.0917 22.3669C73.8644 22.3669 75.7128 20.5322 75.7128 17.7713C75.7128 15.0104 73.8644 13.1582 71.0917 13.1582C68.3016 13.1582 66.4531 15.0104 66.4531 17.7713ZM69.1561 17.7538C69.1561 16.4433 69.9233 15.5696 71.0917 15.5696C72.2426 15.5696 73.0099 16.4433 73.0099 17.7538C73.0099 19.0819 72.2426 19.9556 71.0917 19.9556C69.9233 19.9556 69.1561 19.0819 69.1561 17.7538Z" fill="#1D1D1D"/>
<path d="M78.0265 12.0521C78.8634 12.0521 79.5435 11.3705 79.5435 10.5144C79.5435 9.65814 78.8634 8.99414 78.0265 8.99414C77.1721 8.99414 76.4922 9.65814 76.4922 10.5144C76.4922 11.3705 77.1721 12.0521 78.0265 12.0521ZM76.6665 22.1519H79.3691V13.415H76.6665V22.1519Z" fill="#1D1D1D"/>
<path d="M80.9375 26.3527H83.5881V21.2854C84.0935 21.9494 85.2447 22.4037 86.4479 22.4037C89.0458 22.4037 90.6153 20.4117 90.5459 17.6508C90.4756 14.8375 88.8541 13.1426 86.4303 13.1426C85.192 13.1426 84.024 13.6843 83.5354 14.4881L83.3957 13.4222H80.9375V26.3527ZM83.64 17.7906C83.64 16.4801 84.5118 15.6064 85.7676 15.6064C87.0402 15.6064 87.8426 16.4975 87.8426 17.7906C87.8426 19.0837 87.0402 19.9748 85.7676 19.9748C84.5118 19.9748 83.64 19.1011 83.64 17.7906Z" fill="#1D1D1D"/>
<path d="M90.8359 19.3982C90.9054 21.1631 92.301 22.3862 94.4981 22.3862C96.6083 22.3862 98.0733 21.2679 98.0733 19.4681C98.0733 18.1751 97.3061 17.3188 95.8753 16.9693L94.3241 16.5849C93.766 16.4451 93.4171 16.3053 93.4171 15.851C93.4171 15.3967 93.7828 15.0996 94.3241 15.0996C94.934 15.0996 95.3348 15.5015 95.3181 16.0956H97.742C97.6717 14.2783 96.2945 13.1426 94.376 13.1426C92.4407 13.1426 90.9932 14.2959 90.9932 16.0432C90.9932 17.2139 91.6383 18.1751 93.3644 18.6294L94.8989 19.0312C95.3524 19.1535 95.544 19.3632 95.544 19.6603C95.544 20.0971 95.1432 20.3767 94.463 20.3767C93.6782 20.3767 93.2598 20.0098 93.2598 19.3982H90.8359Z" fill="#1D1D1D"/>
<path d="M102.177 22.3761C103.242 22.3761 104.305 21.8868 104.846 21.1704L105.02 22.149H107.549V13.4121H104.863V17.9553C104.863 19.2658 104.48 19.9822 103.242 19.9822C102.282 19.9822 101.654 19.5454 101.654 17.9204V13.4121H98.9688V18.8988C98.9688 20.9783 100.12 22.3761 102.177 22.3761Z" fill="#1D1D1D"/>
<path d="M111.805 22.155V17.3847C111.805 15.9169 112.59 15.4975 113.357 15.4975C114.212 15.4975 114.77 16.0217 114.77 17.1051V22.155H117.42V17.3847C117.42 15.8994 118.188 15.4801 118.955 15.4801C119.809 15.4801 120.385 16.0042 120.385 17.1051V22.155H123.001V16.4411C123.001 14.4491 121.955 13.1211 119.705 13.1211C118.45 13.1211 117.42 13.7326 116.967 14.6762C116.444 13.7326 115.537 13.1211 114.089 13.1211C113.13 13.1211 112.241 13.5579 111.718 14.2569L111.613 13.4181H109.102V22.155H111.805Z" fill="#1D1D1D"/>
<path fill-rule="evenodd" clip-rule="evenodd" d="M2.33855 3.34119C0 5.68434 0 9.45557 0 16.998C0 24.5405 0 28.3117 2.33855 30.6549C4.6771 32.998 8.44093 32.998 15.9686 32.998C23.4963 32.998 27.2601 32.998 29.5987 30.6549C31.9372 28.3117 31.9372 24.5405 31.9372 16.998C31.9372 9.45557 31.9372 5.68434 29.5987 3.34119C27.2601 0.998047 23.4963 0.998047 15.9686 0.998047C8.44093 0.998047 4.6771 0.998047 2.33855 3.34119ZM19.8689 22.5935C19.9565 22.1605 19.591 21.7988 19.1501 21.7988H12.7631C12.3222 21.7988 11.9567 22.1605 12.0443 22.5935C12.1991 23.3583 12.5751 24.0672 13.1339 24.6272C13.8826 25.3774 14.8979 25.7988 15.9566 25.7988C17.0153 25.7988 18.0307 25.3774 18.7792 24.6272C19.3381 24.0672 19.7141 23.3583 19.8689 22.5935ZM20.8295 15.2177C20.4036 15.332 20.1427 15.7785 20.3587 16.1637C20.586 16.5691 20.9004 16.923 21.2829 17.1976C21.8835 17.6288 22.6147 17.8381 23.352 17.7896C24.0892 17.7412 24.787 17.4382 25.3262 16.9321C25.8655 16.426 26.2129 15.7482 26.3094 15.0142C26.4058 14.2802 26.2453 13.5354 25.8551 12.9066C25.465 12.278 24.8693 11.8043 24.1696 11.5663C23.47 11.3283 22.7097 11.3408 22.0182 11.6016C21.5778 11.7677 21.1827 12.0279 20.8584 12.3606C20.5503 12.6766 20.6869 13.1756 21.0688 13.3965L21.4738 13.6308C22.0898 13.9872 21.9684 14.9119 21.2813 15.0964L20.8295 15.2177ZM11.5639 16.1637C11.7799 15.7785 11.519 15.332 11.0931 15.2177L10.6414 15.0964C9.95434 14.9119 9.83282 13.9872 10.4488 13.6308L10.8538 13.3965C11.2357 13.1756 11.3724 12.6766 11.0643 12.3606C10.74 12.0279 10.3448 11.7677 9.90452 11.6016C9.21302 11.3408 8.45263 11.3283 7.75299 11.5663C7.05335 11.8043 6.45769 12.278 6.06753 12.9066C5.67736 13.5354 5.51683 14.2802 5.61327 15.0142C5.7097 15.7482 6.05716 16.426 6.59642 16.9321C7.13569 17.4382 7.8334 17.7412 8.57071 17.7896C9.30795 17.8381 10.0392 17.6288 10.6398 17.1976C11.0222 16.923 11.3366 16.5691 11.5639 16.1637Z" fill="#1D1D1D"/>
</svg>
