<svg width="574" height="544" viewBox="0 0 574 544" fill="none" xmlns="http://www.w3.org/2000/svg">
<g filter="url(#filter0_d_1416_4838)">
<rect x="8" width="294" height="102" rx="10" fill="white"/>
</g>
<path d="M49.7727 57L53.1967 52.232L53.9807 51.992C53.8527 52.2373 53.7034 52.456 53.5327 52.648C53.3727 52.8293 53.1647 52.968 52.9087 53.064C52.6527 53.16 52.3167 53.208 51.9007 53.208C51.2394 53.208 50.6314 53.0533 50.0767 52.744C49.5327 52.424 49.0954 51.9867 48.7647 51.432C48.434 50.8773 48.2687 50.2427 48.2687 49.528C48.2687 48.8027 48.45 48.1413 48.8127 47.544C49.1754 46.936 49.666 46.456 50.2847 46.104C50.9034 45.752 51.5914 45.576 52.3487 45.576C53.1167 45.576 53.8047 45.752 54.4127 46.104C55.0314 46.456 55.5167 46.9253 55.8687 47.512C56.2314 48.0987 56.4127 48.7547 56.4127 49.48C56.4127 50.472 56.066 51.4747 55.3727 52.488L52.2527 57H49.7727ZM52.3487 51.544C52.722 51.544 53.0527 51.4587 53.3407 51.288C53.6287 51.1173 53.8527 50.8827 54.0127 50.584C54.1834 50.2747 54.2687 49.9333 54.2687 49.56C54.2687 49.1653 54.1834 48.8187 54.0127 48.52C53.8527 48.2213 53.6287 47.9867 53.3407 47.816C53.0527 47.6347 52.722 47.544 52.3487 47.544C51.9754 47.544 51.6394 47.6347 51.3407 47.816C51.0527 47.9867 50.8234 48.2213 50.6527 48.52C50.4927 48.8187 50.4127 49.1653 50.4127 49.56C50.4127 49.944 50.4927 50.2853 50.6527 50.584C50.8234 50.8827 51.058 51.1173 51.3567 51.288C51.6554 51.4587 51.986 51.544 52.3487 51.544ZM62.2104 57.16C61.3251 57.16 60.5251 56.92 59.8104 56.44C59.0958 55.96 58.5251 55.2827 58.0984 54.408C57.6824 53.5333 57.4744 52.5147 57.4744 51.352C57.4744 50.1893 57.6824 49.176 58.0984 48.312C58.5144 47.448 59.0744 46.776 59.7784 46.296C60.4931 45.816 61.2878 45.576 62.1624 45.576C63.0584 45.576 63.8584 45.816 64.5624 46.296C65.2771 46.776 65.8424 47.4533 66.2584 48.328C66.6744 49.192 66.8824 50.2107 66.8824 51.384C66.8824 52.5467 66.6744 53.5653 66.2584 54.44C65.8424 55.304 65.2824 55.976 64.5784 56.456C63.8744 56.9253 63.0851 57.16 62.2104 57.16ZM62.1784 55.192C62.6904 55.192 63.1331 55.048 63.5064 54.76C63.8798 54.472 64.1678 54.0453 64.3704 53.48C64.5838 52.9147 64.6904 52.2107 64.6904 51.368C64.6904 50.5253 64.5838 49.8213 64.3704 49.256C64.1678 48.6907 63.8744 48.2693 63.4904 47.992C63.1171 47.704 62.6744 47.56 62.1624 47.56C61.6611 47.56 61.2238 47.704 60.8504 47.992C60.4771 48.2693 60.1838 48.6907 59.9704 49.256C59.7678 49.8107 59.6664 50.5093 59.6664 51.352C59.6664 52.2053 59.7678 52.9147 59.9704 53.48C60.1838 54.0453 60.4771 54.472 60.8504 54.76C61.2238 55.048 61.6664 55.192 62.1784 55.192ZM70.3569 50.216C69.9409 50.216 69.5516 50.1147 69.1889 49.912C68.8369 49.6987 68.5596 49.416 68.3569 49.064C68.1543 48.712 68.0529 48.3227 68.0529 47.896C68.0529 47.4587 68.1543 47.0693 68.3569 46.728C68.5596 46.3867 68.8369 46.1147 69.1889 45.912C69.5409 45.6987 69.9303 45.592 70.3569 45.592C70.7943 45.592 71.1889 45.6987 71.5409 45.912C71.9036 46.1147 72.1863 46.3867 72.3889 46.728C72.5916 47.0693 72.6929 47.4587 72.6929 47.896C72.6929 48.3227 72.5863 48.712 72.3729 49.064C72.1703 49.416 71.8929 49.6987 71.5409 49.912C71.1996 50.1147 70.8049 50.216 70.3569 50.216ZM70.3569 48.696C70.6023 48.696 70.7943 48.6213 70.9329 48.472C71.0716 48.3227 71.1409 48.1307 71.1409 47.896C71.1409 47.6613 71.0663 47.4693 70.9169 47.32C70.7783 47.1707 70.5916 47.096 70.3569 47.096C70.1329 47.096 69.9516 47.1707 69.8129 47.32C69.6743 47.4693 69.6049 47.6613 69.6049 47.896C69.6049 48.1307 69.6743 48.3227 69.8129 48.472C69.9516 48.6213 70.1329 48.696 70.3569 48.696ZM75.2849 57.16C74.8583 57.16 74.4689 57.0587 74.1169 56.856C73.7649 56.6427 73.4823 56.3653 73.2689 56.024C73.0663 55.672 72.9649 55.2773 72.9649 54.84C72.9649 54.4027 73.0663 54.0133 73.2689 53.672C73.4823 53.3307 73.7596 53.0587 74.1009 52.856C74.4529 52.6427 74.8476 52.536 75.2849 52.536C75.7223 52.536 76.1169 52.6427 76.4689 52.856C76.8209 53.0587 77.0983 53.3307 77.3009 53.672C77.5143 54.0133 77.6209 54.4027 77.6209 54.84C77.6209 55.2773 77.5143 55.672 77.3009 56.024C77.0983 56.3653 76.8209 56.6427 76.4689 56.856C76.1276 57.0587 75.7329 57.16 75.2849 57.16ZM75.2849 55.64C75.5196 55.64 75.7116 55.5653 75.8609 55.416C76.0103 55.2667 76.0849 55.0747 76.0849 54.84C76.0849 54.616 76.0049 54.4293 75.8449 54.28C75.6956 54.1307 75.5089 54.056 75.2849 54.056C75.0609 54.056 74.8743 54.1307 74.7249 54.28C74.5863 54.4293 74.5169 54.616 74.5169 54.84C74.5169 55.0747 74.5863 55.2667 74.7249 55.416C74.8743 55.5653 75.0609 55.64 75.2849 55.64ZM68.3569 57L75.3329 45.752H77.3169L70.3409 57H68.3569Z" fill="#1D1D1D"/>
<path d="M98 51C98 70.33 82.33 86 63 86C43.67 86 28 70.33 28 51C28 31.67 43.67 16 63 16C82.33 16 98 31.67 98 51ZM35 51C35 66.464 47.536 79 63 79C78.464 79 91 66.464 91 51C91 35.536 78.464 23 63 23C47.536 23 35 35.536 35 51Z" fill="#E7E7E7"/>
<path d="M87.1304 71.2478C88.6112 72.4903 88.8157 74.7127 87.4315 76.062C82.6753 80.6987 76.6777 83.9041 70.1275 85.2666C62.4305 86.8676 54.4188 85.8306 47.3831 82.3227C40.3474 78.8148 34.6976 73.0404 31.3441 65.9299C27.9905 58.8194 27.1286 50.7869 28.897 43.1267C30.6655 35.4666 34.9615 28.6248 41.0927 23.704C47.2239 18.7832 54.8332 16.0699 62.6946 16.0013C70.5559 15.9327 78.2115 18.5128 84.4276 23.3259C89.7177 27.4219 93.7031 32.9321 95.9454 39.1845C96.5979 41.004 95.4399 42.9118 93.5643 43.3794V43.3794C91.6887 43.8471 89.8096 42.6944 89.1118 40.8917C87.2803 36.1605 84.1882 31.9935 80.1421 28.8607C75.1692 25.0103 69.0447 22.9462 62.7556 23.0011C56.4666 23.056 50.3791 25.2266 45.4741 29.1632C40.5692 33.0999 37.1324 38.5732 35.7176 44.7014C34.3028 50.8295 34.9924 57.2555 37.6753 62.9439C40.3581 68.6323 44.8779 73.2519 50.5065 76.0582C56.135 78.8644 62.5444 79.694 68.702 78.4133C73.7119 77.3712 78.3177 74.9815 82.038 71.5319C83.4554 70.2176 85.6496 70.0053 87.1304 71.2478V71.2478Z" fill="#EB742E"/>
<path d="M124.901 43V31.896H126.389V43H124.901ZM122.629 33.24V31.896H126.229V33.24H122.629ZM132.08 43.16C131.344 43.16 130.693 43.0213 130.128 42.744C129.573 42.4667 129.141 42.0827 128.832 41.592C128.522 41.1013 128.368 40.5467 128.368 39.928C128.368 39.4267 128.464 38.968 128.656 38.552C128.848 38.136 129.13 37.784 129.504 37.496C129.877 37.1973 130.314 36.984 130.816 36.856L130.864 37.288C130.437 37.1707 130.074 36.984 129.776 36.728C129.477 36.4613 129.248 36.152 129.088 35.8C128.938 35.4373 128.864 35.0533 128.864 34.648C128.864 34.072 129.002 33.5653 129.28 33.128C129.557 32.6907 129.936 32.3493 130.416 32.104C130.906 31.848 131.461 31.72 132.08 31.72C132.709 31.72 133.264 31.848 133.744 32.104C134.224 32.3493 134.602 32.6907 134.88 33.128C135.157 33.5653 135.296 34.072 135.296 34.648C135.296 35.0533 135.216 35.4373 135.056 35.8C134.906 36.152 134.682 36.4613 134.384 36.728C134.096 36.984 133.738 37.1707 133.312 37.288L133.344 36.856C133.856 36.984 134.293 37.1973 134.656 37.496C135.029 37.784 135.312 38.136 135.504 38.552C135.706 38.968 135.808 39.4267 135.808 39.928C135.808 40.5467 135.653 41.1013 135.344 41.592C135.034 42.0827 134.597 42.4667 134.032 42.744C133.477 43.0213 132.826 43.16 132.08 43.16ZM132.08 41.8C132.528 41.8 132.917 41.7147 133.248 41.544C133.589 41.3627 133.856 41.1173 134.048 40.808C134.25 40.4987 134.352 40.1413 134.352 39.736C134.352 39.3413 134.25 38.9893 134.048 38.68C133.856 38.3707 133.589 38.1307 133.248 37.96C132.917 37.7787 132.528 37.688 132.08 37.688C131.642 37.688 131.253 37.7787 130.912 37.96C130.57 38.1307 130.298 38.3707 130.096 38.68C129.904 38.9893 129.808 39.3413 129.808 39.736C129.808 40.1413 129.904 40.4987 130.096 40.808C130.298 41.1173 130.57 41.3627 130.912 41.544C131.253 41.7147 131.642 41.8 132.08 41.8ZM132.08 36.52C132.613 36.52 133.05 36.3547 133.392 36.024C133.733 35.6933 133.904 35.2667 133.904 34.744C133.904 34.232 133.733 33.816 133.392 33.496C133.05 33.1653 132.613 33 132.08 33C131.557 33 131.125 33.1653 130.784 33.496C130.442 33.816 130.272 34.232 130.272 34.744C130.272 35.2667 130.442 35.6933 130.784 36.024C131.125 36.3547 131.557 36.52 132.08 36.52ZM146.141 43.16C145.362 43.16 144.631 43.016 143.949 42.728C143.277 42.4293 142.685 42.0187 142.173 41.496C141.671 40.9733 141.277 40.3653 140.989 39.672C140.701 38.9787 140.557 38.232 140.557 37.432C140.557 36.632 140.701 35.8907 140.989 35.208C141.277 34.5147 141.677 33.9067 142.189 33.384C142.701 32.8613 143.298 32.456 143.981 32.168C144.674 31.88 145.426 31.736 146.237 31.736C147.122 31.736 147.938 31.9067 148.685 32.248C149.431 32.5893 150.055 33.08 150.557 33.72L149.517 34.76C149.165 34.248 148.701 33.8587 148.125 33.592C147.549 33.3147 146.919 33.176 146.237 33.176C145.426 33.176 144.706 33.3573 144.077 33.72C143.458 34.0827 142.973 34.584 142.621 35.224C142.279 35.864 142.109 36.6 142.109 37.432C142.109 38.2747 142.285 39.016 142.637 39.656C142.989 40.296 143.463 40.7973 144.061 41.16C144.658 41.5227 145.341 41.704 146.109 41.704C146.887 41.704 147.559 41.5547 148.125 41.256C148.701 40.9573 149.143 40.52 149.453 39.944C149.762 39.3573 149.917 38.6427 149.917 37.8L150.829 38.456H146.029V37.08H151.469V37.304C151.469 38.5947 151.239 39.6773 150.781 40.552C150.333 41.416 149.703 42.0667 148.893 42.504C148.093 42.9413 147.175 43.16 146.141 43.16ZM154.5 43V41.688H157.86C158.5 41.688 159.001 41.5013 159.364 41.128C159.726 40.744 159.908 40.2853 159.908 39.752C159.908 39.3893 159.828 39.064 159.668 38.776C159.508 38.4773 159.273 38.2427 158.964 38.072C158.665 37.9013 158.313 37.816 157.908 37.816H154.5V36.504H157.684C158.217 36.504 158.638 36.3653 158.948 36.088C159.268 35.8 159.428 35.3893 159.428 34.856C159.428 34.3227 159.262 33.9173 158.932 33.64C158.601 33.352 158.164 33.208 157.62 33.208H154.5V31.896H157.652C158.377 31.896 158.98 32.0293 159.46 32.296C159.95 32.552 160.318 32.8933 160.564 33.32C160.82 33.7467 160.948 34.216 160.948 34.728C160.948 35.3253 160.782 35.848 160.452 36.296C160.132 36.744 159.657 37.096 159.028 37.352L159.156 36.872C159.87 37.128 160.425 37.5173 160.82 38.04C161.225 38.552 161.428 39.16 161.428 39.864C161.428 40.4507 161.284 40.9787 160.996 41.448C160.708 41.9173 160.292 42.296 159.748 42.584C159.214 42.8613 158.558 43 157.78 43H154.5ZM153.492 43V31.896H154.996V43H153.492ZM165.701 43.64L170.149 31.272H171.493L167.061 43.64H165.701ZM175.567 42.088L179.663 37.768C180.079 37.3413 180.404 36.9733 180.639 36.664C180.874 36.344 181.039 36.0507 181.135 35.784C181.242 35.5173 181.295 35.24 181.295 34.952C181.295 34.3867 181.114 33.944 180.751 33.624C180.388 33.304 179.919 33.144 179.343 33.144C178.778 33.144 178.282 33.2827 177.855 33.56C177.428 33.8267 177.05 34.2427 176.719 34.808L175.663 33.928C176.1 33.2027 176.628 32.6587 177.247 32.296C177.866 31.9227 178.58 31.736 179.391 31.736C180.074 31.736 180.666 31.8693 181.167 32.136C181.679 32.4027 182.074 32.776 182.351 33.256C182.628 33.736 182.767 34.296 182.767 34.936C182.767 35.3947 182.708 35.8053 182.591 36.168C182.484 36.5307 182.287 36.904 181.999 37.288C181.722 37.6613 181.332 38.1093 180.831 38.632L177.519 42.04L175.567 42.088ZM175.567 43V42.088L176.847 41.656H183.023V43H175.567ZM188.975 43.16C188.143 43.16 187.381 42.9253 186.687 42.456C186.005 41.9867 185.461 41.3253 185.055 40.472C184.65 39.608 184.447 38.5947 184.447 37.432C184.447 36.2693 184.645 35.2613 185.039 34.408C185.445 33.5547 185.989 32.8987 186.671 32.44C187.354 31.9707 188.106 31.736 188.927 31.736C189.77 31.736 190.533 31.9707 191.215 32.44C191.898 32.8987 192.437 33.5547 192.831 34.408C193.237 35.2613 193.439 36.2747 193.439 37.448C193.439 38.6107 193.237 39.624 192.831 40.488C192.437 41.3413 191.898 42.0027 191.215 42.472C190.543 42.9307 189.797 43.16 188.975 43.16ZM188.943 41.736C189.53 41.736 190.042 41.576 190.479 41.256C190.927 40.9253 191.279 40.44 191.535 39.8C191.791 39.16 191.919 38.3707 191.919 37.432C191.919 36.4933 191.791 35.7093 191.535 35.08C191.279 34.44 190.927 33.96 190.479 33.64C190.031 33.3093 189.514 33.144 188.927 33.144C188.351 33.144 187.839 33.3093 187.391 33.64C186.943 33.96 186.591 34.44 186.335 35.08C186.09 35.7093 185.967 36.4933 185.967 37.432C185.967 38.3707 186.09 39.16 186.335 39.8C186.591 40.44 186.943 40.9253 187.391 41.256C187.839 41.576 188.357 41.736 188.943 41.736ZM203.859 43.16C203.081 43.16 202.35 43.016 201.667 42.728C200.995 42.4293 200.403 42.0187 199.891 41.496C199.39 40.9733 198.995 40.3653 198.707 39.672C198.419 38.9787 198.275 38.232 198.275 37.432C198.275 36.632 198.419 35.8907 198.707 35.208C198.995 34.5147 199.395 33.9067 199.907 33.384C200.419 32.8613 201.017 32.456 201.699 32.168C202.393 31.88 203.145 31.736 203.955 31.736C204.841 31.736 205.657 31.9067 206.403 32.248C207.15 32.5893 207.774 33.08 208.275 33.72L207.235 34.76C206.883 34.248 206.419 33.8587 205.843 33.592C205.267 33.3147 204.638 33.176 203.955 33.176C203.145 33.176 202.425 33.3573 201.795 33.72C201.177 34.0827 200.691 34.584 200.339 35.224C199.998 35.864 199.827 36.6 199.827 37.432C199.827 38.2747 200.003 39.016 200.355 39.656C200.707 40.296 201.182 40.7973 201.779 41.16C202.377 41.5227 203.059 41.704 203.827 41.704C204.606 41.704 205.278 41.5547 205.843 41.256C206.419 40.9573 206.862 40.52 207.171 39.944C207.481 39.3573 207.635 38.6427 207.635 37.8L208.547 38.456H203.747V37.08H209.187V37.304C209.187 38.5947 208.958 39.6773 208.499 40.552C208.051 41.416 207.422 42.0667 206.611 42.504C205.811 42.9413 204.894 43.16 203.859 43.16ZM212.218 43V41.688H215.578C216.218 41.688 216.72 41.5013 217.082 41.128C217.445 40.744 217.626 40.2853 217.626 39.752C217.626 39.3893 217.546 39.064 217.386 38.776C217.226 38.4773 216.992 38.2427 216.682 38.072C216.384 37.9013 216.032 37.816 215.626 37.816H212.218V36.504H215.402C215.936 36.504 216.357 36.3653 216.666 36.088C216.986 35.8 217.146 35.3893 217.146 34.856C217.146 34.3227 216.981 33.9173 216.65 33.64C216.32 33.352 215.882 33.208 215.338 33.208H212.218V31.896H215.37C216.096 31.896 216.698 32.0293 217.178 32.296C217.669 32.552 218.037 32.8933 218.282 33.32C218.538 33.7467 218.666 34.216 218.666 34.728C218.666 35.3253 218.501 35.848 218.17 36.296C217.85 36.744 217.376 37.096 216.746 37.352L216.874 36.872C217.589 37.128 218.144 37.5173 218.538 38.04C218.944 38.552 219.146 39.16 219.146 39.864C219.146 40.4507 219.002 40.9787 218.714 41.448C218.426 41.9173 218.01 42.296 217.466 42.584C216.933 42.8613 216.277 43 215.498 43H212.218ZM211.21 43V31.896H212.714V43H211.21Z" fill="#1D1D1D"/>
<path d="M126.832 66.488L122.464 59.896H124.208L127.728 65.288H126.944L130.48 59.896H132.192L127.792 66.488H126.832ZM126.576 71V65.496H128.08V71H126.576ZM134.809 71.16C134.063 71.16 133.391 70.984 132.793 70.632C132.196 70.28 131.721 69.8053 131.369 69.208C131.017 68.6 130.841 67.9227 130.841 67.176C130.841 66.44 131.017 65.7787 131.369 65.192C131.721 64.5947 132.196 64.12 132.793 63.768C133.391 63.416 134.063 63.24 134.809 63.24C135.545 63.24 136.212 63.416 136.809 63.768C137.417 64.1093 137.897 64.5787 138.249 65.176C138.601 65.7733 138.777 66.44 138.777 67.176C138.777 67.9227 138.601 68.6 138.249 69.208C137.897 69.8053 137.417 70.28 136.809 70.632C136.212 70.984 135.545 71.16 134.809 71.16ZM134.809 69.768C135.289 69.768 135.716 69.656 136.089 69.432C136.463 69.208 136.756 68.904 136.969 68.52C137.183 68.1253 137.289 67.6773 137.289 67.176C137.289 66.6853 137.177 66.248 136.953 65.864C136.74 65.48 136.447 65.1813 136.073 64.968C135.711 64.744 135.289 64.632 134.809 64.632C134.329 64.632 133.903 64.744 133.529 64.968C133.156 65.1813 132.863 65.48 132.649 65.864C132.436 66.248 132.329 66.6853 132.329 67.176C132.329 67.6773 132.436 68.1253 132.649 68.52C132.863 68.904 133.156 69.208 133.529 69.432C133.903 69.656 134.329 69.768 134.809 69.768ZM143.472 71.16C142.842 71.16 142.277 71.0213 141.776 70.744C141.285 70.456 140.901 70.0613 140.624 69.56C140.346 69.0587 140.208 68.4773 140.208 67.816V63.4H141.648V67.752C141.648 68.168 141.717 68.5307 141.856 68.84C142.005 69.1387 142.218 69.368 142.496 69.528C142.773 69.688 143.098 69.768 143.472 69.768C144.037 69.768 144.48 69.592 144.8 69.24C145.12 68.8773 145.28 68.3813 145.28 67.752V63.4H146.72V67.816C146.72 68.4773 146.581 69.0587 146.304 69.56C146.026 70.0613 145.642 70.456 145.152 70.744C144.672 71.0213 144.112 71.16 143.472 71.16ZM148.65 71V63.4H150.09V71H148.65ZM150.09 66.664L149.546 66.424C149.546 65.4533 149.77 64.68 150.218 64.104C150.666 63.528 151.311 63.24 152.154 63.24C152.538 63.24 152.884 63.3093 153.194 63.448C153.503 63.576 153.791 63.7947 154.058 64.104L153.114 65.08C152.954 64.9093 152.778 64.7867 152.586 64.712C152.394 64.6373 152.17 64.6 151.914 64.6C151.38 64.6 150.943 64.7707 150.602 65.112C150.26 65.4533 150.09 65.9707 150.09 66.664ZM162.025 71.16C161.15 71.16 160.404 71 159.785 70.68C159.166 70.36 158.617 69.896 158.137 69.288L159.161 68.264C159.513 68.7547 159.918 69.128 160.377 69.384C160.836 69.6293 161.401 69.752 162.073 69.752C162.734 69.752 163.262 69.608 163.657 69.32C164.062 69.032 164.265 68.6373 164.265 68.136C164.265 67.72 164.169 67.384 163.977 67.128C163.785 66.872 163.524 66.664 163.193 66.504C162.873 66.3333 162.521 66.184 162.137 66.056C161.753 65.9173 161.369 65.7733 160.985 65.624C160.601 65.464 160.249 65.272 159.929 65.048C159.609 64.8133 159.348 64.5093 159.145 64.136C158.953 63.7627 158.857 63.2933 158.857 62.728C158.857 62.0987 159.006 61.5653 159.305 61.128C159.614 60.68 160.03 60.3387 160.553 60.104C161.086 59.8587 161.684 59.736 162.345 59.736C163.07 59.736 163.721 59.88 164.297 60.168C164.873 60.4453 165.342 60.8133 165.705 61.272L164.681 62.296C164.35 61.912 163.993 61.624 163.609 61.432C163.236 61.24 162.804 61.144 162.313 61.144C161.716 61.144 161.241 61.2773 160.889 61.544C160.537 61.8 160.361 62.1627 160.361 62.632C160.361 63.0053 160.457 63.3093 160.649 63.544C160.852 63.768 161.113 63.96 161.433 64.12C161.753 64.28 162.105 64.4293 162.489 64.568C162.884 64.696 163.273 64.84 163.657 65C164.041 65.16 164.393 65.3627 164.713 65.608C165.033 65.8533 165.289 66.1733 165.481 66.568C165.684 66.952 165.785 67.4373 165.785 68.024C165.785 69.0053 165.444 69.7733 164.761 70.328C164.089 70.8827 163.177 71.16 162.025 71.16ZM171.556 71.16C170.98 71.16 170.457 71.0427 169.988 70.808C169.529 70.5627 169.161 70.2267 168.884 69.8C168.607 69.3733 168.452 68.888 168.42 68.344V66.056C168.452 65.5013 168.607 65.016 168.884 64.6C169.172 64.1733 169.545 63.8427 170.004 63.608C170.473 63.3627 170.991 63.24 171.556 63.24C172.249 63.24 172.873 63.416 173.428 63.768C173.993 64.12 174.436 64.5947 174.756 65.192C175.076 65.7893 175.236 66.4613 175.236 67.208C175.236 67.9547 175.076 68.6267 174.756 69.224C174.436 69.8213 173.993 70.296 173.428 70.648C172.873 70.9893 172.249 71.16 171.556 71.16ZM171.316 69.8C171.796 69.8 172.217 69.688 172.58 69.464C172.943 69.24 173.231 68.936 173.444 68.552C173.657 68.1573 173.764 67.704 173.764 67.192C173.764 66.6907 173.657 66.2427 173.444 65.848C173.231 65.4533 172.943 65.1493 172.58 64.936C172.217 64.712 171.801 64.6 171.332 64.6C170.852 64.6 170.431 64.712 170.068 64.936C169.705 65.1493 169.423 65.4533 169.22 65.848C169.017 66.2427 168.916 66.696 168.916 67.208C168.916 67.7093 169.012 68.1573 169.204 68.552C169.407 68.936 169.689 69.24 170.052 69.464C170.425 69.688 170.847 69.8 171.316 69.8ZM167.556 74.184V63.4H168.996V65.4L168.724 67.24L168.996 69.096V74.184H167.556ZM180.101 71.16C179.407 71.16 178.778 70.9893 178.213 70.648C177.647 70.296 177.199 69.8213 176.868 69.224C176.549 68.6267 176.389 67.9547 176.389 67.208C176.389 66.4613 176.549 65.7893 176.868 65.192C177.199 64.5947 177.642 64.12 178.197 63.768C178.762 63.416 179.397 63.24 180.101 63.24C180.677 63.24 181.189 63.3627 181.637 63.608C182.095 63.8427 182.463 64.1733 182.741 64.6C183.018 65.016 183.173 65.5013 183.205 66.056V68.344C183.173 68.888 183.018 69.3733 182.741 69.8C182.474 70.2267 182.111 70.5627 181.653 70.808C181.205 71.0427 180.687 71.16 180.101 71.16ZM180.341 69.8C181.055 69.8 181.631 69.56 182.069 69.08C182.506 68.5893 182.725 67.9653 182.725 67.208C182.725 66.6853 182.623 66.232 182.421 65.848C182.229 65.4533 181.951 65.1493 181.589 64.936C181.226 64.712 180.805 64.6 180.325 64.6C179.845 64.6 179.418 64.712 179.045 64.936C178.682 65.16 178.394 65.4693 178.181 65.864C177.978 66.248 177.877 66.6907 177.877 67.192C177.877 67.704 177.978 68.1573 178.181 68.552C178.394 68.936 178.687 69.24 179.061 69.464C179.434 69.688 179.861 69.8 180.341 69.8ZM182.629 71V68.952L182.901 67.096L182.629 65.256V63.4H184.085V71H182.629ZM189.653 71.16C188.906 71.16 188.229 70.984 187.621 70.632C187.024 70.28 186.549 69.8053 186.197 69.208C185.856 68.6 185.685 67.928 185.685 67.192C185.685 66.4453 185.856 65.7733 186.197 65.176C186.549 64.5787 187.024 64.1093 187.621 63.768C188.229 63.416 188.906 63.24 189.653 63.24C190.24 63.24 190.784 63.352 191.285 63.576C191.786 63.7893 192.218 64.104 192.581 64.52L191.621 65.48C191.386 65.2027 191.098 64.9947 190.757 64.856C190.426 64.7067 190.058 64.632 189.653 64.632C189.173 64.632 188.746 64.744 188.373 64.968C188 65.1813 187.706 65.48 187.493 65.864C187.28 66.248 187.173 66.6907 187.173 67.192C187.173 67.6933 187.28 68.136 187.493 68.52C187.706 68.904 188 69.208 188.373 69.432C188.746 69.656 189.173 69.768 189.653 69.768C190.058 69.768 190.426 69.6987 190.757 69.56C191.098 69.4107 191.392 69.1973 191.637 68.92L192.581 69.88C192.229 70.2853 191.797 70.6 191.285 70.824C190.784 71.048 190.24 71.16 189.653 71.16ZM197.389 71.16C196.631 71.16 195.949 70.9893 195.341 70.648C194.733 70.296 194.253 69.8213 193.901 69.224C193.549 68.6267 193.373 67.9493 193.373 67.192C193.373 66.4453 193.543 65.7733 193.885 65.176C194.237 64.5787 194.706 64.1093 195.293 63.768C195.89 63.416 196.557 63.24 197.293 63.24C197.997 63.24 198.615 63.4 199.149 63.72C199.693 64.04 200.114 64.4827 200.413 65.048C200.722 65.6133 200.877 66.2533 200.877 66.968C200.877 67.0747 200.871 67.192 200.861 67.32C200.85 67.4373 200.829 67.576 200.797 67.736H194.381V66.536H200.029L199.501 67C199.501 66.488 199.41 66.056 199.229 65.704C199.047 65.3413 198.791 65.064 198.461 64.872C198.13 64.6693 197.73 64.568 197.261 64.568C196.77 64.568 196.338 64.6747 195.965 64.888C195.591 65.1013 195.303 65.4 195.101 65.784C194.898 66.168 194.797 66.6213 194.797 67.144C194.797 67.6773 194.903 68.1467 195.117 68.552C195.33 68.9467 195.634 69.256 196.029 69.48C196.423 69.6933 196.877 69.8 197.389 69.8C197.815 69.8 198.205 69.7253 198.557 69.576C198.919 69.4267 199.229 69.2027 199.485 68.904L200.413 69.848C200.05 70.2747 199.602 70.6 199.069 70.824C198.546 71.048 197.986 71.16 197.389 71.16Z" fill="#1D1D1D"/>
<defs>
<filter id="filter0_d_1416_4838" x="0" y="0" width="302" height="110" filterUnits="userSpaceOnUse" color-interpolation-filters="sRGB">
<feFlood flood-opacity="0" result="BackgroundImageFix"/>
<feColorMatrix in="SourceAlpha" type="matrix" values="0 0 0 0 0 0 0 0 0 0 0 0 0 0 0 0 0 0 127 0" result="hardAlpha"/>
<feOffset dx="-8" dy="8"/>
<feComposite in2="hardAlpha" operator="out"/>
<feColorMatrix type="matrix" values="0 0 0 0 0 0 0 0 0 0 0 0 0 0 0 0 0 0 0.4 0"/>
<feBlend mode="normal" in2="BackgroundImageFix" result="effect1_dropShadow_1416_4838"/>
<feBlend mode="normal" in="SourceGraphic" in2="effect1_dropShadow_1416_4838" result="shape"/>
</filter>
</defs>
</svg>
