<svg width="24" height="25" viewBox="0 0 24 25" fill="none" xmlns="http://www.w3.org/2000/svg">
<path d="M22.1643 6.65495C21.4008 6.99264 20.5912 7.21442 19.7623 7.31295C20.636 6.79038 21.29 5.96796 21.6023 4.99895C20.7823 5.48695 19.8833 5.82895 18.9463 6.01395C18.3169 5.34053 17.4826 4.89391 16.5732 4.74353C15.6638 4.59316 14.7302 4.74744 13.9175 5.1824C13.1048 5.61737 12.4586 6.30863 12.0794 7.14874C11.7001 7.98885 11.609 8.93073 11.8202 9.82795C10.1574 9.7446 8.53058 9.31247 7.04554 8.55961C5.56049 7.80675 4.25038 6.75 3.20025 5.45795C2.82854 6.0964 2.63321 6.82218 2.63425 7.56095C2.63425 9.01095 3.37225 10.292 4.49425 11.042C3.83026 11.021 3.18088 10.8417 2.60025 10.519V10.5709C2.60045 11.5367 2.93462 12.4726 3.5461 13.22C4.15758 13.9675 5.00873 14.4804 5.95525 14.672C5.33886 14.839 4.69256 14.8636 4.06525 14.7439C4.33212 15.5752 4.85226 16.3021 5.55284 16.8231C6.25343 17.344 7.09938 17.6327 7.97225 17.6489C7.10473 18.3303 6.11143 18.8339 5.04913 19.1311C3.98683 19.4283 2.87638 19.5132 1.78125 19.3809C3.69295 20.6104 5.91835 21.2631 8.19125 21.2609C15.8842 21.2609 20.0913 14.888 20.0913 9.36095C20.0913 9.18095 20.0863 8.99895 20.0783 8.82095C20.8971 8.22912 21.6038 7.49597 22.1653 6.65595L22.1643 6.65495Z" fill="#1D1D1D"/>
</svg>
