<svg width="40" height="40" viewBox="0 0 40 40" fill="none" xmlns="http://www.w3.org/2000/svg">
<rect width="40" height="40" rx="5" fill="#EB742E"/>
<path fill-rule="evenodd" clip-rule="evenodd" d="M10 13.5714C10 12.2896 10.8145 11.1493 12.027 10.7336L19.027 8.33359C19.6577 8.11737 20.3423 8.11737 20.973 8.33359L27.973 10.7336C29.1855 11.1493 30 12.2896 30 13.5714V20C30 26.3637 23.6725 30.1963 21.084 31.498C20.3958 31.844 19.6042 31.844 18.916 31.498C16.3275 30.1963 10 26.3637 10 20V13.5714Z" fill="white"/>
<path fill-rule="evenodd" clip-rule="evenodd" d="M24.126 16.905C24.5599 17.3514 24.5599 18.075 24.126 18.5213L20.31 22.4462C19.529 23.2496 18.2627 23.2496 17.4816 22.4462L15.8879 20.807C15.454 20.3607 15.454 19.6371 15.8879 19.1908C16.3219 18.7444 17.0254 18.7444 17.4593 19.1908L18.8958 20.6684L22.5546 16.905C22.9885 16.4587 23.692 16.4587 24.126 16.905Z" fill="#EB742E"/>
</svg>
