<svg width="574" height="544" viewBox="0 0 574 544" fill="none" xmlns="http://www.w3.org/2000/svg">
<g filter="url(#filter0_d_1416_4837)">
<rect x="96" y="266" width="478" height="270" rx="10" fill="white"/>
</g>
<path d="M130.076 473.088V464.76H131.192V473.088H130.076ZM128.372 465.768V464.76H131.072V465.768H128.372ZM136.12 473.208C135.496 473.208 134.924 473.032 134.404 472.68C133.892 472.328 133.484 471.832 133.18 471.192C132.876 470.544 132.724 469.784 132.724 468.912C132.724 468.04 132.872 467.284 133.168 466.644C133.472 466.004 133.88 465.512 134.392 465.168C134.904 464.816 135.468 464.64 136.084 464.64C136.716 464.64 137.288 464.816 137.8 465.168C138.312 465.512 138.716 466.004 139.012 466.644C139.316 467.284 139.468 468.044 139.468 468.924C139.468 469.796 139.316 470.556 139.012 471.204C138.716 471.844 138.312 472.34 137.8 472.692C137.296 473.036 136.736 473.208 136.12 473.208ZM136.096 472.14C136.536 472.14 136.92 472.02 137.248 471.78C137.584 471.532 137.848 471.168 138.04 470.688C138.232 470.208 138.328 469.616 138.328 468.912C138.328 468.208 138.232 467.62 138.04 467.148C137.848 466.668 137.584 466.308 137.248 466.068C136.912 465.82 136.524 465.696 136.084 465.696C135.652 465.696 135.268 465.82 134.932 466.068C134.596 466.308 134.332 466.668 134.14 467.148C133.956 467.62 133.864 468.208 133.864 468.912C133.864 469.616 133.956 470.208 134.14 470.688C134.332 471.168 134.596 471.532 134.932 471.78C135.268 472.02 135.656 472.14 136.096 472.14ZM143.995 473.208C143.371 473.208 142.799 473.032 142.279 472.68C141.767 472.328 141.359 471.832 141.055 471.192C140.751 470.544 140.599 469.784 140.599 468.912C140.599 468.04 140.747 467.284 141.043 466.644C141.347 466.004 141.755 465.512 142.267 465.168C142.779 464.816 143.343 464.64 143.959 464.64C144.591 464.64 145.163 464.816 145.675 465.168C146.187 465.512 146.591 466.004 146.887 466.644C147.191 467.284 147.343 468.044 147.343 468.924C147.343 469.796 147.191 470.556 146.887 471.204C146.591 471.844 146.187 472.34 145.675 472.692C145.171 473.036 144.611 473.208 143.995 473.208ZM143.971 472.14C144.411 472.14 144.795 472.02 145.123 471.78C145.459 471.532 145.723 471.168 145.915 470.688C146.107 470.208 146.203 469.616 146.203 468.912C146.203 468.208 146.107 467.62 145.915 467.148C145.723 466.668 145.459 466.308 145.123 466.068C144.787 465.82 144.399 465.696 143.959 465.696C143.527 465.696 143.143 465.82 142.807 466.068C142.471 466.308 142.207 466.668 142.015 467.148C141.831 467.62 141.739 468.208 141.739 468.912C141.739 469.616 141.831 470.208 142.015 470.688C142.207 471.168 142.471 471.532 142.807 471.78C143.143 472.02 143.531 472.14 143.971 472.14Z" fill="#9F9F9F"/>
<path d="M128.396 415.859L131.468 412.619C131.78 412.299 132.024 412.023 132.2 411.791C132.376 411.551 132.5 411.331 132.572 411.131C132.652 410.931 132.692 410.723 132.692 410.507C132.692 410.083 132.556 409.751 132.284 409.511C132.012 409.271 131.66 409.151 131.228 409.151C130.804 409.151 130.432 409.255 130.112 409.463C129.792 409.663 129.508 409.975 129.26 410.399L128.468 409.739C128.796 409.195 129.192 408.787 129.656 408.515C130.12 408.235 130.656 408.095 131.264 408.095C131.776 408.095 132.22 408.195 132.596 408.395C132.98 408.595 133.276 408.875 133.484 409.235C133.692 409.595 133.796 410.015 133.796 410.495C133.796 410.839 133.752 411.147 133.664 411.419C133.584 411.691 133.436 411.971 133.22 412.259C133.012 412.539 132.72 412.875 132.344 413.267L129.86 415.823L128.396 415.859ZM128.396 416.543V415.859L129.356 415.535H133.988V416.543H128.396ZM138.452 416.663C137.828 416.663 137.256 416.487 136.736 416.135C136.224 415.783 135.816 415.287 135.512 414.647C135.208 413.999 135.056 413.239 135.056 412.367C135.056 411.495 135.204 410.739 135.5 410.099C135.804 409.459 136.212 408.967 136.724 408.623C137.236 408.271 137.8 408.095 138.416 408.095C139.048 408.095 139.62 408.271 140.132 408.623C140.644 408.967 141.048 409.459 141.344 410.099C141.648 410.739 141.8 411.499 141.8 412.379C141.8 413.251 141.648 414.011 141.344 414.659C141.048 415.299 140.644 415.795 140.132 416.147C139.628 416.491 139.068 416.663 138.452 416.663ZM138.428 415.595C138.868 415.595 139.252 415.475 139.58 415.235C139.916 414.987 140.18 414.623 140.372 414.143C140.564 413.663 140.66 413.071 140.66 412.367C140.66 411.663 140.564 411.075 140.372 410.603C140.18 410.123 139.916 409.763 139.58 409.523C139.244 409.275 138.856 409.151 138.416 409.151C137.984 409.151 137.6 409.275 137.264 409.523C136.928 409.763 136.664 410.123 136.472 410.603C136.288 411.075 136.196 411.663 136.196 412.367C136.196 413.071 136.288 413.663 136.472 414.143C136.664 414.623 136.928 414.987 137.264 415.235C137.6 415.475 137.988 415.595 138.428 415.595ZM146.327 416.663C145.703 416.663 145.131 416.487 144.611 416.135C144.099 415.783 143.691 415.287 143.387 414.647C143.083 413.999 142.931 413.239 142.931 412.367C142.931 411.495 143.079 410.739 143.375 410.099C143.679 409.459 144.087 408.967 144.599 408.623C145.111 408.271 145.675 408.095 146.291 408.095C146.923 408.095 147.495 408.271 148.007 408.623C148.519 408.967 148.923 409.459 149.219 410.099C149.523 410.739 149.675 411.499 149.675 412.379C149.675 413.251 149.523 414.011 149.219 414.659C148.923 415.299 148.519 415.795 148.007 416.147C147.503 416.491 146.943 416.663 146.327 416.663ZM146.303 415.595C146.743 415.595 147.127 415.475 147.455 415.235C147.791 414.987 148.055 414.623 148.247 414.143C148.439 413.663 148.535 413.071 148.535 412.367C148.535 411.663 148.439 411.075 148.247 410.603C148.055 410.123 147.791 409.763 147.455 409.523C147.119 409.275 146.731 409.151 146.291 409.151C145.859 409.151 145.475 409.275 145.139 409.523C144.803 409.763 144.539 410.123 144.347 410.603C144.163 411.075 144.071 411.663 144.071 412.367C144.071 413.071 144.163 413.663 144.347 414.143C144.539 414.623 144.803 414.987 145.139 415.235C145.475 415.475 145.863 415.595 146.303 415.595Z" fill="#9F9F9F"/>
<path d="M130.964 360.12C130.42 360.12 129.924 360.02 129.476 359.82C129.036 359.612 128.664 359.312 128.36 358.92L129.128 358.152C129.312 358.432 129.564 358.656 129.884 358.824C130.204 358.984 130.56 359.064 130.952 359.064C131.32 359.064 131.636 358.996 131.9 358.86C132.172 358.716 132.384 358.516 132.536 358.26C132.696 358.004 132.776 357.708 132.776 357.372C132.776 357.028 132.696 356.732 132.536 356.484C132.384 356.228 132.168 356.032 131.888 355.896C131.608 355.76 131.276 355.692 130.892 355.692C130.748 355.692 130.604 355.704 130.46 355.728C130.316 355.744 130.176 355.772 130.04 355.812L130.52 355.164C130.672 355.092 130.836 355.036 131.012 354.996C131.188 354.956 131.364 354.936 131.54 354.936C131.988 354.936 132.388 355.04 132.74 355.248C133.1 355.456 133.384 355.748 133.592 356.124C133.808 356.5 133.916 356.936 133.916 357.432C133.916 357.96 133.788 358.428 133.532 358.836C133.284 359.236 132.94 359.552 132.5 359.784C132.06 360.008 131.548 360.12 130.964 360.12ZM130.04 355.812V355.128L132.476 352.356L133.82 352.344L131.312 355.188L130.04 355.812ZM128.756 352.68V351.672H133.82V352.344L132.836 352.68H128.756ZM138.417 360.12C137.793 360.12 137.221 359.944 136.701 359.592C136.189 359.24 135.781 358.744 135.477 358.104C135.173 357.456 135.021 356.696 135.021 355.824C135.021 354.952 135.169 354.196 135.465 353.556C135.769 352.916 136.177 352.424 136.689 352.08C137.201 351.728 137.765 351.552 138.381 351.552C139.013 351.552 139.585 351.728 140.097 352.08C140.609 352.424 141.013 352.916 141.309 353.556C141.613 354.196 141.765 354.956 141.765 355.836C141.765 356.708 141.613 357.468 141.309 358.116C141.013 358.756 140.609 359.252 140.097 359.604C139.593 359.948 139.033 360.12 138.417 360.12ZM138.393 359.052C138.833 359.052 139.217 358.932 139.545 358.692C139.881 358.444 140.145 358.08 140.337 357.6C140.529 357.12 140.625 356.528 140.625 355.824C140.625 355.12 140.529 354.532 140.337 354.06C140.145 353.58 139.881 353.22 139.545 352.98C139.209 352.732 138.821 352.608 138.381 352.608C137.949 352.608 137.565 352.732 137.229 352.98C136.893 353.22 136.629 353.58 136.437 354.06C136.253 354.532 136.161 355.12 136.161 355.824C136.161 356.528 136.253 357.12 136.437 357.6C136.629 358.08 136.893 358.444 137.229 358.692C137.565 358.932 137.953 359.052 138.393 359.052ZM146.292 360.12C145.668 360.12 145.096 359.944 144.576 359.592C144.064 359.24 143.656 358.744 143.352 358.104C143.048 357.456 142.896 356.696 142.896 355.824C142.896 354.952 143.044 354.196 143.34 353.556C143.644 352.916 144.052 352.424 144.564 352.08C145.076 351.728 145.64 351.552 146.256 351.552C146.888 351.552 147.46 351.728 147.972 352.08C148.484 352.424 148.888 352.916 149.184 353.556C149.488 354.196 149.64 354.956 149.64 355.836C149.64 356.708 149.488 357.468 149.184 358.116C148.888 358.756 148.484 359.252 147.972 359.604C147.468 359.948 146.908 360.12 146.292 360.12ZM146.268 359.052C146.708 359.052 147.092 358.932 147.42 358.692C147.756 358.444 148.02 358.08 148.212 357.6C148.404 357.12 148.5 356.528 148.5 355.824C148.5 355.12 148.404 354.532 148.212 354.06C148.02 353.58 147.756 353.22 147.42 352.98C147.084 352.732 146.696 352.608 146.256 352.608C145.824 352.608 145.44 352.732 145.104 352.98C144.768 353.22 144.504 353.58 144.312 354.06C144.128 354.532 144.036 355.12 144.036 355.824C144.036 356.528 144.128 357.12 144.312 357.6C144.504 358.08 144.768 358.444 145.104 358.692C145.44 358.932 145.828 359.052 146.268 359.052Z" fill="#9F9F9F"/>
<path d="M173.52 497.12C173.04 497.12 172.616 497.028 172.248 496.844C171.888 496.652 171.592 496.396 171.36 496.076L172.152 495.344C172.304 495.568 172.492 495.74 172.716 495.86C172.948 495.98 173.204 496.04 173.484 496.04C173.764 496.04 174.012 495.98 174.228 495.86C174.444 495.74 174.612 495.564 174.732 495.332C174.86 495.092 174.924 494.8 174.924 494.456V488.672H176.052V494.396C176.052 494.948 175.94 495.428 175.716 495.836C175.5 496.244 175.2 496.56 174.816 496.784C174.44 497.008 174.008 497.12 173.52 497.12ZM180.157 497.12C179.637 497.12 179.165 496.992 178.741 496.736C178.317 496.472 177.981 496.116 177.733 495.668C177.493 495.22 177.373 494.716 177.373 494.156C177.373 493.596 177.493 493.092 177.733 492.644C177.981 492.196 178.313 491.84 178.729 491.576C179.153 491.312 179.629 491.18 180.157 491.18C180.589 491.18 180.973 491.272 181.309 491.456C181.653 491.632 181.929 491.88 182.137 492.2C182.345 492.512 182.461 492.876 182.485 493.292V495.008C182.461 495.416 182.345 495.78 182.137 496.1C181.937 496.42 181.665 496.672 181.321 496.856C180.985 497.032 180.597 497.12 180.157 497.12ZM180.337 496.1C180.873 496.1 181.305 495.92 181.633 495.56C181.961 495.192 182.125 494.724 182.125 494.156C182.125 493.764 182.049 493.424 181.897 493.136C181.753 492.84 181.545 492.612 181.273 492.452C181.001 492.284 180.685 492.2 180.325 492.2C179.965 492.2 179.645 492.284 179.365 492.452C179.093 492.62 178.877 492.852 178.717 493.148C178.565 493.436 178.489 493.768 178.489 494.144C178.489 494.528 178.565 494.868 178.717 495.164C178.877 495.452 179.097 495.68 179.377 495.848C179.657 496.016 179.977 496.1 180.337 496.1ZM182.053 497V495.464L182.257 494.072L182.053 492.692V491.3H183.145V497H182.053ZM188.75 497V493.676C188.75 493.244 188.614 492.888 188.342 492.608C188.07 492.328 187.718 492.188 187.286 492.188C186.998 492.188 186.742 492.252 186.518 492.38C186.294 492.508 186.118 492.684 185.99 492.908C185.862 493.132 185.798 493.388 185.798 493.676L185.354 493.424C185.354 492.992 185.45 492.608 185.642 492.272C185.834 491.936 186.102 491.672 186.446 491.48C186.79 491.28 187.178 491.18 187.61 491.18C188.042 491.18 188.422 491.288 188.75 491.504C189.086 491.72 189.35 492.004 189.542 492.356C189.734 492.7 189.83 493.068 189.83 493.46V497H188.75ZM184.718 497V491.3H185.798V497H184.718Z" fill="#9F9F9F"/>
<path d="M182.172 350L182.172 475" stroke="#9F9F9F" stroke-width="1.11667" stroke-linecap="round" stroke-dasharray="1.12 8.93"/>
<path d="M238.984 497V488.672H240.112V497H238.984ZM239.752 493.34V492.308H244.096V493.34H239.752ZM239.752 489.704V488.672H244.3V489.704H239.752ZM248.006 497.12C247.438 497.12 246.926 496.992 246.47 496.736C246.014 496.472 245.654 496.116 245.39 495.668C245.126 495.22 244.994 494.712 244.994 494.144C244.994 493.584 245.122 493.08 245.378 492.632C245.642 492.184 245.994 491.832 246.434 491.576C246.882 491.312 247.382 491.18 247.934 491.18C248.462 491.18 248.926 491.3 249.326 491.54C249.734 491.78 250.05 492.112 250.274 492.536C250.506 492.96 250.622 493.44 250.622 493.976C250.622 494.056 250.618 494.144 250.61 494.24C250.602 494.328 250.586 494.432 250.562 494.552H245.75V493.652H249.986L249.59 494C249.59 493.616 249.522 493.292 249.386 493.028C249.25 492.756 249.058 492.548 248.81 492.404C248.562 492.252 248.262 492.176 247.91 492.176C247.542 492.176 247.218 492.256 246.938 492.416C246.658 492.576 246.442 492.8 246.29 493.088C246.138 493.376 246.062 493.716 246.062 494.108C246.062 494.508 246.142 494.86 246.302 495.164C246.462 495.46 246.69 495.692 246.986 495.86C247.282 496.02 247.622 496.1 248.006 496.1C248.326 496.1 248.618 496.044 248.882 495.932C249.154 495.82 249.386 495.652 249.578 495.428L250.274 496.136C250.002 496.456 249.666 496.7 249.266 496.868C248.874 497.036 248.454 497.12 248.006 497.12ZM254.8 497.12C254.368 497.12 253.976 497.032 253.624 496.856C253.28 496.672 253.004 496.42 252.796 496.1C252.588 495.78 252.472 495.416 252.448 495.008V493.292C252.472 492.876 252.588 492.512 252.796 492.2C253.012 491.88 253.292 491.632 253.636 491.456C253.988 491.272 254.376 491.18 254.8 491.18C255.32 491.18 255.788 491.312 256.204 491.576C256.628 491.84 256.96 492.196 257.2 492.644C257.44 493.092 257.56 493.596 257.56 494.156C257.56 494.716 257.44 495.22 257.2 495.668C256.96 496.116 256.628 496.472 256.204 496.736C255.788 496.992 255.32 497.12 254.8 497.12ZM254.62 496.1C254.98 496.1 255.296 496.016 255.568 495.848C255.84 495.68 256.056 495.452 256.216 495.164C256.376 494.868 256.456 494.528 256.456 494.144C256.456 493.768 256.376 493.432 256.216 493.136C256.056 492.84 255.84 492.612 255.568 492.452C255.296 492.284 254.984 492.2 254.632 492.2C254.272 492.2 253.956 492.284 253.684 492.452C253.412 492.612 253.2 492.84 253.048 493.136C252.896 493.432 252.82 493.772 252.82 494.156C252.82 494.532 252.892 494.868 253.036 495.164C253.188 495.452 253.4 495.68 253.672 495.848C253.952 496.016 254.268 496.1 254.62 496.1ZM251.8 497V488.432H252.88V492.692L252.676 494.072L252.88 495.464V497H251.8Z" fill="#9F9F9F"/>
<path d="M248.047 350L248.047 475" stroke="#9F9F9F" stroke-width="1.11667" stroke-linecap="round" stroke-dasharray="1.12 8.93"/>
<path d="M305.984 497V488.672H306.776L310.304 494.468H309.764L313.292 488.672H314.084V497H312.956V490.652L313.22 490.724L310.436 495.296H309.644L306.86 490.724L307.112 490.652V497H305.984ZM318.282 497.12C317.762 497.12 317.29 496.992 316.866 496.736C316.442 496.472 316.106 496.116 315.858 495.668C315.618 495.22 315.498 494.716 315.498 494.156C315.498 493.596 315.618 493.092 315.858 492.644C316.106 492.196 316.438 491.84 316.854 491.576C317.278 491.312 317.754 491.18 318.282 491.18C318.714 491.18 319.098 491.272 319.434 491.456C319.778 491.632 320.054 491.88 320.262 492.2C320.47 492.512 320.586 492.876 320.61 493.292V495.008C320.586 495.416 320.47 495.78 320.262 496.1C320.062 496.42 319.79 496.672 319.446 496.856C319.11 497.032 318.722 497.12 318.282 497.12ZM318.462 496.1C318.998 496.1 319.43 495.92 319.758 495.56C320.086 495.192 320.25 494.724 320.25 494.156C320.25 493.764 320.174 493.424 320.022 493.136C319.878 492.84 319.67 492.612 319.398 492.452C319.126 492.284 318.81 492.2 318.45 492.2C318.09 492.2 317.77 492.284 317.49 492.452C317.218 492.62 317.002 492.852 316.842 493.148C316.69 493.436 316.614 493.768 316.614 494.144C316.614 494.528 316.69 494.868 316.842 495.164C317.002 495.452 317.222 495.68 317.502 495.848C317.782 496.016 318.102 496.1 318.462 496.1ZM320.178 497V495.464L320.382 494.072L320.178 492.692V491.3H321.27V497H320.178ZM322.843 497V491.3H323.923V497H322.843ZM323.923 493.748L323.515 493.568C323.515 492.84 323.683 492.26 324.019 491.828C324.355 491.396 324.839 491.18 325.471 491.18C325.759 491.18 326.019 491.232 326.251 491.336C326.483 491.432 326.699 491.596 326.899 491.828L326.191 492.56C326.071 492.432 325.939 492.34 325.795 492.284C325.651 492.228 325.483 492.2 325.291 492.2C324.891 492.2 324.563 492.328 324.307 492.584C324.051 492.84 323.923 493.228 323.923 493.748Z" fill="#9F9F9F"/>
<path d="M315.914 350L315.914 475" stroke="#9F9F9F" stroke-width="1.11667" stroke-linecap="round" stroke-dasharray="1.12 8.93"/>
<path d="M375.372 497L378.78 488.672H379.596L382.992 497H381.768L378.972 489.956H379.392L376.572 497H375.372ZM376.992 495.116V494.132H381.372V495.116H376.992ZM387.147 497.12C386.715 497.12 386.323 497.032 385.971 496.856C385.627 496.672 385.351 496.42 385.143 496.1C384.935 495.78 384.819 495.416 384.795 495.008V493.292C384.819 492.876 384.935 492.512 385.143 492.2C385.359 491.88 385.639 491.632 385.983 491.456C386.335 491.272 386.723 491.18 387.147 491.18C387.667 491.18 388.135 491.312 388.551 491.576C388.975 491.84 389.307 492.196 389.547 492.644C389.787 493.092 389.907 493.596 389.907 494.156C389.907 494.716 389.787 495.22 389.547 495.668C389.307 496.116 388.975 496.472 388.551 496.736C388.135 496.992 387.667 497.12 387.147 497.12ZM386.967 496.1C387.327 496.1 387.643 496.016 387.915 495.848C388.187 495.68 388.403 495.452 388.563 495.164C388.723 494.868 388.803 494.528 388.803 494.144C388.803 493.768 388.723 493.432 388.563 493.136C388.403 492.84 388.187 492.612 387.915 492.452C387.643 492.284 387.331 492.2 386.979 492.2C386.619 492.2 386.303 492.284 386.031 492.452C385.759 492.612 385.547 492.84 385.395 493.136C385.243 493.432 385.167 493.772 385.167 494.156C385.167 494.532 385.239 494.868 385.383 495.164C385.535 495.452 385.747 495.68 386.019 495.848C386.299 496.016 386.615 496.1 386.967 496.1ZM384.147 499.388V491.3H385.227V492.8L385.023 494.18L385.227 495.572V499.388H384.147ZM391.132 497V491.3H392.212V497H391.132ZM392.212 493.748L391.804 493.568C391.804 492.84 391.972 492.26 392.308 491.828C392.644 491.396 393.128 491.18 393.76 491.18C394.048 491.18 394.308 491.232 394.54 491.336C394.772 491.432 394.988 491.596 395.188 491.828L394.48 492.56C394.36 492.432 394.228 492.34 394.084 492.284C393.94 492.228 393.772 492.2 393.58 492.2C393.18 492.2 392.852 492.328 392.596 492.584C392.34 492.84 392.212 493.228 392.212 493.748Z" fill="#9F9F9F"/>
<path d="M386.289 350L386.289 475" stroke="#9F9F9F" stroke-width="1.11667" stroke-linecap="round" stroke-dasharray="1.12 8.93"/>
<path d="M443.984 497V488.672H444.776L448.304 494.468H447.764L451.292 488.672H452.084V497H450.956V490.652L451.22 490.724L448.436 495.296H447.644L444.86 490.724L445.112 490.652V497H443.984ZM456.282 497.12C455.762 497.12 455.29 496.992 454.866 496.736C454.442 496.472 454.106 496.116 453.858 495.668C453.618 495.22 453.498 494.716 453.498 494.156C453.498 493.596 453.618 493.092 453.858 492.644C454.106 492.196 454.438 491.84 454.854 491.576C455.278 491.312 455.754 491.18 456.282 491.18C456.714 491.18 457.098 491.272 457.434 491.456C457.778 491.632 458.054 491.88 458.262 492.2C458.47 492.512 458.586 492.876 458.61 493.292V495.008C458.586 495.416 458.47 495.78 458.262 496.1C458.062 496.42 457.79 496.672 457.446 496.856C457.11 497.032 456.722 497.12 456.282 497.12ZM456.462 496.1C456.998 496.1 457.43 495.92 457.758 495.56C458.086 495.192 458.25 494.724 458.25 494.156C458.25 493.764 458.174 493.424 458.022 493.136C457.878 492.84 457.67 492.612 457.398 492.452C457.126 492.284 456.81 492.2 456.45 492.2C456.09 492.2 455.77 492.284 455.49 492.452C455.218 492.62 455.002 492.852 454.842 493.148C454.69 493.436 454.614 493.768 454.614 494.144C454.614 494.528 454.69 494.868 454.842 495.164C455.002 495.452 455.222 495.68 455.502 495.848C455.782 496.016 456.102 496.1 456.462 496.1ZM458.178 497V495.464L458.382 494.072L458.178 492.692V491.3H459.27V497H458.178ZM462.715 497.048L460.243 491.3H461.443L463.279 495.8H462.895L464.827 491.3H466.027L463.363 497.048H462.715ZM461.083 499.388L462.763 495.944L463.363 497.048L462.283 499.388H461.083Z" fill="#9F9F9F"/>
<path d="M455.023 350L455.023 475" stroke="#9F9F9F" stroke-width="1.11667" stroke-linecap="round" stroke-dasharray="1.12 8.93"/>
<path d="M516.52 497.12C516.04 497.12 515.616 497.028 515.248 496.844C514.888 496.652 514.592 496.396 514.36 496.076L515.152 495.344C515.304 495.568 515.492 495.74 515.716 495.86C515.948 495.98 516.204 496.04 516.484 496.04C516.764 496.04 517.012 495.98 517.228 495.86C517.444 495.74 517.612 495.564 517.732 495.332C517.86 495.092 517.924 494.8 517.924 494.456V488.672H519.052V494.396C519.052 494.948 518.94 495.428 518.716 495.836C518.5 496.244 518.2 496.56 517.816 496.784C517.44 497.008 517.008 497.12 516.52 497.12ZM523.037 497.12C522.565 497.12 522.141 497.016 521.765 496.808C521.397 496.592 521.109 496.296 520.901 495.92C520.693 495.544 520.589 495.108 520.589 494.612V491.3H521.669V494.564C521.669 494.876 521.721 495.148 521.825 495.38C521.937 495.604 522.097 495.776 522.305 495.896C522.513 496.016 522.757 496.076 523.037 496.076C523.461 496.076 523.793 495.944 524.033 495.68C524.273 495.408 524.393 495.036 524.393 494.564V491.3H525.473V494.612C525.473 495.108 525.369 495.544 525.161 495.92C524.953 496.296 524.665 496.592 524.297 496.808C523.937 497.016 523.517 497.12 523.037 497.12ZM530.953 497V493.676C530.953 493.244 530.817 492.888 530.545 492.608C530.273 492.328 529.921 492.188 529.489 492.188C529.201 492.188 528.945 492.252 528.721 492.38C528.497 492.508 528.321 492.684 528.193 492.908C528.065 493.132 528.001 493.388 528.001 493.676L527.557 493.424C527.557 492.992 527.653 492.608 527.845 492.272C528.037 491.936 528.305 491.672 528.649 491.48C528.993 491.28 529.381 491.18 529.813 491.18C530.245 491.18 530.625 491.288 530.953 491.504C531.289 491.72 531.553 492.004 531.745 492.356C531.937 492.7 532.033 493.068 532.033 493.46V497H530.953ZM526.921 497V491.3H528.001V497H526.921Z" fill="#9F9F9F"/>
<path d="M523.5 350L523.5 475" stroke="#9F9F9F" stroke-width="1.11667" stroke-linecap="round" stroke-dasharray="1.12 8.93"/>
<path d="M133.12 307L128.52 293H130.78L134.24 303.78H133.64L137.02 293H138.62L142 303.78H141.4L144.86 293H147.12L142.52 307H140.92L137.52 296.24H138.12L134.72 307H133.12ZM151.862 307.2C150.929 307.2 150.082 306.98 149.322 306.54C148.562 306.087 147.956 305.48 147.502 304.72C147.062 303.96 146.842 303.113 146.842 302.18C146.842 301.247 147.062 300.407 147.502 299.66C147.956 298.913 148.562 298.32 149.322 297.88C150.082 297.427 150.929 297.2 151.862 297.2C152.809 297.2 153.662 297.42 154.422 297.86C155.182 298.3 155.782 298.9 156.222 299.66C156.676 300.407 156.902 301.247 156.902 302.18C156.902 303.113 156.676 303.96 156.222 304.72C155.782 305.48 155.182 306.087 154.422 306.54C153.662 306.98 152.809 307.2 151.862 307.2ZM151.862 305.08C152.409 305.08 152.889 304.96 153.302 304.72C153.729 304.467 154.056 304.12 154.282 303.68C154.522 303.24 154.642 302.74 154.642 302.18C154.642 301.62 154.522 301.127 154.282 300.7C154.042 300.273 153.716 299.94 153.302 299.7C152.889 299.447 152.409 299.32 151.862 299.32C151.329 299.32 150.849 299.447 150.422 299.7C150.009 299.94 149.682 300.273 149.442 300.7C149.216 301.127 149.102 301.62 149.102 302.18C149.102 302.74 149.216 303.24 149.442 303.68C149.682 304.12 150.009 304.467 150.422 304.72C150.849 304.96 151.329 305.08 151.862 305.08ZM158.732 307V297.4H160.932V307H158.732ZM160.932 301.66L160.172 301.28C160.172 300.067 160.438 299.087 160.972 298.34C161.518 297.58 162.338 297.2 163.432 297.2C163.912 297.2 164.345 297.287 164.732 297.46C165.118 297.633 165.478 297.913 165.812 298.3L164.372 299.78C164.198 299.593 164.005 299.46 163.792 299.38C163.578 299.3 163.332 299.26 163.052 299.26C162.438 299.26 161.932 299.453 161.532 299.84C161.132 300.227 160.932 300.833 160.932 301.66ZM172.976 307L168.916 302.1L172.956 297.4H175.576L170.936 302.68L171.036 301.42L175.776 307H172.976ZM166.876 307V292.6H169.076V307H166.876ZM185.295 307.2C184.188 307.2 183.248 307 182.475 306.6C181.702 306.2 181.008 305.613 180.395 304.84L181.955 303.28C182.342 303.84 182.802 304.28 183.335 304.6C183.868 304.907 184.548 305.06 185.375 305.06C186.148 305.06 186.762 304.9 187.215 304.58C187.682 304.26 187.915 303.82 187.915 303.26C187.915 302.793 187.795 302.413 187.555 302.12C187.315 301.827 186.995 301.587 186.595 301.4C186.208 301.2 185.775 301.027 185.295 300.88C184.828 300.72 184.355 300.547 183.875 300.36C183.408 300.16 182.975 299.913 182.575 299.62C182.188 299.327 181.875 298.947 181.635 298.48C181.395 298.013 181.275 297.42 181.275 296.7C181.275 295.873 181.475 295.173 181.875 294.6C182.288 294.013 182.842 293.567 183.535 293.26C184.228 292.953 185.002 292.8 185.855 292.8C186.775 292.8 187.595 292.98 188.315 293.34C189.048 293.7 189.642 294.16 190.095 294.72L188.535 296.28C188.135 295.827 187.715 295.493 187.275 295.28C186.848 295.053 186.355 294.94 185.795 294.94C185.102 294.94 184.555 295.08 184.155 295.36C183.768 295.64 183.575 296.033 183.575 296.54C183.575 296.967 183.695 297.313 183.935 297.58C184.175 297.833 184.488 298.053 184.875 298.24C185.275 298.413 185.708 298.58 186.175 298.74C186.655 298.9 187.128 299.08 187.595 299.28C188.075 299.48 188.508 299.74 188.895 300.06C189.295 300.367 189.615 300.767 189.855 301.26C190.095 301.753 190.215 302.373 190.215 303.12C190.215 304.373 189.768 305.367 188.875 306.1C187.995 306.833 186.802 307.2 185.295 307.2ZM196.148 307.2C195.335 307.2 194.608 307.02 193.968 306.66C193.342 306.3 192.848 305.807 192.488 305.18C192.142 304.54 191.968 303.807 191.968 302.98V297.4H194.168V302.88C194.168 303.347 194.242 303.747 194.388 304.08C194.548 304.4 194.775 304.647 195.068 304.82C195.375 304.993 195.735 305.08 196.148 305.08C196.788 305.08 197.275 304.893 197.608 304.52C197.955 304.133 198.128 303.587 198.128 302.88V297.4H200.328V302.98C200.328 303.82 200.148 304.56 199.788 305.2C199.442 305.827 198.955 306.32 198.328 306.68C197.702 307.027 196.975 307.2 196.148 307.2ZM202.54 307V297.4H204.74V307H202.54ZM208.92 307V301.28C208.92 300.64 208.72 300.147 208.32 299.8C207.92 299.44 207.427 299.26 206.84 299.26C206.44 299.26 206.08 299.34 205.76 299.5C205.454 299.66 205.207 299.893 205.02 300.2C204.834 300.493 204.74 300.853 204.74 301.28L203.88 300.8C203.88 300.067 204.04 299.433 204.36 298.9C204.68 298.367 205.114 297.953 205.66 297.66C206.207 297.353 206.82 297.2 207.5 297.2C208.18 297.2 208.794 297.347 209.34 297.64C209.887 297.933 210.32 298.347 210.64 298.88C210.96 299.413 211.12 300.053 211.12 300.8V307H208.92ZM215.3 307V301.28C215.3 300.64 215.1 300.147 214.7 299.8C214.3 299.44 213.807 299.26 213.22 299.26C212.834 299.26 212.48 299.34 212.16 299.5C211.84 299.66 211.587 299.893 211.4 300.2C211.214 300.493 211.12 300.853 211.12 301.28L209.88 300.8C209.947 300.067 210.16 299.433 210.52 298.9C210.88 298.367 211.34 297.953 211.9 297.66C212.474 297.353 213.1 297.2 213.78 297.2C214.474 297.2 215.1 297.347 215.66 297.64C216.22 297.933 216.667 298.347 217 298.88C217.334 299.413 217.5 300.053 217.5 300.8V307H215.3ZM219.767 307V297.4H221.967V307H219.767ZM226.147 307V301.28C226.147 300.64 225.947 300.147 225.547 299.8C225.147 299.44 224.654 299.26 224.067 299.26C223.667 299.26 223.307 299.34 222.987 299.5C222.68 299.66 222.434 299.893 222.247 300.2C222.06 300.493 221.967 300.853 221.967 301.28L221.107 300.8C221.107 300.067 221.267 299.433 221.587 298.9C221.907 298.367 222.34 297.953 222.887 297.66C223.434 297.353 224.047 297.2 224.727 297.2C225.407 297.2 226.02 297.347 226.567 297.64C227.114 297.933 227.547 298.347 227.867 298.88C228.187 299.413 228.347 300.053 228.347 300.8V307H226.147ZM232.527 307V301.28C232.527 300.64 232.327 300.147 231.927 299.8C231.527 299.44 231.034 299.26 230.447 299.26C230.06 299.26 229.707 299.34 229.387 299.5C229.067 299.66 228.814 299.893 228.627 300.2C228.44 300.493 228.347 300.853 228.347 301.28L227.107 300.8C227.174 300.067 227.387 299.433 227.747 298.9C228.107 298.367 228.567 297.953 229.127 297.66C229.7 297.353 230.327 297.2 231.007 297.2C231.7 297.2 232.327 297.347 232.887 297.64C233.447 297.933 233.894 298.347 234.227 298.88C234.56 299.413 234.727 300.053 234.727 300.8V307H232.527ZM241.013 307.2C240.147 307.2 239.36 306.98 238.653 306.54C237.96 306.1 237.407 305.507 236.993 304.76C236.593 304 236.393 303.153 236.393 302.22C236.393 301.273 236.593 300.427 236.993 299.68C237.407 298.92 237.96 298.32 238.653 297.88C239.36 297.427 240.147 297.2 241.013 297.2C241.747 297.2 242.393 297.36 242.953 297.68C243.527 297.987 243.98 298.413 244.313 298.96C244.647 299.507 244.813 300.127 244.813 300.82V303.58C244.813 304.273 244.647 304.893 244.313 305.44C243.993 305.987 243.547 306.42 242.973 306.74C242.4 307.047 241.747 307.2 241.013 307.2ZM241.373 305.12C242.187 305.12 242.84 304.847 243.333 304.3C243.84 303.753 244.093 303.053 244.093 302.2C244.093 301.627 243.98 301.12 243.753 300.68C243.527 300.24 243.207 299.9 242.793 299.66C242.393 299.407 241.92 299.28 241.373 299.28C240.84 299.28 240.367 299.407 239.953 299.66C239.553 299.9 239.233 300.24 238.993 300.68C238.767 301.12 238.653 301.627 238.653 302.2C238.653 302.773 238.767 303.28 238.993 303.72C239.233 304.16 239.553 304.507 239.953 304.76C240.367 305 240.84 305.12 241.373 305.12ZM243.953 307V304.42L244.333 302.08L243.953 299.76V297.4H246.153V307H243.953ZM248.595 307V297.4H250.795V307H248.595ZM250.795 301.66L250.035 301.28C250.035 300.067 250.302 299.087 250.835 298.34C251.382 297.58 252.202 297.2 253.295 297.2C253.775 297.2 254.208 297.287 254.595 297.46C254.982 297.633 255.342 297.913 255.675 298.3L254.235 299.78C254.062 299.593 253.868 299.46 253.655 299.38C253.442 299.3 253.195 299.26 252.915 299.26C252.302 299.26 251.795 299.453 251.395 299.84C250.995 300.227 250.795 300.833 250.795 301.66ZM259.703 307.1L255.603 297.4H258.023L260.823 304.52H260.123L263.083 297.4H265.523L261.063 307.1H259.703ZM256.843 311L259.823 304.86L261.063 307.1L259.283 311H256.843Z" fill="#1D1D1D"/>
<path d="M456.148 305V295.284H457.464V305H456.148ZM457.044 305V303.796H462.252V305H457.044ZM466.19 305.14C465.583 305.14 465.032 304.991 464.538 304.692C464.043 304.384 463.651 303.969 463.361 303.446C463.082 302.923 462.942 302.335 462.942 301.682C462.942 301.029 463.082 300.441 463.361 299.918C463.651 299.395 464.038 298.98 464.524 298.672C465.018 298.364 465.574 298.21 466.19 298.21C466.694 298.21 467.142 298.317 467.534 298.532C467.935 298.737 468.257 299.027 468.5 299.4C468.742 299.764 468.878 300.189 468.906 300.674V302.676C468.878 303.152 468.742 303.577 468.5 303.95C468.266 304.323 467.949 304.617 467.548 304.832C467.156 305.037 466.703 305.14 466.19 305.14ZM466.4 303.95C467.025 303.95 467.529 303.74 467.912 303.32C468.294 302.891 468.486 302.345 468.486 301.682C468.486 301.225 468.397 300.828 468.22 300.492C468.052 300.147 467.809 299.881 467.492 299.694C467.174 299.498 466.806 299.4 466.386 299.4C465.966 299.4 465.592 299.498 465.266 299.694C464.948 299.89 464.696 300.161 464.51 300.506C464.332 300.842 464.244 301.229 464.244 301.668C464.244 302.116 464.332 302.513 464.51 302.858C464.696 303.194 464.953 303.46 465.28 303.656C465.606 303.852 465.98 303.95 466.4 303.95ZM468.402 305V303.208L468.64 301.584L468.402 299.974V298.35H469.676V305H468.402ZM473.624 305.14C473.251 305.14 472.896 305.093 472.56 305C472.233 304.897 471.93 304.757 471.65 304.58C471.37 304.393 471.127 304.174 470.922 303.922L471.734 303.11C471.977 303.409 472.257 303.633 472.574 303.782C472.891 303.922 473.246 303.992 473.638 303.992C474.03 303.992 474.333 303.927 474.548 303.796C474.763 303.656 474.87 303.465 474.87 303.222C474.87 302.979 474.781 302.793 474.604 302.662C474.436 302.522 474.217 302.41 473.946 302.326C473.675 302.233 473.386 302.144 473.078 302.06C472.779 301.967 472.495 301.85 472.224 301.71C471.953 301.57 471.729 301.379 471.552 301.136C471.384 300.893 471.3 300.571 471.3 300.17C471.3 299.769 471.398 299.423 471.594 299.134C471.79 298.835 472.061 298.607 472.406 298.448C472.761 298.289 473.185 298.21 473.68 298.21C474.203 298.21 474.665 298.303 475.066 298.49C475.477 298.667 475.813 298.938 476.074 299.302L475.262 300.114C475.075 299.871 474.842 299.685 474.562 299.554C474.291 299.423 473.983 299.358 473.638 299.358C473.274 299.358 472.994 299.423 472.798 299.554C472.611 299.675 472.518 299.848 472.518 300.072C472.518 300.296 472.602 300.469 472.77 300.59C472.938 300.711 473.157 300.814 473.428 300.898C473.708 300.982 473.997 301.071 474.296 301.164C474.595 301.248 474.879 301.365 475.15 301.514C475.421 301.663 475.64 301.864 475.808 302.116C475.985 302.368 476.074 302.699 476.074 303.11C476.074 303.735 475.85 304.23 475.402 304.594C474.963 304.958 474.371 305.14 473.624 305.14ZM478.507 305V295.564H479.767V305H478.507ZM476.869 299.498V298.35H481.405V299.498H476.869ZM488.575 305.14C487.931 305.14 487.352 304.991 486.839 304.692C486.335 304.393 485.934 303.992 485.635 303.488C485.336 302.984 485.187 302.424 485.187 301.808C485.187 300.949 485.486 300.095 486.083 299.246L488.939 295.284H490.465L487.539 299.274L487.063 299.526C487.175 299.33 487.31 299.167 487.469 299.036C487.628 298.896 487.824 298.789 488.057 298.714C488.29 298.639 488.566 298.602 488.883 298.602C489.452 298.602 489.966 298.737 490.423 299.008C490.89 299.279 491.263 299.652 491.543 300.128C491.832 300.595 491.977 301.141 491.977 301.766C491.977 302.382 491.823 302.947 491.515 303.46C491.216 303.973 490.806 304.384 490.283 304.692C489.77 304.991 489.2 305.14 488.575 305.14ZM488.575 303.908C488.967 303.908 489.317 303.815 489.625 303.628C489.942 303.432 490.19 303.175 490.367 302.858C490.554 302.531 490.647 302.167 490.647 301.766C490.647 301.365 490.554 301.005 490.367 300.688C490.19 300.361 489.942 300.105 489.625 299.918C489.317 299.731 488.967 299.638 488.575 299.638C488.183 299.638 487.828 299.731 487.511 299.918C487.203 300.105 486.956 300.361 486.769 300.688C486.592 301.005 486.503 301.365 486.503 301.766C486.503 302.167 486.592 302.531 486.769 302.858C486.956 303.185 487.203 303.441 487.511 303.628C487.828 303.815 488.183 303.908 488.575 303.908ZM496.589 305V295.284H497.513L501.629 302.046H500.999L505.115 295.284H506.039V305H504.723V297.594L505.031 297.678L501.783 303.012H500.859L497.611 297.678L497.905 297.594V305H496.589ZM511.148 305.14C510.494 305.14 509.906 304.986 509.384 304.678C508.861 304.37 508.446 303.955 508.138 303.432C507.83 302.9 507.676 302.307 507.676 301.654C507.676 301.01 507.83 300.431 508.138 299.918C508.446 299.395 508.861 298.98 509.384 298.672C509.906 298.364 510.494 298.21 511.148 298.21C511.792 298.21 512.375 298.364 512.898 298.672C513.43 298.971 513.85 299.381 514.158 299.904C514.466 300.427 514.62 301.01 514.62 301.654C514.62 302.307 514.466 302.9 514.158 303.432C513.85 303.955 513.43 304.37 512.898 304.678C512.375 304.986 511.792 305.14 511.148 305.14ZM511.148 303.922C511.568 303.922 511.941 303.824 512.268 303.628C512.594 303.432 512.851 303.166 513.038 302.83C513.224 302.485 513.318 302.093 513.318 301.654C513.318 301.225 513.22 300.842 513.024 300.506C512.837 300.17 512.58 299.909 512.254 299.722C511.936 299.526 511.568 299.428 511.148 299.428C510.728 299.428 510.354 299.526 510.028 299.722C509.701 299.909 509.444 300.17 509.258 300.506C509.071 300.842 508.978 301.225 508.978 301.654C508.978 302.093 509.071 302.485 509.258 302.83C509.444 303.166 509.701 303.432 510.028 303.628C510.354 303.824 510.728 303.922 511.148 303.922ZM520.743 305V301.122C520.743 300.618 520.585 300.203 520.267 299.876C519.95 299.549 519.539 299.386 519.035 299.386C518.699 299.386 518.401 299.461 518.139 299.61C517.878 299.759 517.673 299.965 517.523 300.226C517.374 300.487 517.299 300.786 517.299 301.122L516.781 300.828C516.781 300.324 516.893 299.876 517.117 299.484C517.341 299.092 517.654 298.784 518.055 298.56C518.457 298.327 518.909 298.21 519.413 298.21C519.917 298.21 520.361 298.336 520.743 298.588C521.135 298.84 521.443 299.171 521.667 299.582C521.891 299.983 522.003 300.413 522.003 300.87V305H520.743ZM516.039 305V298.35H517.299V305H516.039ZM524.649 305V295.564H525.909V305H524.649ZM523.011 299.498V298.35H527.547V299.498H523.011ZM533.485 305V301.122C533.485 300.618 533.327 300.203 533.009 299.876C532.692 299.549 532.281 299.386 531.777 299.386C531.441 299.386 531.143 299.461 530.881 299.61C530.62 299.759 530.415 299.965 530.265 300.226C530.116 300.487 530.041 300.786 530.041 301.122L529.523 300.828C529.523 300.324 529.635 299.876 529.859 299.484C530.083 299.092 530.396 298.784 530.797 298.56C531.199 298.327 531.651 298.21 532.155 298.21C532.659 298.21 533.103 298.322 533.485 298.546C533.877 298.77 534.185 299.083 534.409 299.484C534.633 299.885 534.745 300.347 534.745 300.87V305H533.485ZM528.781 305V295.004H530.041V305H528.781ZM538.565 305.14C538.192 305.14 537.837 305.093 537.501 305C537.175 304.897 536.871 304.757 536.591 304.58C536.311 304.393 536.069 304.174 535.863 303.922L536.675 303.11C536.918 303.409 537.198 303.633 537.515 303.782C537.833 303.922 538.187 303.992 538.579 303.992C538.971 303.992 539.275 303.927 539.489 303.796C539.704 303.656 539.811 303.465 539.811 303.222C539.811 302.979 539.723 302.793 539.545 302.662C539.377 302.522 539.158 302.41 538.887 302.326C538.617 302.233 538.327 302.144 538.019 302.06C537.721 301.967 537.436 301.85 537.165 301.71C536.895 301.57 536.671 301.379 536.493 301.136C536.325 300.893 536.241 300.571 536.241 300.17C536.241 299.769 536.339 299.423 536.535 299.134C536.731 298.835 537.002 298.607 537.347 298.448C537.702 298.289 538.127 298.21 538.621 298.21C539.144 298.21 539.606 298.303 540.007 298.49C540.418 298.667 540.754 298.938 541.015 299.302L540.203 300.114C540.017 299.871 539.783 299.685 539.503 299.554C539.233 299.423 538.925 299.358 538.579 299.358C538.215 299.358 537.935 299.423 537.739 299.554C537.553 299.675 537.459 299.848 537.459 300.072C537.459 300.296 537.543 300.469 537.711 300.59C537.879 300.711 538.099 300.814 538.369 300.898C538.649 300.982 538.939 301.071 539.237 301.164C539.536 301.248 539.821 301.365 540.091 301.514C540.362 301.663 540.581 301.864 540.749 302.116C540.927 302.368 541.015 302.699 541.015 303.11C541.015 303.735 540.791 304.23 540.343 304.594C539.905 304.958 539.312 305.14 538.565 305.14Z" fill="#1D1D1D"/>
<circle cx="446" cy="300" r="3" fill="#EB742E"/>
<path d="M210.48 445.131C200.979 465.848 186.868 470.904 181 470.843L181.015 480L521 479.262L520.834 376.989C503.602 369.459 490.874 369.485 486.664 370.44C470.118 371.227 454.209 387.993 448.323 396.277C425.066 419.602 399.865 407.364 390.171 398.33C358.083 368.618 334.431 402.023 326.615 422.44C310.974 454.836 280.145 443.033 266.686 433.082C234.779 416.74 215.92 434.306 210.48 445.131Z" fill="url(#paint0_linear_1416_4837)"/>
<path d="M181.641 471.848C187.514 471.927 201.623 466.865 211.071 445.979C216.484 435.067 235.308 417.39 267.294 433.983C280.795 444.07 311.688 456.079 327.247 423.42C335.009 402.832 358.584 369.179 390.79 399.271C400.52 408.421 425.781 420.85 448.99 397.374C454.857 389.028 470.731 372.15 487.29 371.405C491.501 370.454 504.241 370.466 521.511 378.119" stroke="#1D1D1D" stroke-width="1.675"/>
<ellipse cx="388.891" cy="393.897" rx="12" ry="11.991" fill="#1D1D1D"/>
<path d="M383.055 396.9V393.028C383.055 392.938 383.055 392.842 383.055 392.74C383.06 392.634 383.065 392.524 383.071 392.412C382.889 392.588 382.679 392.743 382.439 392.876C382.199 393.004 381.953 393.098 381.703 393.156L381.535 392.572C381.631 392.562 381.751 392.527 381.895 392.468C382.044 392.404 382.199 392.327 382.359 392.236C382.524 392.14 382.676 392.039 382.815 391.932C382.953 391.826 383.06 391.722 383.135 391.62H383.695V396.9H383.055ZM386.996 396.98C386.398 396.98 385.921 396.748 385.564 396.284C385.206 395.82 385.028 395.146 385.028 394.26C385.028 393.375 385.206 392.7 385.564 392.236C385.921 391.772 386.398 391.54 386.996 391.54C387.598 391.54 388.076 391.772 388.428 392.236C388.785 392.7 388.964 393.375 388.964 394.26C388.964 395.146 388.785 395.82 388.428 396.284C388.076 396.748 387.598 396.98 386.996 396.98ZM386.996 396.404C387.278 396.404 387.516 396.324 387.708 396.164C387.905 395.999 388.052 395.756 388.148 395.436C388.249 395.116 388.3 394.724 388.3 394.26C388.3 393.796 388.249 393.404 388.148 393.084C388.052 392.764 387.905 392.524 387.708 392.364C387.516 392.199 387.278 392.116 386.996 392.116C386.713 392.116 386.473 392.199 386.276 392.364C386.084 392.524 385.937 392.764 385.836 393.084C385.74 393.404 385.692 393.796 385.692 394.26C385.692 394.724 385.74 395.116 385.836 395.436C385.937 395.756 386.084 395.999 386.276 396.164C386.473 396.324 386.713 396.404 386.996 396.404ZM390.924 396.9L394.284 391.62H394.892L391.532 396.9H390.924ZM391.076 391.54C391.338 391.54 391.562 391.602 391.748 391.724C391.94 391.842 392.087 392.01 392.188 392.228C392.295 392.447 392.348 392.703 392.348 392.996C392.348 393.29 392.295 393.546 392.188 393.764C392.087 393.983 391.94 394.154 391.748 394.276C391.562 394.394 391.338 394.452 391.076 394.452C390.82 394.452 390.596 394.394 390.404 394.276C390.212 394.154 390.063 393.983 389.956 393.764C389.855 393.546 389.804 393.29 389.804 392.996C389.804 392.703 389.855 392.447 389.956 392.228C390.063 392.01 390.212 391.842 390.404 391.724C390.596 391.602 390.82 391.54 391.076 391.54ZM391.076 392.044C390.927 392.044 390.799 392.082 390.692 392.156C390.586 392.231 390.506 392.34 390.452 392.484C390.399 392.623 390.372 392.794 390.372 392.996C390.372 393.194 390.399 393.364 390.452 393.508C390.506 393.652 390.586 393.762 390.692 393.836C390.799 393.911 390.927 393.948 391.076 393.948C391.231 393.948 391.359 393.911 391.46 393.836C391.567 393.762 391.647 393.652 391.7 393.508C391.754 393.364 391.78 393.194 391.78 392.996C391.78 392.794 391.754 392.623 391.7 392.484C391.647 392.34 391.567 392.231 391.46 392.156C391.359 392.082 391.231 392.044 391.076 392.044ZM394.74 394.068C395.002 394.068 395.226 394.13 395.412 394.252C395.604 394.37 395.751 394.538 395.852 394.756C395.959 394.975 396.012 395.231 396.012 395.524C396.012 395.818 395.959 396.074 395.852 396.292C395.751 396.511 395.604 396.682 395.412 396.804C395.226 396.922 395.002 396.98 394.74 396.98C394.484 396.98 394.26 396.922 394.068 396.804C393.876 396.682 393.727 396.511 393.62 396.292C393.519 396.074 393.468 395.818 393.468 395.524C393.468 395.231 393.519 394.975 393.62 394.756C393.727 394.538 393.876 394.37 394.068 394.252C394.26 394.13 394.484 394.068 394.74 394.068ZM394.74 394.572C394.591 394.572 394.463 394.61 394.356 394.684C394.25 394.759 394.17 394.868 394.116 395.012C394.063 395.151 394.036 395.322 394.036 395.524C394.036 395.722 394.063 395.892 394.116 396.036C394.17 396.18 394.25 396.29 394.356 396.364C394.463 396.439 394.591 396.476 394.74 396.476C394.895 396.476 395.023 396.439 395.124 396.364C395.231 396.29 395.311 396.18 395.364 396.036C395.418 395.892 395.444 395.722 395.444 395.524C395.444 395.322 395.418 395.151 395.364 395.012C395.311 394.868 395.231 394.759 395.124 394.684C395.023 394.61 394.895 394.572 394.74 394.572Z" fill="white"/>
<defs>
<filter id="filter0_d_1416_4837" x="88" y="266" width="486" height="278" filterUnits="userSpaceOnUse" color-interpolation-filters="sRGB">
<feFlood flood-opacity="0" result="BackgroundImageFix"/>
<feColorMatrix in="SourceAlpha" type="matrix" values="0 0 0 0 0 0 0 0 0 0 0 0 0 0 0 0 0 0 127 0" result="hardAlpha"/>
<feOffset dx="-8" dy="8"/>
<feComposite in2="hardAlpha" operator="out"/>
<feColorMatrix type="matrix" values="0 0 0 0 0 0 0 0 0 0 0 0 0 0 0 0 0 0 0.3 0"/>
<feBlend mode="normal" in2="BackgroundImageFix" result="effect1_dropShadow_1416_4837"/>
<feBlend mode="normal" in="SourceGraphic" in2="effect1_dropShadow_1416_4837" result="shape"/>
</filter>
<linearGradient id="paint0_linear_1416_4837" x1="344.155" y1="389.852" x2="364.953" y2="506.972" gradientUnits="userSpaceOnUse">
<stop stop-color="#D4FD52"/>
<stop offset="1" stop-color="white" stop-opacity="0"/>
<stop offset="1" stop-color="white" stop-opacity="0"/>
</linearGradient>
</defs>
</svg>
