<svg width="37" height="60" viewBox="0 0 37 60" fill="none" xmlns="http://www.w3.org/2000/svg">
<path opacity="0.1" d="M3.71197 29.1L3.47249 29.4H0V4.56L1.85599 2.7L7.42395 8.28V25.44L3.71197 29.1ZM1.85599 57.3L0 55.44V30.6H3.47249L3.71197 30.9L7.42395 34.56V51.72L1.85599 57.3ZM2.69417 1.86L4.55016 0H32.4498L34.3058 1.86L28.7379 7.44H8.26214L2.69417 1.86ZM33.288 30.9L33.5275 30.66H37V55.44L35.144 57.3L29.5761 51.72V34.56L33.288 30.9ZM35.144 2.7L37 4.56V29.4H33.5275L33.288 29.16L29.5761 25.5V8.28L35.144 2.7ZM34.3058 58.14L32.4498 60H4.55016L2.69417 58.14L8.26214 52.56H28.7379L34.3058 58.14Z" fill="#1D1D1D"/>
<path d="M33.2823 30.9012L33.5218 30.6612H36.9943V55.4412L35.1383 57.3012L29.5703 51.7212V34.5612L33.2823 30.9012ZM35.1383 2.70117L36.9943 4.56117V29.4012H33.5218L33.2823 29.1612L29.5703 25.5012V8.28117L35.1383 2.70117Z" fill="#1D1D1D"/>
</svg>
