<svg width="37" height="60" viewBox="0 0 37 60" fill="none" xmlns="http://www.w3.org/2000/svg">
<path opacity="0.1" d="M3.71197 29.1L3.47249 29.4H0V4.56L1.85599 2.7L7.42395 8.28V25.44L3.71197 29.1ZM1.85599 57.3L0 55.44V30.6H3.47249L3.71197 30.9L7.42395 34.56V51.72L1.85599 57.3ZM2.69417 1.86L4.55016 0H32.4498L34.3058 1.86L28.7379 7.44H8.26214L2.69417 1.86ZM33.288 30.9L33.5275 30.66H37V55.44L35.144 57.3L29.5761 51.72V34.56L33.288 30.9ZM35.144 2.7L37 4.56V29.4H33.5275L33.288 29.16L29.5761 25.5V8.28L35.144 2.7ZM34.3058 58.14L32.4498 60H4.55016L2.69417 58.14L8.26214 52.56H28.7379L34.3058 58.14Z" fill="#1D1D1D"/>
<path d="M28.6193 26.28L32.3911 30.06L28.739 33.72H8.26327L4.5513 30L8.26327 26.28H28.6193ZM2.69531 1.86L4.5513 0H32.451L34.307 1.86L28.739 7.44H8.26327L2.69531 1.86ZM33.2892 30.9L33.5286 30.66H37.0011V55.44L35.1452 57.3L29.5772 51.72V34.56L33.2892 30.9ZM35.1452 2.7L37.0011 4.56V29.4H33.5286L33.2892 29.16L29.5772 25.5V8.28L35.1452 2.7ZM34.307 58.14L32.451 60H4.5513L2.69531 58.14L8.26327 52.56H28.739L34.307 58.14Z" fill="#1D1D1D"/>
</svg>
