<svg width="448" height="456" viewBox="0 0 448 456" fill="none" xmlns="http://www.w3.org/2000/svg">
<line x1="38" y1="0.501953" x2="279" y2="0.501953" stroke="white"/>
<line x1="38" y1="50.502" x2="278" y2="50.502" stroke="white"/>
<line x1="38" y1="100.502" x2="278" y2="100.502" stroke="white"/>
<line x1="38" y1="150.502" x2="278" y2="150.502" stroke="white"/>
<line x1="38" y1="200.502" x2="278" y2="200.502" stroke="white"/>
<line x1="278.5" y1="1.00195" x2="278.5" y2="201.002" stroke="white"/>
<line x1="218.492" y1="1.00195" x2="218.492" y2="201.002" stroke="white"/>
<line x1="158.508" y1="1.00195" x2="158.508" y2="201.002" stroke="white"/>
<line x1="98.5" y1="1.00195" x2="98.5" y2="201.002" stroke="white"/>
<line x1="38.5" y1="1.00195" x2="38.5" y2="201.002" stroke="white"/>
<rect x="118" y="25.002" width="330" height="430" rx="10" fill="#EB742E"/>
<g filter="url(#filter0_d_1358_3780)">
<rect x="8" y="65.002" width="398" height="272" rx="10" fill="white"/>
</g>
<path d="M54.228 109.178C53.28 109.178 52.428 108.962 51.672 108.53C50.916 108.098 50.316 107.51 49.872 106.766C49.44 106.01 49.224 105.158 49.224 104.21V96.398H51.294V104.192C51.294 104.804 51.42 105.338 51.672 105.794C51.936 106.238 52.29 106.586 52.734 106.838C53.178 107.078 53.676 107.198 54.228 107.198C54.792 107.198 55.29 107.078 55.722 106.838C56.154 106.586 56.496 106.238 56.748 105.794C57 105.338 57.126 104.81 57.126 104.21V96.398H59.196V104.228C59.196 105.176 58.98 106.022 58.548 106.766C58.116 107.51 57.528 108.098 56.784 108.53C56.04 108.962 55.188 109.178 54.228 109.178ZM64.3517 109.178C63.8717 109.178 63.4097 109.118 62.9657 108.998C62.5217 108.866 62.1137 108.686 61.7417 108.458C61.3697 108.218 61.0457 107.93 60.7697 107.594L62.0297 106.334C62.3297 106.682 62.6717 106.946 63.0557 107.126C63.4517 107.294 63.8957 107.378 64.3877 107.378C64.8317 107.378 65.1677 107.312 65.3957 107.18C65.6237 107.048 65.7377 106.856 65.7377 106.604C65.7377 106.34 65.6297 106.136 65.4137 105.992C65.1977 105.848 64.9157 105.728 64.5677 105.632C64.2317 105.524 63.8717 105.416 63.4877 105.308C63.1157 105.2 62.7557 105.056 62.4077 104.876C62.0717 104.684 61.7957 104.426 61.5797 104.102C61.3637 103.778 61.2557 103.358 61.2557 102.842C61.2557 102.29 61.3817 101.816 61.6337 101.42C61.8977 101.024 62.2637 100.718 62.7317 100.502C63.2117 100.286 63.7817 100.178 64.4417 100.178C65.1377 100.178 65.7497 100.304 66.2777 100.556C66.8177 100.796 67.2677 101.162 67.6277 101.654L66.3677 102.914C66.1157 102.602 65.8277 102.368 65.5037 102.212C65.1797 102.056 64.8077 101.978 64.3877 101.978C63.9917 101.978 63.6857 102.038 63.4697 102.158C63.2537 102.278 63.1457 102.452 63.1457 102.68C63.1457 102.92 63.2537 103.106 63.4697 103.238C63.6857 103.37 63.9617 103.484 64.2977 103.58C64.6457 103.676 65.0057 103.784 65.3777 103.904C65.7617 104.012 66.1217 104.168 66.4577 104.372C66.8057 104.564 67.0877 104.828 67.3037 105.164C67.5197 105.488 67.6277 105.914 67.6277 106.442C67.6277 107.282 67.3337 107.948 66.7457 108.44C66.1577 108.932 65.3597 109.178 64.3517 109.178ZM73.2741 109.178C72.4101 109.178 71.6301 108.986 70.9341 108.602C70.2501 108.206 69.7041 107.666 69.2961 106.982C68.9001 106.298 68.7021 105.53 68.7021 104.678C68.7021 103.826 68.9001 103.064 69.2961 102.392C69.6921 101.708 70.2261 101.168 70.8981 100.772C71.5821 100.376 72.3381 100.178 73.1661 100.178C73.9701 100.178 74.6781 100.364 75.2901 100.736C75.9141 101.108 76.4001 101.618 76.7481 102.266C77.1081 102.914 77.2881 103.652 77.2881 104.48C77.2881 104.624 77.2761 104.774 77.2521 104.93C77.2401 105.074 77.2161 105.236 77.1801 105.416H70.0881V103.796H76.1541L75.4161 104.444C75.3921 103.916 75.2901 103.472 75.1101 103.112C74.9301 102.752 74.6721 102.476 74.3361 102.284C74.0121 102.092 73.6101 101.996 73.1301 101.996C72.6261 101.996 72.1881 102.104 71.8161 102.32C71.4441 102.536 71.1561 102.842 70.9521 103.238C70.7481 103.622 70.6461 104.084 70.6461 104.624C70.6461 105.164 70.7541 105.638 70.9701 106.046C71.1861 106.454 71.4921 106.772 71.8881 107C72.2841 107.216 72.7401 107.324 73.2561 107.324C73.7001 107.324 74.1081 107.246 74.4801 107.09C74.8641 106.934 75.1881 106.706 75.4521 106.406L76.7121 107.684C76.2921 108.176 75.7821 108.548 75.1821 108.8C74.5821 109.052 73.9461 109.178 73.2741 109.178ZM78.8753 108.998V100.358H80.8553V108.998H78.8753ZM80.8553 104.192L80.1713 103.85C80.1713 102.758 80.4113 101.876 80.8913 101.204C81.3833 100.52 82.1213 100.178 83.1053 100.178C83.5373 100.178 83.9273 100.256 84.2753 100.412C84.6233 100.568 84.9473 100.82 85.2473 101.168L83.9513 102.5C83.7953 102.332 83.6213 102.212 83.4293 102.14C83.2373 102.068 83.0153 102.032 82.7633 102.032C82.2113 102.032 81.7553 102.206 81.3953 102.554C81.0353 102.902 80.8553 103.448 80.8553 104.192ZM88.9496 108.998L94.1336 96.398H95.5736L100.722 108.998H98.4896L94.4576 98.792H95.2136L91.1456 108.998H88.9496ZM91.5056 106.568V104.768H98.1836V106.568H91.5056ZM105.722 109.178C104.87 109.178 104.096 108.98 103.4 108.584C102.716 108.188 102.176 107.648 101.78 106.964C101.384 106.28 101.186 105.518 101.186 104.678C101.186 103.826 101.384 103.064 101.78 102.392C102.176 101.708 102.716 101.168 103.4 100.772C104.096 100.376 104.87 100.178 105.722 100.178C106.394 100.178 107.018 100.31 107.594 100.574C108.182 100.826 108.68 101.192 109.088 101.672L107.792 102.986C107.54 102.686 107.234 102.464 106.874 102.32C106.526 102.164 106.142 102.086 105.722 102.086C105.23 102.086 104.792 102.2 104.408 102.428C104.036 102.644 103.742 102.944 103.526 103.328C103.322 103.712 103.22 104.162 103.22 104.678C103.22 105.182 103.322 105.632 103.526 106.028C103.742 106.412 104.036 106.718 104.408 106.946C104.792 107.162 105.23 107.27 105.722 107.27C106.142 107.27 106.526 107.198 106.874 107.054C107.234 106.898 107.54 106.67 107.792 106.37L109.088 107.684C108.68 108.164 108.182 108.536 107.594 108.8C107.018 109.052 106.394 109.178 105.722 109.178ZM111.689 108.998V96.758H113.669V108.998H111.689ZM109.619 102.158V100.358H115.739V102.158H109.619ZM117.196 108.998V100.358H119.176V108.998H117.196ZM118.186 98.774C117.85 98.774 117.568 98.66 117.34 98.432C117.124 98.204 117.016 97.922 117.016 97.586C117.016 97.25 117.124 96.968 117.34 96.74C117.568 96.512 117.85 96.398 118.186 96.398C118.534 96.398 118.816 96.512 119.032 96.74C119.248 96.968 119.356 97.25 119.356 97.586C119.356 97.922 119.248 98.204 119.032 98.432C118.816 98.66 118.534 98.774 118.186 98.774ZM124.313 108.998L120.371 100.358H122.567L125.573 107.396H124.277L127.301 100.358H129.407L125.465 108.998H124.313ZM130.591 108.998V100.358H132.571V108.998H130.591ZM131.581 98.774C131.245 98.774 130.963 98.66 130.735 98.432C130.519 98.204 130.411 97.922 130.411 97.586C130.411 97.25 130.519 96.968 130.735 96.74C130.963 96.512 131.245 96.398 131.581 96.398C131.929 96.398 132.211 96.512 132.427 96.74C132.643 96.968 132.751 97.25 132.751 97.586C132.751 97.922 132.643 98.204 132.427 98.432C132.211 98.66 131.929 98.774 131.581 98.774ZM136.105 108.998V96.758H138.085V108.998H136.105ZM134.035 102.158V100.358H140.155V102.158H134.035ZM144.384 109.088L140.694 100.358H142.872L145.392 106.766H144.762L147.426 100.358H149.622L145.608 109.088H144.384ZM141.81 112.598L144.492 107.072L145.608 109.088L144.006 112.598H141.81Z" fill="#1D1D1D"/>
<path fill-rule="evenodd" clip-rule="evenodd" d="M346.793 97.5409C347.183 97.1504 347.817 97.1504 348.207 97.5409L354 103.334L359.793 97.5409C360.183 97.1504 360.817 97.1504 361.207 97.5409C361.598 97.9315 361.598 98.5646 361.207 98.9552L355.414 104.748C354.633 105.529 353.367 105.529 352.586 104.748L346.793 98.9552C346.402 98.5646 346.402 97.9315 346.793 97.5409Z" fill="#9F9F9F"/>
<path d="M269.256 106.998V96.214H270.76V106.998H269.256ZM265.48 97.27V95.894H274.52V97.27H265.48ZM281.432 106.998V102.566C281.432 101.99 281.251 101.515 280.888 101.142C280.525 100.769 280.056 100.582 279.48 100.582C279.096 100.582 278.755 100.667 278.456 100.838C278.157 101.009 277.923 101.243 277.752 101.542C277.581 101.841 277.496 102.182 277.496 102.566L276.904 102.23C276.904 101.654 277.032 101.142 277.288 100.694C277.544 100.246 277.901 99.894 278.36 99.638C278.819 99.3714 279.336 99.238 279.912 99.238C280.488 99.238 280.995 99.366 281.432 99.622C281.88 99.878 282.232 100.235 282.488 100.694C282.744 101.153 282.872 101.681 282.872 102.278V106.998H281.432ZM276.056 106.998V95.574H277.496V106.998H276.056ZM284.838 106.998V99.398H286.278V106.998H284.838ZM285.558 97.878C285.291 97.878 285.072 97.7927 284.902 97.622C284.731 97.4407 284.646 97.2167 284.646 96.95C284.646 96.694 284.731 96.4807 284.902 96.31C285.072 96.1287 285.291 96.038 285.558 96.038C285.824 96.038 286.043 96.1287 286.214 96.31C286.384 96.4807 286.47 96.694 286.47 96.95C286.47 97.2167 286.384 97.4407 286.214 97.622C286.043 97.7927 285.824 97.878 285.558 97.878ZM290.816 107.158C290.389 107.158 289.984 107.105 289.6 106.998C289.226 106.881 288.88 106.721 288.56 106.518C288.24 106.305 287.962 106.054 287.728 105.766L288.656 104.838C288.933 105.179 289.253 105.435 289.616 105.606C289.978 105.766 290.384 105.846 290.832 105.846C291.28 105.846 291.626 105.771 291.872 105.622C292.117 105.462 292.24 105.243 292.24 104.966C292.24 104.689 292.138 104.475 291.936 104.326C291.744 104.166 291.493 104.038 291.184 103.942C290.874 103.835 290.544 103.734 290.192 103.638C289.85 103.531 289.525 103.398 289.216 103.238C288.906 103.078 288.65 102.859 288.448 102.582C288.256 102.305 288.16 101.937 288.16 101.478C288.16 101.019 288.272 100.625 288.496 100.294C288.72 99.9527 289.029 99.6914 289.424 99.51C289.829 99.3287 290.314 99.238 290.88 99.238C291.477 99.238 292.005 99.3447 292.464 99.558C292.933 99.7607 293.317 100.07 293.616 100.486L292.688 101.414C292.474 101.137 292.208 100.923 291.888 100.774C291.578 100.625 291.226 100.55 290.832 100.55C290.416 100.55 290.096 100.625 289.872 100.774C289.658 100.913 289.552 101.11 289.552 101.366C289.552 101.622 289.648 101.819 289.84 101.958C290.032 102.097 290.282 102.214 290.592 102.31C290.912 102.406 291.242 102.507 291.584 102.614C291.925 102.71 292.25 102.843 292.56 103.014C292.869 103.185 293.12 103.414 293.312 103.702C293.514 103.99 293.616 104.369 293.616 104.838C293.616 105.553 293.36 106.118 292.848 106.534C292.346 106.95 291.669 107.158 290.816 107.158ZM301.644 106.998L298.012 95.894H299.516L302.396 104.95H301.964L304.796 95.894H305.884L308.716 104.95H308.3L311.18 95.894H312.668L309.052 106.998H307.98L305.132 97.958H305.548L302.716 106.998H301.644ZM316.607 107.158C315.85 107.158 315.167 106.987 314.559 106.646C313.951 106.294 313.471 105.819 313.119 105.222C312.767 104.625 312.591 103.947 312.591 103.19C312.591 102.443 312.762 101.771 313.103 101.174C313.455 100.577 313.925 100.107 314.511 99.766C315.109 99.414 315.775 99.238 316.511 99.238C317.215 99.238 317.834 99.398 318.367 99.718C318.911 100.038 319.333 100.481 319.631 101.046C319.941 101.611 320.095 102.251 320.095 102.966C320.095 103.073 320.09 103.19 320.079 103.318C320.069 103.435 320.047 103.574 320.015 103.734H313.599V102.534H319.247L318.719 102.998C318.719 102.486 318.629 102.054 318.447 101.702C318.266 101.339 318.01 101.062 317.679 100.87C317.349 100.667 316.949 100.566 316.479 100.566C315.989 100.566 315.557 100.673 315.183 100.886C314.81 101.099 314.522 101.398 314.319 101.782C314.117 102.166 314.015 102.619 314.015 103.142C314.015 103.675 314.122 104.145 314.335 104.55C314.549 104.945 314.853 105.254 315.247 105.478C315.642 105.691 316.095 105.798 316.607 105.798C317.034 105.798 317.423 105.723 317.775 105.574C318.138 105.425 318.447 105.201 318.703 104.902L319.631 105.846C319.269 106.273 318.821 106.598 318.287 106.822C317.765 107.046 317.205 107.158 316.607 107.158ZM325.185 107.158C324.428 107.158 323.745 106.987 323.137 106.646C322.529 106.294 322.049 105.819 321.697 105.222C321.345 104.625 321.169 103.947 321.169 103.19C321.169 102.443 321.34 101.771 321.681 101.174C322.033 100.577 322.503 100.107 323.089 99.766C323.687 99.414 324.353 99.238 325.089 99.238C325.793 99.238 326.412 99.398 326.945 99.718C327.489 100.038 327.911 100.481 328.209 101.046C328.519 101.611 328.673 102.251 328.673 102.966C328.673 103.073 328.668 103.19 328.657 103.318C328.647 103.435 328.625 103.574 328.593 103.734H322.177V102.534H327.825L327.297 102.998C327.297 102.486 327.207 102.054 327.025 101.702C326.844 101.339 326.588 101.062 326.257 100.87C325.927 100.667 325.527 100.566 325.057 100.566C324.567 100.566 324.135 100.673 323.761 100.886C323.388 101.099 323.1 101.398 322.897 101.782C322.695 102.166 322.593 102.619 322.593 103.142C322.593 103.675 322.7 104.145 322.913 104.55C323.127 104.945 323.431 105.254 323.825 105.478C324.22 105.691 324.673 105.798 325.185 105.798C325.612 105.798 326.001 105.723 326.353 105.574C326.716 105.425 327.025 105.201 327.281 104.902L328.209 105.846C327.847 106.273 327.399 106.598 326.865 106.822C326.343 107.046 325.783 107.158 325.185 107.158ZM335.108 106.998L331.556 103.11L335.076 99.398H336.82L332.9 103.494L332.964 102.662L336.964 106.998H335.108ZM330.243 106.998V95.574H331.684V106.998H330.243Z" fill="#9F9F9F"/>
<line x1="86" y1="151.5" x2="366" y2="151.5" stroke="#E7E7E7"/>
<path d="M51.472 157.14C50.856 157.14 50.2913 157.019 49.778 156.776C49.274 156.533 48.8493 156.183 48.504 155.726L49.19 155.04C49.4233 155.395 49.7407 155.675 50.142 155.88C50.5433 156.076 50.982 156.174 51.458 156.174C51.9247 156.174 52.326 156.085 52.662 155.908C53.0073 155.731 53.2733 155.483 53.46 155.166C53.656 154.839 53.754 154.461 53.754 154.032C53.754 153.593 53.656 153.215 53.46 152.898C53.2733 152.581 53.0027 152.333 52.648 152.156C52.3027 151.979 51.8873 151.89 51.402 151.89C51.2433 151.89 51.08 151.899 50.912 151.918C50.7533 151.937 50.5947 151.969 50.436 152.016L50.828 151.442C50.9867 151.358 51.1593 151.293 51.346 151.246C51.5327 151.199 51.738 151.176 51.962 151.176C52.494 151.176 52.9747 151.302 53.404 151.554C53.8333 151.797 54.1693 152.137 54.412 152.576C54.664 153.005 54.79 153.505 54.79 154.074C54.79 154.681 54.65 155.213 54.37 155.67C54.09 156.127 53.698 156.487 53.194 156.748C52.6993 157.009 52.1253 157.14 51.472 157.14ZM50.436 152.016V151.386L53.488 147.956L54.678 147.998L51.57 151.47L50.436 152.016ZM48.924 148.278V147.368H54.678V147.998L53.796 148.278H48.924ZM60.1122 157.14C59.4029 157.14 58.7542 156.939 58.1662 156.538C57.5782 156.127 57.1069 155.549 56.7522 154.802C56.4069 154.055 56.2342 153.178 56.2342 152.17C56.2342 151.153 56.4069 150.28 56.7522 149.552C57.0975 148.815 57.5595 148.245 58.1382 147.844C58.7262 147.433 59.3749 147.228 60.0842 147.228C60.8029 147.228 61.4515 147.429 62.0302 147.83C62.6182 148.231 63.0849 148.805 63.4302 149.552C63.7755 150.289 63.9482 151.167 63.9482 152.184C63.9482 153.192 63.7755 154.069 63.4302 154.816C63.0849 155.563 62.6229 156.137 62.0442 156.538C61.4655 156.939 60.8215 157.14 60.1122 157.14ZM60.0842 156.174C60.6349 156.174 61.1202 156.02 61.5402 155.712C61.9695 155.395 62.3055 154.942 62.5482 154.354C62.7909 153.757 62.9122 153.029 62.9122 152.17C62.9122 151.321 62.7909 150.602 62.5482 150.014C62.3055 149.417 61.9695 148.964 61.5402 148.656C61.1202 148.348 60.6349 148.194 60.0842 148.194C59.5429 148.194 59.0575 148.348 58.6282 148.656C58.2082 148.964 57.8769 149.412 57.6342 150C57.3915 150.588 57.2702 151.311 57.2702 152.17C57.2702 153.029 57.3915 153.757 57.6342 154.354C57.8769 154.942 58.2082 155.395 58.6282 155.712C59.0575 156.02 59.5429 156.174 60.0842 156.174ZM69.3134 157.14C68.604 157.14 67.9554 156.939 67.3674 156.538C66.7794 156.127 66.308 155.549 65.9534 154.802C65.608 154.055 65.4354 153.178 65.4354 152.17C65.4354 151.153 65.608 150.28 65.9534 149.552C66.2987 148.815 66.7607 148.245 67.3394 147.844C67.9274 147.433 68.576 147.228 69.2854 147.228C70.004 147.228 70.6527 147.429 71.2314 147.83C71.8194 148.231 72.286 148.805 72.6314 149.552C72.9767 150.289 73.1494 151.167 73.1494 152.184C73.1494 153.192 72.9767 154.069 72.6314 154.816C72.286 155.563 71.824 156.137 71.2454 156.538C70.6667 156.939 70.0227 157.14 69.3134 157.14ZM69.2854 156.174C69.836 156.174 70.3214 156.02 70.7414 155.712C71.1707 155.395 71.5067 154.942 71.7494 154.354C71.992 153.757 72.1134 153.029 72.1134 152.17C72.1134 151.321 71.992 150.602 71.7494 150.014C71.5067 149.417 71.1707 148.964 70.7414 148.656C70.3214 148.348 69.836 148.194 69.2854 148.194C68.744 148.194 68.2587 148.348 67.8294 148.656C67.4094 148.964 67.078 149.412 66.8354 150C66.5927 150.588 66.4714 151.311 66.4714 152.17C66.4714 153.029 66.5927 153.757 66.8354 154.354C67.078 154.942 67.4094 155.395 67.8294 155.712C68.2587 156.02 68.744 156.174 69.2854 156.174Z" fill="#9F9F9F"/>
<line x1="86" y1="197.5" x2="366" y2="197.5" stroke="#E7E7E7"/>
<path d="M48.532 202.37L52.102 198.646C52.5127 198.207 52.83 197.839 53.054 197.54C53.2873 197.241 53.446 196.971 53.53 196.728C53.6233 196.476 53.67 196.215 53.67 195.944C53.67 195.393 53.4973 194.964 53.152 194.656C52.8067 194.339 52.3493 194.18 51.78 194.18C51.2573 194.18 50.8 194.306 50.408 194.558C50.016 194.801 49.666 195.169 49.358 195.664L48.644 195.034C49.0173 194.446 49.4653 193.998 49.988 193.69C50.5107 193.382 51.1173 193.228 51.808 193.228C52.3867 193.228 52.8907 193.34 53.32 193.564C53.7587 193.788 54.0947 194.105 54.328 194.516C54.5707 194.927 54.692 195.407 54.692 195.958C54.692 196.341 54.6407 196.691 54.538 197.008C54.4353 197.316 54.2533 197.643 53.992 197.988C53.74 198.324 53.3807 198.735 52.914 199.22L49.89 202.328L48.532 202.37ZM48.532 203V202.37L49.372 202.076H54.93V203H48.532ZM60.1805 203.14C59.4712 203.14 58.8225 202.939 58.2345 202.538C57.6465 202.127 57.1752 201.549 56.8205 200.802C56.4752 200.055 56.3025 199.178 56.3025 198.17C56.3025 197.153 56.4752 196.28 56.8205 195.552C57.1659 194.815 57.6279 194.245 58.2065 193.844C58.7945 193.433 59.4432 193.228 60.1525 193.228C60.8712 193.228 61.5199 193.429 62.0985 193.83C62.6865 194.231 63.1532 194.805 63.4985 195.552C63.8439 196.289 64.0165 197.167 64.0165 198.184C64.0165 199.192 63.8439 200.069 63.4985 200.816C63.1532 201.563 62.6912 202.137 62.1125 202.538C61.5339 202.939 60.8899 203.14 60.1805 203.14ZM60.1525 202.174C60.7032 202.174 61.1885 202.02 61.6085 201.712C62.0379 201.395 62.3739 200.942 62.6165 200.354C62.8592 199.757 62.9805 199.029 62.9805 198.17C62.9805 197.321 62.8592 196.602 62.6165 196.014C62.3739 195.417 62.0379 194.964 61.6085 194.656C61.1885 194.348 60.7032 194.194 60.1525 194.194C59.6112 194.194 59.1259 194.348 58.6965 194.656C58.2765 194.964 57.9452 195.412 57.7025 196C57.4599 196.588 57.3385 197.311 57.3385 198.17C57.3385 199.029 57.4599 199.757 57.7025 200.354C57.9452 200.942 58.2765 201.395 58.6965 201.712C59.1259 202.02 59.6112 202.174 60.1525 202.174ZM69.3817 203.14C68.6724 203.14 68.0237 202.939 67.4357 202.538C66.8477 202.127 66.3764 201.549 66.0217 200.802C65.6764 200.055 65.5037 199.178 65.5037 198.17C65.5037 197.153 65.6764 196.28 66.0217 195.552C66.3671 194.815 66.8291 194.245 67.4077 193.844C67.9957 193.433 68.6444 193.228 69.3537 193.228C70.0724 193.228 70.7211 193.429 71.2997 193.83C71.8877 194.231 72.3544 194.805 72.6997 195.552C73.0451 196.289 73.2177 197.167 73.2177 198.184C73.2177 199.192 73.0451 200.069 72.6997 200.816C72.3544 201.563 71.8924 202.137 71.3137 202.538C70.7351 202.939 70.0911 203.14 69.3817 203.14ZM69.3537 202.174C69.9044 202.174 70.3897 202.02 70.8097 201.712C71.2391 201.395 71.5751 200.942 71.8177 200.354C72.0604 199.757 72.1817 199.029 72.1817 198.17C72.1817 197.321 72.0604 196.602 71.8177 196.014C71.5751 195.417 71.2391 194.964 70.8097 194.656C70.3897 194.348 69.9044 194.194 69.3537 194.194C68.8124 194.194 68.3271 194.348 67.8977 194.656C67.4777 194.964 67.1464 195.412 66.9037 196C66.6611 196.588 66.5397 197.311 66.5397 198.17C66.5397 199.029 66.6611 199.757 66.9037 200.354C67.1464 200.942 67.4777 201.395 67.8977 201.712C68.3271 202.02 68.8124 202.174 69.3537 202.174Z" fill="#9F9F9F"/>
<line x1="86" y1="243.5" x2="366" y2="243.5" stroke="#E7E7E7"/>
<path d="M50.534 249V239.368H51.542V249H50.534ZM48.504 240.278V239.368H51.402V240.278H48.504ZM57.3505 249.14C56.6411 249.14 55.9925 248.939 55.4045 248.538C54.8165 248.127 54.3451 247.549 53.9905 246.802C53.6451 246.055 53.4725 245.178 53.4725 244.17C53.4725 243.153 53.6451 242.28 53.9905 241.552C54.3358 240.815 54.7978 240.245 55.3765 239.844C55.9645 239.433 56.6131 239.228 57.3225 239.228C58.0411 239.228 58.6898 239.429 59.2685 239.83C59.8565 240.231 60.3231 240.805 60.6685 241.552C61.0138 242.289 61.1865 243.167 61.1865 244.184C61.1865 245.192 61.0138 246.069 60.6685 246.816C60.3231 247.563 59.8611 248.137 59.2825 248.538C58.7038 248.939 58.0598 249.14 57.3505 249.14ZM57.3225 248.174C57.8731 248.174 58.3585 248.02 58.7785 247.712C59.2078 247.395 59.5438 246.942 59.7865 246.354C60.0291 245.757 60.1505 245.029 60.1505 244.17C60.1505 243.321 60.0291 242.602 59.7865 242.014C59.5438 241.417 59.2078 240.964 58.7785 240.656C58.3585 240.348 57.8731 240.194 57.3225 240.194C56.7811 240.194 56.2958 240.348 55.8665 240.656C55.4465 240.964 55.1151 241.412 54.8725 242C54.6298 242.588 54.5085 243.311 54.5085 244.17C54.5085 245.029 54.6298 245.757 54.8725 246.354C55.1151 246.942 55.4465 247.395 55.8665 247.712C56.2958 248.02 56.7811 248.174 57.3225 248.174ZM66.5516 249.14C65.8423 249.14 65.1936 248.939 64.6056 248.538C64.0176 248.127 63.5463 247.549 63.1916 246.802C62.8463 246.055 62.6736 245.178 62.6736 244.17C62.6736 243.153 62.8463 242.28 63.1916 241.552C63.537 240.815 63.999 240.245 64.5776 239.844C65.1656 239.433 65.8143 239.228 66.5236 239.228C67.2423 239.228 67.891 239.429 68.4696 239.83C69.0576 240.231 69.5243 240.805 69.8696 241.552C70.215 242.289 70.3876 243.167 70.3876 244.184C70.3876 245.192 70.215 246.069 69.8696 246.816C69.5243 247.563 69.0623 248.137 68.4836 248.538C67.905 248.939 67.261 249.14 66.5516 249.14ZM66.5236 248.174C67.0743 248.174 67.5596 248.02 67.9796 247.712C68.409 247.395 68.745 246.942 68.9876 246.354C69.2303 245.757 69.3516 245.029 69.3516 244.17C69.3516 243.321 69.2303 242.602 68.9876 242.014C68.745 241.417 68.409 240.964 67.9796 240.656C67.5596 240.348 67.0743 240.194 66.5236 240.194C65.9823 240.194 65.497 240.348 65.0676 240.656C64.6476 240.964 64.3163 241.412 64.0736 242C63.831 242.588 63.7096 243.311 63.7096 244.17C63.7096 245.029 63.831 245.757 64.0736 246.354C64.3163 246.942 64.6476 247.395 65.0676 247.712C65.497 248.02 65.9823 248.174 66.5236 248.174Z" fill="#9F9F9F"/>
<path d="M52.62 295.14C51.9107 295.14 51.262 294.939 50.674 294.538C50.086 294.127 49.6147 293.549 49.26 292.802C48.9147 292.055 48.742 291.178 48.742 290.17C48.742 289.153 48.9147 288.28 49.26 287.552C49.6053 286.815 50.0673 286.245 50.646 285.844C51.234 285.433 51.8827 285.228 52.592 285.228C53.3107 285.228 53.9593 285.429 54.538 285.83C55.126 286.231 55.5927 286.805 55.938 287.552C56.2833 288.289 56.456 289.167 56.456 290.184C56.456 291.192 56.2833 292.069 55.938 292.816C55.5927 293.563 55.1307 294.137 54.552 294.538C53.9733 294.939 53.3293 295.14 52.62 295.14ZM52.592 294.174C53.1427 294.174 53.628 294.02 54.048 293.712C54.4773 293.395 54.8133 292.942 55.056 292.354C55.2987 291.757 55.42 291.029 55.42 290.17C55.42 289.321 55.2987 288.602 55.056 288.014C54.8133 287.417 54.4773 286.964 54.048 286.656C53.628 286.348 53.1427 286.194 52.592 286.194C52.0507 286.194 51.5653 286.348 51.136 286.656C50.716 286.964 50.3847 287.412 50.142 288C49.8993 288.588 49.778 289.311 49.778 290.17C49.778 291.029 49.8993 291.757 50.142 292.354C50.3847 292.942 50.716 293.395 51.136 293.712C51.5653 294.02 52.0507 294.174 52.592 294.174Z" fill="#9F9F9F"/>
<line x1="86" y1="289.502" x2="366" y2="289.502" stroke="#E7E7E7"/>
<path d="M96.2748 311.161C95.5281 311.161 94.8841 311.021 94.3428 310.741C93.8015 310.452 93.3255 310.051 92.9148 309.537L93.6288 308.837C93.9555 309.295 94.3335 309.635 94.7628 309.859C95.2015 310.083 95.7195 310.195 96.3168 310.195C96.9328 310.195 97.4321 310.055 97.8148 309.775C98.1975 309.495 98.3888 309.108 98.3888 308.613C98.3888 308.231 98.3001 307.918 98.1228 307.675C97.9455 307.423 97.7121 307.223 97.4228 307.073C97.1428 306.915 96.8301 306.775 96.4848 306.653C96.1395 306.532 95.7941 306.406 95.4488 306.275C95.1128 306.135 94.8001 305.963 94.5108 305.757C94.2215 305.552 93.9881 305.291 93.8108 304.973C93.6428 304.656 93.5588 304.25 93.5588 303.755C93.5588 303.233 93.6848 302.785 93.9368 302.411C94.1888 302.038 94.5341 301.753 94.9728 301.557C95.4115 301.352 95.9108 301.249 96.4708 301.249C97.0961 301.249 97.6515 301.371 98.1368 301.613C98.6315 301.856 99.0421 302.183 99.3688 302.593L98.6688 303.293C98.3701 302.939 98.0435 302.668 97.6888 302.481C97.3341 302.295 96.9188 302.201 96.4428 302.201C95.8828 302.201 95.4348 302.332 95.0988 302.593C94.7628 302.855 94.5948 303.219 94.5948 303.685C94.5948 304.049 94.6788 304.343 94.8468 304.567C95.0241 304.791 95.2575 304.978 95.5468 305.127C95.8361 305.277 96.1488 305.412 96.4848 305.533C96.8301 305.645 97.1755 305.771 97.5208 305.911C97.8661 306.051 98.1788 306.229 98.4588 306.443C98.7481 306.658 98.9815 306.933 99.1588 307.269C99.3361 307.596 99.4248 308.016 99.4248 308.529C99.4248 309.36 99.1401 310.009 98.5708 310.475C98.0108 310.933 97.2455 311.161 96.2748 311.161Z" fill="#9F9F9F"/>
<path d="M92 162C92 159.239 94.2386 157 97 157C99.7614 157 102 159.239 102 162V290.001H92V162Z" fill="#E7E7E7"/>
<path d="M92 178.502C92 175.741 94.2386 173.502 97 173.502C99.7614 173.502 102 175.741 102 178.502V290.019H92V178.502Z" fill="#474BC5"/>
<path d="M135.724 311.021V301.389H136.452L140.61 308.207H140.092L144.25 301.389H144.978V311.021H143.942V303.181L144.18 303.237L140.708 308.935H139.98L136.508 303.237L136.746 303.181V311.021H135.724Z" fill="#9F9F9F"/>
<path d="M134 162.002C134 159.241 136.239 157.002 139 157.002C141.761 157.002 144 159.241 144 162.002V290.002H134V162.002Z" fill="#E7E7E7"/>
<path d="M134 199.021C134 196.26 136.239 194.021 139 194.021C141.761 194.021 144 196.26 144 199.021V290.021H134V199.021Z" fill="#474BC5"/>
<path d="M182.5 311.021V301.655H183.536V311.021H182.5ZM179.112 302.327V301.389H186.924V302.327H179.112Z" fill="#9F9F9F"/>
<path d="M177 162.002C177 159.241 179.239 157.002 182 157.002C184.761 157.002 187 159.241 187 162.002V290.002H177V162.002Z" fill="#E7E7E7"/>
<path d="M177 183.021C177 180.26 179.239 178.021 182 178.021C184.761 178.021 187 180.26 187 183.021V290.021H177V183.021Z" fill="#474BC5"/>
<path d="M223.365 311.021L220.257 301.389H221.279L223.897 309.677H223.589L226.179 301.389H226.949L229.553 309.677H229.231L231.849 301.389H232.885L229.763 311.021H229.007L226.417 302.747H226.711L224.121 311.021H223.365Z" fill="#9F9F9F"/>
<path d="M220 162.002C220 159.241 222.239 157.002 225 157.002C227.761 157.002 230 159.241 230 162.002V290.002H220V162.002Z" fill="#E7E7E7"/>
<path d="M220 174.021C220 171.26 222.239 169.021 225 169.021C227.761 169.021 230 171.26 230 174.021V290.021H220V174.021Z" fill="#474BC5"/>
<path d="M268.719 311.021V301.655H269.755V311.021H268.719ZM265.331 302.327V301.389H273.143V302.327H265.331Z" fill="#9F9F9F"/>
<path d="M263 162.002C263 159.241 265.239 157.002 268 157.002C270.761 157.002 273 159.241 273 162.002V290.002H263V162.002Z" fill="#E7E7E7"/>
<path d="M263 183.021C263 180.26 265.239 178.021 268 178.021C270.761 178.021 273 180.26 273 183.021V290.021H263V183.021Z" fill="#474BC5"/>
<path d="M307.162 311.021V301.389H308.184V311.021H307.162ZM307.834 306.667V305.729H313V306.667H307.834ZM307.834 302.327V301.389H313.238V302.327H307.834Z" fill="#9F9F9F"/>
<path d="M305 162.002C305 159.241 307.239 157.002 310 157.002C312.761 157.002 315 159.241 315 162.002V290.002H305V162.002Z" fill="#E7E7E7"/>
<path d="M305 244.021C305 241.26 307.239 239.021 310 239.021C312.761 239.021 315 241.26 315 244.021V290.021H305V244.021Z" fill="#474BC5"/>
<path d="M350.939 311.161C350.192 311.161 349.548 311.021 349.007 310.741C348.466 310.452 347.99 310.051 347.579 309.537L348.293 308.837C348.62 309.295 348.998 309.635 349.427 309.859C349.866 310.083 350.384 310.195 350.981 310.195C351.597 310.195 352.096 310.055 352.479 309.775C352.862 309.495 353.053 309.108 353.053 308.613C353.053 308.231 352.964 307.918 352.787 307.675C352.61 307.423 352.376 307.223 352.087 307.073C351.807 306.915 351.494 306.775 351.149 306.653C350.804 306.532 350.458 306.406 350.113 306.275C349.777 306.135 349.464 305.963 349.175 305.757C348.886 305.552 348.652 305.291 348.475 304.973C348.307 304.656 348.223 304.25 348.223 303.755C348.223 303.233 348.349 302.785 348.601 302.411C348.853 302.038 349.198 301.753 349.637 301.557C350.076 301.352 350.575 301.249 351.135 301.249C351.76 301.249 352.316 301.371 352.801 301.613C353.296 301.856 353.706 302.183 354.033 302.593L353.333 303.293C353.034 302.939 352.708 302.668 352.353 302.481C351.998 302.295 351.583 302.201 351.107 302.201C350.547 302.201 350.099 302.332 349.763 302.593C349.427 302.855 349.259 303.219 349.259 303.685C349.259 304.049 349.343 304.343 349.511 304.567C349.688 304.791 349.922 304.978 350.211 305.127C350.5 305.277 350.813 305.412 351.149 305.533C351.494 305.645 351.84 305.771 352.185 305.911C352.53 306.051 352.843 306.229 353.123 306.443C353.412 306.658 353.646 306.933 353.823 307.269C354 307.596 354.089 308.016 354.089 308.529C354.089 309.36 353.804 310.009 353.235 310.475C352.675 310.933 351.91 311.161 350.939 311.161Z" fill="#9F9F9F"/>
<path d="M347 162.002C347 159.241 349.239 157.002 352 157.002C354.761 157.002 357 159.241 357 162.002V290.002H347V162.002Z" fill="#E7E7E7"/>
<path d="M347 224.021C347 221.26 349.239 219.021 352 219.021C354.761 219.021 357 221.26 357 224.021V290.021H347V224.021Z" fill="#474BC5"/>
<defs>
<filter id="filter0_d_1358_3780" x="0" y="65.002" width="406" height="280" filterUnits="userSpaceOnUse" color-interpolation-filters="sRGB">
<feFlood flood-opacity="0" result="BackgroundImageFix"/>
<feColorMatrix in="SourceAlpha" type="matrix" values="0 0 0 0 0 0 0 0 0 0 0 0 0 0 0 0 0 0 127 0" result="hardAlpha"/>
<feOffset dx="-8" dy="8"/>
<feComposite in2="hardAlpha" operator="out"/>
<feColorMatrix type="matrix" values="0 0 0 0 0 0 0 0 0 0 0 0 0 0 0 0 0 0 0.4 0"/>
<feBlend mode="normal" in2="BackgroundImageFix" result="effect1_dropShadow_1358_3780"/>
<feBlend mode="normal" in="SourceGraphic" in2="effect1_dropShadow_1358_3780" result="shape"/>
</filter>
</defs>
</svg>
