<svg width="292" height="89" viewBox="0 0 292 89" fill="none" xmlns="http://www.w3.org/2000/svg">
<rect y="0.00195312" width="292" height="88" rx="8" fill="white"/>
<circle cx="52" cy="44.002" r="20" fill="#E7E7E7"/>
<path d="M48.5844 53.5516L49.9844 52.5016L51.3844 53.5516C51.7399 53.8183 52.2288 53.8183 52.5844 53.5516L53.9844 52.5016L55.3844 53.5516C55.7399 53.8183 56.2288 53.8183 56.5844 53.5516L57.9844 52.5016L59.3442 53.6348C59.9955 54.1776 60.9844 53.7144 60.9844 52.8666V35.1367C60.9844 34.2888 59.9955 33.8257 59.3442 34.3685L57.9844 35.5016L56.5844 34.4516C56.2288 34.185 55.7399 34.185 55.3844 34.4516L53.9844 35.5016L52.5844 34.4516C52.2288 34.185 51.7399 34.185 51.3844 34.4516L49.9844 35.5016L48.5844 34.4516C48.2288 34.185 47.7399 34.185 47.3844 34.4516L45.9844 35.5016L44.6246 34.3685C43.9732 33.8257 42.9844 34.2888 42.9844 35.1367V52.8666C42.9844 53.7144 43.9732 54.1776 44.6246 53.6348L45.9844 52.5016L47.3844 53.5516C47.7399 53.8183 48.2288 53.8183 48.5844 53.5516Z" fill="#474BC5"/>
<path fill-rule="evenodd" clip-rule="evenodd" d="M46.9844 42.002C46.9844 41.4497 47.4321 41.002 47.9844 41.002H55.9844C56.5367 41.002 56.9844 41.4497 56.9844 42.002C56.9844 42.5542 56.5367 43.002 55.9844 43.002H47.9844C47.4321 43.002 46.9844 42.5542 46.9844 42.002Z" fill="white"/>
<path fill-rule="evenodd" clip-rule="evenodd" d="M46.9844 46.002C46.9844 45.4497 47.4321 45.002 47.9844 45.002H51.9844C52.5367 45.002 52.9844 45.4497 52.9844 46.002C52.9844 46.5542 52.5367 47.002 51.9844 47.002H47.9844C47.4321 47.002 46.9844 46.5542 46.9844 46.002Z" fill="white"/>
<path d="M93.48 37.202C92.52 37.202 91.6867 37.0286 90.98 36.682C90.2733 36.3353 89.72 35.8553 89.32 35.242C88.9333 34.6153 88.74 33.9086 88.74 33.122C88.74 32.4953 88.86 31.922 89.1 31.402C89.3533 30.8686 89.7133 30.4153 90.18 30.042C90.66 29.6686 91.2267 29.402 91.88 29.242L91.82 29.882C91.2867 29.7353 90.8333 29.4953 90.46 29.162C90.1 28.8286 89.8267 28.4353 89.64 27.982C89.4533 27.5286 89.36 27.0553 89.36 26.562C89.36 25.8153 89.5333 25.162 89.88 24.602C90.24 24.0286 90.7333 23.582 91.36 23.262C91.9867 22.942 92.6933 22.782 93.48 22.782C94.28 22.782 94.9867 22.942 95.6 23.262C96.2267 23.582 96.7133 24.0286 97.06 24.602C97.42 25.162 97.6 25.8153 97.6 26.562C97.6 27.0553 97.5067 27.5286 97.32 27.982C97.1333 28.4353 96.86 28.8286 96.5 29.162C96.14 29.4953 95.6867 29.7353 95.14 29.882L95.08 29.242C95.7467 29.402 96.3133 29.6686 96.78 30.042C97.2467 30.4153 97.6 30.8686 97.84 31.402C98.0933 31.922 98.22 32.4953 98.22 33.122C98.22 33.9086 98.0267 34.6153 97.64 35.242C97.2533 35.8553 96.7 36.3353 95.98 36.682C95.2733 37.0286 94.44 37.202 93.48 37.202ZM93.48 35.122C93.9733 35.122 94.4067 35.022 94.78 34.822C95.1667 34.622 95.4667 34.3486 95.68 34.002C95.9067 33.6553 96.02 33.262 96.02 32.822C96.02 32.3686 95.9067 31.9753 95.68 31.642C95.4667 31.2953 95.1667 31.022 94.78 30.822C94.4067 30.622 93.9733 30.522 93.48 30.522C92.9867 30.522 92.5467 30.622 92.16 30.822C91.7867 31.022 91.4867 31.2953 91.26 31.642C91.0467 31.9753 90.94 32.3686 90.94 32.822C90.94 33.262 91.0467 33.6553 91.26 34.002C91.4867 34.3486 91.7867 34.622 92.16 34.822C92.5467 35.022 92.9867 35.122 93.48 35.122ZM93.48 28.722C94.0667 28.722 94.5467 28.5353 94.92 28.162C95.2933 27.7886 95.48 27.3086 95.48 26.722C95.48 26.1353 95.2933 25.662 94.92 25.302C94.5467 24.9286 94.0667 24.742 93.48 24.742C92.9067 24.742 92.4267 24.9286 92.04 25.302C91.6667 25.662 91.48 26.1353 91.48 26.722C91.48 27.3086 91.6667 27.7886 92.04 28.162C92.4267 28.5353 92.9067 28.722 93.48 28.722ZM101.502 37.002L105.602 31.262L106.422 30.762C106.288 31.0553 106.115 31.3153 105.902 31.542C105.702 31.7686 105.435 31.942 105.102 32.062C104.768 32.182 104.342 32.242 103.822 32.242C103.022 32.242 102.288 32.0553 101.622 31.682C100.955 31.2953 100.422 30.762 100.022 30.082C99.6217 29.402 99.4217 28.6153 99.4217 27.722C99.4217 26.8153 99.6417 25.9886 100.082 25.242C100.535 24.4953 101.135 23.902 101.882 23.462C102.628 23.022 103.462 22.802 104.382 22.802C105.315 22.802 106.155 23.022 106.902 23.462C107.648 23.8886 108.235 24.4686 108.662 25.202C109.102 25.922 109.322 26.7353 109.322 27.642C109.322 28.922 108.875 30.2153 107.982 31.522L104.162 37.002H101.502ZM104.382 30.442C104.888 30.442 105.342 30.322 105.742 30.082C106.142 29.842 106.455 29.5153 106.682 29.102C106.908 28.6886 107.022 28.2286 107.022 27.722C107.022 27.1886 106.908 26.7153 106.682 26.302C106.455 25.8886 106.142 25.562 105.742 25.322C105.342 25.082 104.888 24.962 104.382 24.962C103.875 24.962 103.422 25.082 103.022 25.322C102.622 25.562 102.302 25.8886 102.062 26.302C101.835 26.7153 101.722 27.1886 101.722 27.722C101.722 28.242 101.835 28.7086 102.062 29.122C102.302 29.522 102.622 29.842 103.022 30.082C103.435 30.322 103.888 30.442 104.382 30.442ZM113.632 28.462C113.112 28.462 112.632 28.3353 112.192 28.082C111.766 27.8286 111.426 27.4886 111.172 27.062C110.919 26.6353 110.792 26.1553 110.792 25.622C110.792 25.0886 110.919 24.6153 111.172 24.202C111.426 23.7753 111.766 23.4353 112.192 23.182C112.619 22.9286 113.099 22.802 113.632 22.802C114.166 22.802 114.646 22.9286 115.072 23.182C115.512 23.4353 115.859 23.7753 116.112 24.202C116.366 24.6153 116.492 25.0886 116.492 25.622C116.492 26.1553 116.366 26.6353 116.112 27.062C115.859 27.4886 115.519 27.8286 115.092 28.082C114.666 28.3353 114.179 28.462 113.632 28.462ZM113.632 26.762C113.966 26.762 114.232 26.6553 114.432 26.442C114.632 26.2286 114.732 25.9553 114.732 25.622C114.732 25.2886 114.626 25.022 114.412 24.822C114.212 24.6086 113.952 24.502 113.632 24.502C113.312 24.502 113.052 24.6086 112.852 24.822C112.652 25.022 112.552 25.2886 112.552 25.622C112.552 25.9553 112.652 26.2286 112.852 26.442C113.052 26.6553 113.312 26.762 113.632 26.762ZM119.492 37.202C118.972 37.202 118.492 37.0753 118.052 36.822C117.626 36.5686 117.286 36.2286 117.032 35.802C116.779 35.3753 116.652 34.8953 116.652 34.362C116.652 33.8286 116.779 33.3553 117.032 32.942C117.286 32.5153 117.626 32.1753 118.052 31.922C118.479 31.6686 118.959 31.542 119.492 31.542C120.026 31.542 120.506 31.6686 120.932 31.922C121.372 32.1753 121.719 32.5153 121.972 32.942C122.226 33.3553 122.352 33.8286 122.352 34.362C122.352 34.8953 122.226 35.3753 121.972 35.802C121.719 36.2286 121.379 36.5686 120.952 36.822C120.526 37.0753 120.039 37.202 119.492 37.202ZM119.492 35.502C119.826 35.502 120.092 35.3953 120.292 35.182C120.506 34.9686 120.612 34.6953 120.612 34.362C120.612 34.042 120.506 33.7753 120.292 33.562C120.079 33.3486 119.812 33.242 119.492 33.242C119.172 33.242 118.912 33.3486 118.712 33.562C118.512 33.7753 118.412 34.042 118.412 34.362C118.412 34.6953 118.512 34.9686 118.712 35.182C118.912 35.3953 119.172 35.502 119.492 35.502ZM110.992 37.002L119.972 23.002H122.152L113.172 37.002H110.992ZM132.78 37.202C131.847 37.202 131 36.982 130.24 36.542C129.48 36.0886 128.873 35.482 128.42 34.722C127.98 33.962 127.76 33.1153 127.76 32.182C127.76 31.2486 127.98 30.4086 128.42 29.662C128.873 28.9153 129.48 28.322 130.24 27.882C131 27.4286 131.847 27.202 132.78 27.202C133.727 27.202 134.58 27.422 135.34 27.862C136.1 28.302 136.7 28.902 137.14 29.662C137.593 30.4086 137.82 31.2486 137.82 32.182C137.82 33.1153 137.593 33.962 137.14 34.722C136.7 35.482 136.1 36.0886 135.34 36.542C134.58 36.982 133.727 37.202 132.78 37.202ZM132.78 35.082C133.327 35.082 133.807 34.962 134.22 34.722C134.647 34.4686 134.973 34.122 135.2 33.682C135.44 33.242 135.56 32.742 135.56 32.182C135.56 31.622 135.44 31.1286 135.2 30.702C134.96 30.2753 134.633 29.942 134.22 29.702C133.807 29.4486 133.327 29.322 132.78 29.322C132.247 29.322 131.767 29.4486 131.34 29.702C130.927 29.942 130.6 30.2753 130.36 30.702C130.133 31.1286 130.02 31.622 130.02 32.182C130.02 32.742 130.133 33.242 130.36 33.682C130.6 34.122 130.927 34.4686 131.34 34.722C131.767 34.962 132.247 35.082 132.78 35.082ZM140.696 37.002V26.142C140.696 25.4086 140.856 24.762 141.176 24.202C141.51 23.642 141.963 23.202 142.536 22.882C143.123 22.562 143.796 22.402 144.556 22.402C145.143 22.402 145.643 22.502 146.056 22.702C146.47 22.902 146.856 23.1886 147.216 23.562L145.796 24.982C145.636 24.822 145.463 24.6953 145.276 24.602C145.09 24.5086 144.85 24.462 144.556 24.462C144.023 24.462 143.61 24.6086 143.316 24.902C143.036 25.182 142.896 25.5886 142.896 26.122V37.002H140.696ZM138.396 29.402V27.402H145.796V29.402H138.396ZM153.547 37.002V23.002H155.807V37.002H153.547ZM150.747 25.062V23.002H155.607V25.062H150.747ZM163.916 37.202C162.863 37.202 161.896 36.9086 161.016 36.322C160.149 35.722 159.456 34.882 158.936 33.802C158.416 32.722 158.156 31.4486 158.156 29.982C158.156 28.5153 158.409 27.2486 158.916 26.182C159.436 25.102 160.129 24.2686 160.996 23.682C161.863 23.0953 162.823 22.802 163.876 22.802C164.943 22.802 165.909 23.0953 166.776 23.682C167.643 24.2686 168.329 25.102 168.836 26.182C169.356 27.2486 169.616 28.522 169.616 30.002C169.616 31.4686 169.356 32.742 168.836 33.822C168.329 34.902 167.643 35.7353 166.776 36.322C165.923 36.9086 164.969 37.202 163.916 37.202ZM163.876 35.042C164.569 35.042 165.169 34.8553 165.676 34.482C166.183 34.1086 166.576 33.5486 166.856 32.802C167.149 32.0553 167.296 31.1153 167.296 29.982C167.296 28.862 167.149 27.9286 166.856 27.182C166.576 26.4353 166.176 25.882 165.656 25.522C165.149 25.1486 164.556 24.962 163.876 24.962C163.196 24.962 162.596 25.1486 162.076 25.522C161.569 25.882 161.176 26.4353 160.896 27.182C160.616 27.9153 160.476 28.8486 160.476 29.982C160.476 31.1153 160.616 32.0553 160.896 32.802C161.176 33.5486 161.569 34.1086 162.076 34.482C162.596 34.8553 163.196 35.042 163.876 35.042ZM177.021 37.202C175.968 37.202 175.001 36.9086 174.121 36.322C173.255 35.722 172.561 34.882 172.041 33.802C171.521 32.722 171.261 31.4486 171.261 29.982C171.261 28.5153 171.515 27.2486 172.021 26.182C172.541 25.102 173.235 24.2686 174.101 23.682C174.968 23.0953 175.928 22.802 176.981 22.802C178.048 22.802 179.015 23.0953 179.881 23.682C180.748 24.2686 181.435 25.102 181.941 26.182C182.461 27.2486 182.721 28.522 182.721 30.002C182.721 31.4686 182.461 32.742 181.941 33.822C181.435 34.902 180.748 35.7353 179.881 36.322C179.028 36.9086 178.075 37.202 177.021 37.202ZM176.981 35.042C177.675 35.042 178.275 34.8553 178.781 34.482C179.288 34.1086 179.681 33.5486 179.961 32.802C180.255 32.0553 180.401 31.1153 180.401 29.982C180.401 28.862 180.255 27.9286 179.961 27.182C179.681 26.4353 179.281 25.882 178.761 25.522C178.255 25.1486 177.661 24.962 176.981 24.962C176.301 24.962 175.701 25.1486 175.181 25.522C174.675 25.882 174.281 26.4353 174.001 27.182C173.721 27.9153 173.581 28.8486 173.581 29.982C173.581 31.1153 173.721 32.0553 174.001 32.802C174.281 33.5486 174.675 34.1086 175.181 34.482C175.701 34.8553 176.301 35.042 176.981 35.042ZM187.187 28.462C186.667 28.462 186.187 28.3353 185.747 28.082C185.32 27.8286 184.98 27.4886 184.727 27.062C184.474 26.6353 184.347 26.1553 184.347 25.622C184.347 25.0886 184.474 24.6153 184.727 24.202C184.98 23.7753 185.32 23.4353 185.747 23.182C186.174 22.9286 186.654 22.802 187.187 22.802C187.72 22.802 188.2 22.9286 188.627 23.182C189.067 23.4353 189.414 23.7753 189.667 24.202C189.92 24.6153 190.047 25.0886 190.047 25.622C190.047 26.1553 189.92 26.6353 189.667 27.062C189.414 27.4886 189.074 27.8286 188.647 28.082C188.22 28.3353 187.734 28.462 187.187 28.462ZM187.187 26.762C187.52 26.762 187.787 26.6553 187.987 26.442C188.187 26.2286 188.287 25.9553 188.287 25.622C188.287 25.2886 188.18 25.022 187.967 24.822C187.767 24.6086 187.507 24.502 187.187 24.502C186.867 24.502 186.607 24.6086 186.407 24.822C186.207 25.022 186.107 25.2886 186.107 25.622C186.107 25.9553 186.207 26.2286 186.407 26.442C186.607 26.6553 186.867 26.762 187.187 26.762ZM193.047 37.202C192.527 37.202 192.047 37.0753 191.607 36.822C191.18 36.5686 190.84 36.2286 190.587 35.802C190.334 35.3753 190.207 34.8953 190.207 34.362C190.207 33.8286 190.334 33.3553 190.587 32.942C190.84 32.5153 191.18 32.1753 191.607 31.922C192.034 31.6686 192.514 31.542 193.047 31.542C193.58 31.542 194.06 31.6686 194.487 31.922C194.927 32.1753 195.274 32.5153 195.527 32.942C195.78 33.3553 195.907 33.8286 195.907 34.362C195.907 34.8953 195.78 35.3753 195.527 35.802C195.274 36.2286 194.934 36.5686 194.507 36.822C194.08 37.0753 193.594 37.202 193.047 37.202ZM193.047 35.502C193.38 35.502 193.647 35.3953 193.847 35.182C194.06 34.9686 194.167 34.6953 194.167 34.362C194.167 34.042 194.06 33.7753 193.847 33.562C193.634 33.3486 193.367 33.242 193.047 33.242C192.727 33.242 192.467 33.3486 192.267 33.562C192.067 33.7753 191.967 34.042 191.967 34.362C191.967 34.6953 192.067 34.9686 192.267 35.182C192.467 35.3953 192.727 35.502 193.047 35.502ZM184.547 37.002L193.527 23.002H195.707L186.727 37.002H184.547Z" fill="#1D1D1D"/>
<path d="M92.176 66.002L88.624 54.994H89.792L92.784 64.466H92.432L95.392 54.994H96.272L99.248 64.466H98.88L101.872 54.994H103.056L99.488 66.002H98.624L95.664 56.546H96L93.04 66.002H92.176ZM106.966 66.162C106.241 66.162 105.579 65.986 104.982 65.634C104.395 65.282 103.926 64.8073 103.574 64.21C103.233 63.6126 103.062 62.946 103.062 62.21C103.062 61.4846 103.233 60.8286 103.574 60.242C103.926 59.6553 104.395 59.1913 104.982 58.85C105.579 58.498 106.241 58.322 106.966 58.322C107.702 58.322 108.363 58.4926 108.95 58.834C109.537 59.1753 110.001 59.6446 110.342 60.242C110.694 60.8286 110.87 61.4846 110.87 62.21C110.87 62.9566 110.694 63.6286 110.342 64.226C110.001 64.8126 109.537 65.282 108.95 65.634C108.363 65.986 107.702 66.162 106.966 66.162ZM106.966 65.074C107.499 65.074 107.969 64.9513 108.374 64.706C108.79 64.4606 109.115 64.1193 109.35 63.682C109.595 63.2446 109.718 62.754 109.718 62.21C109.718 61.666 109.595 61.186 109.35 60.77C109.115 60.3433 108.79 60.0073 108.374 59.762C107.969 59.5166 107.499 59.394 106.966 59.394C106.443 59.394 105.974 59.5166 105.558 59.762C105.142 60.0073 104.817 60.3433 104.582 60.77C104.347 61.186 104.23 61.666 104.23 62.21C104.23 62.7646 104.347 63.2606 104.582 63.698C104.817 64.1246 105.142 64.4606 105.558 64.706C105.974 64.9513 106.443 65.074 106.966 65.074ZM112.652 66.002V58.482H113.772V66.002H112.652ZM113.772 61.618L113.308 61.41C113.308 60.4606 113.537 59.7086 113.996 59.154C114.465 58.5993 115.105 58.322 115.916 58.322C116.289 58.322 116.63 58.3913 116.94 58.53C117.249 58.658 117.537 58.866 117.804 59.154L117.068 59.938C116.886 59.7353 116.684 59.5913 116.46 59.506C116.246 59.4206 116.001 59.378 115.724 59.378C115.148 59.378 114.678 59.57 114.316 59.954C113.953 60.3273 113.772 60.882 113.772 61.618ZM123.843 66.002L120.003 62.146L123.779 58.482H125.171L121.059 62.434L121.091 61.794L125.331 66.002H123.843ZM118.995 66.002V54.674H120.115V66.002H118.995ZM133.383 66.162C132.69 66.162 132.066 65.9913 131.511 65.65C130.956 65.3086 130.514 64.8446 130.183 64.258C129.863 63.6606 129.703 62.994 129.703 62.258C129.703 61.5113 129.863 60.8446 130.183 60.258C130.514 59.6606 130.956 59.1913 131.511 58.85C132.066 58.498 132.69 58.322 133.383 58.322C133.948 58.322 134.46 58.434 134.919 58.658C135.378 58.882 135.756 59.202 136.055 59.618C136.364 60.0233 136.546 60.5033 136.599 61.058V63.41C136.535 63.954 136.354 64.434 136.055 64.85C135.767 65.2553 135.394 65.5753 134.935 65.81C134.476 66.0446 133.959 66.162 133.383 66.162ZM133.575 65.09C134.098 65.09 134.556 64.9726 134.951 64.738C135.346 64.4926 135.655 64.1566 135.879 63.73C136.103 63.2926 136.215 62.7966 136.215 62.242C136.215 61.6766 136.098 61.1806 135.863 60.754C135.639 60.3273 135.33 59.9913 134.935 59.746C134.54 59.5006 134.082 59.378 133.559 59.378C133.036 59.378 132.572 59.5006 132.167 59.746C131.762 59.9913 131.442 60.3326 131.207 60.77C130.983 61.1966 130.871 61.6873 130.871 62.242C130.871 62.7966 130.983 63.2926 131.207 63.73C131.442 64.1566 131.762 64.4926 132.167 64.738C132.583 64.9726 133.052 65.09 133.575 65.09ZM137.271 66.002H136.151V63.986L136.375 62.13L136.151 60.322V54.674H137.271V66.002ZM142.95 66.162C142.225 66.162 141.564 65.986 140.966 65.634C140.38 65.282 139.91 64.8073 139.558 64.21C139.217 63.6126 139.046 62.946 139.046 62.21C139.046 61.4846 139.217 60.8286 139.558 60.242C139.91 59.6553 140.38 59.1913 140.966 58.85C141.564 58.498 142.225 58.322 142.95 58.322C143.686 58.322 144.348 58.4926 144.934 58.834C145.521 59.1753 145.985 59.6446 146.326 60.242C146.678 60.8286 146.854 61.4846 146.854 62.21C146.854 62.9566 146.678 63.6286 146.326 64.226C145.985 64.8126 145.521 65.282 144.934 65.634C144.348 65.986 143.686 66.162 142.95 66.162ZM142.95 65.074C143.484 65.074 143.953 64.9513 144.358 64.706C144.774 64.4606 145.1 64.1193 145.334 63.682C145.58 63.2446 145.702 62.754 145.702 62.21C145.702 61.666 145.58 61.186 145.334 60.77C145.1 60.3433 144.774 60.0073 144.358 59.762C143.953 59.5166 143.484 59.394 142.95 59.394C142.428 59.394 141.958 59.5166 141.542 59.762C141.126 60.0073 140.801 60.3433 140.566 60.77C140.332 61.186 140.214 61.666 140.214 62.21C140.214 62.7646 140.332 63.2606 140.566 63.698C140.801 64.1246 141.126 64.4606 141.542 64.706C141.958 64.9513 142.428 65.074 142.95 65.074ZM154.108 66.002V61.586C154.108 60.9246 153.911 60.3913 153.516 59.986C153.132 59.57 152.62 59.362 151.98 59.362C151.543 59.362 151.159 59.458 150.828 59.65C150.497 59.842 150.236 60.1033 150.044 60.434C149.852 60.7646 149.756 61.1433 149.756 61.57L149.244 61.282C149.244 60.7166 149.377 60.21 149.644 59.762C149.911 59.314 150.268 58.962 150.716 58.706C151.175 58.45 151.697 58.322 152.284 58.322C152.86 58.322 153.372 58.4606 153.82 58.738C154.268 59.0153 154.615 59.3886 154.86 59.858C155.116 60.3273 155.244 60.8393 155.244 61.394V66.002H154.108ZM148.636 66.002V58.482H149.756V66.002H148.636ZM160.811 66.162C160.054 66.162 159.376 65.9913 158.779 65.65C158.182 65.3086 157.707 64.8393 157.355 64.242C157.014 63.6446 156.843 62.9726 156.843 62.226C156.843 61.49 157.014 60.8286 157.355 60.242C157.696 59.6446 158.16 59.1753 158.747 58.834C159.334 58.4926 159.99 58.322 160.715 58.322C161.398 58.322 162 58.4766 162.523 58.786C163.056 59.0953 163.472 59.5273 163.771 60.082C164.08 60.626 164.235 61.2553 164.235 61.97C164.235 62.0553 164.23 62.1566 164.219 62.274C164.208 62.3806 164.187 62.5086 164.155 62.658H157.643V61.698H163.547L163.147 62.05C163.158 61.4953 163.062 61.0206 162.859 60.626C162.667 60.2206 162.384 59.9113 162.011 59.698C161.648 59.474 161.206 59.362 160.683 59.362C160.139 59.362 159.664 59.4793 159.259 59.714C158.854 59.9486 158.534 60.2793 158.299 60.706C158.075 61.122 157.963 61.618 157.963 62.194C157.963 62.77 158.08 63.2766 158.315 63.714C158.56 64.1513 158.896 64.4926 159.323 64.738C159.76 64.9833 160.262 65.106 160.827 65.106C161.286 65.106 161.707 65.026 162.091 64.866C162.475 64.6953 162.8 64.4446 163.067 64.114L163.787 64.85C163.435 65.266 162.998 65.5913 162.475 65.826C161.963 66.05 161.408 66.162 160.811 66.162ZM170.554 66.002V55.314H171.674V66.002H170.554ZM168.65 59.49V58.482H173.562V59.49H168.65ZM180.577 66.002V61.586C180.577 60.9246 180.379 60.3913 179.985 59.986C179.601 59.57 179.089 59.362 178.449 59.362C178.011 59.362 177.627 59.458 177.297 59.65C176.966 59.842 176.705 60.1033 176.513 60.434C176.321 60.7646 176.225 61.1433 176.225 61.57L175.713 61.282C175.713 60.7166 175.846 60.21 176.113 59.762C176.379 59.314 176.737 58.962 177.185 58.706C177.643 58.45 178.166 58.322 178.753 58.322C179.329 58.322 179.841 58.4553 180.289 58.722C180.737 58.978 181.083 59.3353 181.329 59.794C181.585 60.2526 181.713 60.786 181.713 61.394V66.002H180.577ZM175.105 66.002V54.674H176.225V66.002H175.105ZM183.808 66.002V58.482H184.944V66.002H183.808ZM184.368 56.85C184.155 56.85 183.973 56.7753 183.824 56.626C183.675 56.466 183.6 56.2793 183.6 56.066C183.6 55.842 183.675 55.6553 183.824 55.506C183.973 55.3566 184.155 55.282 184.368 55.282C184.603 55.282 184.789 55.3566 184.928 55.506C185.077 55.6553 185.152 55.842 185.152 56.066C185.152 56.2793 185.077 56.466 184.928 56.626C184.789 56.7753 184.603 56.85 184.368 56.85ZM189.518 66.162C189.113 66.162 188.723 66.1086 188.35 66.002C187.977 65.8846 187.635 65.7246 187.326 65.522C187.027 65.3193 186.766 65.0793 186.542 64.802L187.262 64.066C187.561 64.4286 187.897 64.7006 188.27 64.882C188.654 65.0526 189.081 65.138 189.55 65.138C190.051 65.138 190.441 65.042 190.718 64.85C191.006 64.658 191.15 64.3913 191.15 64.05C191.15 63.73 191.049 63.4793 190.846 63.298C190.643 63.1166 190.382 62.9726 190.062 62.866C189.753 62.7593 189.422 62.658 189.07 62.562C188.718 62.4553 188.382 62.3273 188.062 62.178C187.742 62.018 187.481 61.7993 187.278 61.522C187.086 61.2446 186.99 60.882 186.99 60.434C186.99 60.0073 187.091 59.6393 187.294 59.33C187.507 59.01 187.806 58.7646 188.19 58.594C188.585 58.4126 189.049 58.322 189.582 58.322C190.147 58.322 190.659 58.4233 191.118 58.626C191.577 58.8286 191.945 59.1273 192.222 59.522L191.502 60.242C191.278 59.954 190.995 59.7353 190.654 59.586C190.323 59.426 189.95 59.346 189.534 59.346C189.054 59.346 188.686 59.442 188.43 59.634C188.185 59.8153 188.062 60.0553 188.062 60.354C188.062 60.642 188.163 60.8713 188.366 61.042C188.569 61.202 188.825 61.3353 189.134 61.442C189.454 61.538 189.79 61.6393 190.142 61.746C190.494 61.842 190.83 61.9753 191.15 62.146C191.47 62.306 191.726 62.53 191.918 62.818C192.121 63.0953 192.222 63.474 192.222 63.954C192.222 64.626 191.977 65.1646 191.486 65.57C191.006 65.9646 190.35 66.162 189.518 66.162ZM199.529 66.002L196.633 58.482H197.801L200.089 64.722L199.673 64.738L201.945 58.482H202.601L204.873 64.738L204.457 64.722L206.729 58.482H207.913L205.001 66.002H204.345L202.025 59.842H202.505L200.201 66.002H199.529ZM212.592 66.162C211.835 66.162 211.158 65.9913 210.56 65.65C209.963 65.3086 209.488 64.8393 209.136 64.242C208.795 63.6446 208.624 62.9726 208.624 62.226C208.624 61.49 208.795 60.8286 209.136 60.242C209.478 59.6446 209.942 59.1753 210.528 58.834C211.115 58.4926 211.771 58.322 212.496 58.322C213.179 58.322 213.782 58.4766 214.304 58.786C214.838 59.0953 215.254 59.5273 215.552 60.082C215.862 60.626 216.016 61.2553 216.016 61.97C216.016 62.0553 216.011 62.1566 216 62.274C215.99 62.3806 215.968 62.5086 215.936 62.658H209.424V61.698H215.328L214.928 62.05C214.939 61.4953 214.843 61.0206 214.64 60.626C214.448 60.2206 214.166 59.9113 213.792 59.698C213.43 59.474 212.987 59.362 212.464 59.362C211.92 59.362 211.446 59.4793 211.04 59.714C210.635 59.9486 210.315 60.2793 210.08 60.706C209.856 61.122 209.744 61.618 209.744 62.194C209.744 62.77 209.862 63.2766 210.096 63.714C210.342 64.1513 210.678 64.4926 211.104 64.738C211.542 64.9833 212.043 65.106 212.608 65.106C213.067 65.106 213.488 65.026 213.872 64.866C214.256 64.6953 214.582 64.4446 214.848 64.114L215.568 64.85C215.216 65.266 214.779 65.5913 214.256 65.826C213.744 66.05 213.19 66.162 212.592 66.162ZM221.202 66.162C220.444 66.162 219.767 65.9913 219.17 65.65C218.572 65.3086 218.098 64.8393 217.746 64.242C217.404 63.6446 217.234 62.9726 217.234 62.226C217.234 61.49 217.404 60.8286 217.746 60.242C218.087 59.6446 218.551 59.1753 219.138 58.834C219.724 58.4926 220.38 58.322 221.106 58.322C221.788 58.322 222.391 58.4766 222.914 58.786C223.447 59.0953 223.863 59.5273 224.162 60.082C224.471 60.626 224.626 61.2553 224.626 61.97C224.626 62.0553 224.62 62.1566 224.61 62.274C224.599 62.3806 224.578 62.5086 224.546 62.658H218.034V61.698H223.938L223.538 62.05C223.548 61.4953 223.452 61.0206 223.25 60.626C223.058 60.2206 222.775 59.9113 222.402 59.698C222.039 59.474 221.596 59.362 221.074 59.362C220.53 59.362 220.055 59.4793 219.65 59.714C219.244 59.9486 218.924 60.2793 218.69 60.706C218.466 61.122 218.354 61.618 218.354 62.194C218.354 62.77 218.471 63.2766 218.706 63.714C218.951 64.1513 219.287 64.4926 219.714 64.738C220.151 64.9833 220.652 65.106 221.218 65.106C221.676 65.106 222.098 65.026 222.482 64.866C222.866 64.6953 223.191 64.4446 223.458 64.114L224.178 64.85C223.826 65.266 223.388 65.5913 222.866 65.826C222.354 66.05 221.799 66.162 221.202 66.162ZM231.187 66.002L227.347 62.146L231.123 58.482H232.515L228.403 62.434L228.435 61.794L232.675 66.002H231.187ZM226.339 66.002V54.674H227.459V66.002H226.339Z" fill="#9F9F9F"/>
<ellipse cx="262" cy="25.002" rx="1.99985" ry="2" fill="#9F9F9F"/>
<ellipse cx="268" cy="25.002" rx="1.99985" ry="2" fill="#9F9F9F"/>
<ellipse cx="274" cy="25.002" rx="1.99985" ry="2" fill="#9F9F9F"/>
</svg>
