<svg width="186" height="36" viewBox="0 0 186 36" fill="none" xmlns="http://www.w3.org/2000/svg">
<path d="M55.7812 28.1245V9.22461H59.3452V24.8845H67.9851V28.1245H55.7812Z" fill="#3A5088"/>
<path d="M75.684 28.5034C74.352 28.5034 73.155 28.2334 72.093 27.6933C71.031 27.1534 70.194 26.3704 69.582 25.3444C68.97 24.3184 68.6641 23.0854 68.6641 21.6454V21.2134C68.6641 19.7734 68.97 18.5404 69.582 17.5144C70.194 16.4884 71.031 15.7054 72.093 15.1654C73.155 14.6255 74.352 14.3555 75.684 14.3555C77.016 14.3555 78.213 14.6255 79.275 15.1654C80.3369 15.7054 81.1739 16.4884 81.786 17.5144C82.398 18.5404 82.704 19.7734 82.704 21.2134V21.6454C82.704 23.0854 82.398 24.3184 81.786 25.3444C81.1739 26.3704 80.3369 27.1534 79.275 27.6933C78.213 28.2334 77.016 28.5034 75.684 28.5034ZM75.684 25.4794C76.728 25.4794 77.592 25.1464 78.276 24.4804C78.9599 23.7964 79.302 22.8244 79.302 21.5644V21.2944C79.302 20.0344 78.9599 19.0714 78.276 18.4054C77.61 17.7214 76.746 17.3794 75.684 17.3794C74.64 17.3794 73.776 17.7214 73.092 18.4054C72.408 19.0714 72.066 20.0344 72.066 21.2944V21.5644C72.066 22.8244 72.408 23.7964 73.092 24.4804C73.776 25.1464 74.64 25.4794 75.684 25.4794Z" fill="#3A5088"/>
<path d="M83.9844 21.4834V21.0514C83.9844 19.6474 84.2633 18.4504 84.8213 17.4604C85.3794 16.4525 86.1173 15.6874 87.0353 15.1654C87.9714 14.6255 88.9883 14.3555 90.0864 14.3555C91.3103 14.3555 92.2373 14.5714 92.8673 15.0034C93.4974 15.4354 93.9563 15.8854 94.2443 16.3534H94.7303V14.7334H98.0783V30.5013C98.0783 31.4194 97.8083 32.1483 97.2683 32.6883C96.7283 33.2464 96.0084 33.5253 95.1083 33.5253H86.1444V30.5554H93.9203C94.4244 30.5554 94.6763 30.2854 94.6763 29.7453V26.2624H94.1903C94.0104 26.5504 93.7583 26.8473 93.4343 27.1534C93.1104 27.4413 92.6784 27.6844 92.1383 27.8824C91.5983 28.0803 90.9144 28.1794 90.0864 28.1794C88.9883 28.1794 87.9714 27.9183 87.0353 27.3964C86.1173 26.8564 85.3794 26.0914 84.8213 25.1013C84.2633 24.0934 83.9844 22.8874 83.9844 21.4834ZM91.0584 25.2094C92.1024 25.2094 92.9753 24.8763 93.6773 24.2104C94.3793 23.5444 94.7303 22.6084 94.7303 21.4025V21.1324C94.7303 19.9084 94.3793 18.9724 93.6773 18.3244C92.9933 17.6584 92.1204 17.3254 91.0584 17.3254C90.0143 17.3254 89.1414 17.6584 88.4393 18.3244C87.7373 18.9724 87.3863 19.9084 87.3863 21.1324V21.4025C87.3863 22.6084 87.7373 23.5444 88.4393 24.2104C89.1414 24.8763 90.0143 25.2094 91.0584 25.2094Z" fill="#3A5088"/>
<path d="M106.997 28.5034C105.665 28.5034 104.468 28.2334 103.406 27.6933C102.344 27.1534 101.507 26.3704 100.895 25.3444C100.283 24.3184 99.9766 23.0854 99.9766 21.6454V21.2134C99.9766 19.7734 100.283 18.5404 100.895 17.5144C101.507 16.4884 102.344 15.7054 103.406 15.1654C104.468 14.6255 105.665 14.3555 106.997 14.3555C108.329 14.3555 109.526 14.6255 110.588 15.1654C111.65 15.7054 112.487 16.4884 113.099 17.5144C113.711 18.5404 114.017 19.7734 114.017 21.2134V21.6454C114.017 23.0854 113.711 24.3184 113.099 25.3444C112.487 26.3704 111.65 27.1534 110.588 27.6933C109.526 28.2334 108.329 28.5034 106.997 28.5034ZM106.997 25.4794C108.041 25.4794 108.905 25.1464 109.589 24.4804C110.273 23.7964 110.615 22.8244 110.615 21.5644V21.2944C110.615 20.0344 110.273 19.0714 109.589 18.4054C108.923 17.7214 108.059 17.3794 106.997 17.3794C105.953 17.3794 105.089 17.7214 104.405 18.4054C103.721 19.0714 103.379 20.0344 103.379 21.2944V21.5644C103.379 22.8244 103.721 23.7964 104.405 24.4804C105.089 25.1464 105.953 25.4794 106.997 25.4794Z" fill="#3A5088"/>
<path d="M115.939 28.1255V14.7336H119.341V28.1255H115.939ZM117.64 13.1677C117.028 13.1677 116.507 12.9696 116.074 12.5736C115.66 12.1777 115.453 11.6556 115.453 11.0076C115.453 10.3597 115.66 9.83765 116.074 9.44166C116.507 9.04566 117.028 8.84766 117.64 8.84766C118.27 8.84766 118.793 9.04566 119.206 9.44166C119.62 9.83765 119.828 10.3597 119.828 11.0076C119.828 11.6556 119.62 12.1777 119.206 12.5736C118.793 12.9696 118.27 13.1677 117.64 13.1677Z" fill="#3A5088"/>
<path d="M121.898 33.5253V14.7334H125.246V16.3534H125.732C126.037 15.8314 126.514 15.3724 127.163 14.9764C127.81 14.5625 128.738 14.3555 129.944 14.3555C131.024 14.3555 132.023 14.6255 132.94 15.1654C133.859 15.6874 134.597 16.4614 135.154 17.4874C135.713 18.5134 135.992 19.7554 135.992 21.2134V21.6454C135.992 23.1034 135.713 24.3454 135.154 25.3713C134.597 26.3973 133.859 27.1803 132.94 27.7204C132.023 28.2423 131.024 28.5034 129.944 28.5034C129.134 28.5034 128.45 28.4044 127.892 28.2063C127.352 28.0264 126.911 27.7923 126.569 27.5043C126.245 27.1983 125.984 26.8923 125.786 26.5864H125.299V33.5253H121.898ZM128.917 25.5333C129.98 25.5333 130.853 25.2004 131.536 24.5344C132.238 23.8503 132.59 22.8604 132.59 21.5644V21.2944C132.59 19.9984 132.238 19.0174 131.536 18.3514C130.834 17.6674 129.962 17.3254 128.917 17.3254C127.874 17.3254 127.001 17.6674 126.299 18.3514C125.597 19.0174 125.246 19.9984 125.246 21.2944V21.5644C125.246 22.8604 125.597 23.8503 126.299 24.5344C127.001 25.2004 127.874 25.5333 128.917 25.5333Z" fill="#3A5088"/>
<path d="M143.467 28.5034C141.72 28.5034 140.29 28.1253 139.173 27.3694C138.058 26.6134 137.383 25.5333 137.148 24.1294L140.28 23.3194C140.407 23.9494 140.613 24.4443 140.902 24.8044C141.207 25.1643 141.576 25.4254 142.009 25.5874C142.458 25.7314 142.944 25.8033 143.467 25.8033C144.259 25.8033 144.844 25.6684 145.221 25.3984C145.599 25.1104 145.788 24.7594 145.788 24.3454C145.788 23.9313 145.609 23.6164 145.249 23.4004C144.888 23.1664 144.312 22.9774 143.521 22.8334L142.765 22.6983C141.828 22.5184 140.974 22.2754 140.2 21.9694C139.425 21.6454 138.804 21.2044 138.337 20.6464C137.869 20.0885 137.635 19.3685 137.635 18.4865C137.635 17.1544 138.121 16.1374 139.093 15.4354C140.064 14.7154 141.343 14.3555 142.927 14.3555C144.42 14.3555 145.663 14.6884 146.653 15.3544C147.643 16.0205 148.29 16.8934 148.597 17.9735L145.438 18.9454C145.294 18.2615 144.997 17.7754 144.547 17.4874C144.114 17.1994 143.575 17.0554 142.927 17.0554C142.278 17.0554 141.784 17.1725 141.442 17.4064C141.099 17.6225 140.929 17.9285 140.929 18.3244C140.929 18.7564 141.109 19.0805 141.468 19.2964C141.828 19.4944 142.314 19.6474 142.927 19.7554L143.682 19.8904C144.691 20.0704 145.599 20.3135 146.409 20.6194C147.238 20.9074 147.885 21.3304 148.354 21.8884C148.839 22.4284 149.083 23.1664 149.083 24.1024C149.083 25.5064 148.57 26.5954 147.544 27.3694C146.536 28.1253 145.177 28.5034 143.467 28.5034Z" fill="#3A5088"/>
<path d="M155.953 28.3404C154.909 28.3404 153.991 28.1064 153.199 27.6384C152.425 27.1525 151.822 26.4864 151.39 25.6404C150.958 24.7944 150.742 23.8225 150.742 22.7244V14.7324H154.144V22.4544C154.144 23.4624 154.387 24.2184 154.873 24.7224C155.377 25.2264 156.088 25.4784 157.006 25.4784C158.05 25.4784 158.86 25.1364 159.436 24.4524C160.012 23.7504 160.3 22.7784 160.3 21.5364V14.7324H163.702V28.1244H160.353V26.3694H159.868C159.653 26.8194 159.246 27.2604 158.654 27.6924C158.059 28.1244 157.159 28.3404 155.953 28.3404Z" fill="#3A5088"/>
<path d="M166.273 28.1235V14.7316H169.621V16.1896H170.107C170.342 15.7396 170.729 15.3526 171.269 15.0286C171.808 14.6865 172.52 14.5156 173.402 14.5156C174.355 14.5156 175.121 14.7046 175.697 15.0826C176.272 15.4426 176.713 15.9195 177.02 16.5136H177.506C177.812 15.9376 178.244 15.4606 178.802 15.0826C179.36 14.7046 180.151 14.5156 181.177 14.5156C182.006 14.5156 182.753 14.6956 183.419 15.0557C184.102 15.3976 184.643 15.9286 185.039 16.6486C185.453 17.3506 185.66 18.2415 185.66 19.3216V28.1235H182.257V19.5646C182.257 18.8266 182.068 18.2776 181.691 17.9176C181.313 17.5396 180.781 17.3506 180.098 17.3506C179.324 17.3506 178.721 17.6025 178.289 18.1066C177.875 18.5925 177.668 19.2946 177.668 20.2125V28.1235H174.266V19.5646C174.266 18.8266 174.077 18.2776 173.699 17.9176C173.32 17.5396 172.79 17.3506 172.105 17.3506C171.331 17.3506 170.728 17.6025 170.296 18.1066C169.882 18.5925 169.676 19.2946 169.676 20.2125V28.1235H166.273Z" fill="#3A5088"/>
<path d="M45.0006 18.0003C45.0006 13.2264 43.1041 8.64787 39.7284 5.27217C36.3527 1.89646 31.7743 6.26032e-07 27.0003 0C22.2263 -6.2603e-07 17.6479 1.89646 14.2722 5.27217C10.8965 8.64787 9 13.2264 9 18.0003H14.6252C16.4892 18.0003 17.9429 16.4382 18.6256 14.7037C19.0739 13.565 19.7541 12.5184 20.6362 11.6362C22.324 9.94837 24.6133 9.00015 27.0003 9.00015C29.3873 9.00015 31.6765 9.94837 33.3644 11.6362C35.0523 13.3241 36.0004 15.6133 36.0004 18.0003H45.0006Z" fill="url(#paint0_linear_1463_9553)"/>
<path d="M34.6314 24.8884C35.536 22.7044 36.0017 20.3638 36.0017 18H45.0009C45.0009 27.9413 36.9418 36.0002 27.0005 36.0002C25.4437 36.0002 23.9329 35.8026 22.4922 35.431C23.3073 35.221 24.1086 34.9536 24.8897 34.63C27.0736 33.7254 29.058 32.3996 30.7295 30.7281C32.401 29.0566 33.7269 27.0723 34.6314 24.8884Z" fill="#FBCF8E"/>
<path d="M0 18C-3.38167e-07 20.3639 0.465591 22.7046 1.37019 24.8885C2.27479 27.0724 3.60068 29.0567 5.27217 30.7282C6.94364 32.3996 8.92799 33.7255 11.1119 34.6302C13.2958 35.5348 15.6364 36.0003 18.0003 36.0003C20.3641 36.0003 22.7048 35.5348 24.8887 34.6302C27.0726 33.7255 29.0569 32.3996 30.7284 30.7282C32.3999 29.0567 33.7257 27.0724 34.6304 24.8885C35.535 22.7046 36.0006 20.3639 36.0006 18H30.3754C28.5114 18 27.0577 19.5621 26.375 21.2965C26.3556 21.3459 26.3356 21.3951 26.3153 21.4443C25.863 22.5362 25.2001 23.5284 24.3643 24.3641C23.5286 25.1998 22.5364 25.8628 21.4445 26.3151C20.3526 26.7674 19.1823 27.0002 18.0003 27.0002C16.8184 27.0002 15.648 26.7674 14.5561 26.3151C13.4641 25.8628 12.472 25.1998 11.6362 24.3641C10.8005 23.5284 10.1375 22.5362 9.68525 21.4443C9.23294 20.3523 9.00015 19.1819 9.00015 18H0Z" fill="url(#paint1_linear_1463_9553)"/>
<path d="M0 18.0003C0 8.05898 8.05898 0 18.0002 0C19.5567 0 21.067 0.197547 22.5076 0.568951C19.4166 1.36524 16.5651 2.97673 14.2695 5.27218C10.8938 8.64785 8.99741 13.2264 8.99741 18.0003H0Z" fill="#73E5E2"/>
<defs>
<linearGradient id="paint0_linear_1463_9553" x1="45.0006" y1="9.00015" x2="9" y2="9.00015" gradientUnits="userSpaceOnUse">
<stop stop-color="#73E5E2"/>
<stop offset="1" stop-color="#394F87"/>
</linearGradient>
<linearGradient id="paint1_linear_1463_9553" x1="1.18023e-06" y1="27.0002" x2="36.0006" y2="27.0002" gradientUnits="userSpaceOnUse">
<stop stop-color="#FBDC8E"/>
<stop offset="1" stop-color="#FB958E"/>
</linearGradient>
</defs>
</svg>
