<svg width="180" height="36" viewBox="0 0 180 36" fill="none" xmlns="http://www.w3.org/2000/svg">
<path d="M51.916 24.8294C51.916 25.7201 51.7325 26.4044 51.3656 26.8825C51.0081 27.3607 50.4107 27.5997 49.5733 27.5997C48.783 27.5997 48.2232 27.3607 47.8938 26.8825C47.574 26.4044 47.4141 25.7201 47.4141 24.8294V9.9656C47.4141 9.07498 47.574 8.39062 47.8938 7.91249C48.2232 7.43437 48.783 7.19531 49.5733 7.19531C50.4107 7.19531 51.0081 7.43437 51.3656 7.91249C51.7325 8.39062 51.916 9.07498 51.916 9.9656V24.8294Z" fill="#09355D"/>
<path d="M53.2734 20.512C53.2734 19.5182 53.4334 18.5808 53.7533 17.6995C54.0826 16.8089 54.5718 16.0308 55.221 15.3652C55.8796 14.6996 56.6982 14.1699 57.6767 13.7762C58.6645 13.3823 59.8217 13.1855 61.1484 13.1855C62.4185 13.1855 63.5429 13.3683 64.5213 13.7339C65.4998 14.0996 66.3231 14.6105 66.991 15.2668C67.659 15.9136 68.1671 16.687 68.5152 17.587C68.8633 18.4776 69.0374 19.4526 69.0374 20.512C69.0374 21.4964 68.8727 22.4291 68.5434 23.3104C68.2142 24.1822 67.7202 24.951 67.0616 25.6166C66.4031 26.2728 65.5798 26.7978 64.5919 27.1916C63.6039 27.576 62.4561 27.7681 61.1484 27.7681C59.8594 27.7681 58.721 27.5853 57.733 27.2197C56.7545 26.8447 55.9314 26.3338 55.2634 25.6868C54.6048 25.0307 54.1061 24.262 53.7674 23.3807C53.4381 22.4901 53.2734 21.5338 53.2734 20.512ZM57.973 20.512C57.973 21.1308 58.0294 21.7214 58.1424 22.2838C58.2552 22.8369 58.434 23.3244 58.6786 23.7464C58.9326 24.1681 59.262 24.5057 59.6665 24.7588C60.0712 25.0025 60.565 25.1244 61.1484 25.1244C61.6847 25.1244 62.1504 25.012 62.5455 24.7869C62.9501 24.562 63.2794 24.2478 63.5335 23.8448C63.7969 23.4417 63.9945 22.9588 64.1261 22.3964C64.2579 21.8245 64.3237 21.1964 64.3237 20.512C64.3237 19.8932 64.2626 19.3073 64.1403 18.7542C64.0274 18.1918 63.8439 17.6995 63.5898 17.2776C63.3359 16.8465 63.0066 16.5089 62.602 16.2652C62.2068 16.0121 61.7222 15.8855 61.1484 15.8855C60.5744 15.8855 60.0852 16.0073 59.6806 16.2511C59.2761 16.4949 58.9468 16.8276 58.6927 17.2495C58.4387 17.6714 58.2552 18.1636 58.1424 18.7261C58.0294 19.2885 57.973 19.8838 57.973 20.512Z" fill="#09355D"/>
<path d="M80.6325 24.8866C80.3784 25.3553 80.0679 25.7537 79.701 26.0819C79.3436 26.41 78.9436 26.6819 78.5015 26.8975C78.0687 27.1037 77.603 27.2584 77.1043 27.3616C76.615 27.4553 76.1117 27.5022 75.5943 27.5022C74.7286 27.5022 73.9384 27.3475 73.2233 27.038C72.5083 26.7287 71.892 26.2834 71.3746 25.7022C70.8665 25.1116 70.4713 24.3897 70.1891 23.5366C69.9068 22.6834 69.7656 21.7084 69.7656 20.6117C69.7656 19.5804 69.8974 18.6148 70.1609 17.7148C70.4243 16.8148 70.8053 16.032 71.304 15.3664C71.8121 14.7008 72.433 14.1758 73.1669 13.7914C73.9007 13.4071 74.7381 13.2148 75.6789 13.2148C76.7514 13.2148 77.7018 13.4211 78.5297 13.8336C79.367 14.2461 80.0868 14.9211 80.689 15.8585V15.493C80.689 14.818 80.8724 14.3117 81.2393 13.9742C81.6157 13.6274 82.1332 13.4539 82.7918 13.4539C83.1869 13.4539 83.5209 13.5195 83.7938 13.6508C84.0665 13.7727 84.2829 13.9602 84.4429 14.2133C84.6029 14.4571 84.7158 14.7617 84.7816 15.1274C84.8569 15.4835 84.8945 15.8914 84.8945 16.3508V25.7725C84.8945 26.9162 84.7488 27.938 84.4571 28.838C84.1748 29.738 83.7326 30.4975 83.1304 31.1162C82.5283 31.7349 81.7568 32.2036 80.8159 32.5224C79.8751 32.8505 78.7555 33.0146 77.4572 33.0146C76.5446 33.0146 75.7354 32.9724 75.0297 32.888C74.3335 32.8131 73.7313 32.6958 73.2233 32.5365C72.7153 32.3583 72.3296 32.1615 72.0661 31.9459C71.8121 31.7302 71.685 31.4489 71.685 31.1021C71.685 30.9052 71.7132 30.7178 71.7697 30.5396C71.8262 30.3615 71.9108 30.2022 72.0237 30.0615C72.146 29.9302 72.3013 29.8225 72.4895 29.738C72.687 29.6631 72.9269 29.6256 73.2092 29.6256C73.5102 29.6256 73.8113 29.6443 74.1124 29.6818C74.4228 29.7193 74.7428 29.7568 75.0721 29.7943C75.4107 29.8412 75.7636 29.8833 76.1305 29.9209C76.5069 29.9583 76.9114 29.9772 77.3442 29.9772C77.8617 29.9772 78.3227 29.9256 78.7273 29.8225C79.1318 29.7193 79.4752 29.5365 79.7575 29.274C80.0398 29.0115 80.2562 28.6599 80.4067 28.2193C80.5572 27.788 80.6325 27.235 80.6325 26.56V24.8866ZM80.6325 20.5133C80.6325 19.8288 80.5807 19.2054 80.4773 18.643C80.3832 18.0804 80.2185 17.6023 79.9833 17.2085C79.7481 16.8054 79.4329 16.4961 79.0378 16.2804C78.6425 16.0554 78.1487 15.943 77.5559 15.943C76.9726 15.943 76.4881 16.0601 76.1023 16.2945C75.726 16.5288 75.4249 16.8524 75.1991 17.2648C74.9733 17.6773 74.8134 18.1601 74.7192 18.7133C74.6346 19.2664 74.5923 19.857 74.5923 20.4851C74.5923 21.9194 74.8463 22.9976 75.3544 23.7194C75.8623 24.4413 76.6009 24.8022 77.57 24.8022C78.0216 24.7929 78.431 24.7084 78.7978 24.549C79.1741 24.3803 79.4988 24.1226 79.7716 23.7757C80.0445 23.4287 80.2562 22.9881 80.4067 22.4538C80.5572 21.9194 80.6325 21.2726 80.6325 20.5133Z" fill="#09355D"/>
<path d="M86.1875 20.512C86.1875 19.5182 86.3474 18.5808 86.6673 17.6995C86.9967 16.8089 87.4858 16.0308 88.1351 15.3652C88.7937 14.6996 89.6121 14.1699 90.5906 13.7762C91.5786 13.3823 92.7358 13.1855 94.0624 13.1855C95.3325 13.1855 96.4568 13.3683 97.4353 13.7339C98.4138 14.0996 99.237 14.6105 99.905 15.2668C100.573 15.9136 101.081 16.687 101.429 17.587C101.777 18.4776 101.951 19.4526 101.951 20.512C101.951 21.4964 101.787 22.4291 101.457 23.3104C101.128 24.1822 100.634 24.951 99.9756 25.6166C99.317 26.2728 98.4937 26.7978 97.5059 27.1916C96.518 27.576 95.3702 27.7681 94.0624 27.7681C92.7734 27.7681 91.635 27.5853 90.6471 27.2197C89.6686 26.8447 88.8454 26.3338 88.1773 25.6868C87.5188 25.0307 87.0201 24.262 86.6814 23.3807C86.3521 22.4901 86.1875 21.5338 86.1875 20.512ZM90.887 20.512C90.887 21.1308 90.9435 21.7214 91.0564 22.2838C91.1693 22.8369 91.348 23.3244 91.5927 23.7464C91.8467 24.1681 92.1759 24.5057 92.5806 24.7588C92.9851 25.0025 93.4791 25.1244 94.0624 25.1244C94.5987 25.1244 95.0644 25.012 95.4595 24.7869C95.8641 24.562 96.1934 24.2478 96.4474 23.8448C96.7109 23.4417 96.9084 22.9588 97.0402 22.3964C97.1719 21.8245 97.2378 21.1964 97.2378 20.512C97.2378 19.8932 97.1766 19.3073 97.0543 18.7542C96.9414 18.1918 96.7579 17.6995 96.5039 17.2776C96.2499 16.8465 95.9205 16.5089 95.516 16.2652C95.1209 16.0121 94.6363 15.8855 94.0624 15.8855C93.4885 15.8855 92.9992 16.0073 92.5947 16.2511C92.1901 16.4949 91.8608 16.8276 91.6068 17.2495C91.3528 17.6714 91.1693 18.1636 91.0564 18.7261C90.9435 19.2885 90.887 19.8838 90.887 20.512Z" fill="#09355D"/>
<path d="M108.005 8.44684C108.005 8.75622 107.934 9.03277 107.793 9.27652C107.652 9.51089 107.469 9.70772 107.243 9.86719C107.017 10.0266 106.754 10.1483 106.453 10.2327C106.161 10.3077 105.86 10.3453 105.549 10.3453C105.22 10.3453 104.905 10.303 104.604 10.2187C104.312 10.1343 104.053 10.0125 103.828 9.85303C103.602 9.68432 103.423 9.48277 103.291 9.2484C103.16 9.01403 103.094 8.74684 103.094 8.44684C103.094 8.17498 103.155 7.92654 103.277 7.70155C103.409 7.46718 103.583 7.26562 103.799 7.09686C104.016 6.92812 104.275 6.79687 104.576 6.70313C104.877 6.60937 105.206 6.5625 105.564 6.5625C105.874 6.5625 106.175 6.60469 106.467 6.68906C106.768 6.77343 107.031 6.8953 107.257 7.05468C107.483 7.21405 107.662 7.41092 107.793 7.64529C107.934 7.87967 108.005 8.14685 108.005 8.44684ZM107.793 24.8294C107.793 25.72 107.61 26.4044 107.243 26.8825C106.885 27.3607 106.288 27.5997 105.451 27.5997C104.66 27.5997 104.1 27.3607 103.771 26.8825C103.451 26.4044 103.291 25.72 103.291 24.8294V16.2233C103.291 15.3326 103.451 14.6483 103.771 14.1702C104.1 13.6921 104.66 13.453 105.451 13.453C106.288 13.453 106.885 13.6921 107.243 14.1702C107.61 14.6483 107.793 15.3326 107.793 16.2233V24.8294Z" fill="#09355D"/>
<path d="M114.282 20.4851C114.282 21.1132 114.329 21.6991 114.423 22.2429C114.526 22.7866 114.696 23.2647 114.931 23.6773C115.176 24.0803 115.495 24.399 115.891 24.6334C116.295 24.8679 116.794 24.985 117.386 24.985C117.932 24.985 118.388 24.8726 118.756 24.6476C119.131 24.4132 119.433 24.0944 119.659 23.6913C119.884 23.2787 120.044 22.796 120.138 22.2429C120.242 21.6897 120.294 21.0897 120.294 20.4429C120.294 19.9273 120.256 19.4023 120.18 18.868C120.106 18.3241 119.965 17.832 119.758 17.3914C119.551 16.9508 119.264 16.5898 118.897 16.3085C118.529 16.0274 118.05 15.8867 117.457 15.8867C116.864 15.8867 116.361 15.9804 115.947 16.168C115.542 16.3554 115.213 16.6414 114.959 17.0257C114.714 17.4101 114.54 17.893 114.437 18.4741C114.333 19.046 114.282 19.7163 114.282 20.4851ZM114.268 16.2242C114.503 15.7274 114.804 15.2914 115.171 14.9164C115.538 14.5414 115.942 14.2274 116.385 13.9742C116.827 13.7211 117.288 13.5336 117.768 13.4118C118.257 13.2805 118.741 13.2148 119.221 13.2148C120.086 13.2148 120.868 13.4071 121.564 13.7914C122.26 14.1758 122.853 14.7008 123.342 15.3664C123.84 16.0227 124.222 16.8008 124.486 17.7007C124.748 18.5914 124.881 19.5476 124.881 20.5694C124.881 21.6288 124.739 22.5991 124.457 23.4803C124.185 24.3616 123.793 25.121 123.285 25.7584C122.786 26.3866 122.184 26.8787 121.479 27.235C120.783 27.5912 120.007 27.7693 119.151 27.7693C118.097 27.7693 117.156 27.5256 116.328 27.038C115.5 26.5506 114.813 25.8663 114.268 24.985V30.0475C114.268 30.938 114.084 31.6225 113.717 32.1005C113.36 32.5786 112.762 32.8178 111.925 32.8178C111.135 32.8178 110.575 32.5786 110.245 32.1005C109.926 31.6225 109.766 30.938 109.766 30.0475V16.2242C109.766 15.3335 109.926 14.6492 110.245 14.1711C110.575 13.693 111.135 13.4539 111.925 13.4539C112.762 13.4539 113.36 13.693 113.717 14.1711C114.084 14.6492 114.268 15.3335 114.268 16.2242Z" fill="#09355D"/>
<path d="M129.847 17.2214C129.847 17.587 130.008 17.8729 130.327 18.0792C130.647 18.2761 131.089 18.4402 131.654 18.5714C132.19 18.6932 132.74 18.8105 133.305 18.9229C133.87 19.0355 134.42 19.1667 134.956 19.3167C135.492 19.4573 135.995 19.6261 136.466 19.8229C136.936 20.0198 137.35 20.2682 137.708 20.5682C138.065 20.8588 138.347 21.2151 138.554 21.6369C138.761 22.0495 138.865 22.5464 138.865 23.1275C138.865 23.8588 138.715 24.5104 138.413 25.0822C138.112 25.6447 137.685 26.1228 137.13 26.5166C136.584 26.9103 135.93 27.215 135.168 27.4307C134.406 27.6463 133.564 27.7587 132.641 27.7681C131.767 27.7681 130.924 27.7119 130.115 27.5994C129.307 27.4963 128.586 27.3321 127.955 27.1071C127.335 26.8821 126.837 26.6057 126.46 26.2775C126.084 25.94 125.896 25.5463 125.896 25.0963C125.896 24.7025 126.023 24.3978 126.277 24.1822C126.531 23.9667 126.855 23.8588 127.251 23.8588C127.401 23.8588 127.58 23.8869 127.787 23.9432C127.994 23.9994 128.219 24.0697 128.464 24.1541C128.708 24.2385 128.967 24.3322 129.24 24.4354C129.522 24.5291 129.814 24.6135 130.115 24.6885C130.492 24.7917 130.877 24.876 131.272 24.9417C131.677 24.9978 132.091 25.026 132.515 25.026C132.777 25.026 133.036 25.0025 133.29 24.9557C133.545 24.8994 133.771 24.8197 133.968 24.7167C134.176 24.6041 134.344 24.4635 134.477 24.2947C134.608 24.126 134.687 23.9198 134.716 23.676C134.744 23.6198 134.768 23.5635 134.786 23.5072C134.805 23.451 134.815 23.3854 134.815 23.3104C134.815 23.0478 134.692 22.8135 134.448 22.6072C134.213 22.4011 133.878 22.2369 133.446 22.1151C132.721 21.9464 132.03 21.7917 131.371 21.6511C130.713 21.5104 130.101 21.3604 129.537 21.2011C128.981 21.0417 128.473 20.8588 128.012 20.6526C127.56 20.4464 127.175 20.1932 126.855 19.8932C126.545 19.5932 126.3 19.2323 126.121 18.8105C125.951 18.3886 125.867 17.8776 125.867 17.2776C125.867 16.6308 126.013 16.0542 126.304 15.548C126.605 15.0323 127.034 14.6012 127.589 14.2543C128.144 13.9073 128.816 13.6449 129.608 13.4668C130.398 13.2793 131.291 13.1855 132.288 13.1855C134.076 13.1855 135.435 13.4012 136.367 13.8323C137.308 14.2543 137.779 14.8073 137.779 15.4918C137.779 15.8761 137.651 16.1715 137.397 16.3776C137.143 16.5745 136.837 16.6729 136.481 16.6729C136.291 16.6729 136.094 16.6402 135.887 16.5745C135.689 16.4995 135.45 16.4199 135.168 16.3355C134.885 16.2418 134.546 16.1621 134.151 16.0965C133.766 16.0215 133.286 15.9839 132.712 15.9839C132.279 15.9839 131.884 16.0026 131.526 16.0402C131.178 16.0776 130.877 16.1433 130.623 16.237C130.378 16.3308 130.186 16.4573 130.045 16.6168C129.912 16.7761 129.847 16.9776 129.847 17.2214Z" fill="#09355D"/>
<path d="M144.595 22.3827C144.595 22.8233 144.652 23.2077 144.765 23.5359C144.887 23.8639 145.052 24.1405 145.259 24.3655C145.466 24.5812 145.706 24.7452 145.978 24.8576C146.261 24.9608 146.562 25.0124 146.881 25.0124C147.258 25.0124 147.621 24.9562 147.969 24.8436C148.317 24.7312 148.623 24.5576 148.886 24.3233C149.158 24.0889 149.375 23.7936 149.535 23.4373C149.694 23.0812 149.775 22.664 149.775 22.1859V16.2234C149.775 15.3328 149.935 14.6484 150.254 14.1704C150.584 13.6923 151.144 13.4531 151.934 13.4531C152.771 13.4531 153.369 13.6923 153.726 14.1704C154.094 14.6484 154.277 15.3328 154.277 16.2234V24.8296C154.277 25.7202 154.094 26.4045 153.726 26.8826C153.369 27.3608 152.771 27.5998 151.934 27.5998C151.144 27.5998 150.584 27.3608 150.254 26.8826C149.935 26.4045 149.775 25.7202 149.775 24.8296C149.577 25.2608 149.319 25.6545 148.998 26.0108C148.688 26.3671 148.321 26.6765 147.898 26.9389C147.483 27.1921 147.023 27.3889 146.515 27.5295C146.016 27.6702 145.474 27.7405 144.892 27.7405C144.262 27.7405 143.655 27.6326 143.071 27.4171C142.498 27.1921 141.989 26.8639 141.547 26.4326C141.105 25.9921 140.752 25.4483 140.489 24.8015C140.225 24.1546 140.094 23.3999 140.094 22.5374V16.2234C140.094 15.3328 140.254 14.6484 140.573 14.1704C140.903 13.6923 141.462 13.4531 142.253 13.4531C143.09 13.4531 143.687 13.6923 144.045 14.1704C144.412 14.6484 144.595 15.3328 144.595 16.2234V22.3827Z" fill="#09355D"/>
<path d="M156.32 16.2242C156.32 15.3335 156.48 14.6492 156.801 14.1711C157.13 13.693 157.69 13.4539 158.48 13.4539C159.318 13.4539 159.915 13.693 160.273 14.1711C160.639 14.6492 160.823 15.3335 160.823 16.2242C161.011 15.7742 161.265 15.3664 161.585 15.0008C161.914 14.6258 162.286 14.3071 162.699 14.0445C163.123 13.7821 163.58 13.5805 164.069 13.4398C164.558 13.2898 165.066 13.2148 165.593 13.2148C166.082 13.2148 166.562 13.2805 167.032 13.4118C167.512 13.5336 167.955 13.7352 168.36 14.0164C168.773 14.2882 169.135 14.6351 169.446 15.0571C169.757 15.4789 169.996 15.9851 170.166 16.5758C170.457 15.9477 170.801 15.418 171.196 14.9867C171.591 14.5555 172.019 14.2086 172.479 13.9461C172.941 13.6836 173.421 13.4961 173.92 13.3836C174.428 13.2711 174.935 13.2148 175.443 13.2148C176.045 13.2148 176.62 13.3227 177.165 13.5382C177.72 13.7539 178.205 14.0821 178.619 14.5227C179.043 14.9539 179.376 15.5024 179.621 16.168C179.875 16.8242 180.001 17.593 180.001 18.4741V24.8303C180.001 25.7209 179.818 26.4053 179.451 26.8834C179.095 27.3616 178.496 27.6006 177.659 27.6006C176.869 27.6006 176.309 27.3616 175.98 26.8834C175.66 26.4053 175.5 25.7209 175.5 24.8303V18.671C175.5 18.2491 175.443 17.8741 175.331 17.5461C175.218 17.2085 175.058 16.9274 174.851 16.7024C174.653 16.468 174.418 16.2945 174.145 16.182C173.873 16.0601 173.58 15.9992 173.271 15.9992C172.884 15.9992 172.518 16.0601 172.17 16.182C171.822 16.3038 171.516 16.4914 171.252 16.7445C170.998 16.9977 170.791 17.3211 170.631 17.7148C170.48 18.1085 170.406 18.582 170.406 19.1351V24.8303C170.406 25.7209 170.221 26.4053 169.855 26.8834C169.498 27.3616 168.9 27.6006 168.062 27.6006C167.272 27.6006 166.712 27.3616 166.383 26.8834C166.063 26.4053 165.903 25.7209 165.903 24.8303V18.9382C165.903 17.9727 165.701 17.2414 165.297 16.7445C164.901 16.2477 164.36 15.9992 163.674 15.9992C163.269 15.9992 162.892 16.0648 162.544 16.1961C162.196 16.3274 161.895 16.5195 161.641 16.7727C161.387 17.0257 161.184 17.3398 161.034 17.7148C160.893 18.0898 160.823 18.521 160.823 19.0085V24.8303C160.823 25.7209 160.639 26.4053 160.273 26.8834C159.915 27.3616 159.318 27.6006 158.48 27.6006C157.69 27.6006 157.13 27.3616 156.801 26.8834C156.48 26.4053 156.32 25.7209 156.32 24.8303V16.2242Z" fill="#09355D"/>
<path d="M18.0695 25.1986C14.0788 25.1986 10.8438 21.9751 10.8438 17.9987C10.8438 14.0223 14.0788 10.7988 18.0695 10.7988C22.0601 10.7988 25.2952 14.0223 25.2952 17.9987C25.2952 21.9751 22.0601 25.1986 18.0695 25.1986Z" fill="#51A3EE"/>
<path d="M4.06918 20.4604C1.97523 20.8284 0.539938 22.8438 1.34374 24.8053C2.46594 27.5437 4.25627 29.9835 6.5773 31.89C9.89621 34.616 14.0823 36.0727 18.3828 35.9979C22.6833 35.9232 26.816 34.3218 30.0374 31.4819C32.2902 29.496 33.994 26.9953 35.0197 24.2196C35.7543 22.2314 34.2492 20.267 32.1436 19.9722C30.0381 19.6773 28.1477 21.2044 27.1076 23.0524C26.5439 24.054 25.8121 24.9628 24.9353 25.7357C23.087 27.3651 20.7159 28.2838 18.2485 28.3268C15.7811 28.3696 13.3792 27.534 11.475 25.9698C10.5717 25.2279 9.80854 24.3451 9.21003 23.3637C8.10595 21.553 6.16314 20.0925 4.06918 20.4604Z" fill="#51A3EE"/>
<path d="M35.9889 20.2491C36.0812 19.5122 36.1286 18.7615 36.1286 17.9997C36.1286 8.05876 28.041 0 18.0643 0C8.08766 0 0 8.05876 0 17.9997C0 18.9774 0.0782184 19.9368 0.228766 20.8721C1.0585 19.7403 2.35349 18.9324 3.75227 18.6866C5.26568 18.4207 6.64114 18.7864 7.8041 19.4701C7.7354 18.9898 7.69985 18.4989 7.69985 17.9997C7.69985 12.2961 12.3402 7.67233 18.0643 7.67233C23.7884 7.67233 28.4288 12.2961 28.4288 17.9997C28.4288 18.3758 28.4085 18.7472 28.3693 19.1128C29.5077 18.3889 30.8697 17.9753 32.3918 18.1885C33.7979 18.3854 35.12 19.1474 35.9889 20.2491Z" fill="#0E4F8B"/>
</svg>
