<svg width="81" height="80" viewBox="0 0 81 80" fill="none" xmlns="http://www.w3.org/2000/svg">
<circle cx="40.5" cy="40" r="40" fill="#FFF1E8"/>
<path fill-rule="evenodd" clip-rule="evenodd" d="M26.5 30.7477C26.5 29.4497 27.3348 28.2988 28.5688 27.8959L39.5688 24.3041C40.1739 24.1065 40.8261 24.1065 41.4312 24.3041L52.4312 27.8959C53.6652 28.2988 54.5 29.4497 54.5 30.7477V40C54.5 48.8828 44.7912 54.0669 41.5437 55.5525C40.8743 55.8587 40.1256 55.8587 39.4563 55.5525C36.2088 54.0669 26.5 48.8828 26.5 40V30.7477Z" fill="#EB742E"/>
<path fill-rule="evenodd" clip-rule="evenodd" d="M46.2623 35.8838C46.8698 36.4789 46.8698 37.4437 46.2623 38.0388L40.92 43.272C39.8265 44.3432 38.0537 44.3432 36.9602 43.272L34.729 41.0864C34.1216 40.4913 34.1216 39.5265 34.729 38.9314C35.3365 38.3363 36.3215 38.3363 36.9289 38.9314L38.9401 40.9016L44.0624 35.8838C44.6699 35.2887 45.6548 35.2887 46.2623 35.8838Z" fill="#FFF1E8"/>
</svg>
