<svg width="448" height="456" viewBox="0 0 448 456" fill="none" xmlns="http://www.w3.org/2000/svg">
<rect x="7" y="83" width="279" height="292" rx="11.9358" fill="black" fill-opacity="0.31"/>
<rect x="416" y="232" width="130" height="2" transform="rotate(-90 416 232)" fill="white" fill-opacity="0.62"/>
<rect x="197" y="298.343" width="195.43" height="1.82645" transform="rotate(-90 197 298.343)" fill="white" fill-opacity="0.62"/>
<rect x="240.835" y="298.343" width="195.43" height="1.82645" transform="rotate(-90 240.835 298.343)" fill="white" fill-opacity="0.62"/>
<rect x="284.67" y="297.43" width="194.517" height="1.82645" transform="rotate(-90 284.67 297.43)" fill="white" fill-opacity="0.62"/>
<rect x="329" y="232" width="130" height="1" transform="rotate(-90 329 232)" fill="white" fill-opacity="0.62"/>
<rect x="372" y="232" width="130" height="2" transform="rotate(-90 372 232)" fill="white" fill-opacity="0.62"/>
<rect x="418" y="233.504" width="221" height="1.82645" transform="rotate(-180 418 233.504)" fill="white" fill-opacity="0.62"/>
<rect x="418" y="148.665" width="221" height="1.82645" transform="rotate(-180 418 148.665)" fill="white" fill-opacity="0.62"/>
<rect x="418" y="103.827" width="221" height="1.82645" transform="rotate(-180 418 103.827)" fill="white" fill-opacity="0.62"/>
<rect x="17" y="63" width="281.28" height="301.502" rx="9.80496" fill="white"/>
<path d="M96.6626 116.315C96.6626 131.206 84.5906 143.278 69.699 143.278C54.8074 143.278 42.7354 131.206 42.7354 116.315C42.7354 101.423 54.8074 89.351 69.699 89.351C84.5906 89.351 96.6626 101.423 96.6626 116.315ZM47.1113 116.315C47.1113 128.789 57.2242 138.902 69.699 138.902C82.1738 138.902 92.2866 128.789 92.2866 116.315C92.2866 103.84 82.1738 93.7269 69.699 93.7269C57.2242 93.7269 47.1113 103.84 47.1113 116.315Z" fill="#D6D6D6"/>
<g filter="url(#filter0_d_516_316)">
<path d="M94.4746 116.315C95.683 116.315 96.6718 115.333 96.5739 114.129C96.2192 109.767 94.8068 105.545 92.4449 101.835C89.6904 97.5078 85.7587 94.0562 81.1113 91.8852C76.4639 89.7141 71.2937 88.9137 66.2074 89.578C61.1212 90.2422 56.3299 92.3434 52.3959 95.6351C48.4619 98.9268 45.5484 103.272 43.9975 108.162C42.4465 113.051 42.3223 118.281 43.6396 123.239C44.9569 128.196 47.6608 132.675 51.4342 136.15C54.6697 139.129 58.5762 141.264 62.8071 142.383C63.9754 142.691 65.1157 141.891 65.3288 140.702V140.702C65.542 139.512 64.7463 138.386 63.583 138.059C60.1705 137.099 57.0213 135.346 54.3984 132.931C51.2374 130.02 48.9723 126.268 47.8688 122.115C46.7653 117.962 46.8693 113.581 48.1686 109.485C49.4679 105.389 51.9085 101.749 55.204 98.9912C58.4996 96.2338 62.5133 94.4735 66.7741 93.9171C71.0349 93.3607 75.3661 94.0312 79.2592 95.8499C83.1523 97.6686 86.4459 100.56 88.7534 104.185C90.6681 107.193 91.8379 110.602 92.1808 114.13C92.2976 115.333 93.2662 116.315 94.4746 116.315V116.315Z" fill="#DC7B40"/>
</g>
<path d="M68.6822 112.487L65.422 120.122H63.6816L66.9663 112.683H62.7747V111.212H68.6822V112.487ZM75.7154 112.671H71.7444V114.766C71.916 114.554 72.1611 114.382 72.4798 114.252C72.7984 114.113 73.1375 114.043 73.497 114.043C74.1507 114.043 74.6859 114.186 75.1026 114.472C75.5193 114.758 75.8216 115.126 76.0095 115.575C76.1975 116.016 76.2914 116.49 76.2914 116.997C76.2914 117.937 76.0218 118.692 75.4825 119.264C74.9514 119.836 74.1915 120.122 73.2029 120.122C72.2714 120.122 71.5279 119.889 70.9722 119.424C70.4166 118.958 70.1021 118.349 70.0285 117.598H71.6954C71.7689 117.924 71.9323 118.186 72.1856 118.382C72.4471 118.578 72.778 118.676 73.1784 118.676C73.6604 118.676 74.024 118.525 74.2692 118.223C74.5143 117.92 74.6368 117.52 74.6368 117.021C74.6368 116.515 74.5102 116.131 74.2569 115.869C74.0118 115.6 73.6482 115.465 73.1661 115.465C72.8229 115.465 72.537 115.551 72.3082 115.722C72.0794 115.894 71.916 116.123 71.8179 116.409H70.1756V111.163H75.7154V112.671Z" fill="#121212"/>
<path d="M46.2396 154.394C45.7641 154.394 45.3302 154.283 44.938 154.063C44.5458 153.837 44.2345 153.526 44.0041 153.129C43.7786 152.727 43.6658 152.276 43.6658 151.776C43.6658 151.276 43.7786 150.827 44.0041 150.43C44.2345 150.028 44.5458 149.717 44.938 149.496C45.3302 149.271 45.7641 149.158 46.2396 149.158C46.7201 149.158 47.1564 149.271 47.5486 149.496C47.9408 149.717 48.2496 150.026 48.4752 150.423C48.7007 150.82 48.8134 151.271 48.8134 151.776C48.8134 152.281 48.7007 152.732 48.4752 153.129C48.2496 153.526 47.9408 153.837 47.5486 154.063C47.1564 154.283 46.7201 154.394 46.2396 154.394ZM46.2396 153.813C46.5975 153.813 46.9186 153.729 47.203 153.563C47.4922 153.396 47.7177 153.158 47.8795 152.849C48.0462 152.541 48.1295 152.183 48.1295 151.776C48.1295 151.364 48.0462 151.006 47.8795 150.702C47.7177 150.393 47.4947 150.155 47.2103 149.989C46.926 149.822 46.6024 149.739 46.2396 149.739C45.8768 149.739 45.5533 149.822 45.2689 149.989C44.9846 150.155 44.7591 150.393 44.5924 150.702C44.4306 151.006 44.3497 151.364 44.3497 151.776C44.3497 152.183 44.4306 152.541 44.5924 152.849C44.7591 153.158 44.9846 153.396 45.2689 153.563C45.5582 153.729 45.8817 153.813 46.2396 153.813ZM51.4912 153.724L52.7413 150.312H53.4546L51.8735 154.342H51.094L49.513 150.312H50.2337L51.4912 153.724ZM58.0841 152.173C58.0841 152.3 58.0767 152.435 58.062 152.577H54.8411C54.8656 152.974 55.0004 153.286 55.2456 153.511C55.4956 153.732 55.7971 153.842 56.1501 153.842C56.4393 153.842 56.6795 153.776 56.8707 153.644C57.0668 153.506 57.2041 153.325 57.2825 153.099H58.0032C57.8954 153.487 57.6796 153.803 57.3561 154.048C57.0325 154.288 56.6305 154.408 56.1501 154.408C55.7677 154.408 55.4245 154.323 55.1206 154.151C54.8215 153.979 54.5862 153.737 54.4146 153.423C54.243 153.104 54.1572 152.737 54.1572 152.32C54.1572 151.903 54.2406 151.538 54.4072 151.224C54.5739 150.91 54.8068 150.67 55.1058 150.504C55.4098 150.332 55.7579 150.246 56.1501 150.246C56.5325 150.246 56.8707 150.329 57.1649 150.496C57.459 150.663 57.6846 150.893 57.8414 151.187C58.0032 151.477 58.0841 151.805 58.0841 152.173ZM57.3929 152.033C57.3929 151.778 57.3365 151.56 57.2237 151.379C57.111 151.192 56.9565 151.053 56.7604 150.959C56.5692 150.861 56.356 150.812 56.1207 150.812C55.7824 150.812 55.4931 150.92 55.2529 151.136C55.0176 151.352 54.8828 151.651 54.8485 152.033H57.3929ZM59.9307 150.967C60.0484 150.736 60.2151 150.557 60.4308 150.43C60.6514 150.303 60.9186 150.239 61.2324 150.239V150.93H61.0559C60.3058 150.93 59.9307 151.337 59.9307 152.151V154.342H59.2616V150.312H59.9307V150.967ZM62.049 152.313C62.049 151.901 62.1323 151.54 62.299 151.232C62.4657 150.918 62.6936 150.675 62.9829 150.504C63.277 150.332 63.603 150.246 63.9609 150.246C64.3139 150.246 64.6203 150.322 64.8801 150.474C65.14 150.626 65.3336 150.817 65.4611 151.048V150.312H66.1376V154.342H65.4611V153.592C65.3287 153.827 65.1302 154.024 64.8654 154.18C64.6056 154.332 64.3017 154.408 63.9536 154.408C63.5957 154.408 63.2721 154.32 62.9829 154.144C62.6936 153.967 62.4657 153.72 62.299 153.401C62.1323 153.082 62.049 152.719 62.049 152.313ZM65.4611 152.32C65.4611 152.016 65.3998 151.751 65.2772 151.526C65.1547 151.3 64.988 151.129 64.7772 151.011C64.5713 150.888 64.3433 150.827 64.0933 150.827C63.8433 150.827 63.6153 150.886 63.4094 151.004C63.2035 151.121 63.0393 151.293 62.9167 151.518C62.7941 151.744 62.7329 152.009 62.7329 152.313C62.7329 152.621 62.7941 152.891 62.9167 153.121C63.0393 153.347 63.2035 153.521 63.4094 153.644C63.6153 153.761 63.8433 153.82 64.0933 153.82C64.3433 153.82 64.5713 153.761 64.7772 153.644C64.988 153.521 65.1547 153.347 65.2772 153.121C65.3998 152.891 65.4611 152.624 65.4611 152.32ZM68.2318 148.9V154.342H67.5626V148.9H68.2318ZM70.3357 148.9V154.342H69.6665V148.9H70.3357ZM75.6502 154.394C75.3119 154.394 75.008 154.335 74.7383 154.217C74.4736 154.095 74.2652 153.928 74.1133 153.717C73.9613 153.501 73.8828 153.254 73.8779 152.974H74.5912C74.6158 153.215 74.7138 153.418 74.8854 153.585C75.0619 153.747 75.3168 153.827 75.6502 153.827C75.9688 153.827 76.2189 153.749 76.4003 153.592C76.5866 153.43 76.6797 153.224 76.6797 152.974C76.6797 152.778 76.6258 152.619 76.5179 152.496C76.4101 152.374 76.2752 152.281 76.1135 152.217C75.9517 152.153 75.7335 152.085 75.459 152.011C75.1207 151.923 74.8486 151.835 74.6427 151.746C74.4417 151.658 74.2677 151.521 74.1206 151.334C73.9784 151.143 73.9073 150.888 73.9073 150.57C73.9073 150.29 73.9784 150.043 74.1206 149.827C74.2628 149.611 74.4613 149.445 74.7163 149.327C74.9761 149.209 75.2727 149.15 75.6061 149.15C76.0865 149.15 76.4787 149.271 76.7827 149.511C77.0915 149.751 77.2655 150.07 77.3048 150.467H76.5694C76.5449 150.271 76.4419 150.099 76.2605 149.952C76.0791 149.8 75.8389 149.724 75.5399 149.724C75.2604 149.724 75.0325 149.798 74.856 149.945C74.6795 150.087 74.5912 150.288 74.5912 150.548C74.5912 150.734 74.6427 150.886 74.7457 151.004C74.8535 151.121 74.9834 151.212 75.1354 151.276C75.2923 151.334 75.5105 151.403 75.7899 151.482C76.1282 151.575 76.4003 151.668 76.6062 151.761C76.8121 151.849 76.9886 151.989 77.1356 152.18C77.2827 152.366 77.3562 152.621 77.3562 152.945C77.3562 153.195 77.2901 153.43 77.1577 153.651C77.0253 153.872 76.8292 154.05 76.5694 154.188C76.3096 154.325 76.0032 154.394 75.6502 154.394ZM78.3851 152.32C78.3851 151.903 78.4685 151.54 78.6352 151.232C78.8018 150.918 79.0323 150.675 79.3264 150.504C79.6255 150.332 79.9662 150.246 80.3486 150.246C80.8437 150.246 81.2506 150.366 81.5693 150.606C81.8929 150.847 82.1061 151.18 82.2091 151.607H81.4884C81.4198 151.361 81.2849 151.168 81.0839 151.026C80.8878 150.883 80.6427 150.812 80.3486 150.812C79.9662 150.812 79.6573 150.945 79.422 151.209C79.1867 151.469 79.069 151.839 79.069 152.32C79.069 152.805 79.1867 153.18 79.422 153.445C79.6573 153.71 79.9662 153.842 80.3486 153.842C80.6427 153.842 80.8878 153.773 81.0839 153.636C81.28 153.499 81.4149 153.303 81.4884 153.048H82.2091C82.1012 153.46 81.8855 153.791 81.5619 154.041C81.2384 154.286 80.8339 154.408 80.3486 154.408C79.9662 154.408 79.6255 154.323 79.3264 154.151C79.0323 153.979 78.8018 153.737 78.6352 153.423C78.4685 153.109 78.3851 152.742 78.3851 152.32ZM85.1537 154.408C84.7762 154.408 84.433 154.323 84.1241 154.151C83.8202 153.979 83.58 153.737 83.4035 153.423C83.2319 153.104 83.1461 152.737 83.1461 152.32C83.1461 151.908 83.2343 151.545 83.4108 151.232C83.5922 150.913 83.8373 150.67 84.1462 150.504C84.455 150.332 84.8007 150.246 85.1831 150.246C85.5655 150.246 85.9111 150.332 86.2199 150.504C86.5288 150.67 86.7715 150.91 86.948 151.224C87.1293 151.538 87.22 151.903 87.22 152.32C87.22 152.737 87.1269 153.104 86.9406 153.423C86.7592 153.737 86.5116 153.979 86.1979 154.151C85.8841 154.323 85.536 154.408 85.1537 154.408ZM85.1537 153.82C85.3939 153.82 85.6194 153.764 85.8302 153.651C86.041 153.538 86.2101 153.369 86.3376 153.144C86.47 152.918 86.5361 152.643 86.5361 152.32C86.5361 151.996 86.4724 151.722 86.345 151.496C86.2175 151.271 86.0508 151.104 85.8449 150.996C85.639 150.883 85.4159 150.827 85.1757 150.827C84.9306 150.827 84.7051 150.883 84.4992 150.996C84.2982 151.104 84.1364 151.271 84.0138 151.496C83.8913 151.722 83.83 151.996 83.83 152.32C83.83 152.648 83.8888 152.925 84.0065 153.151C84.129 153.376 84.2908 153.546 84.4918 153.658C84.6928 153.766 84.9134 153.82 85.1537 153.82ZM89.0632 150.967C89.1809 150.736 89.3476 150.557 89.5633 150.43C89.7839 150.303 90.0511 150.239 90.3649 150.239V150.93H90.1884C89.4383 150.93 89.0632 151.337 89.0632 152.151V154.342H88.3941V150.312H89.0632V150.967ZM95.1083 152.173C95.1083 152.3 95.101 152.435 95.0863 152.577H91.8654C91.8899 152.974 92.0247 153.286 92.2698 153.511C92.5198 153.732 92.8213 153.842 93.1743 153.842C93.4636 153.842 93.7038 153.776 93.895 153.644C94.0911 153.506 94.2283 153.325 94.3068 153.099H95.0275C94.9196 153.487 94.7039 153.803 94.3803 154.048C94.0568 154.288 93.6548 154.408 93.1743 154.408C92.7919 154.408 92.4488 154.323 92.1448 154.151C91.8457 153.979 91.6104 153.737 91.4388 153.423C91.2673 153.104 91.1815 152.737 91.1815 152.32C91.1815 151.903 91.2648 151.538 91.4315 151.224C91.5982 150.91 91.831 150.67 92.1301 150.504C92.434 150.332 92.7821 150.246 93.1743 150.246C93.5567 150.246 93.895 150.329 94.1891 150.496C94.4833 150.663 94.7088 150.893 94.8657 151.187C95.0275 151.477 95.1083 151.805 95.1083 152.173ZM94.4171 152.033C94.4171 151.778 94.3607 151.56 94.248 151.379C94.1352 151.192 93.9808 151.053 93.7847 150.959C93.5935 150.861 93.3802 150.812 93.1449 150.812C92.8066 150.812 92.5174 150.92 92.2772 151.136C92.0418 151.352 91.907 151.651 91.8727 152.033H94.4171Z" fill="black"/>
<path d="M126.682 102.699L124.368 107.16V109.543H122.995V107.16L120.671 102.699H122.221L123.691 105.827L125.152 102.699H126.682ZM130.278 109.631C129.755 109.631 129.284 109.517 128.866 109.288C128.447 109.053 128.117 108.723 127.875 108.298C127.64 107.873 127.522 107.383 127.522 106.827C127.522 106.271 127.643 105.781 127.885 105.356C128.134 104.931 128.47 104.605 128.895 104.376C129.32 104.14 129.794 104.023 130.317 104.023C130.84 104.023 131.314 104.14 131.739 104.376C132.163 104.605 132.497 104.931 132.739 105.356C132.987 105.781 133.111 106.271 133.111 106.827C133.111 107.383 132.984 107.873 132.729 108.298C132.481 108.723 132.141 109.053 131.709 109.288C131.284 109.517 130.807 109.631 130.278 109.631ZM130.278 108.435C130.526 108.435 130.758 108.376 130.974 108.259C131.196 108.134 131.373 107.951 131.503 107.709C131.634 107.468 131.699 107.173 131.699 106.827C131.699 106.311 131.562 105.915 131.288 105.641C131.02 105.36 130.689 105.219 130.297 105.219C129.905 105.219 129.575 105.36 129.307 105.641C129.046 105.915 128.915 106.311 128.915 106.827C128.915 107.343 129.042 107.742 129.297 108.023C129.559 108.298 129.885 108.435 130.278 108.435ZM139.638 104.111V109.543H138.256V108.857C138.079 109.092 137.847 109.278 137.56 109.416C137.279 109.546 136.971 109.612 136.638 109.612C136.213 109.612 135.837 109.523 135.511 109.347C135.184 109.164 134.925 108.899 134.736 108.553C134.553 108.2 134.461 107.781 134.461 107.298V104.111H135.834V107.102C135.834 107.533 135.942 107.866 136.158 108.102C136.373 108.33 136.668 108.445 137.04 108.445C137.419 108.445 137.717 108.33 137.932 108.102C138.148 107.866 138.256 107.533 138.256 107.102V104.111H139.638ZM142.758 104.954C142.934 104.667 143.163 104.441 143.444 104.278C143.732 104.114 144.058 104.033 144.425 104.033V105.474H144.062C143.63 105.474 143.303 105.575 143.081 105.778C142.866 105.981 142.758 106.333 142.758 106.837V109.543H141.385V104.111H142.758V104.954ZM152 109.543L150.49 106.876H149.843V109.543H148.47V102.699H151.039C151.568 102.699 152.019 102.794 152.392 102.983C152.764 103.166 153.042 103.418 153.225 103.738C153.415 104.052 153.51 104.405 153.51 104.797C153.51 105.248 153.379 105.657 153.117 106.023C152.856 106.383 152.467 106.631 151.951 106.768L153.588 109.543H152ZM149.843 105.847H150.99C151.362 105.847 151.64 105.758 151.823 105.582C152.006 105.399 152.098 105.147 152.098 104.827C152.098 104.513 152.006 104.271 151.823 104.101C151.64 103.925 151.362 103.836 150.99 103.836H149.843V105.847ZM160.193 106.709C160.193 106.905 160.18 107.082 160.154 107.239H156.183C156.215 107.631 156.353 107.938 156.594 108.16C156.836 108.383 157.134 108.494 157.487 108.494C157.997 108.494 158.359 108.275 158.575 107.837H160.056C159.899 108.36 159.598 108.791 159.154 109.131C158.709 109.465 158.163 109.631 157.516 109.631C156.993 109.631 156.523 109.517 156.104 109.288C155.692 109.053 155.369 108.723 155.134 108.298C154.905 107.873 154.79 107.383 154.79 106.827C154.79 106.265 154.905 105.771 155.134 105.346C155.362 104.922 155.683 104.595 156.094 104.366C156.506 104.137 156.98 104.023 157.516 104.023C158.033 104.023 158.493 104.134 158.899 104.356C159.31 104.578 159.627 104.895 159.85 105.307C160.078 105.712 160.193 106.18 160.193 106.709ZM158.771 106.317C158.765 105.964 158.637 105.683 158.389 105.474C158.14 105.258 157.836 105.15 157.477 105.15C157.137 105.15 156.849 105.255 156.614 105.464C156.385 105.667 156.245 105.951 156.192 106.317H158.771ZM163.666 109.631C163.221 109.631 162.822 109.553 162.469 109.396C162.116 109.232 161.835 109.014 161.626 108.739C161.424 108.464 161.312 108.16 161.293 107.827H162.675C162.702 108.036 162.803 108.209 162.979 108.347C163.162 108.484 163.388 108.553 163.656 108.553C163.917 108.553 164.12 108.5 164.264 108.396C164.414 108.291 164.489 108.157 164.489 107.994C164.489 107.817 164.398 107.687 164.215 107.602C164.038 107.51 163.754 107.412 163.362 107.307C162.956 107.209 162.623 107.108 162.362 107.003C162.107 106.899 161.884 106.739 161.695 106.523C161.512 106.307 161.42 106.016 161.42 105.65C161.42 105.35 161.505 105.075 161.675 104.827C161.852 104.578 162.1 104.382 162.42 104.238C162.747 104.095 163.13 104.023 163.568 104.023C164.215 104.023 164.731 104.186 165.117 104.513C165.502 104.833 165.715 105.268 165.754 105.817H164.44C164.421 105.601 164.329 105.431 164.166 105.307C164.009 105.176 163.796 105.111 163.528 105.111C163.28 105.111 163.087 105.157 162.95 105.248C162.819 105.34 162.754 105.467 162.754 105.631C162.754 105.814 162.845 105.954 163.028 106.052C163.211 106.144 163.496 106.239 163.881 106.337C164.274 106.435 164.597 106.536 164.852 106.641C165.107 106.745 165.326 106.909 165.509 107.131C165.699 107.347 165.797 107.634 165.803 107.994C165.803 108.308 165.715 108.589 165.538 108.837C165.368 109.085 165.12 109.282 164.793 109.425C164.473 109.563 164.097 109.631 163.666 109.631ZM172.45 104.111V109.543H171.068V108.857C170.891 109.092 170.659 109.278 170.372 109.416C170.09 109.546 169.783 109.612 169.45 109.612C169.025 109.612 168.649 109.523 168.322 109.347C167.995 109.164 167.737 108.899 167.548 108.553C167.365 108.2 167.273 107.781 167.273 107.298V104.111H168.646V107.102C168.646 107.533 168.754 107.866 168.969 108.102C169.185 108.33 169.479 108.445 169.852 108.445C170.231 108.445 170.528 108.33 170.744 108.102C170.96 107.866 171.068 107.533 171.068 107.102V104.111H172.45ZM180.943 104.033C181.609 104.033 182.145 104.238 182.551 104.65C182.962 105.056 183.168 105.624 183.168 106.356V109.543H181.796V106.543C181.796 106.118 181.688 105.794 181.472 105.572C181.256 105.343 180.962 105.229 180.59 105.229C180.217 105.229 179.92 105.343 179.697 105.572C179.482 105.794 179.374 106.118 179.374 106.543V109.543H178.001V106.543C178.001 106.118 177.893 105.794 177.677 105.572C177.462 105.343 177.168 105.229 176.795 105.229C176.416 105.229 176.115 105.343 175.893 105.572C175.677 105.794 175.569 106.118 175.569 106.543V109.543H174.197V104.111H175.569V104.768C175.746 104.539 175.971 104.359 176.246 104.229C176.527 104.098 176.834 104.033 177.168 104.033C177.593 104.033 177.972 104.124 178.305 104.307C178.638 104.484 178.897 104.739 179.08 105.072C179.256 104.758 179.511 104.506 179.844 104.317C180.184 104.127 180.55 104.033 180.943 104.033ZM189.913 106.709C189.913 106.905 189.9 107.082 189.873 107.239H185.902C185.935 107.631 186.072 107.938 186.314 108.16C186.556 108.383 186.853 108.494 187.206 108.494C187.716 108.494 188.079 108.275 188.295 107.837H189.775C189.618 108.36 189.318 108.791 188.873 109.131C188.429 109.465 187.883 109.631 187.236 109.631C186.713 109.631 186.242 109.517 185.824 109.288C185.412 109.053 185.089 108.723 184.853 108.298C184.624 107.873 184.51 107.383 184.51 106.827C184.51 106.265 184.624 105.771 184.853 105.346C185.082 104.922 185.402 104.595 185.814 104.366C186.226 104.137 186.7 104.023 187.236 104.023C187.752 104.023 188.213 104.134 188.618 104.356C189.03 104.578 189.347 104.895 189.569 105.307C189.798 105.712 189.913 106.18 189.913 106.709ZM188.491 106.317C188.484 105.964 188.357 105.683 188.109 105.474C187.86 105.258 187.556 105.15 187.197 105.15C186.857 105.15 186.569 105.255 186.334 105.464C186.105 105.667 185.964 105.951 185.912 106.317H188.491ZM196.114 109.631C195.669 109.631 195.271 109.553 194.918 109.396C194.565 109.232 194.284 109.014 194.075 108.739C193.872 108.464 193.761 108.16 193.741 107.827H195.124C195.15 108.036 195.251 108.209 195.428 108.347C195.611 108.484 195.836 108.553 196.104 108.553C196.366 108.553 196.568 108.5 196.712 108.396C196.862 108.291 196.938 108.157 196.938 107.994C196.938 107.817 196.846 107.687 196.663 107.602C196.487 107.51 196.202 107.412 195.81 107.307C195.405 107.209 195.071 107.108 194.81 107.003C194.555 106.899 194.333 106.739 194.143 106.523C193.96 106.307 193.869 106.016 193.869 105.65C193.869 105.35 193.954 105.075 194.124 104.827C194.3 104.578 194.548 104.382 194.869 104.238C195.196 104.095 195.578 104.023 196.016 104.023C196.663 104.023 197.179 104.186 197.565 104.513C197.951 104.833 198.163 105.268 198.202 105.817H196.889C196.869 105.601 196.777 105.431 196.614 105.307C196.457 105.176 196.245 105.111 195.977 105.111C195.728 105.111 195.535 105.157 195.398 105.248C195.267 105.34 195.202 105.467 195.202 105.631C195.202 105.814 195.294 105.954 195.477 106.052C195.66 106.144 195.944 106.239 196.33 106.337C196.722 106.435 197.045 106.536 197.3 106.641C197.555 106.745 197.774 106.909 197.957 107.131C198.147 107.347 198.245 107.634 198.251 107.994C198.251 108.308 198.163 108.589 197.987 108.837C197.817 109.085 197.568 109.282 197.242 109.425C196.921 109.563 196.545 109.631 196.114 109.631ZM199.417 106.827C199.417 106.265 199.532 105.775 199.761 105.356C199.989 104.931 200.306 104.605 200.712 104.376C201.117 104.14 201.581 104.023 202.104 104.023C202.777 104.023 203.333 104.193 203.771 104.533C204.215 104.866 204.513 105.337 204.663 105.945H203.183C203.104 105.709 202.97 105.526 202.781 105.395C202.598 105.258 202.369 105.19 202.094 105.19C201.702 105.19 201.392 105.333 201.163 105.621C200.934 105.902 200.82 106.304 200.82 106.827C200.82 107.343 200.934 107.745 201.163 108.033C201.392 108.314 201.702 108.455 202.094 108.455C202.65 108.455 203.013 108.206 203.183 107.709H204.663C204.513 108.298 204.215 108.765 203.771 109.112C203.326 109.458 202.771 109.631 202.104 109.631C201.581 109.631 201.117 109.517 200.712 109.288C200.306 109.053 199.989 108.726 199.761 108.308C199.532 107.883 199.417 107.389 199.417 106.827ZM208.473 109.631C207.95 109.631 207.479 109.517 207.061 109.288C206.643 109.053 206.313 108.723 206.071 108.298C205.835 107.873 205.718 107.383 205.718 106.827C205.718 106.271 205.839 105.781 206.081 105.356C206.329 104.931 206.666 104.605 207.09 104.376C207.515 104.14 207.989 104.023 208.512 104.023C209.035 104.023 209.509 104.14 209.934 104.376C210.359 104.605 210.692 104.931 210.934 105.356C211.182 105.781 211.307 106.271 211.307 106.827C211.307 107.383 211.179 107.873 210.924 108.298C210.676 108.723 210.336 109.053 209.904 109.288C209.48 109.517 209.002 109.631 208.473 109.631ZM208.473 108.435C208.721 108.435 208.953 108.376 209.169 108.259C209.391 108.134 209.568 107.951 209.699 107.709C209.829 107.468 209.895 107.173 209.895 106.827C209.895 106.311 209.757 105.915 209.483 105.641C209.215 105.36 208.885 105.219 208.493 105.219C208.1 105.219 207.77 105.36 207.502 105.641C207.241 105.915 207.11 106.311 207.11 106.827C207.11 107.343 207.238 107.742 207.492 108.023C207.754 108.298 208.081 108.435 208.473 108.435ZM214.078 104.954C214.255 104.667 214.484 104.441 214.765 104.278C215.052 104.114 215.379 104.033 215.745 104.033V105.474H215.382C214.951 105.474 214.624 105.575 214.402 105.778C214.186 105.981 214.078 106.333 214.078 106.837V109.543H212.706V104.111H214.078V104.954ZM222.112 106.709C222.112 106.905 222.098 107.082 222.072 107.239H218.101C218.134 107.631 218.271 107.938 218.513 108.16C218.755 108.383 219.052 108.494 219.405 108.494C219.915 108.494 220.278 108.275 220.494 107.837H221.974C221.817 108.36 221.517 108.791 221.072 109.131C220.628 109.465 220.082 109.631 219.435 109.631C218.912 109.631 218.441 109.517 218.023 109.288C217.611 109.053 217.288 108.723 217.052 108.298C216.823 107.873 216.709 107.383 216.709 106.827C216.709 106.265 216.823 105.771 217.052 105.346C217.281 104.922 217.601 104.595 218.013 104.366C218.425 104.137 218.899 104.023 219.435 104.023C219.951 104.023 220.412 104.134 220.817 104.356C221.229 104.578 221.546 104.895 221.768 105.307C221.997 105.712 222.112 106.18 222.112 106.709ZM220.69 106.317C220.683 105.964 220.556 105.683 220.307 105.474C220.059 105.258 219.755 105.15 219.396 105.15C219.056 105.15 218.768 105.255 218.533 105.464C218.304 105.667 218.163 105.951 218.111 106.317H220.69ZM223.153 106.807C223.153 106.258 223.261 105.771 223.476 105.346C223.699 104.922 223.999 104.595 224.378 104.366C224.757 104.137 225.179 104.023 225.643 104.023C225.996 104.023 226.333 104.101 226.653 104.258C226.973 104.408 227.228 104.611 227.418 104.866V102.287H228.81V109.543H227.418V108.739C227.248 109.007 227.009 109.223 226.702 109.386C226.395 109.55 226.039 109.631 225.633 109.631C225.176 109.631 224.757 109.514 224.378 109.278C223.999 109.043 223.699 108.713 223.476 108.288C223.261 107.857 223.153 107.363 223.153 106.807ZM227.428 106.827C227.428 106.494 227.362 106.209 227.232 105.974C227.101 105.732 226.924 105.549 226.702 105.425C226.48 105.294 226.241 105.229 225.986 105.229C225.731 105.229 225.496 105.291 225.28 105.415C225.065 105.539 224.888 105.722 224.751 105.964C224.62 106.199 224.555 106.481 224.555 106.807C224.555 107.134 224.62 107.422 224.751 107.67C224.888 107.912 225.065 108.098 225.28 108.229C225.503 108.36 225.738 108.425 225.986 108.425C226.241 108.425 226.48 108.363 226.702 108.239C226.924 108.108 227.101 107.925 227.232 107.69C227.362 107.448 227.428 107.16 227.428 106.827ZM125.633 118.434L123.025 124.543H121.632L124.26 118.591H120.907V117.415H125.633V118.434ZM131.651 118.582H128.475V120.258C128.612 120.088 128.808 119.951 129.063 119.846C129.318 119.735 129.589 119.68 129.877 119.68C130.4 119.68 130.828 119.794 131.161 120.023C131.495 120.252 131.736 120.546 131.887 120.905C132.037 121.258 132.112 121.637 132.112 122.043C132.112 122.794 131.897 123.399 131.465 123.857C131.04 124.314 130.432 124.543 129.641 124.543C128.896 124.543 128.301 124.357 127.857 123.984C127.412 123.611 127.161 123.125 127.102 122.523H128.435C128.494 122.785 128.625 122.994 128.828 123.151C129.037 123.308 129.302 123.386 129.622 123.386C130.007 123.386 130.298 123.265 130.494 123.023C130.691 122.781 130.789 122.461 130.789 122.062C130.789 121.657 130.687 121.35 130.485 121.141C130.289 120.925 129.998 120.817 129.612 120.817C129.337 120.817 129.109 120.886 128.926 121.023C128.743 121.16 128.612 121.343 128.533 121.572H127.22V117.376H131.651V118.582ZM138.847 124.631C138.324 124.631 137.853 124.517 137.435 124.288C137.016 124.053 136.686 123.723 136.444 123.298C136.209 122.873 136.091 122.383 136.091 121.827C136.091 121.271 136.212 120.781 136.454 120.356C136.703 119.931 137.039 119.605 137.464 119.376C137.889 119.14 138.363 119.023 138.886 119.023C139.409 119.023 139.883 119.14 140.308 119.376C140.732 119.605 141.066 119.931 141.308 120.356C141.556 120.781 141.68 121.271 141.68 121.827C141.68 122.383 141.553 122.873 141.298 123.298C141.05 123.723 140.71 124.053 140.278 124.288C139.853 124.517 139.376 124.631 138.847 124.631ZM138.847 123.435C139.095 123.435 139.327 123.376 139.543 123.259C139.765 123.134 139.942 122.951 140.072 122.709C140.203 122.468 140.268 122.173 140.268 121.827C140.268 121.311 140.131 120.915 139.857 120.641C139.589 120.36 139.258 120.219 138.866 120.219C138.474 120.219 138.144 120.36 137.876 120.641C137.614 120.915 137.484 121.311 137.484 121.827C137.484 122.343 137.611 122.742 137.866 123.023C138.128 123.298 138.454 123.435 138.847 123.435ZM148.207 119.111V124.543H146.825V123.857C146.648 124.092 146.416 124.278 146.129 124.416C145.848 124.546 145.54 124.612 145.207 124.612C144.782 124.612 144.406 124.523 144.08 124.347C143.753 124.164 143.494 123.899 143.305 123.553C143.122 123.2 143.03 122.781 143.03 122.298V119.111H144.403V122.102C144.403 122.533 144.511 122.866 144.727 123.102C144.942 123.33 145.236 123.445 145.609 123.445C145.988 123.445 146.286 123.33 146.501 123.102C146.717 122.866 146.825 122.533 146.825 122.102V119.111H148.207ZM151.552 120.239V122.866C151.552 123.049 151.595 123.183 151.68 123.268C151.771 123.347 151.922 123.386 152.131 123.386H152.768V124.543H151.905C150.748 124.543 150.17 123.981 150.17 122.857V120.239H149.523V119.111H150.17V117.768H151.552V119.111H152.768V120.239H151.552ZM159.288 124.631C158.765 124.631 158.295 124.517 157.876 124.288C157.458 124.053 157.128 123.723 156.886 123.298C156.651 122.873 156.533 122.383 156.533 121.827C156.533 121.271 156.654 120.781 156.896 120.356C157.144 119.931 157.481 119.605 157.906 119.376C158.33 119.14 158.804 119.023 159.327 119.023C159.85 119.023 160.324 119.14 160.749 119.376C161.174 119.605 161.507 119.931 161.749 120.356C161.998 120.781 162.122 121.271 162.122 121.827C162.122 122.383 161.994 122.873 161.739 123.298C161.491 123.723 161.151 124.053 160.72 124.288C160.295 124.517 159.818 124.631 159.288 124.631ZM159.288 123.435C159.536 123.435 159.769 123.376 159.984 123.259C160.206 123.134 160.383 122.951 160.514 122.709C160.644 122.468 160.71 122.173 160.71 121.827C160.71 121.311 160.573 120.915 160.298 120.641C160.03 120.36 159.7 120.219 159.308 120.219C158.915 120.219 158.585 120.36 158.317 120.641C158.056 120.915 157.925 121.311 157.925 121.827C157.925 122.343 158.053 122.742 158.308 123.023C158.569 123.298 158.896 123.435 159.288 123.435ZM166.011 120.239H165.06V124.543H163.668V120.239H163.05V119.111H163.668V118.836C163.668 118.17 163.857 117.679 164.237 117.366C164.616 117.052 165.188 116.905 165.952 116.925V118.082C165.619 118.075 165.387 118.131 165.256 118.248C165.126 118.366 165.06 118.578 165.06 118.886V119.111H166.011V120.239ZM169.698 118.66V117.395H172.061V124.543H170.649V118.66H169.698ZM173.809 120.876C173.809 119.745 174.012 118.859 174.417 118.219C174.829 117.578 175.509 117.258 176.457 117.258C177.404 117.258 178.081 117.578 178.486 118.219C178.898 118.859 179.104 119.745 179.104 120.876C179.104 122.013 178.898 122.906 178.486 123.553C178.081 124.2 177.404 124.523 176.457 124.523C175.509 124.523 174.829 124.2 174.417 123.553C174.012 122.906 173.809 122.013 173.809 120.876ZM177.751 120.876C177.751 120.392 177.718 119.987 177.653 119.66C177.594 119.327 177.47 119.055 177.28 118.846C177.097 118.637 176.823 118.533 176.457 118.533C176.091 118.533 175.813 118.637 175.623 118.846C175.44 119.055 175.316 119.327 175.251 119.66C175.192 119.987 175.162 120.392 175.162 120.876C175.162 121.373 175.192 121.791 175.251 122.131C175.309 122.464 175.434 122.736 175.623 122.945C175.813 123.147 176.091 123.249 176.457 123.249C176.823 123.249 177.1 123.147 177.29 122.945C177.48 122.736 177.604 122.464 177.663 122.131C177.721 121.791 177.751 121.373 177.751 120.876ZM180.54 120.876C180.54 119.745 180.743 118.859 181.148 118.219C181.56 117.578 182.24 117.258 183.188 117.258C184.135 117.258 184.812 117.578 185.217 118.219C185.629 118.859 185.835 119.745 185.835 120.876C185.835 122.013 185.629 122.906 185.217 123.553C184.812 124.2 184.135 124.523 183.188 124.523C182.24 124.523 181.56 124.2 181.148 123.553C180.743 122.906 180.54 122.013 180.54 120.876ZM184.482 120.876C184.482 120.392 184.449 119.987 184.384 119.66C184.325 119.327 184.201 119.055 184.011 118.846C183.828 118.637 183.554 118.533 183.188 118.533C182.822 118.533 182.544 118.637 182.354 118.846C182.171 119.055 182.047 119.327 181.982 119.66C181.923 119.987 181.893 120.392 181.893 120.876C181.893 121.373 181.923 121.791 181.982 122.131C182.04 122.464 182.165 122.736 182.354 122.945C182.544 123.147 182.822 123.249 183.188 123.249C183.554 123.249 183.831 123.147 184.021 122.945C184.211 122.736 184.335 122.464 184.394 122.131C184.452 121.791 184.482 121.373 184.482 120.876ZM188.036 124.612C187.788 124.612 187.582 124.536 187.418 124.386C187.261 124.229 187.183 124.036 187.183 123.808C187.183 123.579 187.261 123.389 187.418 123.239C187.582 123.082 187.788 123.004 188.036 123.004C188.278 123.004 188.477 123.082 188.634 123.239C188.791 123.389 188.869 123.579 188.869 123.808C188.869 124.036 188.791 124.229 188.634 124.386C188.477 124.536 188.278 124.612 188.036 124.612Z" fill="#121212"/>
<rect x="120.564" y="135.312" width="140.946" height="3.67686" rx="1.83843" fill="#F5F6F7"/>
<rect x="120.564" y="145.116" width="90.083" height="3.67686" rx="1.83843" fill="#F5F6F7"/>
<path d="M43.3068 197.54V203.528H42.1056V197.54H43.3068ZM51.3655 197.54V203.528H50.1644V199.633L48.5601 203.528H47.6506L46.0377 199.633V203.528H44.8366V197.54H46.2007L48.1054 201.993L50.01 197.54H51.3655ZM57.2631 199.393C57.2631 199.713 57.1858 200.014 57.0314 200.294C56.8827 200.574 56.6453 200.8 56.3193 200.972C55.999 201.143 55.5929 201.229 55.1011 201.229H54.0973V203.528H52.8962V197.54H55.1011C55.5643 197.54 55.959 197.62 56.285 197.78C56.611 197.94 56.8541 198.161 57.0143 198.441C57.1801 198.721 57.2631 199.038 57.2631 199.393ZM55.0496 200.26C55.3813 200.26 55.6273 200.185 55.7874 200.037C55.9476 199.882 56.0276 199.668 56.0276 199.393C56.0276 198.81 55.7016 198.518 55.0496 198.518H54.0973V200.26H55.0496ZM62.131 202.387H59.7459L59.3513 203.528H58.0901L60.2435 197.531H61.6419L63.7953 203.528H62.5256L62.131 202.387ZM61.8049 201.426L60.9384 198.921L60.0719 201.426H61.8049ZM64.6517 200.526C64.6517 199.936 64.7833 199.41 65.0464 198.947C65.3152 198.478 65.6784 198.115 66.136 197.857C66.5992 197.594 67.1169 197.463 67.6888 197.463C68.358 197.463 68.9443 197.634 69.4476 197.977C69.9509 198.321 70.3027 198.795 70.5028 199.402H69.1216C68.9843 199.116 68.7898 198.901 68.5382 198.758C68.2922 198.615 68.0063 198.544 67.6802 198.544C67.3314 198.544 67.0196 198.627 66.7451 198.793C66.4763 198.953 66.2647 199.181 66.1102 199.479C65.9615 199.776 65.8872 200.125 65.8872 200.526C65.8872 200.92 65.9615 201.269 66.1102 201.572C66.2647 201.87 66.4763 202.101 66.7451 202.267C67.0196 202.427 67.3314 202.507 67.6802 202.507C68.0063 202.507 68.2922 202.436 68.5382 202.293C68.7898 202.144 68.9843 201.927 69.1216 201.641H70.5028C70.3027 202.253 69.9509 202.73 69.4476 203.074C68.95 203.411 68.3637 203.58 67.6888 203.58C67.1169 203.58 66.5992 203.451 66.136 203.194C65.6784 202.931 65.3152 202.567 65.0464 202.104C64.7833 201.641 64.6517 201.115 64.6517 200.526ZM75.9471 197.54V198.509H74.3513V203.528H73.1502V198.509H71.5545V197.54H75.9471Z" fill="#6BBC89"/>
<rect x="47.6416" y="212.525" width="90.083" height="3.67686" rx="1.83843" fill="#F4F6FD"/>
<rect x="47.6416" y="222.33" width="74.15" height="3.67686" rx="1.83843" fill="#F4F6FD"/>
<rect x="47.6416" y="232.135" width="60.0554" height="3.67686" rx="1.83843" fill="#F4F6FD"/>
<rect x="47.6416" y="241.94" width="76.6012" height="3.67686" rx="1.83843" fill="#F4F6FD"/>
<circle cx="42.7393" cy="214.364" r="1.22562" fill="#626262" fill-opacity="0.2"/>
<circle cx="42.7393" cy="224.169" r="1.22562" fill="#626262" fill-opacity="0.2"/>
<circle cx="42.7393" cy="233.974" r="1.22562" fill="#626262" fill-opacity="0.2"/>
<circle cx="42.7393" cy="243.779" r="1.22562" fill="#626262" fill-opacity="0.2"/>
<path d="M44.1733 282.641C43.7557 282.641 43.3782 282.569 43.0408 282.426C42.7091 282.283 42.446 282.077 42.2515 281.809C42.057 281.54 41.9569 281.222 41.9512 280.856H43.2381C43.2553 281.102 43.3411 281.297 43.4955 281.44C43.6556 281.583 43.873 281.654 44.1475 281.654C44.4278 281.654 44.648 281.588 44.8081 281.457C44.9683 281.32 45.0484 281.142 45.0484 280.925C45.0484 280.748 44.994 280.602 44.8854 280.487C44.7767 280.373 44.6394 280.284 44.4735 280.221C44.3134 280.153 44.0903 280.079 43.8044 279.998C43.4154 279.884 43.098 279.773 42.852 279.664C42.6118 279.549 42.4031 279.381 42.2258 279.158C42.0542 278.929 41.9684 278.626 41.9684 278.248C41.9684 277.894 42.057 277.585 42.2343 277.322C42.4116 277.059 42.6604 276.858 42.9807 276.721C43.301 276.578 43.6671 276.507 44.0789 276.507C44.6966 276.507 45.1971 276.658 45.5803 276.961C45.9692 277.259 46.1837 277.676 46.2237 278.214H44.9025C44.8911 278.008 44.8024 277.839 44.6366 277.708C44.4764 277.57 44.2619 277.502 43.9931 277.502C43.7586 277.502 43.5699 277.562 43.4269 277.682C43.2896 277.802 43.221 277.977 43.221 278.205C43.221 278.365 43.2724 278.5 43.3754 278.609C43.4841 278.712 43.6156 278.797 43.77 278.866C43.9302 278.929 44.1532 279.003 44.4392 279.089C44.8282 279.203 45.1456 279.318 45.3915 279.432C45.6375 279.547 45.8491 279.718 46.0264 279.947C46.2037 280.176 46.2924 280.476 46.2924 280.848C46.2924 281.168 46.2094 281.465 46.0436 281.74C45.8777 282.015 45.6346 282.235 45.3143 282.401C44.994 282.561 44.6137 282.641 44.1733 282.641ZM51.752 276.592V277.562H50.1563V282.581H48.9552V277.562H47.3594V276.592H51.752ZM57.7331 276.592L55.7084 280.496V282.581H54.5073V280.496L52.474 276.592H53.8295L55.1164 279.329L56.3947 276.592H57.7331ZM59.9701 281.629H61.9433V282.581H58.769V276.592H59.9701V281.629ZM64.2511 277.562V279.063H66.2672V280.016H64.2511V281.603H66.5246V282.581H63.05V276.584H66.5246V277.562H64.2511Z" fill="#484BBE"/>
<rect x="47.6416" y="291.578" width="90.083" height="3.67686" rx="1.83843" fill="#F4F6FD"/>
<rect x="47.6416" y="301.383" width="74.15" height="3.67686" rx="1.83843" fill="#F4F6FD"/>
<rect x="47.6416" y="311.188" width="60.0554" height="3.67686" rx="1.83843" fill="#F4F6FD"/>
<rect x="47.6416" y="320.993" width="76.6012" height="3.67686" rx="1.83843" fill="#F4F6FD"/>
<circle cx="42.7393" cy="293.416" r="1.22562" fill="#626262" fill-opacity="0.2"/>
<circle cx="42.7393" cy="303.221" r="1.22562" fill="#626262" fill-opacity="0.2"/>
<circle cx="42.7393" cy="313.026" r="1.22562" fill="#626262" fill-opacity="0.2"/>
<circle cx="42.7393" cy="322.831" r="1.22562" fill="#626262" fill-opacity="0.2"/>
<path d="M173.579 200.457C173.917 200.52 174.194 200.689 174.411 200.963C174.629 201.238 174.737 201.552 174.737 201.907C174.737 202.227 174.657 202.51 174.497 202.756C174.343 202.996 174.117 203.185 173.819 203.322C173.522 203.46 173.17 203.528 172.764 203.528H170.182V197.54H172.653C173.059 197.54 173.408 197.606 173.699 197.737C173.997 197.869 174.22 198.052 174.369 198.286C174.523 198.521 174.6 198.787 174.6 199.084C174.6 199.433 174.506 199.725 174.317 199.959C174.134 200.194 173.888 200.36 173.579 200.457ZM171.383 200.011H172.481C172.767 200.011 172.987 199.948 173.142 199.822C173.296 199.69 173.373 199.505 173.373 199.264C173.373 199.024 173.296 198.838 173.142 198.707C172.987 198.575 172.767 198.509 172.481 198.509H171.383V200.011ZM172.593 202.55C172.884 202.55 173.11 202.482 173.27 202.344C173.436 202.207 173.519 202.013 173.519 201.761C173.519 201.504 173.433 201.303 173.262 201.16C173.09 201.012 172.859 200.937 172.567 200.937H171.383V202.55H172.593ZM179.126 203.528L177.805 201.195H177.239V203.528H176.038V197.54H178.286C178.749 197.54 179.144 197.623 179.47 197.789C179.796 197.949 180.039 198.169 180.199 198.449C180.365 198.724 180.448 199.033 180.448 199.376C180.448 199.771 180.333 200.128 180.104 200.448C179.876 200.763 179.535 200.98 179.084 201.1L180.516 203.528H179.126ZM177.239 200.294H178.243C178.569 200.294 178.812 200.217 178.972 200.062C179.132 199.902 179.212 199.682 179.212 199.402C179.212 199.127 179.132 198.915 178.972 198.767C178.812 198.612 178.569 198.535 178.243 198.535H177.239V200.294ZM183.078 198.509V200.011H185.094V200.963H183.078V202.55H185.352V203.528H181.877V197.531H185.352V198.509H183.078ZM192.166 197.54L189.969 203.528H188.511L186.315 197.54H187.602L189.249 202.301L190.887 197.54H192.166ZM194.43 197.54V203.528H193.229V197.54H194.43ZM200.035 197.54V198.509H198.439V203.528H197.238V198.509H195.643V197.54H200.035ZM206.016 197.54L203.992 201.444V203.528H202.79V201.444L200.757 197.54H202.113L203.4 200.277L204.678 197.54H206.016Z" fill="#DC7B40"/>
<rect x="175.718" y="212.526" width="90.083" height="3.67686" rx="1.83843" fill="#F4F6FD"/>
<rect x="175.718" y="222.33" width="74.15" height="3.67686" rx="1.83843" fill="#F4F6FD"/>
<rect x="175.718" y="232.135" width="60.0554" height="3.67686" rx="1.83843" fill="#F4F6FD"/>
<rect x="175.718" y="241.94" width="76.6012" height="3.67686" rx="1.83843" fill="#F4F6FD"/>
<circle cx="170.815" cy="214.364" r="1.22562" fill="#626262" fill-opacity="0.2"/>
<circle cx="170.815" cy="224.169" r="1.22562" fill="#626262" fill-opacity="0.2"/>
<circle cx="170.815" cy="233.974" r="1.22562" fill="#626262" fill-opacity="0.2"/>
<circle cx="170.815" cy="243.779" r="1.22562" fill="#626262" fill-opacity="0.2"/>
<path d="M172.249 282.641C171.832 282.641 171.454 282.569 171.117 282.426C170.785 282.283 170.522 282.077 170.328 281.809C170.133 281.54 170.033 281.222 170.027 280.856H171.314C171.331 281.102 171.417 281.297 171.572 281.44C171.732 281.583 171.949 281.654 172.224 281.654C172.504 281.654 172.724 281.588 172.884 281.457C173.044 281.32 173.125 281.142 173.125 280.925C173.125 280.748 173.07 280.602 172.962 280.487C172.853 280.373 172.716 280.284 172.55 280.221C172.39 280.153 172.167 280.079 171.881 279.998C171.492 279.884 171.174 279.773 170.928 279.664C170.688 279.549 170.479 279.381 170.302 279.158C170.13 278.929 170.045 278.626 170.045 278.248C170.045 277.894 170.133 277.585 170.311 277.322C170.488 277.059 170.737 276.858 171.057 276.721C171.377 276.578 171.743 276.507 172.155 276.507C172.773 276.507 173.273 276.658 173.656 276.961C174.045 277.259 174.26 277.676 174.3 278.214H172.979C172.967 278.008 172.879 277.839 172.713 277.708C172.553 277.57 172.338 277.502 172.069 277.502C171.835 277.502 171.646 277.562 171.503 277.682C171.366 277.802 171.297 277.977 171.297 278.205C171.297 278.365 171.349 278.5 171.452 278.609C171.56 278.712 171.692 278.797 171.846 278.866C172.006 278.929 172.229 279.003 172.515 279.089C172.904 279.203 173.222 279.318 173.468 279.432C173.714 279.547 173.925 279.718 174.103 279.947C174.28 280.176 174.369 280.476 174.369 280.848C174.369 281.168 174.286 281.465 174.12 281.74C173.954 282.015 173.711 282.235 173.39 282.401C173.07 282.561 172.69 282.641 172.249 282.641ZM179.133 282.581L176.954 279.913V282.581H175.753V276.592H176.954V279.278L179.133 276.592H180.583L178.112 279.561L180.652 282.581H179.133ZM182.986 276.592V282.581H181.785V276.592H182.986ZM185.717 281.629H187.69V282.581H184.516V276.592H185.717V281.629ZM189.998 281.629H191.971V282.581H188.797V276.592H189.998V281.629ZM195.146 282.641C194.728 282.641 194.351 282.569 194.013 282.426C193.681 282.283 193.418 282.077 193.224 281.809C193.029 281.54 192.929 281.222 192.923 280.856H194.21C194.228 281.102 194.313 281.297 194.468 281.44C194.628 281.583 194.845 281.654 195.12 281.654C195.4 281.654 195.62 281.588 195.78 281.457C195.941 281.32 196.021 281.142 196.021 280.925C196.021 280.748 195.966 280.602 195.858 280.487C195.749 280.373 195.612 280.284 195.446 280.221C195.286 280.153 195.063 280.079 194.777 279.998C194.388 279.884 194.07 279.773 193.824 279.664C193.584 279.549 193.375 279.381 193.198 279.158C193.026 278.929 192.941 278.626 192.941 278.248C192.941 277.894 193.029 277.585 193.207 277.322C193.384 277.059 193.633 276.858 193.953 276.721C194.273 276.578 194.639 276.507 195.051 276.507C195.669 276.507 196.169 276.658 196.553 276.961C196.941 277.259 197.156 277.676 197.196 278.214H195.875C195.863 278.008 195.775 277.839 195.609 277.708C195.449 277.57 195.234 277.502 194.965 277.502C194.731 277.502 194.542 277.562 194.399 277.682C194.262 277.802 194.193 277.977 194.193 278.205C194.193 278.365 194.245 278.5 194.348 278.609C194.456 278.712 194.588 278.797 194.742 278.866C194.902 278.929 195.126 279.003 195.412 279.089C195.8 279.203 196.118 279.318 196.364 279.432C196.61 279.547 196.821 279.718 196.999 279.947C197.176 280.176 197.265 280.476 197.265 280.848C197.265 281.168 197.182 281.465 197.016 281.74C196.85 282.015 196.607 282.235 196.287 282.401C195.966 282.561 195.586 282.641 195.146 282.641Z" fill="#2252D5"/>
<rect x="175.718" y="291.578" width="90.083" height="3.67686" rx="1.83843" fill="#F4F6FD"/>
<rect x="175.718" y="301.383" width="74.15" height="3.67686" rx="1.83843" fill="#F4F6FD"/>
<rect x="175.718" y="311.188" width="60.0554" height="3.67686" rx="1.83843" fill="#F4F6FD"/>
<rect x="175.718" y="320.993" width="76.6012" height="3.67686" rx="1.83843" fill="#F4F6FD"/>
<circle cx="170.815" cy="293.416" r="1.22562" fill="#626262" fill-opacity="0.2"/>
<circle cx="170.815" cy="303.221" r="1.22562" fill="#626262" fill-opacity="0.2"/>
<circle cx="170.815" cy="313.026" r="1.22562" fill="#626262" fill-opacity="0.2"/>
<circle cx="170.815" cy="322.831" r="1.22562" fill="#626262" fill-opacity="0.2"/>
<g filter="url(#filter1_d_516_316)">
<path d="M252.318 177.595C252.318 172.18 256.708 167.791 262.123 167.791H428.195C433.61 167.791 438 172.18 438 177.595V266.453C438 271.868 433.61 276.258 428.195 276.258H262.123C256.708 276.258 252.318 271.868 252.318 266.453V177.595Z" fill="white"/>
</g>
<circle cx="299.506" cy="215.59" r="25.738" stroke="#7ED6C2" stroke-width="2.45124"/>
<path d="M291.28 213.353V212.088H293.643V219.236H292.231V213.353H291.28ZM294.999 215.569C294.999 214.438 295.201 213.552 295.607 212.912C296.019 212.271 296.698 211.951 297.646 211.951C298.594 211.951 299.27 212.271 299.676 212.912C300.088 213.552 300.293 214.438 300.293 215.569C300.293 216.706 300.088 217.599 299.676 218.246C299.27 218.893 298.594 219.216 297.646 219.216C296.698 219.216 296.019 218.893 295.607 218.246C295.201 217.599 294.999 216.706 294.999 215.569ZM298.94 215.569C298.94 215.085 298.908 214.68 298.842 214.353C298.784 214.02 298.659 213.748 298.47 213.539C298.287 213.33 298.012 213.226 297.646 213.226C297.28 213.226 297.002 213.33 296.813 213.539C296.63 213.748 296.505 214.02 296.44 214.353C296.381 214.68 296.352 215.085 296.352 215.569C296.352 216.066 296.381 216.484 296.44 216.824C296.499 217.157 296.623 217.429 296.813 217.638C297.002 217.84 297.28 217.942 297.646 217.942C298.012 217.942 298.29 217.84 298.48 217.638C298.669 217.429 298.793 217.157 298.852 216.824C298.911 216.484 298.94 216.066 298.94 215.569ZM301.338 215.569C301.338 214.438 301.54 213.552 301.945 212.912C302.357 212.271 303.037 211.951 303.985 211.951C304.933 211.951 305.609 212.271 306.015 212.912C306.426 213.552 306.632 214.438 306.632 215.569C306.632 216.706 306.426 217.599 306.015 218.246C305.609 218.893 304.933 219.216 303.985 219.216C303.037 219.216 302.357 218.893 301.945 218.246C301.54 217.599 301.338 216.706 301.338 215.569ZM305.279 215.569C305.279 215.085 305.246 214.68 305.181 214.353C305.122 214.02 304.998 213.748 304.809 213.539C304.625 213.33 304.351 213.226 303.985 213.226C303.619 213.226 303.341 213.33 303.151 213.539C302.968 213.748 302.844 214.02 302.779 214.353C302.72 214.68 302.691 215.085 302.691 215.569C302.691 216.066 302.72 216.484 302.779 216.824C302.838 217.157 302.962 217.429 303.151 217.638C303.341 217.84 303.619 217.942 303.985 217.942C304.351 217.942 304.629 217.84 304.818 217.638C305.008 217.429 305.132 217.157 305.191 216.824C305.25 216.484 305.279 216.066 305.279 215.569Z" fill="#121212"/>
<path d="M278.474 248.959V253.23H277.916V248.959H278.474ZM283.708 249.811C283.969 249.811 284.202 249.866 284.406 249.976C284.611 250.082 284.772 250.244 284.891 250.46C285.009 250.677 285.068 250.94 285.068 251.251V253.23H284.517V251.33C284.517 250.995 284.433 250.74 284.265 250.564C284.102 250.385 283.879 250.295 283.598 250.295C283.307 250.295 283.077 250.389 282.905 250.577C282.733 250.76 282.648 251.028 282.648 251.379V253.23H282.096V251.33C282.096 250.995 282.012 250.74 281.845 250.564C281.681 250.385 281.459 250.295 281.177 250.295C280.887 250.295 280.656 250.389 280.484 250.577C280.313 250.76 280.227 251.028 280.227 251.379V253.23H279.669V249.872H280.227V250.356C280.337 250.18 280.484 250.046 280.668 249.952C280.856 249.858 281.063 249.811 281.287 249.811C281.569 249.811 281.818 249.874 282.035 250.001C282.251 250.127 282.413 250.313 282.519 250.558C282.613 250.321 282.768 250.137 282.985 250.007C283.201 249.876 283.442 249.811 283.708 249.811ZM286.786 250.491C286.896 250.299 287.06 250.139 287.276 250.013C287.497 249.882 287.752 249.817 288.042 249.817C288.34 249.817 288.61 249.888 288.851 250.031C289.096 250.174 289.288 250.376 289.427 250.638C289.566 250.895 289.635 251.196 289.635 251.539C289.635 251.878 289.566 252.18 289.427 252.446C289.288 252.711 289.096 252.918 288.851 253.065C288.61 253.212 288.34 253.285 288.042 253.285C287.756 253.285 287.503 253.222 287.282 253.095C287.066 252.965 286.9 252.803 286.786 252.611V254.823H286.228V249.872H286.786V250.491ZM289.065 251.539C289.065 251.285 289.014 251.065 288.912 250.877C288.81 250.689 288.671 250.546 288.496 250.448C288.324 250.35 288.134 250.301 287.926 250.301C287.721 250.301 287.531 250.352 287.356 250.454C287.184 250.552 287.045 250.697 286.939 250.889C286.837 251.077 286.786 251.296 286.786 251.545C286.786 251.798 286.837 252.021 286.939 252.213C287.045 252.401 287.184 252.546 287.356 252.648C287.531 252.746 287.721 252.795 287.926 252.795C288.134 252.795 288.324 252.746 288.496 252.648C288.671 252.546 288.81 252.401 288.912 252.213C289.014 252.021 289.065 251.796 289.065 251.539ZM290.406 251.539C290.406 251.196 290.476 250.895 290.615 250.638C290.753 250.376 290.943 250.174 291.184 250.031C291.43 249.888 291.701 249.817 291.999 249.817C292.294 249.817 292.549 249.88 292.765 250.007C292.982 250.133 293.143 250.293 293.25 250.485V249.872H293.813V253.23H293.25V252.605C293.139 252.801 292.974 252.965 292.753 253.095C292.537 253.222 292.283 253.285 291.993 253.285C291.695 253.285 291.425 253.212 291.184 253.065C290.943 252.918 290.753 252.711 290.615 252.446C290.476 252.18 290.406 251.878 290.406 251.539ZM293.25 251.545C293.25 251.292 293.199 251.071 293.096 250.883C292.994 250.695 292.855 250.552 292.68 250.454C292.508 250.352 292.318 250.301 292.11 250.301C291.901 250.301 291.711 250.35 291.54 250.448C291.368 250.546 291.231 250.689 291.129 250.877C291.027 251.065 290.976 251.285 290.976 251.539C290.976 251.796 291.027 252.021 291.129 252.213C291.231 252.401 291.368 252.546 291.54 252.648C291.711 252.746 291.901 252.795 292.11 252.795C292.318 252.795 292.508 252.746 292.68 252.648C292.855 252.546 292.994 252.401 293.096 252.213C293.199 252.021 293.25 251.798 293.25 251.545ZM294.793 251.545C294.793 251.198 294.862 250.895 295.001 250.638C295.14 250.376 295.332 250.174 295.577 250.031C295.826 249.888 296.11 249.817 296.429 249.817C296.841 249.817 297.18 249.917 297.446 250.117C297.716 250.317 297.893 250.595 297.979 250.95H297.379C297.321 250.746 297.209 250.585 297.042 250.466C296.878 250.348 296.674 250.289 296.429 250.289C296.11 250.289 295.853 250.399 295.657 250.62C295.461 250.836 295.362 251.145 295.362 251.545C295.362 251.949 295.461 252.262 295.657 252.482C295.853 252.703 296.11 252.813 296.429 252.813C296.674 252.813 296.878 252.756 297.042 252.642C297.205 252.527 297.317 252.364 297.379 252.152H297.979C297.889 252.495 297.71 252.77 297.44 252.979C297.17 253.183 296.833 253.285 296.429 253.285C296.11 253.285 295.826 253.214 295.577 253.071C295.332 252.928 295.14 252.726 295.001 252.464C294.862 252.203 294.793 251.896 294.793 251.545ZM299.649 250.332V252.311C299.649 252.474 299.683 252.591 299.753 252.66C299.822 252.726 299.943 252.758 300.114 252.758H300.525V253.23H300.022C299.712 253.23 299.479 253.159 299.324 253.016C299.169 252.873 299.091 252.638 299.091 252.311V250.332H298.656V249.872H299.091V249.026H299.649V249.872H300.525V250.332H299.649ZM304.679 253.273C304.397 253.273 304.144 253.224 303.919 253.126C303.698 253.024 303.525 252.885 303.398 252.709C303.271 252.529 303.206 252.323 303.202 252.09H303.796C303.817 252.29 303.899 252.46 304.042 252.599C304.189 252.734 304.401 252.801 304.679 252.801C304.944 252.801 305.153 252.736 305.304 252.605C305.459 252.47 305.537 252.299 305.537 252.09C305.537 251.927 305.492 251.794 305.402 251.692C305.312 251.59 305.2 251.512 305.065 251.459C304.93 251.406 304.748 251.349 304.52 251.287C304.238 251.214 304.011 251.14 303.839 251.067C303.672 250.993 303.527 250.879 303.404 250.724C303.286 250.564 303.227 250.352 303.227 250.086C303.227 249.854 303.286 249.647 303.404 249.467C303.523 249.288 303.688 249.149 303.901 249.051C304.117 248.953 304.364 248.904 304.642 248.904C305.042 248.904 305.369 249.004 305.623 249.204C305.88 249.404 306.025 249.67 306.058 250.001H305.445C305.424 249.837 305.339 249.694 305.188 249.572C305.036 249.445 304.836 249.382 304.587 249.382C304.354 249.382 304.164 249.443 304.017 249.566C303.87 249.684 303.796 249.851 303.796 250.068C303.796 250.223 303.839 250.35 303.925 250.448C304.015 250.546 304.123 250.622 304.25 250.675C304.381 250.724 304.562 250.781 304.795 250.846C305.077 250.924 305.304 251.002 305.476 251.079C305.647 251.153 305.794 251.269 305.917 251.428C306.039 251.584 306.101 251.796 306.101 252.066C306.101 252.274 306.045 252.47 305.935 252.654C305.825 252.838 305.661 252.987 305.445 253.101C305.228 253.216 304.973 253.273 304.679 253.273ZM306.958 251.545C306.958 251.198 307.027 250.895 307.166 250.638C307.305 250.376 307.497 250.174 307.742 250.031C307.992 249.888 308.276 249.817 308.594 249.817C309.007 249.817 309.346 249.917 309.611 250.117C309.881 250.317 310.059 250.595 310.145 250.95H309.544C309.487 250.746 309.375 250.585 309.207 250.466C309.044 250.348 308.839 250.289 308.594 250.289C308.276 250.289 308.018 250.399 307.822 250.62C307.626 250.836 307.528 251.145 307.528 251.545C307.528 251.949 307.626 252.262 307.822 252.482C308.018 252.703 308.276 252.813 308.594 252.813C308.839 252.813 309.044 252.756 309.207 252.642C309.37 252.527 309.483 252.364 309.544 252.152H310.145C310.055 252.495 309.875 252.77 309.605 252.979C309.336 253.183 308.999 253.285 308.594 253.285C308.276 253.285 307.992 253.214 307.742 253.071C307.497 252.928 307.305 252.726 307.166 252.464C307.027 252.203 306.958 251.896 306.958 251.545ZM312.598 253.285C312.284 253.285 311.998 253.214 311.741 253.071C311.487 252.928 311.287 252.726 311.14 252.464C310.997 252.199 310.925 251.892 310.925 251.545C310.925 251.202 310.999 250.899 311.146 250.638C311.297 250.372 311.502 250.17 311.759 250.031C312.016 249.888 312.304 249.817 312.623 249.817C312.942 249.817 313.23 249.888 313.487 250.031C313.744 250.17 313.947 250.37 314.094 250.632C314.245 250.893 314.32 251.198 314.32 251.545C314.32 251.892 314.243 252.199 314.088 252.464C313.936 252.726 313.73 252.928 313.469 253.071C313.207 253.214 312.917 253.285 312.598 253.285ZM312.598 252.795C312.799 252.795 312.987 252.748 313.162 252.654C313.338 252.56 313.479 252.419 313.585 252.231C313.695 252.043 313.751 251.815 313.751 251.545C313.751 251.275 313.697 251.046 313.591 250.859C313.485 250.671 313.346 250.532 313.174 250.442C313.003 250.348 312.817 250.301 312.617 250.301C312.413 250.301 312.225 250.348 312.053 250.442C311.886 250.532 311.751 250.671 311.649 250.859C311.546 251.046 311.495 251.275 311.495 251.545C311.495 251.819 311.544 252.049 311.642 252.237C311.745 252.425 311.879 252.566 312.047 252.66C312.214 252.75 312.398 252.795 312.598 252.795ZM315.856 250.417C315.954 250.225 316.093 250.076 316.273 249.97C316.457 249.864 316.68 249.811 316.941 249.811V250.387H316.794C316.169 250.387 315.856 250.726 315.856 251.404V253.23H315.299V249.872H315.856V250.417ZM320.894 251.422C320.894 251.529 320.888 251.641 320.876 251.759H318.192C318.212 252.09 318.324 252.35 318.529 252.538C318.737 252.721 318.988 252.813 319.282 252.813C319.523 252.813 319.724 252.758 319.883 252.648C320.046 252.534 320.161 252.382 320.226 252.194H320.827C320.737 252.517 320.557 252.781 320.287 252.985C320.018 253.185 319.683 253.285 319.282 253.285C318.964 253.285 318.678 253.214 318.424 253.071C318.175 252.928 317.979 252.726 317.836 252.464C317.693 252.199 317.622 251.892 317.622 251.545C317.622 251.198 317.691 250.893 317.83 250.632C317.969 250.37 318.163 250.17 318.412 250.031C318.665 249.888 318.956 249.817 319.282 249.817C319.601 249.817 319.883 249.886 320.128 250.025C320.373 250.164 320.561 250.356 320.692 250.601C320.827 250.842 320.894 251.116 320.894 251.422ZM320.318 251.306C320.318 251.093 320.271 250.912 320.177 250.76C320.083 250.605 319.954 250.489 319.791 250.411C319.632 250.329 319.454 250.289 319.258 250.289C318.976 250.289 318.735 250.378 318.535 250.558C318.339 250.738 318.226 250.987 318.198 251.306H320.318Z" fill="#121212" fill-opacity="0.8"/>
<path d="M347.307 194.754L349.451 196.592L353.435 192.916" stroke="#7FDDB8" stroke-width="1.22562"/>
<path d="M363.794 196.695L363.196 196.048C363.049 196.09 362.887 196.111 362.711 196.111C362.394 196.111 362.101 196.038 361.833 195.891C361.569 195.741 361.358 195.533 361.201 195.268C361.047 195 360.97 194.7 360.97 194.366C360.97 194.033 361.047 193.734 361.201 193.469C361.358 193.204 361.569 192.998 361.833 192.851C362.101 192.701 362.394 192.626 362.711 192.626C363.031 192.626 363.324 192.701 363.588 192.851C363.856 192.998 364.067 193.204 364.221 193.469C364.374 193.734 364.451 194.033 364.451 194.366C364.451 194.68 364.383 194.964 364.245 195.219C364.111 195.471 363.925 195.674 363.686 195.827L364.505 196.695H363.794ZM361.544 194.366C361.544 194.618 361.593 194.84 361.691 195.033C361.792 195.222 361.931 195.37 362.108 195.474C362.284 195.575 362.485 195.626 362.711 195.626C362.936 195.626 363.137 195.575 363.314 195.474C363.49 195.37 363.628 195.222 363.726 195.033C363.827 194.84 363.878 194.618 363.878 194.366C363.878 194.115 363.827 193.894 363.726 193.704C363.628 193.515 363.49 193.369 363.314 193.268C363.137 193.167 362.936 193.116 362.711 193.116C362.485 193.116 362.284 193.167 362.108 193.268C361.931 193.369 361.792 193.515 361.691 193.704C361.593 193.894 361.544 194.115 361.544 194.366ZM367.658 193.376V196.077H367.099V195.758C367.011 195.87 366.895 195.958 366.751 196.023C366.61 196.085 366.46 196.116 366.3 196.116C366.088 196.116 365.896 196.072 365.726 195.984C365.56 195.896 365.427 195.765 365.329 195.592C365.235 195.419 365.187 195.209 365.187 194.964V193.376H365.741V194.881C365.741 195.123 365.802 195.309 365.922 195.44C366.043 195.567 366.208 195.631 366.418 195.631C366.627 195.631 366.792 195.567 366.913 195.44C367.037 195.309 367.099 195.123 367.099 194.881V193.376H367.658ZM368.405 194.714C368.405 194.443 368.461 194.203 368.572 193.994C368.686 193.784 368.84 193.623 369.033 193.508C369.229 193.391 369.445 193.332 369.68 193.332C369.892 193.332 370.077 193.374 370.234 193.459C370.394 193.541 370.521 193.644 370.616 193.768V193.376H371.18V196.077H370.616V195.675C370.521 195.803 370.392 195.909 370.229 195.994C370.065 196.079 369.879 196.121 369.67 196.121C369.438 196.121 369.226 196.062 369.033 195.945C368.84 195.824 368.686 195.657 368.572 195.445C368.461 195.229 368.405 194.986 368.405 194.714ZM370.616 194.724C370.616 194.538 370.577 194.376 370.499 194.239C370.423 194.101 370.324 193.997 370.199 193.925C370.075 193.853 369.941 193.817 369.797 193.817C369.654 193.817 369.52 193.853 369.395 193.925C369.271 193.994 369.17 194.097 369.092 194.234C369.016 194.368 368.979 194.528 368.979 194.714C368.979 194.901 369.016 195.064 369.092 195.205C369.17 195.345 369.271 195.453 369.395 195.528C369.523 195.6 369.657 195.636 369.797 195.636C369.941 195.636 370.075 195.6 370.199 195.528C370.324 195.456 370.423 195.352 370.499 195.214C370.577 195.074 370.616 194.91 370.616 194.724ZM373.473 193.332C373.685 193.332 373.875 193.376 374.042 193.464C374.212 193.552 374.344 193.683 374.439 193.856C374.534 194.03 374.581 194.239 374.581 194.484V196.077H374.027V194.567C374.027 194.325 373.967 194.141 373.846 194.013C373.725 193.882 373.56 193.817 373.35 193.817C373.141 193.817 372.975 193.882 372.85 194.013C372.729 194.141 372.669 194.325 372.669 194.567V196.077H372.11V193.376H372.669V193.685C372.761 193.574 372.877 193.487 373.017 193.425C373.161 193.363 373.313 193.332 373.473 193.332ZM376.142 193.832V195.327C376.142 195.428 376.165 195.502 376.211 195.548C376.26 195.59 376.341 195.611 376.456 195.611H376.799V196.077H376.358C376.106 196.077 375.913 196.018 375.779 195.901C375.645 195.783 375.578 195.592 375.578 195.327V193.832H375.26V193.376H375.578V192.704H376.142V193.376H376.799V193.832H376.142ZM377.794 193.018C377.693 193.018 377.608 192.984 377.54 192.915C377.471 192.846 377.437 192.761 377.437 192.66C377.437 192.559 377.471 192.474 377.54 192.405C377.608 192.337 377.693 192.302 377.794 192.302C377.893 192.302 377.976 192.337 378.045 192.405C378.113 192.474 378.147 192.559 378.147 192.66C378.147 192.761 378.113 192.846 378.045 192.915C377.976 192.984 377.893 193.018 377.794 193.018ZM378.069 193.376V196.077H377.51V193.376H378.069ZM380.131 193.832H379.631V196.077H379.068V193.832H378.749V193.376H379.068V193.185C379.068 192.874 379.149 192.649 379.313 192.508C379.479 192.364 379.739 192.292 380.092 192.292V192.758C379.922 192.758 379.803 192.791 379.734 192.856C379.666 192.918 379.631 193.028 379.631 193.185V193.376H380.131V193.832ZM383.254 193.376L381.597 197.347H381.019L381.568 196.033L380.504 193.376H381.127L381.887 195.435L382.676 193.376H383.254ZM384.157 193.018C384.055 193.018 383.97 192.984 383.902 192.915C383.833 192.846 383.799 192.761 383.799 192.66C383.799 192.559 383.833 192.474 383.902 192.405C383.97 192.337 384.055 192.302 384.157 192.302C384.255 192.302 384.338 192.337 384.407 192.405C384.475 192.474 384.51 192.559 384.51 192.66C384.51 192.761 384.475 192.846 384.407 192.915C384.338 192.984 384.255 193.018 384.157 193.018ZM384.431 193.376V196.077H383.872V193.376H384.431ZM386.724 193.332C386.936 193.332 387.126 193.376 387.293 193.464C387.463 193.552 387.595 193.683 387.69 193.856C387.784 194.03 387.832 194.239 387.832 194.484V196.077H387.278V194.567C387.278 194.325 387.217 194.141 387.096 194.013C386.976 193.882 386.811 193.817 386.601 193.817C386.392 193.817 386.225 193.882 386.101 194.013C385.98 194.141 385.92 194.325 385.92 194.567V196.077H385.361V193.376H385.92V193.685C386.011 193.574 386.127 193.487 386.268 193.425C386.412 193.363 386.564 193.332 386.724 193.332ZM389.829 193.332C390.038 193.332 390.223 193.374 390.383 193.459C390.547 193.541 390.674 193.644 390.766 193.768V193.376H391.329V196.121C391.329 196.37 391.277 196.59 391.172 196.783C391.068 196.979 390.916 197.133 390.717 197.244C390.52 197.355 390.285 197.411 390.011 197.411C389.645 197.411 389.341 197.324 389.099 197.151C388.857 196.981 388.72 196.749 388.687 196.455H389.241C389.283 196.595 389.373 196.708 389.511 196.793C389.651 196.881 389.818 196.925 390.011 196.925C390.236 196.925 390.417 196.857 390.555 196.719C390.695 196.582 390.766 196.383 390.766 196.121V195.67C390.671 195.798 390.542 195.906 390.378 195.994C390.218 196.079 390.035 196.121 389.829 196.121C389.594 196.121 389.378 196.062 389.182 195.945C388.989 195.824 388.836 195.657 388.721 195.445C388.61 195.229 388.555 194.986 388.555 194.714C388.555 194.443 388.61 194.203 388.721 193.994C388.836 193.784 388.989 193.623 389.182 193.508C389.378 193.391 389.594 193.332 389.829 193.332ZM390.766 194.724C390.766 194.538 390.726 194.376 390.648 194.239C390.573 194.101 390.473 193.997 390.349 193.925C390.225 193.853 390.091 193.817 389.947 193.817C389.803 193.817 389.669 193.853 389.545 193.925C389.421 193.994 389.319 194.097 389.241 194.234C389.166 194.368 389.128 194.528 389.128 194.714C389.128 194.901 389.166 195.064 389.241 195.205C389.319 195.345 389.421 195.453 389.545 195.528C389.672 195.6 389.806 195.636 389.947 195.636C390.091 195.636 390.225 195.6 390.349 195.528C390.473 195.456 390.573 195.352 390.648 195.214C390.726 195.074 390.766 194.91 390.766 194.724ZM394.013 193.018C393.912 193.018 393.827 192.984 393.759 192.915C393.69 192.846 393.656 192.761 393.656 192.66C393.656 192.559 393.69 192.474 393.759 192.405C393.827 192.337 393.912 192.302 394.013 192.302C394.112 192.302 394.195 192.337 394.263 192.405C394.332 192.474 394.366 192.559 394.366 192.66C394.366 192.761 394.332 192.846 394.263 192.915C394.195 192.984 394.112 193.018 394.013 193.018ZM394.288 193.376V196.077H393.729V193.376H394.288ZM398.488 193.332C398.7 193.332 398.89 193.376 399.057 193.464C399.226 193.552 399.359 193.683 399.454 193.856C399.552 194.03 399.601 194.239 399.601 194.484V196.077H399.047V194.567C399.047 194.325 398.986 194.141 398.865 194.013C398.744 193.882 398.579 193.817 398.37 193.817C398.161 193.817 397.994 193.882 397.87 194.013C397.749 194.141 397.689 194.325 397.689 194.567V196.077H397.135V194.567C397.135 194.325 397.074 194.141 396.953 194.013C396.832 193.882 396.667 193.817 396.458 193.817C396.249 193.817 396.082 193.882 395.958 194.013C395.837 194.141 395.777 194.325 395.777 194.567V196.077H395.218V193.376H395.777V193.685C395.868 193.574 395.984 193.487 396.125 193.425C396.265 193.363 396.416 193.332 396.576 193.332C396.792 193.332 396.984 193.378 397.154 193.469C397.324 193.561 397.455 193.693 397.547 193.866C397.628 193.703 397.756 193.574 397.929 193.479C398.102 193.381 398.288 193.332 398.488 193.332ZM401.067 193.773C401.162 193.649 401.291 193.544 401.454 193.459C401.618 193.374 401.802 193.332 402.008 193.332C402.243 193.332 402.457 193.391 402.65 193.508C402.846 193.623 403 193.784 403.111 193.994C403.222 194.203 403.278 194.443 403.278 194.714C403.278 194.986 403.222 195.229 403.111 195.445C403 195.657 402.846 195.824 402.65 195.945C402.457 196.062 402.243 196.121 402.008 196.121C401.802 196.121 401.619 196.08 401.459 195.999C401.299 195.914 401.168 195.809 401.067 195.685V197.362H400.508V193.376H401.067V193.773ZM402.709 194.714C402.709 194.528 402.67 194.368 402.591 194.234C402.516 194.097 402.415 193.994 402.288 193.925C402.163 193.853 402.029 193.817 401.886 193.817C401.745 193.817 401.611 193.853 401.484 193.925C401.359 193.997 401.258 194.101 401.18 194.239C401.104 194.376 401.067 194.538 401.067 194.724C401.067 194.91 401.104 195.074 401.18 195.214C401.258 195.352 401.359 195.456 401.484 195.528C401.611 195.6 401.745 195.636 401.886 195.636C402.029 195.636 402.163 195.6 402.288 195.528C402.415 195.453 402.516 195.345 402.591 195.205C402.67 195.064 402.709 194.901 402.709 194.714ZM403.84 194.714C403.84 194.443 403.896 194.203 404.007 193.994C404.121 193.784 404.275 193.623 404.468 193.508C404.664 193.391 404.88 193.332 405.115 193.332C405.327 193.332 405.512 193.374 405.669 193.459C405.829 193.541 405.957 193.644 406.051 193.768V193.376H406.615V196.077H406.051V195.675C405.957 195.803 405.827 195.909 405.664 195.994C405.501 196.079 405.314 196.121 405.105 196.121C404.873 196.121 404.661 196.062 404.468 195.945C404.275 195.824 404.121 195.657 404.007 195.445C403.896 195.229 403.84 194.986 403.84 194.714ZM406.051 194.724C406.051 194.538 406.012 194.376 405.934 194.239C405.859 194.101 405.759 193.997 405.635 193.925C405.51 193.853 405.376 193.817 405.233 193.817C405.089 193.817 404.955 193.853 404.831 193.925C404.706 193.994 404.605 194.097 404.527 194.234C404.451 194.368 404.414 194.528 404.414 194.714C404.414 194.901 404.451 195.064 404.527 195.205C404.605 195.345 404.706 195.453 404.831 195.528C404.958 195.6 405.092 195.636 405.233 195.636C405.376 195.636 405.51 195.6 405.635 195.528C405.759 195.456 405.859 195.352 405.934 195.214C406.012 195.074 406.051 194.91 406.051 194.724ZM407.359 194.724C407.359 194.446 407.415 194.203 407.526 193.994C407.64 193.781 407.797 193.618 407.996 193.503C408.196 193.389 408.424 193.332 408.683 193.332C409.01 193.332 409.279 193.41 409.492 193.567C409.707 193.721 409.853 193.941 409.928 194.229H409.325C409.276 194.095 409.197 193.99 409.09 193.915C408.982 193.84 408.846 193.802 408.683 193.802C408.454 193.802 408.271 193.884 408.134 194.048C408 194.208 407.933 194.433 407.933 194.724C407.933 195.015 408 195.242 408.134 195.406C408.271 195.569 408.454 195.651 408.683 195.651C409.006 195.651 409.22 195.508 409.325 195.224H409.928C409.849 195.499 409.702 195.718 409.487 195.881C409.271 196.041 409.003 196.121 408.683 196.121C408.424 196.121 408.196 196.064 407.996 195.95C407.797 195.832 407.64 195.669 407.526 195.459C407.415 195.247 407.359 195.002 407.359 194.724ZM411.333 193.832V195.327C411.333 195.428 411.356 195.502 411.402 195.548C411.451 195.59 411.532 195.611 411.647 195.611H411.99V196.077H411.549C411.297 196.077 411.104 196.018 410.97 195.901C410.836 195.783 410.769 195.592 410.769 195.327V193.832H410.451V193.376H410.769V192.704H411.333V193.376H411.99V193.832H411.333Z" fill="#121212"/>
<rect x="360.788" y="202.108" width="56.9913" height="2.45124" rx="1.22562" fill="#F4F6FD"/>
<path d="M347.307 219.266L349.451 221.105L353.435 217.428" stroke="#7FDDB8" stroke-width="1.22562"/>
<path d="M362.279 220.624C362.051 220.624 361.845 220.585 361.662 220.506C361.479 220.424 361.335 220.31 361.23 220.163C361.126 220.016 361.073 219.844 361.073 219.648H361.672C361.685 219.795 361.742 219.916 361.843 220.011C361.948 220.106 362.093 220.153 362.279 220.153C362.472 220.153 362.623 220.107 362.73 220.016C362.838 219.921 362.892 219.8 362.892 219.653C362.892 219.539 362.858 219.446 362.789 219.374C362.724 219.302 362.641 219.246 362.539 219.207C362.441 219.168 362.304 219.125 362.127 219.08C361.905 219.021 361.724 218.962 361.583 218.903C361.446 218.841 361.328 218.746 361.23 218.619C361.132 218.491 361.083 218.321 361.083 218.109C361.083 217.913 361.132 217.741 361.23 217.594C361.328 217.447 361.466 217.334 361.642 217.256C361.819 217.177 362.023 217.138 362.255 217.138C362.585 217.138 362.855 217.221 363.064 217.388C363.276 217.552 363.394 217.777 363.417 218.065H362.799C362.789 217.941 362.73 217.834 362.623 217.746C362.515 217.658 362.373 217.614 362.196 217.614C362.036 217.614 361.905 217.655 361.804 217.736C361.703 217.818 361.652 217.936 361.652 218.089C361.652 218.194 361.683 218.28 361.745 218.349C361.81 218.414 361.892 218.467 361.99 218.506C362.088 218.545 362.222 218.588 362.392 218.633C362.618 218.695 362.801 218.758 362.941 218.82C363.085 218.882 363.206 218.978 363.304 219.109C363.405 219.236 363.456 219.408 363.456 219.624C363.456 219.797 363.409 219.96 363.314 220.114C363.222 220.268 363.087 220.392 362.907 220.487C362.73 220.578 362.521 220.624 362.279 220.624ZM364.964 218.344V219.839C364.964 219.941 364.986 220.014 365.032 220.06C365.081 220.102 365.163 220.124 365.277 220.124H365.621V220.589H365.179C364.928 220.589 364.735 220.531 364.601 220.413C364.467 220.295 364.4 220.104 364.4 219.839V218.344H364.081V217.888H364.4V217.217H364.964V217.888H365.621V218.344H364.964ZM366.891 218.28C366.972 218.143 367.08 218.037 367.214 217.962C367.351 217.883 367.513 217.844 367.7 217.844V218.423H367.557C367.338 218.423 367.172 218.478 367.057 218.589C366.946 218.7 366.891 218.893 366.891 219.168V220.589H366.332V217.888H366.891V218.28ZM369.581 220.634C369.326 220.634 369.096 220.576 368.89 220.462C368.684 220.344 368.522 220.181 368.404 219.972C368.287 219.759 368.228 219.514 368.228 219.236C368.228 218.962 368.288 218.718 368.409 218.506C368.53 218.293 368.695 218.13 368.905 218.016C369.114 217.901 369.347 217.844 369.606 217.844C369.864 217.844 370.097 217.901 370.307 218.016C370.516 218.13 370.681 218.293 370.802 218.506C370.923 218.718 370.983 218.962 370.983 219.236C370.983 219.511 370.921 219.754 370.797 219.967C370.673 220.179 370.503 220.344 370.287 220.462C370.075 220.576 369.839 220.634 369.581 220.634ZM369.581 220.148C369.725 220.148 369.859 220.114 369.983 220.045C370.111 219.977 370.213 219.874 370.292 219.736C370.37 219.599 370.41 219.432 370.41 219.236C370.41 219.04 370.372 218.875 370.297 218.741C370.222 218.604 370.122 218.501 369.998 218.432C369.874 218.364 369.74 218.329 369.596 218.329C369.452 218.329 369.318 218.364 369.194 218.432C369.073 218.501 368.976 218.604 368.905 218.741C368.833 218.875 368.797 219.04 368.797 219.236C368.797 219.527 368.87 219.753 369.017 219.913C369.168 220.07 369.356 220.148 369.581 220.148ZM373.095 217.844C373.307 217.844 373.497 217.888 373.663 217.976C373.833 218.065 373.966 218.195 374.06 218.369C374.155 218.542 374.203 218.751 374.203 218.996V220.589H373.649V219.08C373.649 218.838 373.588 218.653 373.467 218.526C373.346 218.395 373.181 218.329 372.972 218.329C372.763 218.329 372.596 218.395 372.472 218.526C372.351 218.653 372.291 218.838 372.291 219.08V220.589H371.732V217.888H372.291V218.197C372.382 218.086 372.498 217.999 372.639 217.937C372.783 217.875 372.934 217.844 373.095 217.844ZM376.2 217.844C376.409 217.844 376.594 217.887 376.754 217.972C376.917 218.053 377.045 218.156 377.136 218.28V217.888H377.7V220.634C377.7 220.882 377.648 221.103 377.543 221.295C377.439 221.492 377.287 221.645 377.087 221.756C376.891 221.867 376.656 221.923 376.381 221.923C376.015 221.923 375.711 221.836 375.469 221.663C375.228 221.493 375.09 221.261 375.058 220.967H375.612C375.654 221.108 375.744 221.22 375.881 221.305C376.022 221.393 376.188 221.438 376.381 221.438C376.607 221.438 376.788 221.369 376.925 221.232C377.066 221.094 377.136 220.895 377.136 220.634V220.183C377.042 220.31 376.912 220.418 376.749 220.506C376.589 220.591 376.406 220.634 376.2 220.634C375.965 220.634 375.749 220.575 375.553 220.457C375.36 220.336 375.206 220.169 375.092 219.957C374.981 219.741 374.925 219.498 374.925 219.227C374.925 218.955 374.981 218.715 375.092 218.506C375.206 218.297 375.36 218.135 375.553 218.021C375.749 217.903 375.965 217.844 376.2 217.844ZM377.136 219.236C377.136 219.05 377.097 218.888 377.019 218.751C376.943 218.614 376.844 218.509 376.72 218.437C376.595 218.365 376.461 218.329 376.318 218.329C376.174 218.329 376.04 218.365 375.916 218.437C375.791 218.506 375.69 218.609 375.612 218.746C375.536 218.88 375.499 219.04 375.499 219.227C375.499 219.413 375.536 219.576 375.612 219.717C375.69 219.857 375.791 219.965 375.916 220.04C376.043 220.112 376.177 220.148 376.318 220.148C376.461 220.148 376.595 220.112 376.72 220.04C376.844 219.968 376.943 219.864 377.019 219.727C377.097 219.586 377.136 219.423 377.136 219.236ZM382.154 219.893H380.727L380.482 220.589H379.899L381.12 217.177H381.767L382.987 220.589H382.399L382.154 219.893ZM381.997 219.437L381.443 217.854L380.884 219.437H381.997ZM383.528 219.236C383.528 218.959 383.584 218.715 383.695 218.506C383.809 218.293 383.966 218.13 384.165 218.016C384.365 217.901 384.593 217.844 384.852 217.844C385.178 217.844 385.448 217.923 385.661 218.079C385.876 218.233 386.022 218.454 386.097 218.741H385.494C385.445 218.607 385.366 218.503 385.259 218.427C385.151 218.352 385.015 218.315 384.852 218.315C384.623 218.315 384.44 218.396 384.303 218.56C384.169 218.72 384.102 218.946 384.102 219.236C384.102 219.527 384.169 219.754 384.303 219.918C384.44 220.081 384.623 220.163 384.852 220.163C385.175 220.163 385.389 220.021 385.494 219.736H386.097C386.018 220.011 385.871 220.23 385.656 220.393C385.44 220.554 385.172 220.634 384.852 220.634C384.593 220.634 384.365 220.576 384.165 220.462C383.966 220.344 383.809 220.181 383.695 219.972C383.584 219.759 383.528 219.514 383.528 219.236ZM387.502 218.344V219.839C387.502 219.941 387.525 220.014 387.571 220.06C387.62 220.102 387.701 220.124 387.816 220.124H388.159V220.589H387.718C387.466 220.589 387.273 220.531 387.139 220.413C387.005 220.295 386.938 220.104 386.938 219.839V218.344H386.62V217.888H386.938V217.217H387.502V217.888H388.159V218.344H387.502ZM389.154 217.53C389.053 217.53 388.968 217.496 388.9 217.427C388.831 217.359 388.797 217.274 388.797 217.172C388.797 217.071 388.831 216.986 388.9 216.918C388.968 216.849 389.053 216.815 389.154 216.815C389.253 216.815 389.336 216.849 389.404 216.918C389.473 216.986 389.507 217.071 389.507 217.172C389.507 217.274 389.473 217.359 389.404 217.427C389.336 217.496 389.253 217.53 389.154 217.53ZM389.429 217.888V220.589H388.87V217.888H389.429ZM391.531 220.634C391.276 220.634 391.045 220.576 390.839 220.462C390.633 220.344 390.472 220.181 390.354 219.972C390.236 219.759 390.177 219.514 390.177 219.236C390.177 218.962 390.238 218.718 390.359 218.506C390.48 218.293 390.645 218.13 390.854 218.016C391.063 217.901 391.297 217.844 391.555 217.844C391.813 217.844 392.047 217.901 392.256 218.016C392.465 218.13 392.63 218.293 392.751 218.506C392.872 218.718 392.933 218.962 392.933 219.236C392.933 219.511 392.871 219.754 392.746 219.967C392.622 220.179 392.452 220.344 392.237 220.462C392.024 220.576 391.789 220.634 391.531 220.634ZM391.531 220.148C391.674 220.148 391.808 220.114 391.933 220.045C392.06 219.977 392.163 219.874 392.241 219.736C392.32 219.599 392.359 219.432 392.359 219.236C392.359 219.04 392.321 218.875 392.246 218.741C392.171 218.604 392.071 218.501 391.947 218.432C391.823 218.364 391.689 218.329 391.545 218.329C391.401 218.329 391.267 218.364 391.143 218.432C391.022 218.501 390.926 218.604 390.854 218.741C390.782 218.875 390.746 219.04 390.746 219.236C390.746 219.527 390.82 219.753 390.967 219.913C391.117 220.07 391.305 220.148 391.531 220.148ZM395.044 217.844C395.257 217.844 395.446 217.888 395.613 217.976C395.783 218.065 395.915 218.195 396.01 218.369C396.105 218.542 396.152 218.751 396.152 218.996V220.589H395.598V219.08C395.598 218.838 395.538 218.653 395.417 218.526C395.296 218.395 395.131 218.329 394.922 218.329C394.712 218.329 394.546 218.395 394.422 218.526C394.301 218.653 394.24 218.838 394.24 219.08V220.589H393.681V217.888H394.24V218.197C394.332 218.086 394.448 217.999 394.588 217.937C394.732 217.875 394.884 217.844 395.044 217.844ZM401.467 217.182L400.188 220.589H399.541L398.256 217.182H398.854L399.864 220.016L400.879 217.182H401.467ZM404.606 219.173C404.606 219.274 404.6 219.365 404.587 219.447H402.523C402.539 219.663 402.619 219.836 402.763 219.967C402.907 220.098 403.083 220.163 403.293 220.163C403.593 220.163 403.806 220.037 403.93 219.785H404.533C404.451 220.034 404.303 220.238 404.087 220.398C403.874 220.555 403.61 220.634 403.293 220.634C403.034 220.634 402.802 220.576 402.596 220.462C402.394 220.344 402.234 220.181 402.116 219.972C402.002 219.759 401.944 219.514 401.944 219.236C401.944 218.959 402 218.715 402.111 218.506C402.226 218.293 402.384 218.13 402.587 218.016C402.793 217.901 403.028 217.844 403.293 217.844C403.548 217.844 403.775 217.9 403.974 218.011C404.173 218.122 404.329 218.279 404.44 218.481C404.551 218.681 404.606 218.911 404.606 219.173ZM404.023 218.996C404.02 218.79 403.946 218.625 403.802 218.501C403.659 218.377 403.481 218.315 403.268 218.315C403.075 218.315 402.91 218.377 402.773 218.501C402.636 218.622 402.554 218.787 402.528 218.996H404.023ZM405.911 218.28C405.993 218.143 406.101 218.037 406.235 217.962C406.372 217.883 406.534 217.844 406.72 217.844V218.423H406.578C406.359 218.423 406.193 218.478 406.078 218.589C405.967 218.7 405.911 218.893 405.911 219.168V220.589H405.353V217.888H405.911V218.28ZM407.989 218.29C408.084 218.159 408.213 218.053 408.376 217.972C408.543 217.887 408.728 217.844 408.93 217.844C409.169 217.844 409.385 217.901 409.577 218.016C409.77 218.13 409.922 218.293 410.033 218.506C410.145 218.715 410.2 218.955 410.2 219.227C410.2 219.498 410.145 219.741 410.033 219.957C409.922 220.169 409.769 220.336 409.573 220.457C409.38 220.575 409.166 220.634 408.93 220.634C408.721 220.634 408.535 220.593 408.371 220.511C408.211 220.429 408.084 220.325 407.989 220.197V220.589H407.43V216.962H407.989V218.29ZM409.631 219.227C409.631 219.04 409.592 218.88 409.514 218.746C409.439 218.609 409.337 218.506 409.21 218.437C409.086 218.365 408.952 218.329 408.808 218.329C408.667 218.329 408.533 218.365 408.406 218.437C408.282 218.509 408.18 218.614 408.102 218.751C408.027 218.888 407.989 219.05 407.989 219.236C407.989 219.423 408.027 219.586 408.102 219.727C408.18 219.864 408.282 219.968 408.406 220.04C408.533 220.112 408.667 220.148 408.808 220.148C408.952 220.148 409.086 220.112 409.21 220.04C409.337 219.965 409.439 219.857 409.514 219.717C409.592 219.576 409.631 219.413 409.631 219.227ZM411.929 220.634C411.717 220.634 411.526 220.596 411.356 220.521C411.189 220.442 411.057 220.338 410.959 220.207C410.861 220.073 410.808 219.924 410.802 219.761H411.38C411.39 219.875 411.444 219.972 411.542 220.05C411.643 220.125 411.769 220.163 411.92 220.163C412.076 220.163 412.197 220.134 412.282 220.075C412.371 220.013 412.415 219.934 412.415 219.839C412.415 219.738 412.366 219.663 412.268 219.614C412.173 219.565 412.021 219.511 411.812 219.452C411.609 219.397 411.444 219.343 411.317 219.29C411.189 219.238 411.078 219.158 410.983 219.05C410.892 218.942 410.846 218.8 410.846 218.624C410.846 218.48 410.888 218.349 410.973 218.231C411.058 218.11 411.179 218.016 411.336 217.947C411.496 217.878 411.679 217.844 411.885 217.844C412.192 217.844 412.439 217.923 412.626 218.079C412.815 218.233 412.916 218.444 412.929 218.712H412.371C412.361 218.591 412.312 218.494 412.224 218.423C412.135 218.351 412.016 218.315 411.866 218.315C411.719 218.315 411.606 218.343 411.527 218.398C411.449 218.454 411.41 218.527 411.41 218.619C411.41 218.691 411.436 218.751 411.488 218.8C411.54 218.849 411.604 218.888 411.679 218.918C411.755 218.944 411.866 218.978 412.013 219.021C412.209 219.073 412.369 219.127 412.493 219.182C412.621 219.235 412.73 219.313 412.822 219.418C412.913 219.522 412.961 219.661 412.964 219.834C412.964 219.988 412.921 220.125 412.836 220.246C412.751 220.367 412.63 220.462 412.474 220.531C412.32 220.599 412.139 220.634 411.929 220.634Z" fill="#121212"/>
<rect x="360.788" y="226.62" width="56.9913" height="2.45124" rx="1.22562" fill="#F4F6FD"/>
<path d="M347.307 243.779L349.451 245.617L353.435 241.94" stroke="#7FDDB8" stroke-width="1.22562"/>
<path d="M363.956 245.102H363.397L361.716 242.557V245.102H361.157V241.69H361.716L363.397 244.229V241.69H363.956V245.102ZM366.058 245.146C365.803 245.146 365.572 245.089 365.367 244.974C365.161 244.857 364.999 244.693 364.881 244.484C364.764 244.272 364.705 244.027 364.705 243.749C364.705 243.474 364.765 243.231 364.886 243.018C365.007 242.806 365.172 242.642 365.381 242.528C365.59 242.414 365.824 242.356 366.082 242.356C366.34 242.356 366.574 242.414 366.783 242.528C366.993 242.642 367.158 242.806 367.278 243.018C367.399 243.231 367.46 243.474 367.46 243.749C367.46 244.023 367.398 244.267 367.274 244.479C367.149 244.692 366.979 244.857 366.764 244.974C366.551 245.089 366.316 245.146 366.058 245.146ZM366.058 244.661C366.202 244.661 366.336 244.626 366.46 244.558C366.587 244.489 366.69 244.386 366.769 244.249C366.847 244.112 366.886 243.945 366.886 243.749C366.886 243.553 366.849 243.388 366.774 243.254C366.698 243.116 366.599 243.013 366.474 242.945C366.35 242.876 366.216 242.842 366.072 242.842C365.929 242.842 365.795 242.876 365.67 242.945C365.55 243.013 365.453 243.116 365.381 243.254C365.309 243.388 365.273 243.553 365.273 243.749C365.273 244.04 365.347 244.265 365.494 244.425C365.644 244.582 365.832 244.661 366.058 244.661ZM370.659 245.146C370.446 245.146 370.255 245.108 370.085 245.033C369.918 244.955 369.786 244.85 369.688 244.719C369.59 244.585 369.538 244.437 369.531 244.273H370.109C370.119 244.388 370.173 244.484 370.271 244.563C370.373 244.638 370.498 244.675 370.649 244.675C370.806 244.675 370.927 244.646 371.012 244.587C371.1 244.525 371.144 244.447 371.144 244.352C371.144 244.25 371.095 244.175 370.997 244.126C370.902 244.077 370.75 244.023 370.541 243.964C370.338 243.909 370.173 243.855 370.046 243.803C369.918 243.75 369.807 243.67 369.712 243.562C369.621 243.455 369.575 243.312 369.575 243.136C369.575 242.992 369.618 242.861 369.703 242.744C369.788 242.623 369.908 242.528 370.065 242.459C370.226 242.391 370.409 242.356 370.614 242.356C370.922 242.356 371.168 242.435 371.355 242.592C371.544 242.745 371.646 242.956 371.659 243.224H371.1C371.09 243.103 371.041 243.007 370.953 242.935C370.864 242.863 370.745 242.827 370.595 242.827C370.448 242.827 370.335 242.855 370.257 242.91C370.178 242.966 370.139 243.039 370.139 243.131C370.139 243.203 370.165 243.263 370.217 243.312C370.27 243.361 370.333 243.401 370.409 243.43C370.484 243.456 370.595 243.491 370.742 243.533C370.938 243.585 371.098 243.639 371.222 243.695C371.35 243.747 371.459 243.826 371.551 243.93C371.642 244.035 371.69 244.174 371.693 244.347C371.693 244.5 371.65 244.638 371.566 244.759C371.481 244.88 371.36 244.974 371.203 245.043C371.049 245.112 370.868 245.146 370.659 245.146ZM373.052 242.798C373.147 242.673 373.276 242.569 373.439 242.484C373.603 242.399 373.787 242.356 373.993 242.356C374.228 242.356 374.443 242.415 374.635 242.533C374.831 242.647 374.985 242.809 375.096 243.018C375.207 243.227 375.263 243.468 375.263 243.739C375.263 244.01 375.207 244.254 375.096 244.469C374.985 244.682 374.831 244.849 374.635 244.969C374.443 245.087 374.228 245.146 373.993 245.146C373.787 245.146 373.604 245.105 373.444 245.023C373.284 244.938 373.153 244.834 373.052 244.71V246.386H372.493V242.401H373.052V242.798ZM374.694 243.739C374.694 243.553 374.655 243.392 374.577 243.258C374.501 243.121 374.4 243.018 374.273 242.95C374.148 242.878 374.014 242.842 373.871 242.842C373.73 242.842 373.596 242.878 373.469 242.95C373.344 243.022 373.243 243.126 373.165 243.263C373.089 243.401 373.052 243.562 373.052 243.749C373.052 243.935 373.089 244.098 373.165 244.239C373.243 244.376 373.344 244.481 373.469 244.553C373.596 244.625 373.73 244.661 373.871 244.661C374.014 244.661 374.148 244.625 374.273 244.553C374.4 244.478 374.501 244.37 374.577 244.229C374.655 244.089 374.694 243.925 374.694 243.739ZM378.487 243.685C378.487 243.786 378.481 243.878 378.468 243.96H376.404C376.42 244.175 376.5 244.348 376.644 244.479C376.788 244.61 376.964 244.675 377.174 244.675C377.474 244.675 377.687 244.549 377.811 244.298H378.414C378.332 244.546 378.183 244.75 377.968 244.911C377.755 245.067 377.491 245.146 377.174 245.146C376.915 245.146 376.683 245.089 376.477 244.974C376.275 244.857 376.115 244.693 375.997 244.484C375.883 244.272 375.825 244.027 375.825 243.749C375.825 243.471 375.881 243.227 375.992 243.018C376.106 242.806 376.265 242.642 376.468 242.528C376.673 242.414 376.909 242.356 377.174 242.356C377.428 242.356 377.656 242.412 377.855 242.523C378.054 242.634 378.21 242.791 378.321 242.994C378.432 243.193 378.487 243.424 378.487 243.685ZM377.904 243.509C377.901 243.303 377.827 243.138 377.683 243.013C377.54 242.889 377.361 242.827 377.149 242.827C376.956 242.827 376.791 242.889 376.654 243.013C376.517 243.134 376.435 243.299 376.409 243.509H377.904ZM379.792 241.474V245.102H379.233V241.474H379.792ZM381.281 241.474V245.102H380.722V241.474H381.281ZM382.495 242.043C382.394 242.043 382.309 242.008 382.24 241.94C382.172 241.871 382.137 241.786 382.137 241.685C382.137 241.583 382.172 241.498 382.24 241.43C382.309 241.361 382.394 241.327 382.495 241.327C382.593 241.327 382.677 241.361 382.745 241.43C382.814 241.498 382.848 241.583 382.848 241.685C382.848 241.786 382.814 241.871 382.745 241.94C382.677 242.008 382.593 242.043 382.495 242.043ZM382.77 242.401V245.102H382.211V242.401H382.77ZM385.063 242.356C385.275 242.356 385.465 242.401 385.631 242.489C385.801 242.577 385.934 242.708 386.028 242.881C386.123 243.054 386.171 243.263 386.171 243.509V245.102H385.617V243.592C385.617 243.35 385.556 243.165 385.435 243.038C385.314 242.907 385.149 242.842 384.94 242.842C384.731 242.842 384.564 242.907 384.44 243.038C384.319 243.165 384.259 243.35 384.259 243.592V245.102H383.7V242.401H384.259V242.709C384.35 242.598 384.466 242.512 384.607 242.45C384.75 242.387 384.902 242.356 385.063 242.356ZM388.168 242.356C388.377 242.356 388.562 242.399 388.722 242.484C388.885 242.566 389.013 242.669 389.104 242.793V242.401H389.668V245.146C389.668 245.394 389.616 245.615 389.511 245.808C389.407 246.004 389.255 246.157 389.055 246.269C388.859 246.38 388.624 246.435 388.349 246.435C387.983 246.435 387.679 246.349 387.437 246.175C387.196 246.005 387.058 245.773 387.026 245.479H387.58C387.622 245.62 387.712 245.733 387.849 245.818C387.99 245.906 388.156 245.95 388.349 245.95C388.575 245.95 388.756 245.881 388.893 245.744C389.034 245.607 389.104 245.407 389.104 245.146V244.695C389.009 244.822 388.88 244.93 388.717 245.018C388.557 245.103 388.374 245.146 388.168 245.146C387.933 245.146 387.717 245.087 387.521 244.969C387.328 244.849 387.174 244.682 387.06 244.469C386.949 244.254 386.893 244.01 386.893 243.739C386.893 243.468 386.949 243.227 387.06 243.018C387.174 242.809 387.328 242.647 387.521 242.533C387.717 242.415 387.933 242.356 388.168 242.356ZM389.104 243.749C389.104 243.562 389.065 243.401 388.987 243.263C388.911 243.126 388.812 243.022 388.688 242.95C388.563 242.878 388.429 242.842 388.286 242.842C388.142 242.842 388.008 242.878 387.884 242.95C387.759 243.018 387.658 243.121 387.58 243.258C387.504 243.392 387.467 243.553 387.467 243.739C387.467 243.925 387.504 244.089 387.58 244.229C387.658 244.37 387.759 244.478 387.884 244.553C388.011 244.625 388.145 244.661 388.286 244.661C388.429 244.661 388.563 244.625 388.688 244.553C388.812 244.481 388.911 244.376 388.987 244.239C389.065 244.098 389.104 243.935 389.104 243.749ZM392.627 242.146V243.146H393.803V243.602H392.627V244.646H393.95V245.102H392.068V241.69H393.95V242.146H392.627ZM395.394 242.793C395.475 242.655 395.583 242.549 395.717 242.474C395.855 242.396 396.016 242.356 396.203 242.356V242.935H396.06C395.841 242.935 395.675 242.99 395.56 243.102C395.449 243.213 395.394 243.406 395.394 243.68V245.102H394.835V242.401H395.394V242.793ZM397.471 242.793C397.553 242.655 397.661 242.549 397.795 242.474C397.932 242.396 398.094 242.356 398.28 242.356V242.935H398.138C397.919 242.935 397.752 242.99 397.638 243.102C397.527 243.213 397.471 243.406 397.471 243.68V245.102H396.912V242.401H397.471V242.793ZM400.162 245.146C399.907 245.146 399.676 245.089 399.471 244.974C399.265 244.857 399.103 244.693 398.985 244.484C398.868 244.272 398.809 244.027 398.809 243.749C398.809 243.474 398.869 243.231 398.99 243.018C399.111 242.806 399.276 242.642 399.485 242.528C399.694 242.414 399.928 242.356 400.186 242.356C400.444 242.356 400.678 242.414 400.887 242.528C401.097 242.642 401.262 242.806 401.382 243.018C401.503 243.231 401.564 243.474 401.564 243.749C401.564 244.023 401.502 244.267 401.378 244.479C401.253 244.692 401.083 244.857 400.868 244.974C400.655 245.089 400.42 245.146 400.162 245.146ZM400.162 244.661C400.306 244.661 400.44 244.626 400.564 244.558C400.691 244.489 400.794 244.386 400.873 244.249C400.951 244.112 400.99 243.945 400.99 243.749C400.99 243.553 400.953 243.388 400.878 243.254C400.802 243.116 400.703 243.013 400.578 242.945C400.454 242.876 400.32 242.842 400.176 242.842C400.033 242.842 399.899 242.876 399.774 242.945C399.654 243.013 399.557 243.116 399.485 243.254C399.413 243.388 399.377 243.553 399.377 243.749C399.377 244.04 399.451 244.265 399.598 244.425C399.748 244.582 399.936 244.661 400.162 244.661ZM402.871 242.793C402.953 242.655 403.061 242.549 403.195 242.474C403.332 242.396 403.494 242.356 403.68 242.356V242.935H403.538C403.319 242.935 403.152 242.99 403.038 243.102C402.927 243.213 402.871 243.406 402.871 243.68V245.102H402.312V242.401H402.871V242.793ZM405.371 245.146C405.158 245.146 404.967 245.108 404.797 245.033C404.63 244.955 404.498 244.85 404.4 244.719C404.302 244.585 404.25 244.437 404.243 244.273H404.822C404.831 244.388 404.885 244.484 404.983 244.563C405.085 244.638 405.21 244.675 405.361 244.675C405.518 244.675 405.639 244.646 405.724 244.587C405.812 244.525 405.856 244.447 405.856 244.352C405.856 244.25 405.807 244.175 405.709 244.126C405.614 244.077 405.462 244.023 405.253 243.964C405.05 243.909 404.885 243.855 404.758 243.803C404.63 243.75 404.519 243.67 404.424 243.562C404.333 243.455 404.287 243.312 404.287 243.136C404.287 242.992 404.33 242.861 404.415 242.744C404.5 242.623 404.621 242.528 404.777 242.459C404.938 242.391 405.121 242.356 405.326 242.356C405.634 242.356 405.88 242.435 406.067 242.592C406.256 242.745 406.358 242.956 406.371 243.224H405.812C405.802 243.103 405.753 243.007 405.665 242.935C405.576 242.863 405.457 242.827 405.307 242.827C405.16 242.827 405.047 242.855 404.969 242.91C404.89 242.966 404.851 243.039 404.851 243.131C404.851 243.203 404.877 243.263 404.929 243.312C404.982 243.361 405.045 243.401 405.121 243.43C405.196 243.456 405.307 243.491 405.454 243.533C405.65 243.585 405.81 243.639 405.934 243.695C406.062 243.747 406.171 243.826 406.263 243.93C406.354 244.035 406.402 244.174 406.405 244.347C406.405 244.5 406.363 244.638 406.278 244.759C406.193 244.88 406.072 244.974 405.915 245.043C405.761 245.112 405.58 245.146 405.371 245.146Z" fill="#121212"/>
<rect x="360.788" y="251.132" width="56.9913" height="2.45124" rx="1.22562" fill="#F4F6FD"/>
<defs>
<filter id="filter0_d_516_316" x="36.6073" y="85.6741" width="66.1019" height="65.3545" filterUnits="userSpaceOnUse" color-interpolation-filters="sRGB">
<feFlood flood-opacity="0" result="BackgroundImageFix"/>
<feColorMatrix in="SourceAlpha" type="matrix" values="0 0 0 0 0 0 0 0 0 0 0 0 0 0 0 0 0 0 127 0" result="hardAlpha"/>
<feOffset dy="2.45124"/>
<feGaussianBlur stdDeviation="3.06405"/>
<feComposite in2="hardAlpha" operator="out"/>
<feColorMatrix type="matrix" values="0 0 0 0 0.862745 0 0 0 0 0.482353 0 0 0 0 0.25098 0 0 0 0.12 0"/>
<feBlend mode="normal" in2="BackgroundImageFix" result="effect1_dropShadow_516_316"/>
<feBlend mode="normal" in="SourceGraphic" in2="effect1_dropShadow_516_316" result="shape"/>
</filter>
<filter id="filter1_d_516_316" x="249.867" y="167.791" width="190.584" height="113.37" filterUnits="userSpaceOnUse" color-interpolation-filters="sRGB">
<feFlood flood-opacity="0" result="BackgroundImageFix"/>
<feColorMatrix in="SourceAlpha" type="matrix" values="0 0 0 0 0 0 0 0 0 0 0 0 0 0 0 0 0 0 127 0" result="hardAlpha"/>
<feOffset dy="2.45124"/>
<feGaussianBlur stdDeviation="1.22562"/>
<feComposite in2="hardAlpha" operator="out"/>
<feColorMatrix type="matrix" values="0 0 0 0 0 0 0 0 0 0 0 0 0 0 0 0 0 0 0.25 0"/>
<feBlend mode="normal" in2="BackgroundImageFix" result="effect1_dropShadow_516_316"/>
<feBlend mode="normal" in="SourceGraphic" in2="effect1_dropShadow_516_316" result="shape"/>
</filter>
</defs>
</svg>
