<svg width="155" height="33" viewBox="0 0 155 33" fill="none" xmlns="http://www.w3.org/2000/svg">
<path d="M44.7042 23.063C44.7042 23.8545 44.5462 24.4627 44.2303 24.8876C43.9225 25.3126 43.4082 25.5251 42.6872 25.5251C42.0067 25.5251 41.5248 25.3126 41.2412 24.8876C40.9658 24.4627 40.8281 23.8545 40.8281 23.063V9.85273C40.8281 9.06118 40.9658 8.45295 41.2412 8.02802C41.5248 7.60309 42.0067 7.39062 42.6872 7.39062C43.4082 7.39062 43.9225 7.60309 44.2303 8.02802C44.5462 8.45295 44.7042 9.06118 44.7042 9.85273V23.063Z" fill="#1D1D1D"/>
<path d="M45.8906 19.2302C45.8906 18.3469 46.0283 17.5138 46.3039 16.7306C46.5874 15.939 47.0087 15.2475 47.5678 14.6559C48.135 14.0643 48.8399 13.5936 49.6825 13.2437C50.5332 12.8937 51.5297 12.7188 52.6722 12.7188C53.766 12.7188 54.7342 12.8812 55.5768 13.2061C56.4195 13.5311 57.1284 13.9852 57.7036 14.5685C58.2789 15.1433 58.7164 15.8307 59.0162 16.6305C59.3159 17.4221 59.4659 18.2886 59.4659 19.2302C59.4659 20.105 59.324 20.934 59.0405 21.7172C58.757 22.492 58.3315 23.1753 57.7644 23.7669C57.1973 24.3501 56.4883 24.8166 55.6376 25.1667C54.7868 25.5083 53.7984 25.679 52.6722 25.679C51.5622 25.679 50.5819 25.5166 49.731 25.1916C48.8884 24.8583 48.1796 24.4042 47.6043 23.8293C47.0371 23.2461 46.6077 22.563 46.316 21.7797C46.0324 20.9882 45.8906 20.1383 45.8906 19.2302ZM49.9377 19.2302C49.9377 19.7801 49.9863 20.305 50.0835 20.8048C50.1807 21.2964 50.3347 21.7297 50.5453 22.1047C50.7641 22.4796 51.0477 22.7796 51.3961 23.0045C51.7445 23.2211 52.1698 23.3294 52.6722 23.3294C53.134 23.3294 53.535 23.2295 53.8753 23.0294C54.2238 22.8296 54.5073 22.5504 54.7261 22.1921C54.9529 21.8339 55.1231 21.4047 55.2365 20.9049C55.3499 20.3966 55.4067 19.8384 55.4067 19.2302C55.4067 18.6802 55.354 18.1594 55.2487 17.6679C55.1514 17.168 54.9935 16.7306 54.7747 16.3556C54.5559 15.9724 54.2724 15.6724 53.924 15.4558C53.5837 15.2309 53.1664 15.1183 52.6722 15.1183C52.1779 15.1183 51.7567 15.2266 51.4082 15.4433C51.0598 15.6599 50.7763 15.9556 50.5575 16.3306C50.3388 16.7056 50.1807 17.143 50.0835 17.6429C49.9863 18.1428 49.9377 18.6719 49.9377 19.2302Z" fill="#1D1D1D"/>
<path d="M69.4277 23.1155C69.2089 23.532 68.9416 23.8861 68.6256 24.1778C68.3178 24.4694 67.9734 24.711 67.5927 24.9027C67.22 25.0859 66.819 25.2234 66.3896 25.3151C65.9683 25.3984 65.5349 25.4401 65.0893 25.4401C64.3439 25.4401 63.6634 25.3026 63.0477 25.0276C62.432 24.7526 61.9013 24.3569 61.4557 23.8404C61.0182 23.3154 60.678 22.6738 60.4349 21.9157C60.1918 21.1574 60.0703 20.2909 60.0703 19.3161C60.0703 18.3996 60.1838 17.5414 60.4107 16.7415C60.6375 15.9416 60.9656 15.246 61.395 14.6544C61.8325 14.0628 62.3672 13.5962 62.9991 13.2546C63.631 12.913 64.3521 12.7422 65.1622 12.7422C66.0858 12.7422 66.9041 12.9255 67.617 13.2921C68.338 13.6587 68.9578 14.2586 69.4763 15.0918V14.7669C69.4763 14.167 69.6343 13.7171 69.9502 13.4171C70.2743 13.1088 70.7199 12.9546 71.287 12.9546C71.6273 12.9546 71.9148 13.013 72.1498 13.1296C72.3847 13.238 72.5711 13.4046 72.7088 13.6296C72.8466 13.8462 72.9438 14.117 73.0005 14.442C73.0653 14.7585 73.0977 15.121 73.0977 15.5292V23.9029C73.0977 24.9193 72.9722 25.8274 72.721 26.6273C72.4779 27.4272 72.0971 28.1022 71.5786 28.652C71.0601 29.2019 70.3958 29.6185 69.5856 29.9018C68.7755 30.1934 67.8114 30.3392 66.6934 30.3392C65.9076 30.3392 65.2108 30.3018 64.6032 30.2267C64.0037 30.1601 63.4852 30.056 63.0477 29.9143C62.6102 29.7559 62.2781 29.581 62.0512 29.3894C61.8325 29.1978 61.7231 28.9478 61.7231 28.6396C61.7231 28.4645 61.7474 28.298 61.796 28.1396C61.8446 27.9813 61.9175 27.8397 62.0147 27.7147C62.1201 27.598 62.2537 27.5023 62.4158 27.4272C62.5859 27.3606 62.7924 27.3272 63.0355 27.3272C63.2948 27.3272 63.554 27.3439 63.8133 27.3773C64.0806 27.4105 64.3561 27.4439 64.6397 27.4772C64.9313 27.5189 65.2351 27.5563 65.5511 27.5897C65.8751 27.623 66.2235 27.6397 66.5962 27.6397C67.0418 27.6397 67.4387 27.5939 67.7872 27.5023C68.1355 27.4105 68.4311 27.2481 68.6742 27.0148C68.9173 26.7815 69.1036 26.469 69.2333 26.0774C69.3629 25.6941 69.4277 25.2026 69.4277 24.6027V23.1155ZM69.4277 19.2287C69.4277 18.6203 69.3831 18.0663 69.294 17.5664C69.213 17.0665 69.0712 16.6416 68.8687 16.2916C68.6661 15.9333 68.3947 15.6584 68.0545 15.4667C67.7142 15.2668 67.2889 15.1668 66.7785 15.1668C66.2761 15.1668 65.859 15.2709 65.5268 15.4792C65.2027 15.6875 64.9435 15.975 64.7491 16.3416C64.5546 16.7082 64.4169 17.1373 64.3358 17.6289C64.2629 18.1205 64.2265 18.6454 64.2265 19.2036C64.2265 20.4784 64.4452 21.4366 64.8827 22.0781C65.3201 22.7197 65.9561 23.0405 66.7906 23.0405C67.1795 23.0322 67.532 22.9571 67.8478 22.8155C68.1719 22.6655 68.4515 22.4364 68.6864 22.1281C68.9213 21.8198 69.1036 21.4282 69.2333 20.9533C69.3629 20.4784 69.4277 19.9035 69.4277 19.2287Z" fill="#1D1D1D"/>
<path d="M74.2344 19.2302C74.2344 18.3469 74.3721 17.5138 74.6475 16.7306C74.9312 15.939 75.3524 15.2475 75.9115 14.6559C76.4787 14.0643 77.1835 13.5936 78.0261 13.2437C78.877 12.8937 79.8735 12.7188 81.0159 12.7188C82.1096 12.7188 83.0779 12.8812 83.9205 13.2061C84.7631 13.5311 85.4721 13.9852 86.0473 14.5685C86.6226 15.1433 87.0602 15.8307 87.3599 16.6305C87.6597 17.4221 87.8095 18.2886 87.8095 19.2302C87.8095 20.105 87.6678 20.934 87.3842 21.7172C87.1006 22.492 86.6753 23.1753 86.1081 23.7669C85.5409 24.3501 84.832 24.8166 83.9813 25.1667C83.1306 25.5083 82.1421 25.679 81.0159 25.679C79.9059 25.679 78.9255 25.5166 78.0748 25.1916C77.2322 24.8583 76.5232 24.4042 75.9479 23.8293C75.3809 23.2461 74.9514 22.563 74.6597 21.7797C74.3761 20.9882 74.2344 20.1383 74.2344 19.2302ZM78.2814 19.2302C78.2814 19.7801 78.33 20.305 78.4273 20.8048C78.5245 21.2964 78.6784 21.7297 78.8891 22.1047C79.1078 22.4796 79.3914 22.7796 79.7398 23.0045C80.0882 23.2211 80.5136 23.3294 81.0159 23.3294C81.4778 23.3294 81.8788 23.2295 82.2191 23.0294C82.5674 22.8296 82.8511 22.5504 83.0698 22.1921C83.2967 21.8339 83.4668 21.4047 83.5802 20.9049C83.6937 20.3966 83.7504 19.8384 83.7504 19.2302C83.7504 18.6802 83.6977 18.1594 83.5924 17.6679C83.4952 17.168 83.3371 16.7306 83.1184 16.3556C82.8997 15.9724 82.6161 15.6724 82.2677 15.4558C81.9274 15.2309 81.5101 15.1183 81.0159 15.1183C80.5217 15.1183 80.1003 15.2266 79.752 15.4433C79.4036 15.6599 79.12 15.9556 78.9012 16.3306C78.6825 16.7056 78.5245 17.143 78.4273 17.6429C78.33 18.1428 78.2814 18.6719 78.2814 19.2302Z" fill="#1D1D1D"/>
<path d="M93.0097 8.50479C93.0097 8.77975 92.9489 9.02554 92.8274 9.24217C92.7059 9.45047 92.548 9.62539 92.3536 9.76713C92.1592 9.90876 91.9323 10.017 91.6731 10.092C91.422 10.1586 91.1628 10.192 90.8954 10.192C90.6119 10.192 90.3406 10.1545 90.0814 10.0795C89.8303 10.0045 89.6075 9.89628 89.4131 9.75454C89.2187 9.6046 89.0647 9.42547 88.9513 9.21717C88.838 9.00888 88.7812 8.77141 88.7812 8.50479C88.7812 8.26317 88.8339 8.04237 88.9392 7.84241C89.0526 7.63411 89.2024 7.45498 89.3888 7.305C89.5751 7.15503 89.7979 7.03837 90.0571 6.95506C90.3163 6.87173 90.5998 6.83008 90.9077 6.83008C91.175 6.83008 91.4342 6.86758 91.6853 6.94256C91.9445 7.01755 92.1713 7.12586 92.3657 7.26751C92.5601 7.40915 92.7141 7.58412 92.8274 7.79241C92.9489 8.00072 93.0097 8.23817 93.0097 8.50479ZM92.8274 23.0648C92.8274 23.8564 92.6695 24.4646 92.3536 24.8895C92.0457 25.3145 91.5313 25.5269 90.8104 25.5269C90.13 25.5269 89.648 25.3145 89.3645 24.8895C89.0891 24.4646 88.9513 23.8564 88.9513 23.0648V15.4161C88.9513 14.6245 89.0891 14.0163 89.3645 13.5914C89.648 13.1666 90.13 12.954 90.8104 12.954C91.5313 12.954 92.0457 13.1666 92.3536 13.5914C92.6695 14.0163 92.8274 14.6245 92.8274 15.4161V23.0648Z" fill="#1D1D1D"/>
<path d="M98.42 19.2036C98.42 19.7619 98.4605 20.2826 98.5415 20.7659C98.6306 21.2491 98.7764 21.674 98.979 22.0407C99.1897 22.3989 99.4651 22.6822 99.8053 22.8904C100.154 23.0988 100.583 23.2029 101.094 23.2029C101.563 23.2029 101.956 23.103 102.273 22.903C102.596 22.6947 102.855 22.4114 103.05 22.0531C103.244 21.6865 103.382 21.2574 103.463 20.7659C103.552 20.2742 103.597 19.741 103.597 19.1662C103.597 18.7079 103.565 18.2413 103.499 17.7664C103.435 17.2831 103.314 16.8457 103.135 16.4541C102.957 16.0625 102.71 15.7417 102.394 15.4917C102.078 15.2418 101.665 15.1168 101.154 15.1168C100.644 15.1168 100.21 15.2001 99.854 15.3668C99.5055 15.5334 99.222 15.7875 99.0033 16.1291C98.7926 16.4707 98.6428 16.8999 98.5537 17.4164C98.4645 17.9247 98.42 18.5204 98.42 19.2036ZM98.4079 15.4167C98.6104 14.9752 98.8697 14.5877 99.1856 14.2545C99.5015 13.9212 99.8499 13.6421 100.231 13.4171C100.612 13.1921 101.008 13.0254 101.422 12.9172C101.843 12.8005 102.26 12.7422 102.673 12.7422C103.418 12.7422 104.091 12.913 104.691 13.2546C105.29 13.5962 105.8 14.0628 106.221 14.6544C106.651 15.2377 106.98 15.9292 107.207 16.729C107.433 17.5206 107.547 18.3705 107.547 19.2786C107.547 20.2201 107.424 21.0824 107.182 21.8657C106.947 22.6489 106.61 23.3238 106.173 23.8903C105.743 24.4486 105.225 24.8859 104.617 25.2026C104.018 25.5192 103.35 25.6775 102.613 25.6775C101.705 25.6775 100.895 25.4609 100.182 25.0276C99.4691 24.5944 98.8777 23.9861 98.4079 23.2029V27.7022C98.4079 28.4937 98.2498 29.102 97.9339 29.5269C97.626 29.9518 97.1116 30.1643 96.3905 30.1643C95.71 30.1643 95.2279 29.9518 94.9444 29.5269C94.669 29.102 94.5312 28.4937 94.5312 27.7022V15.4167C94.5312 14.6252 94.669 14.017 94.9444 13.5921C95.2279 13.1672 95.71 12.9546 96.3905 12.9546C97.1116 12.9546 97.626 13.1672 97.9339 13.5921C98.2498 14.017 98.4079 14.6252 98.4079 15.4167Z" fill="#1D1D1D"/>
<path d="M111.818 16.3057C111.818 16.6305 111.956 16.8847 112.231 17.068C112.506 17.243 112.887 17.3888 113.373 17.5055C113.835 17.6137 114.309 17.7179 114.795 17.8178C115.282 17.9179 115.755 18.0345 116.217 18.1679C116.678 18.2927 117.112 18.4428 117.517 18.6177C117.922 18.7927 118.278 19.0135 118.586 19.2801C118.894 19.5384 119.137 19.855 119.315 20.2299C119.494 20.5966 119.583 21.0382 119.583 21.5547C119.583 22.2046 119.453 22.7837 119.194 23.2919C118.935 23.7919 118.567 24.2168 118.089 24.5668C117.619 24.9167 117.056 25.1875 116.399 25.3791C115.743 25.5708 115.018 25.6707 114.224 25.679C113.471 25.679 112.745 25.6291 112.048 25.5291C111.352 25.4375 110.732 25.2916 110.189 25.0916C109.655 24.8916 109.225 24.6459 108.901 24.3542C108.577 24.0543 108.416 23.7044 108.416 23.3045C108.416 22.9545 108.524 22.6837 108.743 22.492C108.962 22.3005 109.241 22.2046 109.582 22.2046C109.712 22.2046 109.865 22.2296 110.044 22.2796C110.222 22.3296 110.416 22.3921 110.626 22.4671C110.837 22.542 111.06 22.6253 111.295 22.7171C111.538 22.8004 111.789 22.8753 112.048 22.942C112.373 23.0337 112.705 23.1087 113.045 23.167C113.393 23.2169 113.75 23.242 114.115 23.242C114.341 23.242 114.564 23.2211 114.783 23.1795C115.002 23.1295 115.196 23.0587 115.367 22.967C115.545 22.867 115.69 22.742 115.804 22.5921C115.917 22.4421 115.986 22.2588 116.011 22.0422C116.034 21.9922 116.055 21.9421 116.071 21.8921C116.087 21.8422 116.096 21.7839 116.096 21.7172C116.096 21.4839 115.99 21.2756 115.779 21.0923C115.577 20.909 115.289 20.7631 114.916 20.6549C114.292 20.505 113.697 20.3675 113.13 20.2425C112.564 20.1175 112.037 19.9842 111.55 19.8426C111.072 19.7009 110.635 19.5384 110.238 19.3551C109.849 19.1718 109.517 18.9468 109.241 18.6802C108.974 18.4136 108.763 18.0928 108.609 17.7179C108.463 17.3429 108.391 16.8888 108.391 16.3556C108.391 15.7807 108.516 15.2683 108.767 14.8183C109.026 14.3601 109.395 13.9769 109.874 13.6686C110.352 13.3602 110.93 13.127 111.612 12.9687C112.292 12.802 113.061 12.7188 113.92 12.7188C115.459 12.7188 116.63 12.9104 117.432 13.2936C118.242 13.6686 118.648 14.1601 118.648 14.7684C118.648 15.11 118.538 15.3725 118.319 15.5557C118.1 15.7307 117.837 15.8182 117.53 15.8182C117.367 15.8182 117.197 15.7891 117.018 15.7307C116.848 15.6641 116.642 15.5933 116.399 15.5183C116.156 15.435 115.864 15.3642 115.524 15.3058C115.192 15.2392 114.779 15.2058 114.285 15.2058C113.912 15.2058 113.571 15.2224 113.263 15.2558C112.964 15.2891 112.705 15.3474 112.486 15.4307C112.275 15.5141 112.109 15.6265 111.988 15.7683C111.874 15.9099 111.818 16.089 111.818 16.3057Z" fill="#1D1D1D"/>
<path d="M124.525 20.8932C124.525 21.2848 124.573 21.6264 124.671 21.9181C124.776 22.2097 124.918 22.4555 125.096 22.6554C125.274 22.8471 125.481 22.9929 125.715 23.0928C125.959 23.1845 126.218 23.2304 126.493 23.2304C126.818 23.2304 127.13 23.1804 127.429 23.0803C127.729 22.9804 127.992 22.8262 128.22 22.6179C128.454 22.4096 128.641 22.1472 128.779 21.8305C128.915 21.514 128.985 21.1432 128.985 20.7183V15.4191C128.985 14.6276 129.123 14.0194 129.398 13.5945C129.682 13.1696 130.164 12.957 130.844 12.957C131.565 12.957 132.079 13.1696 132.387 13.5945C132.704 14.0194 132.861 14.6276 132.861 15.4191V23.0679C132.861 23.8594 132.704 24.4676 132.387 24.8925C132.079 25.3175 131.565 25.5299 130.844 25.5299C130.164 25.5299 129.682 25.3175 129.398 24.8925C129.123 24.4676 128.985 23.8594 128.985 23.0679C128.815 23.4511 128.592 23.8011 128.316 24.1177C128.048 24.4343 127.733 24.7093 127.368 24.9425C127.011 25.1676 126.615 25.3425 126.178 25.4674C125.748 25.5924 125.282 25.6549 124.78 25.6549C124.237 25.6549 123.715 25.5591 123.212 25.3675C122.718 25.1676 122.281 24.8759 121.9 24.4926C121.52 24.1011 121.216 23.6177 120.989 23.0429C120.761 22.468 120.648 21.7972 120.648 21.0307V15.4191C120.648 14.6276 120.786 14.0194 121.061 13.5945C121.345 13.1696 121.826 12.957 122.508 12.957C123.228 12.957 123.743 13.1696 124.051 13.5945C124.367 14.0194 124.525 14.6276 124.525 15.4191V20.8932Z" fill="#1D1D1D"/>
<path d="M134.609 15.4167C134.609 14.6252 134.747 14.017 135.023 13.5921C135.306 13.1672 135.789 12.9546 136.469 12.9546C137.191 12.9546 137.705 13.1672 138.013 13.5921C138.328 14.017 138.487 14.6252 138.487 15.4167C138.649 15.0168 138.868 14.6544 139.143 14.3294C139.427 13.9962 139.747 13.7129 140.103 13.4796C140.468 13.2463 140.861 13.0671 141.282 12.9422C141.703 12.8088 142.141 12.7422 142.595 12.7422C143.016 12.7422 143.429 12.8005 143.834 12.9172C144.247 13.0254 144.628 13.2046 144.977 13.4546C145.333 13.6962 145.645 14.0045 145.912 14.3795C146.18 14.7543 146.386 15.2043 146.532 15.7292C146.783 15.171 147.079 14.7003 147.419 14.317C147.759 13.9337 148.128 13.6253 148.525 13.3921C148.922 13.1588 149.336 12.9922 149.765 12.8921C150.203 12.7922 150.639 12.7422 151.077 12.7422C151.595 12.7422 152.09 12.8381 152.56 13.0296C153.038 13.2213 153.455 13.5129 153.812 13.9046C154.177 14.2877 154.464 14.7752 154.674 15.3668C154.893 15.95 155.002 16.6333 155.002 17.4164V23.0655C155.002 23.857 154.845 24.4652 154.528 24.8901C154.221 25.3151 153.706 25.5275 152.985 25.5275C152.305 25.5275 151.823 25.3151 151.539 24.8901C151.264 24.4652 151.126 23.857 151.126 23.0655V17.5914C151.126 17.2164 151.077 16.8831 150.98 16.5916C150.883 16.2916 150.745 16.0417 150.567 15.8417C150.397 15.6334 150.194 15.4792 149.959 15.3793C149.725 15.2709 149.473 15.2168 149.206 15.2168C148.873 15.2168 148.558 15.2709 148.258 15.3793C147.958 15.4875 147.695 15.6542 147.468 15.8792C147.249 16.1042 147.071 16.3916 146.933 16.7415C146.803 17.0914 146.739 17.5123 146.739 18.0038V23.0655C146.739 23.857 146.58 24.4652 146.265 24.8901C145.957 25.3151 145.443 25.5275 144.721 25.5275C144.04 25.5275 143.558 25.3151 143.275 24.8901C142.999 24.4652 142.861 23.857 142.861 23.0655V17.8288C142.861 16.9707 142.687 16.3208 142.34 15.8792C141.998 15.4376 141.533 15.2168 140.942 15.2168C140.593 15.2168 140.269 15.2751 139.969 15.3918C139.669 15.5084 139.41 15.6792 139.191 15.9042C138.972 16.1291 138.798 16.4082 138.668 16.7415C138.547 17.0748 138.487 17.4581 138.487 17.8913V23.0655C138.487 23.857 138.328 24.4652 138.013 24.8901C137.705 25.3151 137.191 25.5275 136.469 25.5275C135.789 25.5275 135.306 25.3151 135.023 24.8901C134.747 24.4652 134.609 23.857 134.609 23.0655V15.4167Z" fill="#1D1D1D"/>
<path d="M15.558 23.4013C12.1216 23.4013 9.33594 20.5364 9.33594 17.0024C9.33594 13.4684 12.1216 10.6035 15.558 10.6035C18.9943 10.6035 21.78 13.4684 21.78 17.0024C21.78 20.5364 18.9943 23.4013 15.558 23.4013Z" fill="#1D1D1D"/>
<path d="M3.50307 19.1872C1.69985 19.5142 0.463835 21.3055 1.15603 23.0487C2.12243 25.4825 3.66418 27.6508 5.66296 29.3453C8.52106 31.768 12.1259 33.0626 15.8294 32.9962C19.5328 32.9297 23.0916 31.5065 25.8658 28.9826C27.8058 27.2175 29.273 24.9951 30.1563 22.5282C30.7889 20.7611 29.4928 19.0153 27.6796 18.7533C25.8664 18.4912 24.2384 19.8484 23.3428 21.4908C22.8573 22.381 22.2271 23.1887 21.4721 23.8756C19.8804 25.3238 17.8385 26.1403 15.7137 26.1784C13.5889 26.2165 11.5205 25.4738 9.88067 24.0837C9.10276 23.4242 8.44556 22.6397 7.93015 21.7675C6.97936 20.1582 5.30629 18.8602 3.50307 19.1872Z" fill="#1D1D1D"/>
<path d="M30.9921 18.9945C31.0716 18.3395 31.1124 17.6723 31.1124 16.9953C31.1124 8.16028 24.1477 0.998047 15.5562 0.998047C6.96475 0.998047 0 8.16028 0 16.9953C0 17.8642 0.0673584 18.7169 0.197004 19.5482C0.911531 18.5423 2.02672 17.8242 3.23129 17.6058C4.53458 17.3695 5.71906 17.6945 6.72056 18.3021C6.6614 17.8753 6.63078 17.439 6.63078 16.9953C6.63078 11.9262 10.6269 7.81684 15.5562 7.81684C20.4856 7.81684 24.4816 11.9262 24.4816 16.9953C24.4816 17.3296 24.4642 17.6597 24.4304 17.9846C25.4108 17.3412 26.5837 16.9736 27.8945 17.1631C29.1054 17.3381 30.2439 18.0153 30.9921 18.9945Z" fill="#1D1D1D"/>
</svg>
