<svg width="81" height="80" viewBox="0 0 81 80" fill="none" xmlns="http://www.w3.org/2000/svg">
<circle cx="40.5" cy="40" r="40" fill="#FFF1E8"/>
<path d="M37.9672 47.1894L32.375 55.9992H48.625L43.0328 47.1894C41.8545 45.333 39.1455 45.333 37.9672 47.1894Z" fill="#FFAE7F"/>
<path d="M48.625 32H32.375L35.625 38.4H45.375L48.625 32Z" fill="#FFAE7F"/>
<path fill-rule="evenodd" clip-rule="evenodd" d="M27.5 25.6C27.5 24.7163 28.2275 24 29.125 24H51.875C52.7725 24 53.5 24.7163 53.5 25.6C53.5 26.4837 52.7725 27.2 51.875 27.2V28.1245C51.875 30.6515 51.1153 33.122 49.6917 35.2246L46.4583 40L49.6917 44.7754C51.1153 46.878 51.875 49.3485 51.875 51.8755V52.8C52.7725 52.8 53.5 53.5163 53.5 54.4C53.5 55.2837 52.7725 56 51.875 56H29.125C28.2275 56 27.5 55.2837 27.5 54.4C27.5 53.5163 28.2275 52.8 29.125 52.8V51.8755C29.125 49.3485 29.8847 46.878 31.3083 44.7754L34.5417 40L31.3083 35.2246C29.8847 33.122 29.125 30.6515 29.125 28.1245V27.2C28.2275 27.2 27.5 26.4837 27.5 25.6ZM32.375 52.8H48.625V51.8755C48.625 49.9802 48.0552 48.1274 46.9875 46.5504L43.6357 41.6H37.3643L34.0125 46.5504C32.9448 48.1274 32.375 49.9802 32.375 51.8755V52.8ZM32.375 27.2H48.625V28.1245C48.625 30.0198 48.0552 31.8726 46.9875 33.4496L43.6357 38.4H37.3643L34.0125 33.4496C32.9448 31.8726 32.375 30.0198 32.375 28.1245V27.2Z" fill="#EB742E"/>
</svg>
