<svg width="40" height="40" viewBox="0 0 40 40" fill="none" xmlns="http://www.w3.org/2000/svg">
<rect width="40" height="40" rx="5" fill="#EB742E"/>
<path d="M18 14C16.3431 14 15 15.3431 15 17V21H25V17C25 15.3431 23.6569 14 22 14H18Z" fill="white"/>
<path d="M25 23H15C15 24.6569 16.3431 26 18 26H22C23.6569 26 25 24.6569 25 23Z" fill="white"/>
<path fill-rule="evenodd" clip-rule="evenodd" d="M10 20C10 19.4477 10.4477 19 11 19H29C29.5523 19 30 19.4477 30 20C30 20.5523 29.5523 21 29 21H11C10.4477 21 10 20.5523 10 20Z" fill="white"/>
<path fill-rule="evenodd" clip-rule="evenodd" d="M10 13C10 11.3431 11.3431 10 13 10H15C15.5523 10 16 10.4477 16 11C16 11.5523 15.5523 12 15 12H13C12.4477 12 12 12.4477 12 13V15C12 15.5523 11.5523 16 11 16C10.4477 16 10 15.5523 10 15V13Z" fill="white"/>
<path fill-rule="evenodd" clip-rule="evenodd" d="M10 27C10 28.6569 11.3431 30 13 30H15C15.5523 30 16 29.5523 16 29C16 28.4477 15.5523 28 15 28H13C12.4477 28 12 27.5523 12 27V25C12 24.4477 11.5523 24 11 24C10.4477 24 10 24.4477 10 25V27Z" fill="white"/>
<path fill-rule="evenodd" clip-rule="evenodd" d="M30 27C30 28.6569 28.6569 30 27 30H25C24.4477 30 24 29.5523 24 29C24 28.4477 24.4477 28 25 28H27C27.5523 28 28 27.5523 28 27V25C28 24.4477 28.4477 24 29 24C29.5523 24 30 24.4477 30 25V27Z" fill="white"/>
<path fill-rule="evenodd" clip-rule="evenodd" d="M30 13C30 11.3431 28.6569 10 27 10H25C24.4477 10 24 10.4477 24 11C24 11.5523 24.4477 12 25 12H27C27.5523 12 28 12.4477 28 13V15C28 15.5523 28.4477 16 29 16C29.5523 16 30 15.5523 30 15V13Z" fill="white"/>
</svg>
