<svg width="171" height="33" viewBox="0 0 171 33" fill="none" xmlns="http://www.w3.org/2000/svg">
<g clip-path="url(#clip0_1358_3711)">
<path d="M11.5253 27.4455C8.23087 30.7406 2.65137 30.7275 1.09317 26.3359C0.788093 25.4761 0.544176 24.592 0.364775 23.6899C-0.367715 20.0066 0.00822533 16.1889 1.44506 12.7193C2.88189 9.24985 5.31508 6.2844 8.43693 4.19802C11.5588 2.11165 15.2292 0.998047 18.9838 0.998047C22.7384 0.998047 26.4087 2.11165 29.5305 4.19802C32.6524 6.2844 35.0856 9.24985 36.5224 12.7194C37.9592 16.1889 38.3351 20.0066 37.6027 23.6899C37.4233 24.592 37.1794 25.4761 36.8742 26.3359C35.316 30.7275 29.7366 30.7406 26.4421 27.4455L21.3567 22.359C20.8708 21.8731 20.921 21.0716 21.0551 20.3977C21.1365 19.988 21.0947 19.5632 20.9348 19.1772C20.775 18.7913 20.5043 18.4613 20.157 18.2293C19.8097 17.9972 19.4014 17.8733 18.9838 17.8733C18.5661 17.8733 18.1578 17.9972 17.8105 18.2293C17.4631 18.4613 17.1925 18.7913 17.0326 19.1772C16.8727 19.5632 16.8309 19.988 16.9125 20.3977C17.0465 21.0716 17.0966 21.8731 16.6107 22.359L11.5253 27.4455Z" fill="#1D1D1D"/>
<path d="M53.4111 22.8898H58.5139V25.8975H49.5156V9.90234H53.4111V22.8898Z" fill="#1D1D1D"/>
<path d="M65.4748 26.0747C64.2295 26.0747 63.1057 25.8089 62.1033 25.2773C61.1162 24.7456 60.334 23.9861 59.7569 22.9987C59.1951 22.0114 58.9141 20.8569 58.9141 19.5353C58.9141 18.2291 59.2026 17.0822 59.7797 16.0948C60.3569 15.0923 61.1466 14.3252 62.1488 13.7936C63.1512 13.2619 64.2751 12.9961 65.5204 12.9961C66.7657 12.9961 67.8896 13.2619 68.8919 13.7936C69.8943 14.3252 70.684 15.0923 71.2611 16.0948C71.8382 17.0822 72.1268 18.2291 72.1268 19.5353C72.1268 20.8417 71.8305 21.9962 71.2383 22.9987C70.6612 23.9861 69.8639 24.7456 68.8463 25.2773C67.844 25.8089 66.7202 26.0747 65.4748 26.0747ZM65.4748 22.7025C66.219 22.7025 66.8492 22.4291 67.3657 21.8823C67.8972 21.3354 68.163 20.5532 68.163 19.5353C68.163 18.5176 67.9047 17.7354 67.3884 17.1885C66.8872 16.6417 66.2645 16.3682 65.5204 16.3682C64.7611 16.3682 64.1308 16.6417 63.6296 17.1885C63.1284 17.7202 62.8778 18.5024 62.8778 19.5353C62.8778 20.5532 63.1209 21.3354 63.6069 21.8823C64.1081 22.4291 64.7307 22.7025 65.4748 22.7025Z" fill="#1D1D1D"/>
<path d="M78.3383 12.9961C79.2344 12.9961 80.0165 13.1784 80.6848 13.543C81.3681 13.9074 81.8921 14.386 82.2566 14.9783V13.1784H86.152V25.8696C86.152 27.0392 85.9167 28.095 85.4458 29.0367C84.9902 29.9937 84.284 30.7532 83.3273 31.3152C82.3857 31.8773 81.2087 32.1584 79.7963 32.1584C77.9131 32.1584 76.3868 31.7102 75.2174 30.814C74.0481 29.9329 73.3798 28.7329 73.2127 27.2139H77.0627C77.1841 27.7 77.4727 28.0798 77.9284 28.3532C78.3839 28.6418 78.9459 28.7861 79.6141 28.7861C80.419 28.7861 81.0568 28.5506 81.5276 28.0798C82.0136 27.6241 82.2566 26.8874 82.2566 25.8696V24.0696C81.8769 24.662 81.353 25.1482 80.6848 25.5278C80.0165 25.8924 79.2344 26.0747 78.3383 26.0747C77.2905 26.0747 76.3413 25.8089 75.4908 25.2773C74.6403 24.7304 73.9645 23.9633 73.4634 22.9759C72.9774 21.9734 72.7344 20.819 72.7344 19.5126C72.7344 18.2062 72.9774 17.0594 73.4634 16.0721C73.9645 15.0847 74.6403 14.3252 75.4908 13.7936C76.3413 13.2619 77.2905 12.9961 78.3383 12.9961ZM82.2566 19.5353C82.2566 18.5632 81.9833 17.7961 81.4365 17.2341C80.905 16.6721 80.2519 16.3911 79.4774 16.3911C78.7028 16.3911 78.0422 16.6721 77.4955 17.2341C76.9639 17.781 76.6981 18.5405 76.6981 19.5126C76.6981 20.4848 76.9639 21.2595 77.4955 21.8367C78.0422 22.3987 78.7028 22.6797 79.4774 22.6797C80.2519 22.6797 80.905 22.3987 81.4365 21.8367C81.9833 21.2746 82.2566 20.5076 82.2566 19.5353Z" fill="#1D1D1D"/>
<path d="M94.0764 26.0747C92.8311 26.0747 91.7072 25.8089 90.7049 25.2773C89.7178 24.7456 88.9356 23.9861 88.3585 22.9987C87.7966 22.0114 87.5156 20.8569 87.5156 19.5353C87.5156 18.2291 87.8041 17.0822 88.3813 16.0948C88.9584 15.0923 89.7481 14.3252 90.7504 13.7936C91.7528 13.2619 92.8766 12.9961 94.122 12.9961C95.3673 12.9961 96.4911 13.2619 97.4934 13.7936C98.4958 14.3252 99.2855 15.0923 99.8626 16.0948C100.44 17.0822 100.728 18.2291 100.728 19.5353C100.728 20.8417 100.432 21.9962 99.8399 22.9987C99.2628 23.9861 98.4655 24.7456 97.4479 25.2773C96.4456 25.8089 95.3217 26.0747 94.0764 26.0747ZM94.0764 22.7025C94.8205 22.7025 95.4508 22.4291 95.9672 21.8823C96.4988 21.3354 96.7645 20.5532 96.7645 19.5353C96.7645 18.5176 96.5063 17.7354 95.9899 17.1885C95.4888 16.6417 94.8661 16.3682 94.122 16.3682C93.3626 16.3682 92.7323 16.6417 92.2311 17.1885C91.7301 17.7202 91.4794 18.5024 91.4794 19.5353C91.4794 20.5532 91.7224 21.3354 92.2084 21.8823C92.7096 22.4291 93.3323 22.7025 94.0764 22.7025Z" fill="#1D1D1D"/>
<path d="M104.066 11.8598C103.382 11.8598 102.82 11.6623 102.38 11.2674C101.955 10.8572 101.742 10.356 101.742 9.76355C101.742 9.15595 101.955 8.65467 102.38 8.25973C102.82 7.8496 103.382 7.64453 104.066 7.64453C104.734 7.64453 105.281 7.8496 105.706 8.25973C106.146 8.65467 106.367 9.15595 106.367 9.76355C106.367 10.356 106.146 10.8572 105.706 11.2674C105.281 11.6623 104.734 11.8598 104.066 11.8598ZM106.002 13.1813V25.8954H102.107V13.1813H106.002Z" fill="#1D1D1D"/>
<path d="M112.036 14.9783C112.415 14.386 112.939 13.9074 113.608 13.543C114.276 13.1784 115.059 12.9961 115.954 12.9961C117.003 12.9961 117.951 13.2619 118.802 13.7936C119.652 14.3252 120.321 15.0847 120.806 16.0721C121.307 17.0594 121.559 18.2062 121.559 19.5126C121.559 20.819 121.307 21.9734 120.806 22.9759C120.321 23.9633 119.652 24.7304 118.802 25.2773C117.951 25.8089 117.003 26.0747 115.954 26.0747C115.073 26.0747 114.292 25.8924 113.608 25.5278C112.939 25.1633 112.415 24.6924 112.036 24.1152V31.9532H108.141V13.1784H112.036V14.9783ZM117.595 19.5126C117.595 18.5405 117.321 17.781 116.774 17.2341C116.242 16.6721 115.583 16.3911 114.793 16.3911C114.018 16.3911 113.357 16.6721 112.81 17.2341C112.28 17.7961 112.014 18.5632 112.014 19.5353C112.014 20.5076 112.28 21.2746 112.81 21.8367C113.357 22.3987 114.018 22.6797 114.793 22.6797C115.567 22.6797 116.228 22.3987 116.774 21.8367C117.321 21.2595 117.595 20.4848 117.595 19.5126Z" fill="#1D1D1D"/>
<path d="M128.089 26.0747C126.98 26.0747 125.993 25.8848 125.127 25.5051C124.262 25.1253 123.578 24.6089 123.077 23.9557C122.576 23.2873 122.295 22.543 122.234 21.7227H126.085C126.13 22.1632 126.335 22.5202 126.699 22.7936C127.064 23.067 127.512 23.2038 128.044 23.2038C128.529 23.2038 128.901 23.1126 129.159 22.9303C129.433 22.7329 129.57 22.4822 129.57 22.1784C129.57 21.8139 129.38 21.548 129 21.381C128.621 21.1987 128.005 21.0013 127.155 20.7885C126.243 20.5759 125.484 20.3557 124.877 20.1278C124.27 19.8848 123.746 19.5126 123.306 19.0113C122.864 18.4949 122.645 17.8037 122.645 16.9379C122.645 16.2088 122.842 15.548 123.237 14.9556C123.647 14.348 124.239 13.8695 125.013 13.5201C125.803 13.1708 126.738 12.9961 127.816 12.9961C129.41 12.9961 130.663 13.391 131.574 14.1809C132.501 14.9708 133.033 16.0189 133.17 17.3253H129.57C129.509 16.8848 129.312 16.5354 128.977 16.2771C128.658 16.0189 128.234 15.8898 127.702 15.8898C127.246 15.8898 126.897 15.9809 126.654 16.1632C126.411 16.3303 126.29 16.5657 126.29 16.8695C126.29 17.2341 126.48 17.5075 126.859 17.6898C127.254 17.8721 127.861 18.0544 128.682 18.2366C129.623 18.4797 130.389 18.7228 130.982 18.9658C131.574 19.1936 132.091 19.5733 132.531 20.1051C132.986 20.6215 133.223 21.3202 133.238 22.2013C133.238 22.9456 133.025 23.6139 132.599 24.2064C132.19 24.7836 131.59 25.2393 130.8 25.5734C130.025 25.9077 129.122 26.0747 128.089 26.0747Z" fill="#1D1D1D"/>
<path d="M147.494 13.1836V25.8976H143.599V24.166C143.204 24.728 142.664 25.1837 141.981 25.5331C141.313 25.8673 140.569 26.0344 139.749 26.0344C138.777 26.0344 137.918 25.8217 137.175 25.3963C136.43 24.9558 135.853 24.3254 135.444 23.5053C135.033 22.6849 134.828 21.7204 134.828 20.6115V13.1836H138.7V20.0874C138.7 20.9381 138.921 21.5988 139.361 22.0698C139.801 22.5406 140.394 22.7761 141.139 22.7761C141.898 22.7761 142.498 22.5406 142.938 22.0698C143.378 21.5988 143.599 20.9381 143.599 20.0874V13.1836H147.494Z" fill="#1D1D1D"/>
<path d="M165.829 13.0469C167.408 13.0469 168.661 13.5253 169.588 14.4824C170.529 15.4393 171 16.7684 171 18.4697V25.8976H167.128V18.9938C167.128 18.1735 166.907 17.5431 166.467 17.1026C166.041 16.6469 165.449 16.419 164.689 16.419C163.93 16.419 163.33 16.6469 162.89 17.1026C162.465 17.5431 162.252 18.1735 162.252 18.9938V25.8976H158.379V18.9938C158.379 18.1735 158.159 17.5431 157.719 17.1026C157.293 16.6469 156.701 16.419 155.942 16.419C155.183 16.419 154.583 16.6469 154.143 17.1026C153.717 17.5431 153.505 18.1735 153.505 18.9938V25.8976H149.609V13.1836H153.505V14.7785C153.9 14.2469 154.416 13.8291 155.054 13.5253C155.691 13.2063 156.413 13.0469 157.217 13.0469C158.175 13.0469 159.025 13.2519 159.769 13.662C160.528 14.0722 161.12 14.657 161.546 15.4165C161.986 14.7177 162.587 14.1481 163.346 13.7076C164.105 13.2671 164.933 13.0469 165.829 13.0469Z" fill="#1D1D1D"/>
</g>
<defs>
<clipPath id="clip0_1358_3711">
<rect width="171" height="32" fill="white" transform="translate(0 0.998047)"/>
</clipPath>
</defs>
</svg>
