<svg width="24" height="25" viewBox="0 0 24 25" fill="none" xmlns="http://www.w3.org/2000/svg">
<rect x="2" y="4.5" width="20" height="18" rx="3" fill="#474BC5"/>
<path fill-rule="evenodd" clip-rule="evenodd" d="M7 2.5C7.55228 2.5 8 2.94772 8 3.5V7.5C8 8.05228 7.55228 8.5 7 8.5C6.44772 8.5 6 8.05228 6 7.5V3.5C6 2.94772 6.44772 2.5 7 2.5Z" fill="white"/>
<path fill-rule="evenodd" clip-rule="evenodd" d="M17 2.5C17.5523 2.5 18 2.94772 18 3.5V7.5C18 8.05228 17.5523 8.5 17 8.5C16.4477 8.5 16 8.05228 16 7.5V3.5C16 2.94772 16.4477 2.5 17 2.5Z" fill="white"/>
<path fill-rule="evenodd" clip-rule="evenodd" d="M16.7071 10.7929C17.0976 11.1834 17.0976 11.8166 16.7071 12.2071L11.7071 17.2071C11.3166 17.5976 10.6834 17.5976 10.2929 17.2071L7.79289 14.7071C7.40237 14.3166 7.40237 13.6834 7.79289 13.2929C8.18342 12.9024 8.81658 12.9024 9.20711 13.2929L11 15.0858L15.2929 10.7929C15.6834 10.4024 16.3166 10.4024 16.7071 10.7929Z" fill="white"/>
</svg>
