<svg width="24" height="25" viewBox="0 0 24 25" fill="none" xmlns="http://www.w3.org/2000/svg">
<rect x="2" y="4.5" width="20" height="18" rx="3" fill="#474BC5"/>
<path fill-rule="evenodd" clip-rule="evenodd" d="M7 2.5C7.55228 2.5 8 2.94772 8 3.5V7.5C8 8.05228 7.55228 8.5 7 8.5C6.44772 8.5 6 8.05228 6 7.5V3.5C6 2.94772 6.44772 2.5 7 2.5Z" fill="white"/>
<path fill-rule="evenodd" clip-rule="evenodd" d="M17 2.5C17.5523 2.5 18 2.94772 18 3.5V7.5C18 8.05228 17.5523 8.5 17 8.5C16.4477 8.5 16 8.05228 16 7.5V3.5C16 2.94772 16.4477 2.5 17 2.5Z" fill="white"/>
<path d="M13 10.5C13 9.94772 12.5523 9.5 12 9.5C11.4477 9.5 11 9.94772 11 10.5L11 12.5H9C8.44772 12.5 8 12.9477 8 13.5C8 14.0523 8.44772 14.5 9 14.5H11L11 16.5C11 17.0523 11.4477 17.5 12 17.5C12.5523 17.5 13 17.0523 13 16.5L13 14.5H15C15.5523 14.5 16 14.0523 16 13.5C16 12.9477 15.5523 12.5 15 12.5H13L13 10.5Z" fill="white"/>
</svg>
