<svg width="40" height="40" viewBox="0 0 40 40" fill="none" xmlns="http://www.w3.org/2000/svg">
<rect width="40" height="40" rx="5" fill="#EB742E"/>
<path d="M30.8997 21.4963C31.6752 20.7209 32.073 19.6453 31.9889 18.5519L31.483 11.9744C31.3409 10.127 29.873 8.65915 28.0256 8.51704L21.4481 8.01108C20.3547 7.92697 19.2791 8.32485 18.5037 9.10028L9.10027 18.5037C7.63324 19.9707 7.63324 22.3493 9.10027 23.8163L16.1837 30.8997C17.6507 32.3668 20.0293 32.3668 21.4963 30.8997L30.8997 21.4963Z" fill="white"/>
<path d="M23.2611 14.0775C22.5276 14.811 22.5276 16.0003 23.2611 16.7338C23.9946 17.4673 25.1838 17.4673 25.9174 16.7338C26.6509 16.0003 26.6509 14.811 25.9174 14.0775C25.1838 13.344 23.9946 13.344 23.2611 14.0775Z" fill="#EB742E"/>
<path fill-rule="evenodd" clip-rule="evenodd" d="M14.4136 22.0458L17.9553 25.5875C18.4444 26.0765 19.2372 26.0765 19.7262 25.5875C20.2152 25.0985 20.2152 24.3057 19.7262 23.8167L16.1845 20.275C15.6955 19.786 14.9026 19.786 14.4136 20.275C13.9246 20.764 13.9246 21.5568 14.4136 22.0458Z" fill="#EB742E"/>
</svg>
