<svg width="238" height="260" viewBox="0 0 238 260" fill="none" xmlns="http://www.w3.org/2000/svg">
<g filter="url(#filter0_d_1358_3886)">
<rect x="8" width="230" height="252" rx="10" fill="white"/>
</g>
<path d="M68.336 38.16C67.4507 38.16 66.6987 38 66.08 37.68C65.4613 37.36 64.9067 36.8907 64.416 36.272L65.664 35.024C65.9733 35.472 66.3413 35.824 66.768 36.08C67.1947 36.3253 67.7387 36.448 68.4 36.448C69.0187 36.448 69.5093 36.32 69.872 36.064C70.2453 35.808 70.432 35.456 70.432 35.008C70.432 34.6347 70.336 34.3307 70.144 34.096C69.952 33.8613 69.696 33.6693 69.376 33.52C69.0667 33.36 68.72 33.2213 68.336 33.104C67.9627 32.976 67.584 32.8373 67.2 32.688C66.8267 32.528 66.48 32.3307 66.16 32.096C65.8507 31.8613 65.6 31.5573 65.408 31.184C65.216 30.8107 65.12 30.336 65.12 29.76C65.12 29.0987 65.28 28.5387 65.6 28.08C65.9307 27.6107 66.3733 27.2533 66.928 27.008C67.4827 26.7627 68.1013 26.64 68.784 26.64C69.52 26.64 70.176 26.784 70.752 27.072C71.3387 27.36 71.8133 27.728 72.176 28.176L70.928 29.424C70.608 29.0613 70.272 28.7947 69.92 28.624C69.5787 28.4427 69.184 28.352 68.736 28.352C68.1813 28.352 67.744 28.464 67.424 28.688C67.1147 28.912 66.96 29.2267 66.96 29.632C66.96 29.9733 67.056 30.2507 67.248 30.464C67.44 30.6667 67.6907 30.8427 68 30.992C68.32 31.1307 68.6667 31.264 69.04 31.392C69.424 31.52 69.8027 31.664 70.176 31.824C70.56 31.984 70.9067 32.192 71.216 32.448C71.536 32.6933 71.792 33.0133 71.984 33.408C72.176 33.8027 72.272 34.2987 72.272 34.896C72.272 35.8987 71.9147 36.6933 71.2 37.28C70.496 37.8667 69.5413 38.16 68.336 38.16ZM77.3089 38.16C76.5515 38.16 75.8635 37.984 75.2449 37.632C74.6369 37.28 74.1569 36.8 73.8049 36.192C73.4529 35.584 73.2769 34.9067 73.2769 34.16C73.2769 33.4027 73.4529 32.7253 73.8049 32.128C74.1569 31.52 74.6369 31.04 75.2449 30.688C75.8635 30.336 76.5515 30.16 77.3089 30.16C77.9062 30.16 78.4609 30.2773 78.9729 30.512C79.4955 30.736 79.9382 31.0613 80.3009 31.488L79.1489 32.656C78.9249 32.3893 78.6529 32.192 78.3329 32.064C78.0235 31.9253 77.6822 31.856 77.3089 31.856C76.8715 31.856 76.4822 31.9573 76.1409 32.16C75.8102 32.352 75.5489 32.6187 75.3569 32.96C75.1755 33.3013 75.0849 33.7013 75.0849 34.16C75.0849 34.608 75.1755 35.008 75.3569 35.36C75.5489 35.7013 75.8102 35.9733 76.1409 36.176C76.4822 36.368 76.8715 36.464 77.3089 36.464C77.6822 36.464 78.0235 36.4 78.3329 36.272C78.6529 36.1333 78.9249 35.9307 79.1489 35.664L80.3009 36.832C79.9382 37.2587 79.4955 37.5893 78.9729 37.824C78.4609 38.048 77.9062 38.16 77.3089 38.16ZM81.5698 38V30.32H83.3298V38H81.5698ZM83.3298 33.728L82.7218 33.424C82.7218 32.4533 82.9351 31.6693 83.3618 31.072C83.7991 30.464 84.4551 30.16 85.3298 30.16C85.7138 30.16 86.0604 30.2293 86.3698 30.368C86.6791 30.5067 86.9671 30.7307 87.2338 31.04L86.0818 32.224C85.9431 32.0747 85.7884 31.968 85.6178 31.904C85.4471 31.84 85.2498 31.808 85.0258 31.808C84.5351 31.808 84.1298 31.9627 83.8098 32.272C83.4898 32.5813 83.3298 33.0667 83.3298 33.728ZM91.419 38.16C90.651 38.16 89.9577 37.9893 89.339 37.648C88.731 37.296 88.2457 36.816 87.883 36.208C87.531 35.6 87.355 34.9173 87.355 34.16C87.355 33.4027 87.531 32.7253 87.883 32.128C88.235 31.52 88.7097 31.04 89.307 30.688C89.915 30.336 90.587 30.16 91.323 30.16C92.0377 30.16 92.667 30.3253 93.211 30.656C93.7657 30.9867 94.1977 31.44 94.507 32.016C94.827 32.592 94.987 33.248 94.987 33.984C94.987 34.112 94.9763 34.2453 94.955 34.384C94.9443 34.512 94.923 34.656 94.891 34.816H88.587V33.376H93.979L93.323 33.952C93.3017 33.4827 93.211 33.088 93.051 32.768C92.891 32.448 92.6617 32.2027 92.363 32.032C92.075 31.8613 91.7177 31.776 91.291 31.776C90.843 31.776 90.4537 31.872 90.123 32.064C89.7923 32.256 89.5363 32.528 89.355 32.88C89.1737 33.2213 89.083 33.632 89.083 34.112C89.083 34.592 89.179 35.0133 89.371 35.376C89.563 35.7387 89.835 36.0213 90.187 36.224C90.539 36.416 90.9443 36.512 91.403 36.512C91.7977 36.512 92.1603 36.4427 92.491 36.304C92.8323 36.1653 93.1203 35.9627 93.355 35.696L94.475 36.832C94.1017 37.2693 93.6483 37.6 93.115 37.824C92.5817 38.048 92.0163 38.16 91.419 38.16ZM99.9659 38.16C99.1979 38.16 98.5045 37.9893 97.8859 37.648C97.2779 37.296 96.7925 36.816 96.4299 36.208C96.0779 35.6 95.9019 34.9173 95.9019 34.16C95.9019 33.4027 96.0779 32.7253 96.4299 32.128C96.7819 31.52 97.2565 31.04 97.8539 30.688C98.4619 30.336 99.1339 30.16 99.8699 30.16C100.585 30.16 101.214 30.3253 101.758 30.656C102.313 30.9867 102.745 31.44 103.054 32.016C103.374 32.592 103.534 33.248 103.534 33.984C103.534 34.112 103.523 34.2453 103.502 34.384C103.491 34.512 103.47 34.656 103.438 34.816H97.1339V33.376H102.526L101.87 33.952C101.849 33.4827 101.758 33.088 101.598 32.768C101.438 32.448 101.209 32.2027 100.91 32.032C100.622 31.8613 100.265 31.776 99.8379 31.776C99.3899 31.776 99.0005 31.872 98.6699 32.064C98.3392 32.256 98.0832 32.528 97.9019 32.88C97.7205 33.2213 97.6299 33.632 97.6299 34.112C97.6299 34.592 97.7259 35.0133 97.9179 35.376C98.1099 35.7387 98.3819 36.0213 98.7339 36.224C99.0859 36.416 99.4912 36.512 99.9499 36.512C100.345 36.512 100.707 36.4427 101.038 36.304C101.379 36.1653 101.667 35.9627 101.902 35.696L103.022 36.832C102.649 37.2693 102.195 37.6 101.662 37.824C101.129 38.048 100.563 38.16 99.9659 38.16ZM110.209 38V33.568C110.209 33.056 110.043 32.6347 109.713 32.304C109.393 31.9733 108.977 31.808 108.465 31.808C108.123 31.808 107.819 31.8827 107.553 32.032C107.286 32.1813 107.078 32.3893 106.929 32.656C106.779 32.9227 106.705 33.2267 106.705 33.568L106.017 33.184C106.017 32.5973 106.145 32.08 106.401 31.632C106.657 31.1733 107.009 30.816 107.457 30.56C107.915 30.2933 108.427 30.16 108.993 30.16C109.569 30.16 110.081 30.3093 110.529 30.608C110.977 30.896 111.329 31.2747 111.585 31.744C111.841 32.2027 111.969 32.6827 111.969 33.184V38H110.209ZM104.945 38V30.32H106.705V38H104.945ZM113.773 38V30.32H115.533V38H113.773ZM114.653 28.912C114.355 28.912 114.104 28.8107 113.901 28.608C113.709 28.4053 113.613 28.1547 113.613 27.856C113.613 27.5573 113.709 27.3067 113.901 27.104C114.104 26.9013 114.355 26.8 114.653 26.8C114.963 26.8 115.213 26.9013 115.405 27.104C115.597 27.3067 115.693 27.5573 115.693 27.856C115.693 28.1547 115.597 28.4053 115.405 28.608C115.213 28.8107 114.963 28.912 114.653 28.912ZM122.771 38V33.568C122.771 33.056 122.606 32.6347 122.275 32.304C121.955 31.9733 121.539 31.808 121.027 31.808C120.686 31.808 120.382 31.8827 120.115 32.032C119.849 32.1813 119.641 32.3893 119.491 32.656C119.342 32.9227 119.267 33.2267 119.267 33.568L118.579 33.184C118.579 32.5973 118.707 32.08 118.963 31.632C119.219 31.1733 119.571 30.816 120.019 30.56C120.478 30.2933 120.99 30.16 121.555 30.16C122.131 30.16 122.643 30.3093 123.091 30.608C123.539 30.896 123.891 31.2747 124.147 31.744C124.403 32.2027 124.531 32.6827 124.531 33.184V38H122.771ZM117.507 38V30.32H119.267V38H117.507ZM129.52 41.36C128.709 41.36 128 41.2107 127.392 40.912C126.784 40.624 126.293 40.2133 125.92 39.68L127.072 38.528C127.381 38.912 127.733 39.2 128.128 39.392C128.522 39.584 128.997 39.68 129.552 39.68C130.245 39.68 130.794 39.4987 131.2 39.136C131.605 38.784 131.808 38.2987 131.808 37.68V35.792L132.112 34.096L131.808 32.384V30.32H133.568V37.68C133.568 38.416 133.397 39.056 133.056 39.6C132.714 40.1547 132.24 40.5867 131.632 40.896C131.024 41.2053 130.32 41.36 129.52 41.36ZM129.44 37.84C128.757 37.84 128.138 37.6747 127.584 37.344C127.04 37.0027 126.608 36.5387 126.288 35.952C125.978 35.3653 125.824 34.7093 125.824 33.984C125.824 33.2587 125.978 32.608 126.288 32.032C126.608 31.456 127.04 31.0027 127.584 30.672C128.138 30.3307 128.757 30.16 129.44 30.16C130.048 30.16 130.581 30.2827 131.04 30.528C131.498 30.7733 131.856 31.1147 132.112 31.552C132.368 31.9787 132.496 32.48 132.496 33.056V34.944C132.496 35.5093 132.362 36.0107 132.096 36.448C131.84 36.8853 131.482 37.2267 131.024 37.472C130.565 37.7173 130.037 37.84 129.44 37.84ZM129.792 36.176C130.218 36.176 130.592 36.0853 130.912 35.904C131.232 35.7227 131.477 35.472 131.648 35.152C131.829 34.8213 131.92 34.4373 131.92 34C131.92 33.5627 131.829 33.184 131.648 32.864C131.477 32.5333 131.232 32.2773 130.912 32.096C130.592 31.9147 130.218 31.824 129.792 31.824C129.365 31.824 128.986 31.9147 128.656 32.096C128.336 32.2773 128.085 32.5333 127.904 32.864C127.722 33.184 127.632 33.5627 127.632 34C127.632 34.4267 127.722 34.8053 127.904 35.136C128.085 35.4667 128.336 35.7227 128.656 35.904C128.986 36.0853 129.365 36.176 129.792 36.176ZM141.532 38V27.12H143.372V38H141.532ZM137.884 28.48V26.8H147.02V28.48H137.884ZM149.614 38.16C148.921 38.16 148.291 37.984 147.726 37.632C147.171 37.28 146.729 36.8053 146.398 36.208C146.078 35.6 145.918 34.9227 145.918 34.176C145.918 33.4187 146.078 32.7413 146.398 32.144C146.729 31.536 147.171 31.056 147.726 30.704C148.291 30.3413 148.921 30.16 149.614 30.16C150.201 30.16 150.718 30.288 151.166 30.544C151.625 30.7893 151.987 31.1307 152.254 31.568C152.521 32.0053 152.654 32.5013 152.654 33.056V35.264C152.654 35.8187 152.521 36.3147 152.254 36.752C151.998 37.1893 151.641 37.536 151.182 37.792C150.723 38.0373 150.201 38.16 149.614 38.16ZM149.902 36.496C150.553 36.496 151.075 36.2773 151.47 35.84C151.875 35.4027 152.078 34.8427 152.078 34.16C152.078 33.7013 151.987 33.296 151.806 32.944C151.625 32.592 151.369 32.32 151.038 32.128C150.718 31.9253 150.339 31.824 149.902 31.824C149.475 31.824 149.097 31.9253 148.766 32.128C148.446 32.32 148.19 32.592 147.998 32.944C147.817 33.296 147.726 33.7013 147.726 34.16C147.726 34.6187 147.817 35.024 147.998 35.376C148.19 35.728 148.446 36.0053 148.766 36.208C149.097 36.4 149.475 36.496 149.902 36.496ZM151.966 38V35.936L152.27 34.064L151.966 32.208V30.32H153.726V38H151.966ZM158.191 38.16C157.764 38.16 157.354 38.1067 156.959 38C156.564 37.8827 156.202 37.7227 155.871 37.52C155.54 37.3067 155.252 37.0507 155.007 36.752L156.127 35.632C156.394 35.9413 156.698 36.176 157.039 36.336C157.391 36.4853 157.786 36.56 158.223 36.56C158.618 36.56 158.916 36.5013 159.119 36.384C159.322 36.2667 159.423 36.096 159.423 35.872C159.423 35.6373 159.327 35.456 159.135 35.328C158.943 35.2 158.692 35.0933 158.383 35.008C158.084 34.912 157.764 34.816 157.423 34.72C157.092 34.624 156.772 34.496 156.463 34.336C156.164 34.1653 155.919 33.936 155.727 33.648C155.535 33.36 155.439 32.9867 155.439 32.528C155.439 32.0373 155.551 31.616 155.775 31.264C156.01 30.912 156.335 30.64 156.751 30.448C157.178 30.256 157.684 30.16 158.271 30.16C158.89 30.16 159.434 30.272 159.903 30.496C160.383 30.7093 160.783 31.0347 161.103 31.472L159.983 32.592C159.759 32.3147 159.503 32.1067 159.215 31.968C158.927 31.8293 158.596 31.76 158.223 31.76C157.871 31.76 157.599 31.8133 157.407 31.92C157.215 32.0267 157.119 32.1813 157.119 32.384C157.119 32.5973 157.215 32.7627 157.407 32.88C157.599 32.9973 157.844 33.0987 158.143 33.184C158.452 33.2693 158.772 33.3653 159.103 33.472C159.444 33.568 159.764 33.7067 160.063 33.888C160.372 34.0587 160.623 34.2933 160.815 34.592C161.007 34.88 161.103 35.2587 161.103 35.728C161.103 36.4747 160.842 37.0667 160.319 37.504C159.796 37.9413 159.087 38.16 158.191 38.16ZM167.434 38L164.186 34.08L167.418 30.32H169.514L165.802 34.544L165.882 33.536L169.674 38H167.434ZM162.554 38V26.48H164.314V38H162.554ZM176.735 38V27.12H178.575V38H176.735ZM173.087 28.48V26.8H182.223V28.48H173.087ZM185.169 38.16C184.401 38.16 183.708 37.9893 183.089 37.648C182.481 37.296 181.996 36.816 181.633 36.208C181.281 35.6 181.105 34.9173 181.105 34.16C181.105 33.4027 181.281 32.7253 181.633 32.128C181.985 31.52 182.46 31.04 183.057 30.688C183.665 30.336 184.337 30.16 185.073 30.16C185.788 30.16 186.417 30.3253 186.961 30.656C187.516 30.9867 187.948 31.44 188.257 32.016C188.577 32.592 188.737 33.248 188.737 33.984C188.737 34.112 188.726 34.2453 188.705 34.384C188.694 34.512 188.673 34.656 188.641 34.816H182.337V33.376H187.729L187.073 33.952C187.052 33.4827 186.961 33.088 186.801 32.768C186.641 32.448 186.412 32.2027 186.113 32.032C185.825 31.8613 185.468 31.776 185.041 31.776C184.593 31.776 184.204 31.872 183.873 32.064C183.542 32.256 183.286 32.528 183.105 32.88C182.924 33.2213 182.833 33.632 182.833 34.112C182.833 34.592 182.929 35.0133 183.121 35.376C183.313 35.7387 183.585 36.0213 183.937 36.224C184.289 36.416 184.694 36.512 185.153 36.512C185.548 36.512 185.91 36.4427 186.241 36.304C186.582 36.1653 186.87 35.9627 187.105 35.696L188.225 36.832C187.852 37.2693 187.398 37.6 186.865 37.824C186.332 38.048 185.766 38.16 185.169 38.16ZM193.364 38.16C192.671 38.16 192.041 37.984 191.476 37.632C190.921 37.28 190.479 36.8053 190.148 36.208C189.828 35.6 189.668 34.9227 189.668 34.176C189.668 33.4187 189.828 32.7413 190.148 32.144C190.479 31.536 190.921 31.056 191.476 30.704C192.041 30.3413 192.671 30.16 193.364 30.16C193.951 30.16 194.468 30.288 194.916 30.544C195.375 30.7893 195.737 31.1307 196.004 31.568C196.271 32.0053 196.404 32.5013 196.404 33.056V35.264C196.404 35.8187 196.271 36.3147 196.004 36.752C195.748 37.1893 195.391 37.536 194.932 37.792C194.473 38.0373 193.951 38.16 193.364 38.16ZM193.652 36.496C194.303 36.496 194.825 36.2773 195.22 35.84C195.625 35.4027 195.828 34.8427 195.828 34.16C195.828 33.7013 195.737 33.296 195.556 32.944C195.375 32.592 195.119 32.32 194.788 32.128C194.468 31.9253 194.089 31.824 193.652 31.824C193.225 31.824 192.847 31.9253 192.516 32.128C192.196 32.32 191.94 32.592 191.748 32.944C191.567 33.296 191.476 33.7013 191.476 34.16C191.476 34.6187 191.567 35.024 191.748 35.376C191.94 35.728 192.196 36.0053 192.516 36.208C192.847 36.4 193.225 36.496 193.652 36.496ZM195.716 38V35.936L196.02 34.064L195.716 32.208V30.32H197.476V38H195.716ZM199.429 38V30.32H201.189V38H199.429ZM204.533 38V33.424C204.533 32.912 204.373 32.5173 204.053 32.24C203.733 31.952 203.338 31.808 202.869 31.808C202.549 31.808 202.261 31.872 202.005 32C201.76 32.128 201.562 32.3147 201.413 32.56C201.264 32.7947 201.189 33.0827 201.189 33.424L200.501 33.04C200.501 32.4533 200.629 31.9467 200.885 31.52C201.141 31.0933 201.488 30.7627 201.925 30.528C202.362 30.2827 202.853 30.16 203.397 30.16C203.941 30.16 204.432 30.2773 204.869 30.512C205.306 30.7467 205.653 31.0773 205.909 31.504C206.165 31.9307 206.293 32.4427 206.293 33.04V38H204.533ZM209.637 38V33.424C209.637 32.912 209.477 32.5173 209.157 32.24C208.837 31.952 208.442 31.808 207.973 31.808C207.664 31.808 207.381 31.872 207.125 32C206.869 32.128 206.666 32.3147 206.517 32.56C206.368 32.7947 206.293 33.0827 206.293 33.424L205.301 33.04C205.354 32.4533 205.525 31.9467 205.813 31.52C206.101 31.0933 206.469 30.7627 206.917 30.528C207.376 30.2827 207.877 30.16 208.421 30.16C208.976 30.16 209.477 30.2773 209.925 30.512C210.373 30.7467 210.73 31.0773 210.997 31.504C211.264 31.9307 211.397 32.4427 211.397 33.04V38H209.637Z" fill="#1D1D1D"/>
<rect x="64" y="52" width="80" height="8" rx="4" fill="#E7E7E7"/>
<path d="M38.4 37.2012C37.0745 37.2012 36 38.2757 36 39.6012V42.8012H44V39.6012C44 38.2757 42.9255 37.2012 41.6 37.2012H38.4Z" fill="#474BC5"/>
<path d="M44 44.4012H36C36 45.7267 37.0745 46.8012 38.4 46.8012H41.6C42.9255 46.8012 44 45.7267 44 44.4012Z" fill="#474BC5"/>
<path fill-rule="evenodd" clip-rule="evenodd" d="M32 42.0012C32 41.5593 32.3582 41.2012 32.8 41.2012H47.2C47.6418 41.2012 48 41.5593 48 42.0012C48 42.443 47.6418 42.8012 47.2 42.8012H32.8C32.3582 42.8012 32 42.443 32 42.0012Z" fill="#474BC5"/>
<path fill-rule="evenodd" clip-rule="evenodd" d="M32 36.4C32 35.0745 33.0745 34 34.4 34H36C36.4418 34 36.8 34.3582 36.8 34.8C36.8 35.2418 36.4418 35.6 36 35.6H34.4C33.9582 35.6 33.6 35.9582 33.6 36.4V38C33.6 38.4418 33.2418 38.8 32.8 38.8C32.3582 38.8 32 38.4418 32 38V36.4Z" fill="#474BC5"/>
<path fill-rule="evenodd" clip-rule="evenodd" d="M32 47.6C32 48.9255 33.0745 50 34.4 50H36C36.4418 50 36.8 49.6418 36.8 49.2C36.8 48.7582 36.4418 48.4 36 48.4H34.4C33.9582 48.4 33.6 48.0418 33.6 47.6V46C33.6 45.5582 33.2418 45.2 32.8 45.2C32.3582 45.2 32 45.5582 32 46V47.6Z" fill="#474BC5"/>
<path fill-rule="evenodd" clip-rule="evenodd" d="M48 47.6C48 48.9255 46.9255 50 45.6 50H44C43.5582 50 43.2 49.6418 43.2 49.2C43.2 48.7582 43.5582 48.4 44 48.4H45.6C46.0418 48.4 46.4 48.0418 46.4 47.6V46C46.4 45.5582 46.7582 45.2 47.2 45.2C47.6418 45.2 48 45.5582 48 46V47.6Z" fill="#474BC5"/>
<path fill-rule="evenodd" clip-rule="evenodd" d="M48 36.4C48 35.0745 46.9255 34 45.6 34H44C43.5582 34 43.2 34.3582 43.2 34.8C43.2 35.2418 43.5582 35.6 44 35.6H45.6C46.0418 35.6 46.4 35.9582 46.4 36.4V38C46.4 38.4418 46.7582 38.8 47.2 38.8C47.6418 38.8 48 38.4418 48 38V36.4Z" fill="#474BC5"/>
<path d="M65.216 94V82.8H66.496L71.152 90.464H70.32L74.976 82.8H76.256V94H74.416V86.032L74.832 86.144L71.376 91.824H70.096L66.64 86.144L67.056 86.032V94H65.216ZM82.0128 94.16C81.2448 94.16 80.5514 93.9893 79.9328 93.648C79.3248 93.296 78.8394 92.816 78.4768 92.208C78.1248 91.6 77.9488 90.9173 77.9488 90.16C77.9488 89.4027 78.1248 88.7253 78.4768 88.128C78.8288 87.52 79.3034 87.04 79.9008 86.688C80.5088 86.336 81.1808 86.16 81.9168 86.16C82.6314 86.16 83.2608 86.3253 83.8048 86.656C84.3594 86.9867 84.7914 87.44 85.1008 88.016C85.4208 88.592 85.5808 89.248 85.5808 89.984C85.5808 90.112 85.5701 90.2453 85.5487 90.384C85.5381 90.512 85.5168 90.656 85.4848 90.816H79.1808V89.376H84.5728L83.9168 89.952C83.8954 89.4827 83.8048 89.088 83.6448 88.768C83.4848 88.448 83.2554 88.2027 82.9568 88.032C82.6688 87.8613 82.3114 87.776 81.8848 87.776C81.4368 87.776 81.0474 87.872 80.7168 88.064C80.3861 88.256 80.1301 88.528 79.9488 88.88C79.7674 89.2213 79.6768 89.632 79.6768 90.112C79.6768 90.592 79.7728 91.0133 79.9648 91.376C80.1568 91.7387 80.4288 92.0213 80.7808 92.224C81.1328 92.416 81.5381 92.512 81.9968 92.512C82.3914 92.512 82.7541 92.4427 83.0848 92.304C83.4261 92.1653 83.7141 91.9627 83.9488 91.696L85.0688 92.832C84.6954 93.2693 84.2421 93.6 83.7088 93.824C83.1754 94.048 82.6101 94.16 82.0128 94.16ZM90.5596 94.16C89.7916 94.16 89.0983 93.9893 88.4796 93.648C87.8716 93.296 87.3863 92.816 87.0236 92.208C86.6716 91.6 86.4956 90.9173 86.4956 90.16C86.4956 89.4027 86.6716 88.7253 87.0236 88.128C87.3756 87.52 87.8503 87.04 88.4476 86.688C89.0556 86.336 89.7276 86.16 90.4636 86.16C91.1783 86.16 91.8076 86.3253 92.3516 86.656C92.9063 86.9867 93.3383 87.44 93.6476 88.016C93.9676 88.592 94.1276 89.248 94.1276 89.984C94.1276 90.112 94.117 90.2453 94.0956 90.384C94.085 90.512 94.0636 90.656 94.0316 90.816H87.7276V89.376H93.1196L92.4636 89.952C92.4423 89.4827 92.3516 89.088 92.1916 88.768C92.0316 88.448 91.8023 88.2027 91.5036 88.032C91.2156 87.8613 90.8583 87.776 90.4316 87.776C89.9836 87.776 89.5943 87.872 89.2636 88.064C88.933 88.256 88.677 88.528 88.4956 88.88C88.3143 89.2213 88.2236 89.632 88.2236 90.112C88.2236 90.592 88.3196 91.0133 88.5116 91.376C88.7036 91.7387 88.9756 92.0213 89.3276 92.224C89.6796 92.416 90.085 92.512 90.5436 92.512C90.9383 92.512 91.301 92.4427 91.6316 92.304C91.973 92.1653 92.261 91.9627 92.4956 91.696L93.6156 92.832C93.2423 93.2693 92.789 93.6 92.2556 93.824C91.7223 94.048 91.157 94.16 90.5596 94.16ZM96.519 94V83.12H98.279V94H96.519ZM94.679 87.92V86.32H100.119V87.92H94.679ZM101.414 94V86.32H103.174V94H101.414ZM102.294 84.912C101.995 84.912 101.745 84.8107 101.542 84.608C101.35 84.4053 101.254 84.1547 101.254 83.856C101.254 83.5573 101.35 83.3067 101.542 83.104C101.745 82.9013 101.995 82.8 102.294 82.8C102.603 82.8 102.854 82.9013 103.046 83.104C103.238 83.3067 103.334 83.5573 103.334 83.856C103.334 84.1547 103.238 84.4053 103.046 84.608C102.854 84.8107 102.603 84.912 102.294 84.912ZM110.412 94V89.568C110.412 89.056 110.247 88.6347 109.916 88.304C109.596 87.9733 109.18 87.808 108.668 87.808C108.327 87.808 108.023 87.8827 107.756 88.032C107.489 88.1813 107.281 88.3893 107.132 88.656C106.983 88.9227 106.908 89.2267 106.908 89.568L106.22 89.184C106.22 88.5973 106.348 88.08 106.604 87.632C106.86 87.1733 107.212 86.816 107.66 86.56C108.119 86.2933 108.631 86.16 109.196 86.16C109.772 86.16 110.284 86.3093 110.732 86.608C111.18 86.896 111.532 87.2747 111.788 87.744C112.044 88.2027 112.172 88.6827 112.172 89.184V94H110.412ZM105.148 94V86.32H106.908V94H105.148ZM117.16 97.36C116.35 97.36 115.64 97.2107 115.032 96.912C114.424 96.624 113.934 96.2133 113.56 95.68L114.712 94.528C115.022 94.912 115.374 95.2 115.768 95.392C116.163 95.584 116.638 95.68 117.192 95.68C117.886 95.68 118.435 95.4987 118.84 95.136C119.246 94.784 119.448 94.2987 119.448 93.68V91.792L119.752 90.096L119.448 88.384V86.32H121.208V93.68C121.208 94.416 121.038 95.056 120.696 95.6C120.355 96.1547 119.88 96.5867 119.272 96.896C118.664 97.2053 117.96 97.36 117.16 97.36ZM117.08 93.84C116.398 93.84 115.779 93.6747 115.224 93.344C114.68 93.0027 114.248 92.5387 113.928 91.952C113.619 91.3653 113.464 90.7093 113.464 89.984C113.464 89.2587 113.619 88.608 113.928 88.032C114.248 87.456 114.68 87.0027 115.224 86.672C115.779 86.3307 116.398 86.16 117.08 86.16C117.688 86.16 118.222 86.2827 118.68 86.528C119.139 86.7733 119.496 87.1147 119.752 87.552C120.008 87.9787 120.136 88.48 120.136 89.056V90.944C120.136 91.5093 120.003 92.0107 119.736 92.448C119.48 92.8853 119.123 93.2267 118.664 93.472C118.206 93.7173 117.678 93.84 117.08 93.84ZM117.432 92.176C117.859 92.176 118.232 92.0853 118.552 91.904C118.872 91.7227 119.118 91.472 119.288 91.152C119.47 90.8213 119.56 90.4373 119.56 90C119.56 89.5627 119.47 89.184 119.288 88.864C119.118 88.5333 118.872 88.2773 118.552 88.096C118.232 87.9147 117.859 87.824 117.432 87.824C117.006 87.824 116.627 87.9147 116.296 88.096C115.976 88.2773 115.726 88.5333 115.544 88.864C115.363 89.184 115.272 89.5627 115.272 90C115.272 90.4267 115.363 90.8053 115.544 91.136C115.726 91.4667 115.976 91.7227 116.296 91.904C116.627 92.0853 117.006 92.176 117.432 92.176ZM128.607 94L125.519 86.32H127.343L129.423 91.904L128.879 91.92L130.911 86.32H131.935L133.967 91.92L133.423 91.904L135.503 86.32H137.327L134.239 94H133.215L131.135 88.688H131.711L129.631 94H128.607ZM138.32 94V86.32H140.08V94H138.32ZM139.2 84.912C138.901 84.912 138.651 84.8107 138.448 84.608C138.256 84.4053 138.16 84.1547 138.16 83.856C138.16 83.5573 138.256 83.3067 138.448 83.104C138.651 82.9013 138.901 82.8 139.2 82.8C139.509 82.8 139.76 82.9013 139.952 83.104C140.144 83.3067 140.24 83.5573 140.24 83.856C140.24 84.1547 140.144 84.4053 139.952 84.608C139.76 84.8107 139.509 84.912 139.2 84.912ZM143.222 94V83.12H144.982V94H143.222ZM141.382 87.92V86.32H146.822V87.92H141.382ZM153.365 94V89.568C153.365 89.056 153.2 88.6347 152.869 88.304C152.549 87.9733 152.133 87.808 151.621 87.808C151.28 87.808 150.976 87.8827 150.709 88.032C150.442 88.1813 150.234 88.3893 150.085 88.656C149.936 88.9227 149.861 89.2267 149.861 89.568L149.173 89.184C149.173 88.5973 149.301 88.08 149.557 87.632C149.813 87.1733 150.165 86.816 150.613 86.56C151.072 86.2933 151.584 86.16 152.149 86.16C152.725 86.16 153.237 86.288 153.685 86.544C154.133 86.8 154.485 87.1573 154.741 87.616C154.997 88.064 155.125 88.5867 155.125 89.184V94H153.365ZM148.101 94V82.48H149.861V94H148.101ZM163.653 94.16C162.895 94.16 162.207 93.984 161.589 93.632C160.981 93.28 160.501 92.8 160.149 92.192C159.797 91.584 159.621 90.9067 159.621 90.16C159.621 89.4027 159.797 88.7253 160.149 88.128C160.501 87.52 160.981 87.04 161.589 86.688C162.207 86.336 162.895 86.16 163.653 86.16C164.25 86.16 164.805 86.2773 165.317 86.512C165.839 86.736 166.282 87.0613 166.645 87.488L165.493 88.656C165.269 88.3893 164.997 88.192 164.677 88.064C164.367 87.9253 164.026 87.856 163.653 87.856C163.215 87.856 162.826 87.9573 162.485 88.16C162.154 88.352 161.893 88.6187 161.701 88.96C161.519 89.3013 161.429 89.7013 161.429 90.16C161.429 90.608 161.519 91.008 161.701 91.36C161.893 91.7013 162.154 91.9733 162.485 92.176C162.826 92.368 163.215 92.464 163.653 92.464C164.026 92.464 164.367 92.4 164.677 92.272C164.997 92.1333 165.269 91.9307 165.493 91.664L166.645 92.832C166.282 93.2587 165.839 93.5893 165.317 93.824C164.805 94.048 164.25 94.16 163.653 94.16ZM167.914 94V82.48H169.674V94H167.914ZM171.648 94V86.32H173.408V94H171.648ZM172.528 84.912C172.23 84.912 171.979 84.8107 171.776 84.608C171.584 84.4053 171.488 84.1547 171.488 83.856C171.488 83.5573 171.584 83.3067 171.776 83.104C171.979 82.9013 172.23 82.8 172.528 82.8C172.838 82.8 173.088 82.9013 173.28 83.104C173.472 83.3067 173.568 83.5573 173.568 83.856C173.568 84.1547 173.472 84.4053 173.28 84.608C173.088 84.8107 172.838 84.912 172.528 84.912ZM178.95 94.16C178.182 94.16 177.489 93.9893 176.87 93.648C176.262 93.296 175.777 92.816 175.414 92.208C175.062 91.6 174.886 90.9173 174.886 90.16C174.886 89.4027 175.062 88.7253 175.414 88.128C175.766 87.52 176.241 87.04 176.838 86.688C177.446 86.336 178.118 86.16 178.854 86.16C179.569 86.16 180.198 86.3253 180.742 86.656C181.297 86.9867 181.729 87.44 182.038 88.016C182.358 88.592 182.518 89.248 182.518 89.984C182.518 90.112 182.508 90.2453 182.486 90.384C182.476 90.512 182.454 90.656 182.422 90.816H176.118V89.376H181.51L180.854 89.952C180.833 89.4827 180.742 89.088 180.582 88.768C180.422 88.448 180.193 88.2027 179.894 88.032C179.606 87.8613 179.249 87.776 178.822 87.776C178.374 87.776 177.985 87.872 177.654 88.064C177.324 88.256 177.068 88.528 176.886 88.88C176.705 89.2213 176.614 89.632 176.614 90.112C176.614 90.592 176.71 91.0133 176.902 91.376C177.094 91.7387 177.366 92.0213 177.718 92.224C178.07 92.416 178.476 92.512 178.934 92.512C179.329 92.512 179.692 92.4427 180.022 92.304C180.364 92.1653 180.652 91.9627 180.886 91.696L182.006 92.832C181.633 93.2693 181.18 93.6 180.646 93.824C180.113 94.048 179.548 94.16 178.95 94.16ZM189.193 94V89.568C189.193 89.056 189.028 88.6347 188.697 88.304C188.377 87.9733 187.961 87.808 187.449 87.808C187.108 87.808 186.804 87.8827 186.537 88.032C186.27 88.1813 186.062 88.3893 185.913 88.656C185.764 88.9227 185.689 89.2267 185.689 89.568L185.001 89.184C185.001 88.5973 185.129 88.08 185.385 87.632C185.641 87.1733 185.993 86.816 186.441 86.56C186.9 86.2933 187.412 86.16 187.977 86.16C188.553 86.16 189.065 86.3093 189.513 86.608C189.961 86.896 190.313 87.2747 190.569 87.744C190.825 88.2027 190.953 88.6827 190.953 89.184V94H189.193ZM183.929 94V86.32H185.689V94H183.929ZM193.816 94V83.12H195.576V94H193.816ZM191.976 87.92V86.32H197.416V87.92H191.976Z" fill="#1D1D1D"/>
<rect x="64" y="108" width="80" height="8" rx="4" fill="#E7E7E7"/>
<rect x="36.5703" y="87" width="6.85714" height="13.7143" rx="3" fill="#474BC5"/>
<path d="M34.2857 97.2874C34.2857 96.6562 33.774 96.1445 33.1429 96.1445C32.5117 96.1445 32 96.6562 32 97.2874C32 101.318 34.9802 104.652 38.8571 105.206V107.573H36.5714C35.9402 107.573 35.4286 108.085 35.4286 108.716C35.4286 109.347 35.9402 109.859 36.5714 109.859H43.4286C44.0598 109.859 44.5714 109.347 44.5714 108.716C44.5714 108.085 44.0598 107.573 43.4286 107.573H41.1429V105.206C45.0198 104.652 48 101.318 48 97.2874C48 96.6562 47.4883 96.1445 46.8571 96.1445C46.226 96.1445 45.7143 96.6562 45.7143 97.2874C45.7143 100.443 43.1559 103.002 40 103.002C36.8441 103.002 34.2857 100.443 34.2857 97.2874Z" fill="#474BC5"/>
<path d="M64.384 150L68.992 138.8H70.272L74.848 150H72.864L69.28 140.928H69.952L66.336 150H64.384ZM66.656 147.84V146.24H72.592V147.84H66.656ZM76.2104 150V142.32H77.9704V150H76.2104ZM77.9704 145.728L77.3624 145.424C77.3624 144.453 77.5757 143.669 78.0024 143.072C78.4397 142.464 79.0957 142.16 79.9704 142.16C80.3544 142.16 80.701 142.229 81.0104 142.368C81.3197 142.507 81.6077 142.731 81.8744 143.04L80.7224 144.224C80.5837 144.075 80.429 143.968 80.2584 143.904C80.0877 143.84 79.8904 143.808 79.6664 143.808C79.1757 143.808 78.7704 143.963 78.4504 144.272C78.1304 144.581 77.9704 145.067 77.9704 145.728ZM86.0276 150.16C85.2703 150.16 84.5823 149.984 83.9636 149.632C83.3556 149.28 82.8756 148.8 82.5236 148.192C82.1716 147.584 81.9956 146.907 81.9956 146.16C81.9956 145.403 82.1716 144.725 82.5236 144.128C82.8756 143.52 83.3556 143.04 83.9636 142.688C84.5823 142.336 85.2703 142.16 86.0276 142.16C86.625 142.16 87.1796 142.277 87.6916 142.512C88.2143 142.736 88.657 143.061 89.0196 143.488L87.8676 144.656C87.6436 144.389 87.3716 144.192 87.0516 144.064C86.7423 143.925 86.401 143.856 86.0276 143.856C85.5903 143.856 85.201 143.957 84.8596 144.16C84.529 144.352 84.2676 144.619 84.0756 144.96C83.8943 145.301 83.8036 145.701 83.8036 146.16C83.8036 146.608 83.8943 147.008 84.0756 147.36C84.2676 147.701 84.529 147.973 84.8596 148.176C85.201 148.368 85.5903 148.464 86.0276 148.464C86.401 148.464 86.7423 148.4 87.0516 148.272C87.3716 148.133 87.6436 147.931 87.8676 147.664L89.0196 148.832C88.657 149.259 88.2143 149.589 87.6916 149.824C87.1796 150.048 86.625 150.16 86.0276 150.16ZM95.5525 150V145.568C95.5525 145.056 95.3872 144.635 95.0565 144.304C94.7365 143.973 94.3205 143.808 93.8085 143.808C93.4672 143.808 93.1632 143.883 92.8965 144.032C92.6298 144.181 92.4218 144.389 92.2725 144.656C92.1232 144.923 92.0485 145.227 92.0485 145.568L91.3605 145.184C91.3605 144.597 91.4885 144.08 91.7445 143.632C92.0005 143.173 92.3525 142.816 92.8005 142.56C93.2592 142.293 93.7712 142.16 94.3365 142.16C94.9125 142.16 95.4245 142.288 95.8725 142.544C96.3205 142.8 96.6725 143.157 96.9285 143.616C97.1845 144.064 97.3125 144.587 97.3125 145.184V150H95.5525ZM90.2885 150V138.48H92.0485V150H90.2885ZM99.117 150V142.32H100.877V150H99.117ZM99.997 140.912C99.6983 140.912 99.4477 140.811 99.245 140.608C99.053 140.405 98.957 140.155 98.957 139.856C98.957 139.557 99.053 139.307 99.245 139.104C99.4477 138.901 99.6983 138.8 99.997 138.8C100.306 138.8 100.557 138.901 100.749 139.104C100.941 139.307 101.037 139.557 101.037 139.856C101.037 140.155 100.941 140.405 100.749 140.608C100.557 140.811 100.306 140.912 99.997 140.912ZM105.443 150L101.939 142.32H103.891L106.563 148.576H105.411L108.099 142.32H109.971L106.467 150H105.443ZM114.325 150.16C113.557 150.16 112.864 149.989 112.245 149.648C111.637 149.296 111.152 148.816 110.789 148.208C110.437 147.6 110.261 146.917 110.261 146.16C110.261 145.403 110.437 144.725 110.789 144.128C111.141 143.52 111.616 143.04 112.213 142.688C112.821 142.336 113.493 142.16 114.229 142.16C114.944 142.16 115.573 142.325 116.117 142.656C116.672 142.987 117.104 143.44 117.413 144.016C117.733 144.592 117.893 145.248 117.893 145.984C117.893 146.112 117.883 146.245 117.861 146.384C117.851 146.512 117.829 146.656 117.797 146.816H111.493V145.376H116.885L116.229 145.952C116.208 145.483 116.117 145.088 115.957 144.768C115.797 144.448 115.568 144.203 115.269 144.032C114.981 143.861 114.624 143.776 114.197 143.776C113.749 143.776 113.36 143.872 113.029 144.064C112.699 144.256 112.443 144.528 112.261 144.88C112.08 145.221 111.989 145.632 111.989 146.112C111.989 146.592 112.085 147.013 112.277 147.376C112.469 147.739 112.741 148.021 113.093 148.224C113.445 148.416 113.851 148.512 114.309 148.512C114.704 148.512 115.067 148.443 115.397 148.304C115.739 148.165 116.027 147.963 116.261 147.696L117.381 148.832C117.008 149.269 116.555 149.6 116.021 149.824C115.488 150.048 114.923 150.16 114.325 150.16ZM122.52 150.16C121.827 150.16 121.197 149.984 120.632 149.632C120.077 149.28 119.635 148.805 119.304 148.208C118.984 147.6 118.824 146.923 118.824 146.176C118.824 145.419 118.984 144.741 119.304 144.144C119.635 143.536 120.077 143.056 120.632 142.704C121.197 142.341 121.827 142.16 122.52 142.16C123.107 142.16 123.624 142.288 124.072 142.544C124.531 142.789 124.893 143.131 125.16 143.568C125.427 144.005 125.56 144.501 125.56 145.056V147.264C125.56 147.819 125.427 148.315 125.16 148.752C124.904 149.189 124.547 149.536 124.088 149.792C123.629 150.037 123.107 150.16 122.52 150.16ZM122.808 148.496C123.245 148.496 123.624 148.4 123.944 148.208C124.275 148.005 124.531 147.728 124.712 147.376C124.893 147.024 124.984 146.619 124.984 146.16C124.984 145.701 124.893 145.296 124.712 144.944C124.531 144.592 124.275 144.32 123.944 144.128C123.624 143.925 123.251 143.824 122.824 143.824C122.387 143.824 122.003 143.925 121.672 144.128C121.352 144.32 121.096 144.592 120.904 144.944C120.723 145.296 120.632 145.701 120.632 146.16C120.632 146.619 120.723 147.024 120.904 147.376C121.096 147.728 121.352 148.005 121.672 148.208C122.003 148.4 122.381 148.496 122.808 148.496ZM126.632 150H124.872V147.936L125.176 146.064L124.872 144.208V138.48H126.632V150ZM133.293 150V148.32H136.237C137.005 148.32 137.677 148.155 138.253 147.824C138.839 147.493 139.293 147.035 139.613 146.448C139.943 145.851 140.109 145.163 140.109 144.384C140.109 143.616 139.943 142.939 139.613 142.352C139.282 141.765 138.823 141.307 138.237 140.976C137.661 140.645 136.994 140.48 136.237 140.48H133.293V138.8H136.285C137.095 138.8 137.847 138.944 138.541 139.232C139.234 139.509 139.837 139.904 140.349 140.416C140.871 140.917 141.277 141.509 141.565 142.192C141.853 142.864 141.997 143.6 141.997 144.4C141.997 145.189 141.853 145.925 141.565 146.608C141.277 147.291 140.877 147.888 140.365 148.4C139.853 148.901 139.25 149.296 138.557 149.584C137.863 149.861 137.117 150 136.317 150H133.293ZM132.029 150V138.8H133.869V150H132.029ZM146.848 150.16C146.155 150.16 145.526 149.984 144.96 149.632C144.406 149.28 143.963 148.805 143.632 148.208C143.312 147.6 143.152 146.923 143.152 146.176C143.152 145.419 143.312 144.741 143.632 144.144C143.963 143.536 144.406 143.056 144.96 142.704C145.526 142.341 146.155 142.16 146.848 142.16C147.435 142.16 147.952 142.288 148.4 142.544C148.859 142.789 149.222 143.131 149.488 143.568C149.755 144.005 149.888 144.501 149.888 145.056V147.264C149.888 147.819 149.755 148.315 149.488 148.752C149.232 149.189 148.875 149.536 148.416 149.792C147.958 150.037 147.435 150.16 146.848 150.16ZM147.136 148.496C147.787 148.496 148.31 148.277 148.704 147.84C149.11 147.403 149.312 146.843 149.312 146.16C149.312 145.701 149.222 145.296 149.04 144.944C148.859 144.592 148.603 144.32 148.272 144.128C147.952 143.925 147.574 143.824 147.136 143.824C146.71 143.824 146.331 143.925 146 144.128C145.68 144.32 145.424 144.592 145.232 144.944C145.051 145.296 144.96 145.701 144.96 146.16C144.96 146.619 145.051 147.024 145.232 147.376C145.424 147.728 145.68 148.005 146 148.208C146.331 148.4 146.71 148.496 147.136 148.496ZM149.2 150V147.936L149.504 146.064L149.2 144.208V142.32H150.96V150H149.2ZM154.082 150V139.12H155.842V150H154.082ZM152.242 143.92V142.32H157.682V143.92H152.242ZM161.958 150.16C161.264 150.16 160.635 149.984 160.07 149.632C159.515 149.28 159.072 148.805 158.742 148.208C158.422 147.6 158.262 146.923 158.262 146.176C158.262 145.419 158.422 144.741 158.742 144.144C159.072 143.536 159.515 143.056 160.07 142.704C160.635 142.341 161.264 142.16 161.958 142.16C162.544 142.16 163.062 142.288 163.51 142.544C163.968 142.789 164.331 143.131 164.598 143.568C164.864 144.005 164.998 144.501 164.998 145.056V147.264C164.998 147.819 164.864 148.315 164.598 148.752C164.342 149.189 163.984 149.536 163.526 149.792C163.067 150.037 162.544 150.16 161.958 150.16ZM162.246 148.496C162.896 148.496 163.419 148.277 163.814 147.84C164.219 147.403 164.422 146.843 164.422 146.16C164.422 145.701 164.331 145.296 164.15 144.944C163.968 144.592 163.712 144.32 163.382 144.128C163.062 143.925 162.683 143.824 162.246 143.824C161.819 143.824 161.44 143.925 161.11 144.128C160.79 144.32 160.534 144.592 160.342 144.944C160.16 145.296 160.07 145.701 160.07 146.16C160.07 146.619 160.16 147.024 160.342 147.376C160.534 147.728 160.79 148.005 161.11 148.208C161.44 148.4 161.819 148.496 162.246 148.496ZM164.31 150V147.936L164.614 146.064L164.31 144.208V142.32H166.07V150H164.31Z" fill="#1D1D1D"/>
<rect x="64" y="164" width="80" height="8" rx="4" fill="#E7E7E7"/>
<path d="M32 146C32 144.895 32.8954 144 34 144H46C47.1046 144 48 144.895 48 146V161.108C48 162.736 46.1593 163.682 44.8358 162.735L41.1642 160.106C40.4681 159.608 39.5319 159.608 38.8358 160.106L35.1642 162.735C33.8407 163.682 32 162.736 32 161.108V146Z" fill="#474BC5"/>
<path fill-rule="evenodd" clip-rule="evenodd" d="M36 148.771C36 148.244 36.4477 147.816 37 147.816H43C43.5523 147.816 44 148.244 44 148.771C44 149.298 43.5523 149.725 43 149.725H37C36.4477 149.725 36 149.298 36 148.771Z" fill="white"/>
<rect x="32" y="192" width="182" height="40" rx="5" fill="#474BC5"/>
<path d="M86.1929 216.12C85.5129 216.12 84.9289 216.004 84.4409 215.772C83.9609 215.54 83.5249 215.192 83.1329 214.728L84.2129 213.648C84.4609 213.976 84.7489 214.232 85.0769 214.416C85.4049 214.592 85.8049 214.68 86.2769 214.68C86.7009 214.68 87.0369 214.596 87.2849 214.428C87.5409 214.26 87.6689 214.028 87.6689 213.732C87.6689 213.476 87.5969 213.268 87.4529 213.108C87.3089 212.948 87.1169 212.812 86.8769 212.7C86.6449 212.588 86.3849 212.488 86.0969 212.4C85.8169 212.304 85.5329 212.196 85.2449 212.076C84.9649 211.956 84.7049 211.808 84.4649 211.632C84.2329 211.448 84.0449 211.216 83.9009 210.936C83.7569 210.648 83.6849 210.288 83.6849 209.856C83.6849 209.344 83.8089 208.908 84.0569 208.548C84.3049 208.188 84.6449 207.912 85.0769 207.72C85.5089 207.528 85.9969 207.432 86.5409 207.432C87.1169 207.432 87.6369 207.54 88.1009 207.756C88.5649 207.972 88.9449 208.252 89.2409 208.596L88.1609 209.676C87.9129 209.404 87.6569 209.204 87.3929 209.076C87.1369 208.948 86.8449 208.884 86.5169 208.884C86.1409 208.884 85.8449 208.956 85.6289 209.1C85.4129 209.244 85.3049 209.452 85.3049 209.724C85.3049 209.956 85.3769 210.144 85.5209 210.288C85.6649 210.432 85.8529 210.556 86.0849 210.66C86.3249 210.764 86.5849 210.864 86.8649 210.96C87.1529 211.056 87.4369 211.164 87.7169 211.284C88.0049 211.404 88.2649 211.56 88.4969 211.752C88.7369 211.944 88.9289 212.192 89.0729 212.496C89.2169 212.792 89.2889 213.16 89.2889 213.6C89.2889 214.384 89.0129 215 88.4609 215.448C87.9089 215.896 87.1529 216.12 86.1929 216.12ZM93.134 216.12C92.526 216.12 91.986 215.992 91.514 215.736C91.042 215.472 90.666 215.112 90.386 214.656C90.114 214.2 89.978 213.68 89.978 213.096C89.978 212.52 90.11 212.008 90.374 211.56C90.646 211.104 91.014 210.744 91.478 210.48C91.942 210.208 92.458 210.072 93.026 210.072C93.586 210.072 94.078 210.2 94.502 210.456C94.934 210.704 95.27 211.048 95.51 211.488C95.758 211.92 95.882 212.412 95.882 212.964C95.882 213.068 95.874 213.176 95.858 213.288C95.85 213.392 95.83 213.512 95.798 213.648L90.926 213.66V212.484L95.066 212.472L94.43 212.964C94.414 212.62 94.35 212.332 94.238 212.1C94.134 211.868 93.978 211.692 93.77 211.572C93.57 211.444 93.322 211.38 93.026 211.38C92.714 211.38 92.442 211.452 92.21 211.596C91.978 211.732 91.798 211.928 91.67 212.184C91.55 212.432 91.49 212.728 91.49 213.072C91.49 213.424 91.554 213.732 91.682 213.996C91.818 214.252 92.01 214.452 92.258 214.596C92.506 214.732 92.794 214.8 93.122 214.8C93.418 214.8 93.686 214.752 93.926 214.656C94.166 214.552 94.374 214.4 94.55 214.2L95.474 215.124C95.194 215.452 94.85 215.7 94.442 215.868C94.042 216.036 93.606 216.12 93.134 216.12ZM99.6262 216.12C99.0182 216.12 98.4782 215.992 98.0062 215.736C97.5342 215.472 97.1582 215.112 96.8782 214.656C96.6062 214.2 96.4702 213.68 96.4702 213.096C96.4702 212.52 96.6022 212.008 96.8662 211.56C97.1382 211.104 97.5062 210.744 97.9702 210.48C98.4342 210.208 98.9502 210.072 99.5182 210.072C100.078 210.072 100.57 210.2 100.994 210.456C101.426 210.704 101.762 211.048 102.002 211.488C102.25 211.92 102.374 212.412 102.374 212.964C102.374 213.068 102.366 213.176 102.35 213.288C102.342 213.392 102.322 213.512 102.29 213.648L97.4182 213.66V212.484L101.558 212.472L100.922 212.964C100.906 212.62 100.842 212.332 100.73 212.1C100.626 211.868 100.47 211.692 100.262 211.572C100.062 211.444 99.8142 211.38 99.5182 211.38C99.2062 211.38 98.9342 211.452 98.7022 211.596C98.4702 211.732 98.2902 211.928 98.1622 212.184C98.0422 212.432 97.9822 212.728 97.9822 213.072C97.9822 213.424 98.0462 213.732 98.1742 213.996C98.3102 214.252 98.5022 214.452 98.7502 214.596C98.9982 214.732 99.2862 214.8 99.6142 214.8C99.9102 214.8 100.178 214.752 100.418 214.656C100.658 214.552 100.866 214.4 101.042 214.2L101.966 215.124C101.686 215.452 101.342 215.7 100.934 215.868C100.534 216.036 100.098 216.12 99.6262 216.12ZM104.894 216L108.29 207.564H109.622L113.006 216H111.266L108.65 209.076H109.25L106.598 216H104.894ZM106.694 214.428V213.06H111.23V214.428H106.694ZM113.928 216V207.324H115.5V216H113.928ZM116.893 216V207.324H118.465V216H116.893ZM121.406 216L124.802 207.564H126.134L129.518 216H127.778L125.162 209.076H125.762L123.11 216H121.406ZM123.206 214.428V213.06H127.742V214.428H123.206ZM132.86 216.12C132.268 216.12 131.736 215.988 131.264 215.724C130.792 215.46 130.42 215.1 130.148 214.644C129.876 214.188 129.74 213.676 129.74 213.108C129.74 212.532 129.876 212.016 130.148 211.56C130.42 211.104 130.792 210.744 131.264 210.48C131.744 210.208 132.276 210.072 132.86 210.072C133.316 210.072 133.736 210.156 134.12 210.324C134.504 210.492 134.836 210.732 135.116 211.044L134.108 212.064C133.956 211.896 133.772 211.768 133.556 211.68C133.348 211.592 133.116 211.548 132.86 211.548C132.572 211.548 132.312 211.616 132.08 211.752C131.856 211.88 131.676 212.06 131.54 212.292C131.412 212.516 131.348 212.784 131.348 213.096C131.348 213.4 131.412 213.672 131.54 213.912C131.676 214.144 131.856 214.328 132.08 214.464C132.312 214.592 132.572 214.656 132.86 214.656C133.124 214.656 133.36 214.612 133.568 214.524C133.784 214.428 133.968 214.292 134.12 214.116L135.14 215.136C134.844 215.456 134.504 215.7 134.12 215.868C133.736 216.036 133.316 216.12 132.86 216.12ZM136.788 216V207.792H138.36V216H136.788ZM135.432 211.584V210.204H139.716V211.584H135.432ZM140.6 216V210.204H142.184V216H140.6ZM141.392 209.268C141.136 209.268 140.924 209.184 140.756 209.016C140.588 208.84 140.504 208.624 140.504 208.368C140.504 208.12 140.588 207.908 140.756 207.732C140.924 207.556 141.136 207.468 141.392 207.468C141.656 207.468 141.868 207.556 142.028 207.732C142.196 207.908 142.28 208.12 142.28 208.368C142.28 208.624 142.196 208.84 142.028 209.016C141.868 209.184 141.656 209.268 141.392 209.268ZM145.461 216L142.905 210.204H144.633L146.469 214.98H145.617L147.465 210.204H149.133L146.589 216H145.461ZM149.858 216V210.204H151.442V216H149.858ZM150.65 209.268C150.394 209.268 150.182 209.184 150.014 209.016C149.846 208.84 149.762 208.624 149.762 208.368C149.762 208.12 149.846 207.908 150.014 207.732C150.182 207.556 150.394 207.468 150.65 207.468C150.914 207.468 151.126 207.556 151.286 207.732C151.454 207.908 151.538 208.12 151.538 208.368C151.538 208.624 151.454 208.84 151.286 209.016C151.126 209.184 150.914 209.268 150.65 209.268ZM153.687 216V207.792H155.259V216H153.687ZM152.331 211.584V210.204H156.615V211.584H152.331ZM159.323 216.048L156.899 210.204H158.603L160.211 214.668H159.635L161.303 210.204H163.019L160.439 216.036L159.323 216.048ZM157.715 218.424L159.479 214.692L160.439 216.036L159.383 218.424H157.715Z" fill="white"/>
<defs>
<filter id="filter0_d_1358_3886" x="0" y="0" width="238" height="260" filterUnits="userSpaceOnUse" color-interpolation-filters="sRGB">
<feFlood flood-opacity="0" result="BackgroundImageFix"/>
<feColorMatrix in="SourceAlpha" type="matrix" values="0 0 0 0 0 0 0 0 0 0 0 0 0 0 0 0 0 0 127 0" result="hardAlpha"/>
<feOffset dx="-8" dy="8"/>
<feComposite in2="hardAlpha" operator="out"/>
<feColorMatrix type="matrix" values="0 0 0 0 0 0 0 0 0 0 0 0 0 0 0 0 0 0 0.3 0"/>
<feBlend mode="normal" in2="BackgroundImageFix" result="effect1_dropShadow_1358_3886"/>
<feBlend mode="normal" in="SourceGraphic" in2="effect1_dropShadow_1358_3886" result="shape"/>
</filter>
</defs>
</svg>
