<svg width="180" height="36" viewBox="0 0 180 36" fill="none" xmlns="http://www.w3.org/2000/svg">
<path d="M25.5633 29.7945L1.42959 13.1781C-1.01607 11.4943 -0.184707 7.98834 2.86497 7.1639L28.5148 0.215217C29.0582 0.0195258 29.6404 -0.0439993 30.2133 0.0299186C30.7861 0.103836 31.3331 0.313062 31.8088 0.640234C32.2843 0.967406 32.675 1.40309 32.9481 1.91111C33.2212 2.41914 33.369 2.98486 33.3792 3.56133L31.8591 27.1251C31.6788 29.922 28.009 31.4783 25.5633 29.7945Z" fill="#E9327C"/>
<path d="M17.9083 33.8972L3.69032 6.14414C3.36531 5.50924 3.22229 4.79706 3.27703 4.08618C3.33177 3.37529 3.58215 2.6933 4.00053 2.11542C4.41893 1.53755 4.98909 1.08623 5.64814 0.811233C6.30719 0.53624 7.02952 0.448264 7.73548 0.557013L34.0849 4.6161C34.6915 4.70957 35.2672 4.94542 35.7648 5.30427C36.2623 5.66313 36.6674 6.13473 36.9468 6.6803C37.226 7.22587 37.3717 7.82982 37.3716 8.44251C37.3715 9.05519 37.2256 9.65911 36.9462 10.2046L24.8081 33.8985C24.4821 34.5316 23.9876 35.0628 23.3789 35.4336C22.7701 35.8044 22.0709 36.0005 21.3578 36.0003C20.6446 36.0002 19.9454 35.8039 19.3368 35.4329C18.7282 35.0617 18.234 34.5304 17.9083 33.8972Z" fill="#1DACE3"/>
<path d="M33.3165 4.49812L20.1815 2.47461L4.05469 6.84523L10.4917 19.4146L25.5652 29.7967C25.8977 30.0232 26.2635 30.1967 26.6495 30.3109L32.3748 19.1353L33.3165 4.49812Z" fill="#001A49"/>
<path d="M99.8516 7.74127C99.8516 7.25395 99.9963 6.77758 100.268 6.37239C100.539 5.9672 100.924 5.65139 101.375 5.46489C101.827 5.27841 102.323 5.22962 102.802 5.32468C103.28 5.41976 103.72 5.65444 104.066 5.99901C104.411 6.3436 104.646 6.78263 104.741 7.26058C104.836 7.73854 104.788 8.23396 104.601 8.68418C104.414 9.1344 104.097 9.51922 103.692 9.78995C103.286 10.0607 102.808 10.2052 102.32 10.2052C101.667 10.1986 101.043 9.93684 100.582 9.4762C100.12 9.01554 99.8582 8.39269 99.8516 7.74127ZM100.263 11.4096H104.378V25.0975H100.263V11.4096Z" fill="#001A49"/>
<path d="M122.153 18.2539C122.201 19.1586 122.069 20.0639 121.765 20.9176C121.461 21.7712 120.991 22.5565 120.382 23.2283C119.773 23.8999 119.037 24.4448 118.216 24.8317C117.395 25.2184 116.506 25.4394 115.599 25.4818C114.836 25.5232 114.074 25.3948 113.367 25.106C112.66 24.817 112.027 24.3749 111.512 23.8115V30.5735H107.398V11.4099H111.512V12.6963C112.027 12.133 112.661 11.6911 113.367 11.4024C114.074 11.1138 114.837 10.9856 115.599 11.0272C116.506 11.0695 117.395 11.2903 118.216 11.6768C119.037 12.0636 119.773 12.6083 120.382 13.2799C120.991 13.9516 121.461 14.7367 121.765 15.5904C122.069 16.444 122.201 17.3491 122.153 18.2539ZM118.039 18.2539C118.023 17.613 117.818 16.9911 117.45 16.466C117.081 15.941 116.566 15.536 115.968 15.302C115.37 15.0678 114.716 15.015 114.088 15.15C113.46 15.2849 112.886 15.6017 112.438 16.0606C111.989 16.5196 111.687 17.1004 111.567 17.7303C111.448 18.3602 111.518 19.0113 111.767 19.602C112.017 20.1926 112.435 20.6967 112.97 21.0512C113.506 21.4057 114.134 21.5946 114.776 21.5946C115.217 21.6145 115.657 21.5409 116.068 21.3789C116.478 21.2169 116.85 20.9699 117.158 20.6545C117.466 20.339 117.704 19.9621 117.856 19.5483C118.008 19.1346 118.07 18.6933 118.039 18.2539Z" fill="#001A49"/>
<path d="M134.843 20.989C134.843 24.1378 132.101 25.4792 129.138 25.4792C127.942 25.5872 126.74 25.3344 125.689 24.7534C124.638 24.1725 123.786 23.2901 123.242 22.2203L126.807 20.1955C126.952 20.69 127.263 21.1198 127.687 21.4131C128.111 21.7063 128.624 21.8453 129.138 21.8068C130.126 21.8068 130.618 21.5046 130.618 20.9581C130.618 19.4516 123.872 20.2465 123.872 15.5093C123.872 12.5257 126.394 11.0205 129.253 11.0205C130.325 10.9869 131.387 11.2409 132.327 11.7559C133.268 12.271 134.052 13.0283 134.6 13.949L131.09 15.8383C130.937 15.479 130.681 15.1727 130.354 14.9578C130.027 14.7429 129.644 14.6289 129.253 14.6298C128.54 14.6298 128.101 14.8984 128.101 15.3965C128.097 16.9675 134.843 15.9269 134.843 20.989Z" fill="#001A49"/>
<path d="M149.883 11.4102V25.0981H145.77V23.809C145.295 24.3769 144.691 24.8243 144.009 25.1147C143.328 25.405 142.587 25.53 141.847 25.4794C139.077 25.4794 136.719 23.5082 136.719 19.8117V11.4102H140.833V19.2128C140.798 19.5391 140.835 19.869 140.941 20.1795C141.048 20.4899 141.22 20.7736 141.447 21.0107C141.675 21.2479 141.95 21.4326 142.256 21.5523C142.563 21.6721 142.891 21.7236 143.219 21.7036C144.727 21.7036 145.775 20.8281 145.775 18.8838V11.4102H149.883Z" fill="#001A49"/>
<path d="M173.461 16.6918V25.0974H169.347V17.049C169.347 15.6808 168.688 14.804 167.372 14.804C166 14.804 165.233 15.7627 165.233 17.378V25.0974H161.118V17.049C161.118 15.6808 160.46 14.804 159.143 14.804C157.773 14.804 157.004 15.7627 157.004 17.378V25.0974H152.891V11.4095H157.011V12.6636C157.438 12.1052 157.997 11.6623 158.639 11.3754C159.281 11.0886 159.985 10.9669 160.686 11.0215C161.39 10.9871 162.092 11.1354 162.722 11.4519C163.351 11.7684 163.888 12.2423 164.279 12.8274C164.736 12.2153 165.34 11.7284 166.035 11.4126C166.731 11.0967 167.496 10.9622 168.257 11.0215C171.405 11.0268 173.461 13.2705 173.461 16.6918Z" fill="#001A49"/>
<path d="M176.944 11.3245C178.631 11.3245 179.998 9.95992 179.998 8.27654C179.998 6.59317 178.631 5.22852 176.944 5.22852C175.257 5.22852 173.891 6.59317 173.891 8.27654C173.891 9.95992 175.257 11.3245 176.944 11.3245Z" fill="#001A49"/>
<path d="M43.6797 5.11328H47.7948V25.0974H43.6797V5.11328ZM50.1248 18.2534C50.1203 16.8183 50.5425 15.4142 51.3379 14.2189C52.1334 13.0234 53.2663 12.0905 54.5933 11.5382C55.9204 10.9859 57.3816 10.8391 58.7923 11.1163C60.203 11.3935 61.4995 12.0822 62.5177 13.0954C63.5359 14.1085 64.2301 15.4003 64.5122 16.8075C64.7943 18.2147 64.6518 19.6738 64.1027 21C63.5536 22.3262 62.6225 23.46 61.4274 24.2577C60.2323 25.0555 58.8269 25.4814 57.3891 25.4814C56.4342 25.4914 55.4869 25.3117 54.6024 24.9523C53.7181 24.593 52.9141 24.0613 52.2379 23.3884C51.5615 22.7155 51.0264 21.9148 50.6635 21.0331C50.3007 20.1515 50.1176 19.2065 50.1248 18.2534ZM60.5477 18.2534C60.5316 17.6343 60.333 17.0338 59.9767 16.5269C59.6205 16.02 59.1223 15.6292 58.5447 15.4033C57.9669 15.1776 57.3354 15.1267 56.729 15.2573C56.1226 15.3879 55.5682 15.6941 55.1351 16.1375C54.7021 16.581 54.4098 17.142 54.2945 17.7504C54.1793 18.3589 54.2463 18.9877 54.4874 19.5584C54.7283 20.1289 55.1326 20.616 55.6494 20.9585C56.1663 21.301 56.7729 21.4838 57.3931 21.484C57.818 21.4961 58.2408 21.4201 58.6347 21.261C59.0287 21.102 59.3853 20.8632 59.6822 20.5596C59.9791 20.2561 60.2098 19.8945 60.3597 19.4976C60.5095 19.1005 60.5755 18.6769 60.5531 18.2534H60.5477ZM81.0614 11.4054V24.4099C81.0614 29.0088 77.4683 30.9517 73.8213 30.9517C72.5377 31.0484 71.252 30.7904 70.1053 30.2061C68.9588 29.6218 67.9954 28.7336 67.3211 27.6392L70.8308 25.613C71.1141 26.1842 71.5655 26.6555 72.1244 26.9639C72.6834 27.2722 73.3232 27.4028 73.9585 27.3384C74.3641 27.3936 74.7768 27.3573 75.1664 27.232C75.556 27.1068 75.9124 26.896 76.2094 26.6148C76.5063 26.3337 76.7362 25.9897 76.8822 25.608C77.0281 25.2264 77.0864 24.8169 77.0526 24.4099V23.1504C76.5707 23.7385 75.9574 24.2058 75.2621 24.5147C74.5666 24.8237 73.8083 24.9658 73.0478 24.9295C71.2378 24.8733 69.5206 24.1161 68.2601 22.8182C66.9996 21.5203 66.2947 19.7837 66.2947 17.9761C66.2947 16.1684 66.9996 14.4318 68.2601 13.1339C69.5206 11.836 71.2378 11.0788 73.0478 11.0227C73.8083 10.9864 74.5666 11.1284 75.2621 11.4374C75.9574 11.7464 76.5707 12.2136 77.0526 12.8019V11.4054H81.0614ZM77.058 17.9755C77.0852 17.3143 76.9135 16.6602 76.5652 16.0972C76.2169 15.5342 75.7079 15.088 75.1035 14.8161C74.4992 14.5442 73.8271 14.459 73.1738 14.5713C72.5206 14.6837 71.9159 14.9885 71.4375 15.4467C70.9592 15.9048 70.629 16.4952 70.4897 17.142C70.3502 17.789 70.4077 18.4626 70.655 19.0766C70.9021 19.6905 71.3278 20.2166 71.8769 20.5872C72.426 20.9578 73.0738 21.156 73.7366 21.1564C74.1688 21.1866 74.6026 21.1263 75.0101 20.9793C75.4176 20.8323 75.7897 20.6017 76.1026 20.3024C76.4154 20.0033 76.6621 19.6419 76.8266 19.2419C76.9911 18.8418 77.07 18.4117 77.058 17.9795V17.9755ZM83.3914 18.244C83.387 16.8089 83.8091 15.4048 84.6045 14.2095C85.4 13.014 86.533 12.0811 87.8599 11.5288C89.187 10.9765 90.6482 10.8297 92.059 11.1069C93.4696 11.3841 94.766 12.0728 95.7844 13.086C96.8026 14.0991 97.4967 15.391 97.7788 16.7981C98.0609 18.2053 97.9185 19.6644 97.3693 20.9906C96.8202 22.3168 95.8892 23.4506 94.694 24.2483C93.4989 25.0461 92.0935 25.472 90.6557 25.472C89.7017 25.482 88.7552 25.3025 87.8713 24.9437C86.9875 24.5851 86.184 24.0542 85.5079 23.3823C84.8316 22.7104 84.2964 21.9109 83.933 21.0302C83.5695 20.1496 83.3855 19.2057 83.3914 18.2534V18.244ZM93.8144 18.244C93.7985 17.6246 93.5999 17.0236 93.2437 16.5162C92.8874 16.0089 92.389 15.6177 91.811 15.3916C91.233 15.1655 90.6011 15.1146 89.9943 15.2453C89.3874 15.3758 88.8327 15.6822 88.3995 16.1258C87.9662 16.5696 87.6736 17.131 87.5584 17.7398C87.4432 18.3486 87.5104 18.9779 87.7516 19.5487C87.993 20.1197 88.3975 20.6068 88.9147 20.9495C89.4321 21.292 90.0391 21.4746 90.6598 21.4746C91.0834 21.4858 91.5046 21.4097 91.8973 21.2508C92.2899 21.092 92.6455 20.8538 92.9417 20.5514C93.2378 20.249 93.4683 19.8887 93.6184 19.4933C93.7686 19.0979 93.8354 18.6757 93.8144 18.2534V18.244Z" fill="#001A49"/>
</svg>
