<svg width="574" height="544" viewBox="0 0 574 544" fill="none" xmlns="http://www.w3.org/2000/svg">
<g filter="url(#filter0_d_1477_4474)">
<rect x="326" width="248" height="242" rx="10" fill="white"/>
</g>
<path d="M348.79 26.654V24.944H351.976C352.612 24.944 353.104 24.782 353.452 24.458C353.812 24.122 353.992 23.66 353.992 23.072C353.992 22.544 353.818 22.1 353.47 21.74C353.122 21.38 352.63 21.2 351.994 21.2H348.79V19.4H352.084C352.876 19.4 353.572 19.562 354.172 19.886C354.772 20.198 355.234 20.63 355.558 21.182C355.894 21.722 356.062 22.34 356.062 23.036C356.062 23.768 355.894 24.404 355.558 24.944C355.234 25.484 354.772 25.904 354.172 26.204C353.572 26.504 352.876 26.654 352.084 26.654H348.79ZM347.368 32V19.4H349.438V32H347.368ZM354.28 32L349.87 26.528L351.796 25.826L356.89 32H354.28ZM361.905 32.18C361.041 32.18 360.261 31.988 359.565 31.604C358.881 31.208 358.335 30.668 357.927 29.984C357.531 29.3 357.333 28.532 357.333 27.68C357.333 26.828 357.531 26.066 357.927 25.394C358.323 24.71 358.857 24.17 359.529 23.774C360.213 23.378 360.969 23.18 361.797 23.18C362.601 23.18 363.309 23.366 363.921 23.738C364.545 24.11 365.031 24.62 365.379 25.268C365.739 25.916 365.919 26.654 365.919 27.482C365.919 27.626 365.907 27.776 365.883 27.932C365.871 28.076 365.847 28.238 365.811 28.418H358.719V26.798H364.785L364.047 27.446C364.023 26.918 363.921 26.474 363.741 26.114C363.561 25.754 363.303 25.478 362.967 25.286C362.643 25.094 362.241 24.998 361.761 24.998C361.257 24.998 360.819 25.106 360.447 25.322C360.075 25.538 359.787 25.844 359.583 26.24C359.379 26.624 359.277 27.086 359.277 27.626C359.277 28.166 359.385 28.64 359.601 29.048C359.817 29.456 360.123 29.774 360.519 30.002C360.915 30.218 361.371 30.326 361.887 30.326C362.331 30.326 362.739 30.248 363.111 30.092C363.495 29.936 363.819 29.708 364.083 29.408L365.343 30.686C364.923 31.178 364.413 31.55 363.813 31.802C363.213 32.054 362.577 32.18 361.905 32.18ZM371.484 32.18C370.632 32.18 369.858 31.982 369.162 31.586C368.478 31.19 367.938 30.65 367.542 29.966C367.146 29.282 366.948 28.52 366.948 27.68C366.948 26.828 367.146 26.066 367.542 25.394C367.938 24.71 368.478 24.17 369.162 23.774C369.858 23.378 370.632 23.18 371.484 23.18C372.156 23.18 372.78 23.312 373.356 23.576C373.944 23.828 374.442 24.194 374.85 24.674L373.554 25.988C373.302 25.688 372.996 25.466 372.636 25.322C372.288 25.166 371.904 25.088 371.484 25.088C370.992 25.088 370.554 25.202 370.17 25.43C369.798 25.646 369.504 25.946 369.288 26.33C369.084 26.714 368.982 27.164 368.982 27.68C368.982 28.184 369.084 28.634 369.288 29.03C369.504 29.414 369.798 29.72 370.17 29.948C370.554 30.164 370.992 30.272 371.484 30.272C371.904 30.272 372.288 30.2 372.636 30.056C372.996 29.9 373.302 29.672 373.554 29.372L374.85 30.686C374.442 31.166 373.944 31.538 373.356 31.802C372.78 32.054 372.156 32.18 371.484 32.18ZM380.116 32.18C379.252 32.18 378.472 31.988 377.776 31.604C377.092 31.208 376.546 30.668 376.138 29.984C375.742 29.3 375.544 28.532 375.544 27.68C375.544 26.828 375.742 26.066 376.138 25.394C376.534 24.71 377.068 24.17 377.74 23.774C378.424 23.378 379.18 23.18 380.008 23.18C380.812 23.18 381.52 23.366 382.132 23.738C382.756 24.11 383.242 24.62 383.59 25.268C383.95 25.916 384.13 26.654 384.13 27.482C384.13 27.626 384.118 27.776 384.094 27.932C384.082 28.076 384.058 28.238 384.022 28.418H376.93V26.798H382.996L382.258 27.446C382.234 26.918 382.132 26.474 381.952 26.114C381.772 25.754 381.514 25.478 381.178 25.286C380.854 25.094 380.452 24.998 379.972 24.998C379.468 24.998 379.03 25.106 378.658 25.322C378.286 25.538 377.998 25.844 377.794 26.24C377.59 26.624 377.488 27.086 377.488 27.626C377.488 28.166 377.596 28.64 377.812 29.048C378.028 29.456 378.334 29.774 378.73 30.002C379.126 30.218 379.582 30.326 380.098 30.326C380.542 30.326 380.95 30.248 381.322 30.092C381.706 29.936 382.03 29.708 382.294 29.408L383.554 30.686C383.134 31.178 382.624 31.55 382.024 31.802C381.424 32.054 380.788 32.18 380.116 32.18ZM391.639 32V27.014C391.639 26.438 391.453 25.964 391.081 25.592C390.721 25.22 390.253 25.034 389.677 25.034C389.293 25.034 388.951 25.118 388.651 25.286C388.351 25.454 388.117 25.688 387.949 25.988C387.781 26.288 387.697 26.63 387.697 27.014L386.923 26.582C386.923 25.922 387.067 25.34 387.355 24.836C387.643 24.32 388.039 23.918 388.543 23.63C389.059 23.33 389.635 23.18 390.271 23.18C390.919 23.18 391.495 23.348 391.999 23.684C392.503 24.008 392.899 24.434 393.187 24.962C393.475 25.478 393.619 26.018 393.619 26.582V32H391.639ZM385.717 32V23.36H387.697V32H385.717ZM396.84 32V19.76H398.82V32H396.84ZM394.77 25.16V23.36H400.89V25.16H394.77ZM404.756 32L409.94 19.4H411.38L416.528 32H414.296L410.264 21.794H411.02L406.952 32H404.756ZM407.312 29.57V27.77H413.99V29.57H407.312ZM421.529 32.18C420.677 32.18 419.903 31.982 419.207 31.586C418.523 31.19 417.983 30.65 417.587 29.966C417.191 29.282 416.993 28.52 416.993 27.68C416.993 26.828 417.191 26.066 417.587 25.394C417.983 24.71 418.523 24.17 419.207 23.774C419.903 23.378 420.677 23.18 421.529 23.18C422.201 23.18 422.825 23.312 423.401 23.576C423.989 23.828 424.487 24.194 424.895 24.674L423.599 25.988C423.347 25.688 423.041 25.466 422.681 25.322C422.333 25.166 421.949 25.088 421.529 25.088C421.037 25.088 420.599 25.202 420.215 25.43C419.843 25.646 419.549 25.946 419.333 26.33C419.129 26.714 419.027 27.164 419.027 27.68C419.027 28.184 419.129 28.634 419.333 29.03C419.549 29.414 419.843 29.72 420.215 29.948C420.599 30.164 421.037 30.272 421.529 30.272C421.949 30.272 422.333 30.2 422.681 30.056C423.041 29.9 423.347 29.672 423.599 29.372L424.895 30.686C424.487 31.166 423.989 31.538 423.401 31.802C422.825 32.054 422.201 32.18 421.529 32.18ZM427.496 32V19.76H429.476V32H427.496ZM425.426 25.16V23.36H431.546V25.16H425.426ZM433.003 32V23.36H434.983V32H433.003ZM433.993 21.776C433.657 21.776 433.375 21.662 433.147 21.434C432.931 21.206 432.823 20.924 432.823 20.588C432.823 20.252 432.931 19.97 433.147 19.742C433.375 19.514 433.657 19.4 433.993 19.4C434.341 19.4 434.623 19.514 434.839 19.742C435.055 19.97 435.163 20.252 435.163 20.588C435.163 20.924 435.055 21.206 434.839 21.434C434.623 21.662 434.341 21.776 433.993 21.776ZM440.119 32L436.177 23.36H438.373L441.379 30.398H440.083L443.107 23.36H445.213L441.271 32H440.119ZM446.397 32V23.36H448.377V32H446.397ZM447.387 21.776C447.051 21.776 446.769 21.662 446.541 21.434C446.325 21.206 446.217 20.924 446.217 20.588C446.217 20.252 446.325 19.97 446.541 19.742C446.769 19.514 447.051 19.4 447.387 19.4C447.735 19.4 448.017 19.514 448.233 19.742C448.449 19.97 448.557 20.252 448.557 20.588C448.557 20.924 448.449 21.206 448.233 21.434C448.017 21.662 447.735 21.776 447.387 21.776ZM451.912 32V19.76H453.892V32H451.912ZM449.842 25.16V23.36H455.962V25.16H449.842ZM460.191 32.09L456.501 23.36H458.679L461.199 29.768H460.569L463.233 23.36H465.429L461.415 32.09H460.191ZM457.617 35.6L460.299 30.074L461.415 32.09L459.813 35.6H457.617Z" fill="#1D1D1D"/>
<circle cx="540" cy="24" r="2" fill="#9F9F9F"/>
<circle cx="546" cy="24" r="2" fill="#9F9F9F"/>
<circle cx="552" cy="24" r="2" fill="#9F9F9F"/>
<circle cx="361" cy="73" r="15" fill="#474BC5"/>
<path d="M361.778 71.666C361.778 71.1137 361.33 70.666 360.778 70.666H355C354.448 70.666 354 71.1137 354 71.666V77.666C354 78.9547 355.045 79.9993 356.333 79.9993H360.778C361.33 79.9993 361.778 79.5516 361.778 78.9993V71.666Z" fill="white"/>
<path d="M364.333 79.9993C363.781 79.9993 363.333 79.5516 363.333 78.9993V71.666C363.333 71.1137 363.781 70.666 364.333 70.666H367C367.552 70.666 368 71.1137 368 71.666V77.666C368 78.9547 366.955 79.9993 365.667 79.9993H364.333Z" fill="white"/>
<path d="M354 68.3333C354 67.0447 355.045 66 356.333 66H365.667C366.955 66 368 67.0447 368 68.3333C368 68.7629 367.652 69.1111 367.222 69.1111H354.778C354.348 69.1111 354 68.7629 354 68.3333Z" fill="white"/>
<path d="M388.434 78L392.41 68.284H393.362L397.324 78H395.896L392.634 69.782H393.124L389.834 78H388.434ZM390.324 75.802V74.654H395.434V75.802H390.324ZM399.694 78V68.564H400.954V78H399.694ZM398.056 72.498V71.35H406.554V72.498H398.056ZM403.656 78V68.564H404.916V78H403.656ZM410.666 78.14C410.003 78.14 409.406 77.9907 408.874 77.692C408.342 77.384 407.922 76.9687 407.614 76.446C407.306 75.9233 407.152 75.3307 407.152 74.668C407.152 74.0147 407.301 73.4267 407.6 72.904C407.908 72.3813 408.319 71.9707 408.832 71.672C409.355 71.364 409.938 71.21 410.582 71.21C411.198 71.21 411.739 71.35 412.206 71.63C412.682 71.91 413.051 72.2973 413.312 72.792C413.583 73.2867 413.718 73.8467 413.718 74.472C413.718 74.5653 413.713 74.668 413.704 74.78C413.695 74.8827 413.676 75.004 413.648 75.144H408.034V74.094H412.976L412.514 74.5C412.514 74.052 412.435 73.674 412.276 73.366C412.117 73.0487 411.893 72.806 411.604 72.638C411.315 72.4607 410.965 72.372 410.554 72.372C410.125 72.372 409.747 72.4653 409.42 72.652C409.093 72.8387 408.841 73.1 408.664 73.436C408.487 73.772 408.398 74.1687 408.398 74.626C408.398 75.0927 408.491 75.5033 408.678 75.858C408.865 76.2033 409.131 76.474 409.476 76.67C409.821 76.8567 410.218 76.95 410.666 76.95C411.039 76.95 411.38 76.8847 411.688 76.754C412.005 76.6233 412.276 76.4273 412.5 76.166L413.312 76.992C412.995 77.3653 412.603 77.65 412.136 77.846C411.679 78.042 411.189 78.14 410.666 78.14ZM419.796 78V74.122C419.796 73.618 419.637 73.2027 419.32 72.876C419.003 72.5493 418.592 72.386 418.088 72.386C417.752 72.386 417.453 72.4607 417.192 72.61C416.931 72.7593 416.725 72.9647 416.576 73.226C416.427 73.4873 416.352 73.786 416.352 74.122L415.834 73.828C415.834 73.324 415.946 72.876 416.17 72.484C416.394 72.092 416.707 71.784 417.108 71.56C417.509 71.3267 417.962 71.21 418.466 71.21C418.97 71.21 419.413 71.336 419.796 71.588C420.188 71.84 420.496 72.1713 420.72 72.582C420.944 72.9833 421.056 73.4127 421.056 73.87V78H419.796ZM415.092 78V71.35H416.352V78H415.092ZM425.576 78.14C424.96 78.14 424.409 77.9907 423.924 77.692C423.439 77.384 423.051 76.9687 422.762 76.446C422.482 75.9233 422.342 75.3353 422.342 74.682C422.342 74.0287 422.482 73.4407 422.762 72.918C423.051 72.3953 423.439 71.98 423.924 71.672C424.409 71.364 424.96 71.21 425.576 71.21C426.071 71.21 426.519 71.3173 426.92 71.532C427.321 71.7373 427.643 72.0267 427.886 72.4C428.138 72.764 428.278 73.1887 428.306 73.674V75.676C428.278 76.152 428.143 76.5767 427.9 76.95C427.657 77.3233 427.335 77.6173 426.934 77.832C426.533 78.0373 426.08 78.14 425.576 78.14ZM425.786 76.95C426.206 76.95 426.57 76.852 426.878 76.656C427.195 76.46 427.443 76.194 427.62 75.858C427.797 75.5127 427.886 75.1207 427.886 74.682C427.886 74.2247 427.793 73.828 427.606 73.492C427.429 73.156 427.181 72.89 426.864 72.694C426.556 72.498 426.192 72.4 425.772 72.4C425.352 72.4 424.983 72.498 424.666 72.694C424.349 72.89 424.097 73.1607 423.91 73.506C423.733 73.842 423.644 74.2293 423.644 74.668C423.644 75.116 423.733 75.5127 423.91 75.858C424.097 76.194 424.349 76.46 424.666 76.656C424.993 76.852 425.366 76.95 425.786 76.95ZM429.076 78H427.802V76.208L428.04 74.584L427.802 72.974V68.004H429.076V78ZM436.65 78.14C436.044 78.14 435.493 77.9907 434.998 77.692C434.504 77.384 434.112 76.9687 433.822 76.446C433.542 75.9233 433.402 75.3353 433.402 74.682C433.402 74.0287 433.542 73.4407 433.822 72.918C434.112 72.3953 434.499 71.98 434.984 71.672C435.479 71.364 436.034 71.21 436.65 71.21C437.154 71.21 437.602 71.3173 437.994 71.532C438.396 71.7373 438.718 72.0267 438.96 72.4C439.203 72.764 439.338 73.1887 439.366 73.674V75.676C439.338 76.152 439.203 76.5767 438.96 76.95C438.727 77.3233 438.41 77.6173 438.008 77.832C437.616 78.0373 437.164 78.14 436.65 78.14ZM436.86 76.95C437.486 76.95 437.99 76.74 438.372 76.32C438.755 75.8907 438.946 75.3447 438.946 74.682C438.946 74.2247 438.858 73.828 438.68 73.492C438.512 73.1467 438.27 72.8807 437.952 72.694C437.635 72.498 437.266 72.4 436.846 72.4C436.426 72.4 436.053 72.498 435.726 72.694C435.409 72.89 435.157 73.1607 434.97 73.506C434.793 73.842 434.704 74.2293 434.704 74.668C434.704 75.116 434.793 75.5127 434.97 75.858C435.157 76.194 435.414 76.46 435.74 76.656C436.067 76.852 436.44 76.95 436.86 76.95ZM438.862 78V76.208L439.1 74.584L438.862 72.974V71.35H440.136V78H438.862ZM446.787 78L444.155 71.35H445.471L447.375 76.53H446.955L448.845 71.35H449.573L451.463 76.53H451.043L452.947 71.35H454.263L451.645 78H450.903L448.985 72.974H449.447L447.515 78H446.787ZM458.23 78.14C457.576 78.14 456.988 77.986 456.466 77.678C455.943 77.37 455.528 76.9547 455.22 76.432C454.912 75.9 454.758 75.3073 454.758 74.654C454.758 74.01 454.912 73.4313 455.22 72.918C455.528 72.3953 455.943 71.98 456.466 71.672C456.988 71.364 457.576 71.21 458.23 71.21C458.874 71.21 459.457 71.364 459.98 71.672C460.512 71.9707 460.932 72.3813 461.24 72.904C461.548 73.4267 461.702 74.01 461.702 74.654C461.702 75.3073 461.548 75.9 461.24 76.432C460.932 76.9547 460.512 77.37 459.98 77.678C459.457 77.986 458.874 78.14 458.23 78.14ZM458.23 76.922C458.65 76.922 459.023 76.824 459.35 76.628C459.676 76.432 459.933 76.166 460.12 75.83C460.306 75.4847 460.4 75.0927 460.4 74.654C460.4 74.2247 460.302 73.842 460.106 73.506C459.919 73.17 459.662 72.9087 459.336 72.722C459.018 72.526 458.65 72.428 458.23 72.428C457.81 72.428 457.436 72.526 457.11 72.722C456.783 72.9087 456.526 73.17 456.34 73.506C456.153 73.842 456.06 74.2247 456.06 74.654C456.06 75.0927 456.153 75.4847 456.34 75.83C456.526 76.166 456.783 76.432 457.11 76.628C457.436 76.824 457.81 76.922 458.23 76.922ZM463.121 78V71.35H464.381V78H463.121ZM464.381 74.206L463.905 73.996C463.905 73.1467 464.101 72.47 464.493 71.966C464.885 71.462 465.45 71.21 466.187 71.21C466.523 71.21 466.827 71.2707 467.097 71.392C467.368 71.504 467.62 71.6953 467.853 71.966L467.027 72.82C466.887 72.6707 466.733 72.5633 466.565 72.498C466.397 72.4327 466.201 72.4 465.977 72.4C465.511 72.4 465.128 72.5493 464.829 72.848C464.531 73.1467 464.381 73.5993 464.381 74.206ZM472.996 78L469.888 74.598L472.968 71.35H474.494L471.064 74.934L471.12 74.206L474.62 78H472.996ZM468.74 78V68.004H470V78H468.74ZM478.368 78.14C477.715 78.14 477.127 77.986 476.604 77.678C476.082 77.37 475.666 76.9547 475.358 76.432C475.05 75.9 474.896 75.3073 474.896 74.654C474.896 74.01 475.05 73.4313 475.358 72.918C475.666 72.3953 476.082 71.98 476.604 71.672C477.127 71.364 477.715 71.21 478.368 71.21C479.012 71.21 479.596 71.364 480.118 71.672C480.65 71.9707 481.07 72.3813 481.378 72.904C481.686 73.4267 481.84 74.01 481.84 74.654C481.84 75.3073 481.686 75.9 481.378 76.432C481.07 76.9547 480.65 77.37 480.118 77.678C479.596 77.986 479.012 78.14 478.368 78.14ZM478.368 76.922C478.788 76.922 479.162 76.824 479.488 76.628C479.815 76.432 480.072 76.166 480.258 75.83C480.445 75.4847 480.538 75.0927 480.538 74.654C480.538 74.2247 480.44 73.842 480.244 73.506C480.058 73.17 479.801 72.9087 479.474 72.722C479.157 72.526 478.788 72.428 478.368 72.428C477.948 72.428 477.575 72.526 477.248 72.722C476.922 72.9087 476.665 73.17 476.478 73.506C476.292 73.842 476.198 74.2247 476.198 74.654C476.198 75.0927 476.292 75.4847 476.478 75.83C476.665 76.166 476.922 76.432 477.248 76.628C477.575 76.824 477.948 76.922 478.368 76.922ZM485.934 78.14C485.393 78.14 484.903 78.0187 484.464 77.776C484.035 77.524 483.699 77.1787 483.456 76.74C483.213 76.3013 483.092 75.7927 483.092 75.214V71.35H484.352V75.158C484.352 75.522 484.413 75.8393 484.534 76.11C484.665 76.3713 484.851 76.572 485.094 76.712C485.337 76.852 485.621 76.922 485.948 76.922C486.443 76.922 486.83 76.768 487.11 76.46C487.39 76.1427 487.53 75.7087 487.53 75.158V71.35H488.79V75.214C488.79 75.7927 488.669 76.3013 488.426 76.74C488.183 77.1787 487.847 77.524 487.418 77.776C486.998 78.0187 486.503 78.14 485.934 78.14ZM491.501 78V68.564H492.761V78H491.501ZM489.863 72.498V71.35H494.399V72.498H489.863ZM501.625 78.14C500.962 78.14 500.365 77.9907 499.833 77.692C499.301 77.384 498.881 76.9687 498.573 76.446C498.265 75.9233 498.111 75.3307 498.111 74.668C498.111 74.0147 498.26 73.4267 498.559 72.904C498.867 72.3813 499.278 71.9707 499.791 71.672C500.314 71.364 500.897 71.21 501.541 71.21C502.157 71.21 502.698 71.35 503.165 71.63C503.641 71.91 504.01 72.2973 504.271 72.792C504.542 73.2867 504.677 73.8467 504.677 74.472C504.677 74.5653 504.672 74.668 504.663 74.78C504.654 74.8827 504.635 75.004 504.607 75.144H498.993V74.094H503.935L503.473 74.5C503.473 74.052 503.394 73.674 503.235 73.366C503.076 73.0487 502.852 72.806 502.563 72.638C502.274 72.4607 501.924 72.372 501.513 72.372C501.084 72.372 500.706 72.4653 500.379 72.652C500.052 72.8387 499.8 73.1 499.623 73.436C499.446 73.772 499.357 74.1687 499.357 74.626C499.357 75.0927 499.45 75.5033 499.637 75.858C499.824 76.2033 500.09 76.474 500.435 76.67C500.78 76.8567 501.177 76.95 501.625 76.95C501.998 76.95 502.339 76.8847 502.647 76.754C502.964 76.6233 503.235 76.4273 503.459 76.166L504.271 76.992C503.954 77.3653 503.562 77.65 503.095 77.846C502.638 78.042 502.148 78.14 501.625 78.14ZM508.224 78L505.172 71.35H506.572L509.022 76.964H508.21L510.674 71.35H512.018L508.966 78H508.224ZM515.912 78.14C515.25 78.14 514.652 77.9907 514.12 77.692C513.588 77.384 513.168 76.9687 512.86 76.446C512.552 75.9233 512.398 75.3307 512.398 74.668C512.398 74.0147 512.548 73.4267 512.846 72.904C513.154 72.3813 513.565 71.9707 514.078 71.672C514.601 71.364 515.184 71.21 515.828 71.21C516.444 71.21 516.986 71.35 517.452 71.63C517.928 71.91 518.297 72.2973 518.558 72.792C518.829 73.2867 518.964 73.8467 518.964 74.472C518.964 74.5653 518.96 74.668 518.95 74.78C518.941 74.8827 518.922 75.004 518.894 75.144H513.28V74.094H518.222L517.76 74.5C517.76 74.052 517.681 73.674 517.522 73.366C517.364 73.0487 517.14 72.806 516.85 72.638C516.561 72.4607 516.211 72.372 515.8 72.372C515.371 72.372 514.993 72.4653 514.666 72.652C514.34 72.8387 514.088 73.1 513.91 73.436C513.733 73.772 513.644 74.1687 513.644 74.626C513.644 75.0927 513.738 75.5033 513.924 75.858C514.111 76.2033 514.377 76.474 514.722 76.67C515.068 76.8567 515.464 76.95 515.912 76.95C516.286 76.95 516.626 76.8847 516.934 76.754C517.252 76.6233 517.522 76.4273 517.746 76.166L518.558 76.992C518.241 77.3653 517.849 77.65 517.382 77.846C516.925 78.042 516.435 78.14 515.912 78.14ZM525.042 78V74.122C525.042 73.618 524.883 73.2027 524.566 72.876C524.249 72.5493 523.838 72.386 523.334 72.386C522.998 72.386 522.699 72.4607 522.438 72.61C522.177 72.7593 521.971 72.9647 521.822 73.226C521.673 73.4873 521.598 73.786 521.598 74.122L521.08 73.828C521.08 73.324 521.192 72.876 521.416 72.484C521.64 72.092 521.953 71.784 522.354 71.56C522.755 71.3267 523.208 71.21 523.712 71.21C524.216 71.21 524.659 71.336 525.042 71.588C525.434 71.84 525.742 72.1713 525.966 72.582C526.19 72.9833 526.302 73.4127 526.302 73.87V78H525.042ZM520.338 78V71.35H521.598V78H520.338ZM528.948 78V68.564H530.208V78H528.948ZM527.31 72.498V71.35H531.846V72.498H527.31Z" fill="#1D1D1D"/>
<circle cx="361" cy="119" r="15" fill="#EB742E"/>
<rect x="354" y="112" width="6.22222" height="6.22222" rx="2" fill="white"/>
<rect x="354" y="119.777" width="6.22222" height="6.22222" rx="2" fill="white"/>
<rect x="361.781" y="112" width="6.22222" height="6.22222" rx="2" fill="white"/>
<rect x="361.781" y="119.777" width="6.22222" height="6.22222" rx="2" fill="white"/>
<path d="M392.788 124.14C392.069 124.14 391.425 123.981 390.856 123.664C390.296 123.337 389.853 122.894 389.526 122.334C389.199 121.765 389.036 121.121 389.036 120.402V114.284H390.352V120.374C390.352 120.887 390.459 121.331 390.674 121.704C390.889 122.077 391.178 122.367 391.542 122.572C391.915 122.777 392.331 122.88 392.788 122.88C393.264 122.88 393.679 122.777 394.034 122.572C394.398 122.367 394.683 122.077 394.888 121.704C395.103 121.331 395.21 120.892 395.21 120.388V114.284H396.54V120.416C396.54 121.135 396.377 121.774 396.05 122.334C395.723 122.894 395.28 123.337 394.72 123.664C394.16 123.981 393.516 124.14 392.788 124.14ZM398.481 124V114.004H399.741V124H398.481ZM402.606 124V114.564H403.866V124H402.606ZM400.968 118.498V117.35H405.504V118.498H400.968ZM406.752 124V117.35H408.012V124H406.752ZM407.382 116.02C407.149 116.02 406.958 115.945 406.808 115.796C406.659 115.637 406.584 115.441 406.584 115.208C406.584 114.984 406.659 114.797 406.808 114.648C406.958 114.489 407.149 114.41 407.382 114.41C407.616 114.41 407.807 114.489 407.956 114.648C408.106 114.797 408.18 114.984 408.18 115.208C408.18 115.441 408.106 115.637 407.956 115.796C407.807 115.945 407.616 116.02 407.382 116.02ZM409.869 124V117.35H411.129V124H409.869ZM414.363 124V119.982C414.363 119.487 414.209 119.1 413.901 118.82C413.603 118.531 413.225 118.386 412.767 118.386C412.459 118.386 412.184 118.451 411.941 118.582C411.699 118.713 411.503 118.895 411.353 119.128C411.204 119.361 411.129 119.641 411.129 119.968L410.611 119.716C410.611 119.212 410.719 118.773 410.933 118.4C411.157 118.027 411.461 117.737 411.843 117.532C412.226 117.317 412.655 117.21 413.131 117.21C413.598 117.21 414.018 117.313 414.391 117.518C414.774 117.723 415.073 118.013 415.287 118.386C415.511 118.759 415.623 119.203 415.623 119.716V124H414.363ZM418.857 124V119.982C418.857 119.487 418.703 119.1 418.395 118.82C418.097 118.531 417.723 118.386 417.275 118.386C416.967 118.386 416.687 118.451 416.435 118.582C416.193 118.713 415.997 118.895 415.847 119.128C415.698 119.361 415.623 119.641 415.623 119.968L414.909 119.716C414.937 119.203 415.073 118.764 415.315 118.4C415.567 118.027 415.889 117.737 416.281 117.532C416.673 117.317 417.103 117.21 417.569 117.21C418.055 117.21 418.489 117.313 418.871 117.518C419.254 117.723 419.557 118.013 419.781 118.386C420.015 118.759 420.131 119.207 420.131 119.73V124H418.857ZM424.674 124.14C424.067 124.14 423.517 123.991 423.022 123.692C422.527 123.384 422.135 122.969 421.846 122.446C421.566 121.923 421.426 121.335 421.426 120.682C421.426 120.029 421.566 119.441 421.846 118.918C422.135 118.395 422.523 117.98 423.008 117.672C423.503 117.364 424.058 117.21 424.674 117.21C425.178 117.21 425.626 117.317 426.018 117.532C426.419 117.737 426.741 118.027 426.984 118.4C427.227 118.764 427.362 119.189 427.39 119.674V121.676C427.362 122.152 427.227 122.577 426.984 122.95C426.751 123.323 426.433 123.617 426.032 123.832C425.64 124.037 425.187 124.14 424.674 124.14ZM424.884 122.95C425.509 122.95 426.013 122.74 426.396 122.32C426.779 121.891 426.97 121.345 426.97 120.682C426.97 120.225 426.881 119.828 426.704 119.492C426.536 119.147 426.293 118.881 425.976 118.694C425.659 118.498 425.29 118.4 424.87 118.4C424.45 118.4 424.077 118.498 423.75 118.694C423.433 118.89 423.181 119.161 422.994 119.506C422.817 119.842 422.728 120.229 422.728 120.668C422.728 121.116 422.817 121.513 422.994 121.858C423.181 122.194 423.437 122.46 423.764 122.656C424.091 122.852 424.464 122.95 424.884 122.95ZM426.886 124V122.208L427.124 120.584L426.886 118.974V117.35H428.16V124H426.886ZM430.989 124V114.564H432.249V124H430.989ZM429.351 118.498V117.35H433.887V118.498H429.351ZM437.996 124.14C437.334 124.14 436.736 123.991 436.204 123.692C435.672 123.384 435.252 122.969 434.944 122.446C434.636 121.923 434.482 121.331 434.482 120.668C434.482 120.015 434.632 119.427 434.93 118.904C435.238 118.381 435.649 117.971 436.162 117.672C436.685 117.364 437.268 117.21 437.912 117.21C438.528 117.21 439.07 117.35 439.536 117.63C440.012 117.91 440.381 118.297 440.642 118.792C440.913 119.287 441.048 119.847 441.048 120.472C441.048 120.565 441.044 120.668 441.034 120.78C441.025 120.883 441.006 121.004 440.978 121.144H435.364V120.094H440.306L439.844 120.5C439.844 120.052 439.765 119.674 439.606 119.366C439.448 119.049 439.224 118.806 438.934 118.638C438.645 118.461 438.295 118.372 437.884 118.372C437.455 118.372 437.077 118.465 436.75 118.652C436.424 118.839 436.172 119.1 435.994 119.436C435.817 119.772 435.728 120.169 435.728 120.626C435.728 121.093 435.822 121.503 436.008 121.858C436.195 122.203 436.461 122.474 436.806 122.67C437.152 122.857 437.548 122.95 437.996 122.95C438.37 122.95 438.71 122.885 439.018 122.754C439.336 122.623 439.606 122.427 439.83 122.166L440.642 122.992C440.325 123.365 439.933 123.65 439.466 123.846C439.009 124.042 438.519 124.14 437.996 124.14ZM448.834 124.14C448.33 124.14 447.873 124.037 447.462 123.832C447.061 123.617 446.739 123.323 446.496 122.95C446.253 122.577 446.118 122.152 446.09 121.676V119.674C446.118 119.189 446.253 118.764 446.496 118.4C446.748 118.027 447.075 117.737 447.476 117.532C447.887 117.317 448.339 117.21 448.834 117.21C449.441 117.21 449.987 117.364 450.472 117.672C450.967 117.98 451.354 118.395 451.634 118.918C451.914 119.441 452.054 120.029 452.054 120.682C452.054 121.335 451.914 121.923 451.634 122.446C451.354 122.969 450.967 123.384 450.472 123.692C449.987 123.991 449.441 124.14 448.834 124.14ZM448.624 122.95C449.044 122.95 449.413 122.852 449.73 122.656C450.047 122.46 450.299 122.194 450.486 121.858C450.673 121.513 450.766 121.116 450.766 120.668C450.766 120.229 450.673 119.837 450.486 119.492C450.299 119.147 450.047 118.881 449.73 118.694C449.413 118.498 449.049 118.4 448.638 118.4C448.218 118.4 447.849 118.498 447.532 118.694C447.215 118.881 446.967 119.147 446.79 119.492C446.613 119.837 446.524 120.234 446.524 120.682C446.524 121.121 446.608 121.513 446.776 121.858C446.953 122.194 447.201 122.46 447.518 122.656C447.845 122.852 448.213 122.95 448.624 122.95ZM445.334 124V114.004H446.594V118.974L446.356 120.584L446.594 122.208V124H445.334ZM456.521 124.14C455.867 124.14 455.279 123.986 454.757 123.678C454.234 123.37 453.819 122.955 453.511 122.432C453.203 121.9 453.049 121.307 453.049 120.654C453.049 120.01 453.203 119.431 453.511 118.918C453.819 118.395 454.234 117.98 454.757 117.672C455.279 117.364 455.867 117.21 456.521 117.21C457.165 117.21 457.748 117.364 458.271 117.672C458.803 117.971 459.223 118.381 459.531 118.904C459.839 119.427 459.993 120.01 459.993 120.654C459.993 121.307 459.839 121.9 459.531 122.432C459.223 122.955 458.803 123.37 458.271 123.678C457.748 123.986 457.165 124.14 456.521 124.14ZM456.521 122.922C456.941 122.922 457.314 122.824 457.641 122.628C457.967 122.432 458.224 122.166 458.411 121.83C458.597 121.485 458.691 121.093 458.691 120.654C458.691 120.225 458.593 119.842 458.397 119.506C458.21 119.17 457.953 118.909 457.627 118.722C457.309 118.526 456.941 118.428 456.521 118.428C456.101 118.428 455.727 118.526 455.401 118.722C455.074 118.909 454.817 119.17 454.631 119.506C454.444 119.842 454.351 120.225 454.351 120.654C454.351 121.093 454.444 121.485 454.631 121.83C454.817 122.166 455.074 122.432 455.401 122.628C455.727 122.824 456.101 122.922 456.521 122.922ZM464.226 124.14C463.61 124.14 463.06 123.991 462.574 123.692C462.089 123.384 461.702 122.969 461.412 122.446C461.132 121.923 460.992 121.335 460.992 120.682C460.992 120.029 461.132 119.441 461.412 118.918C461.702 118.395 462.089 117.98 462.574 117.672C463.06 117.364 463.61 117.21 464.226 117.21C464.721 117.21 465.169 117.317 465.57 117.532C465.972 117.737 466.294 118.027 466.536 118.4C466.788 118.764 466.928 119.189 466.956 119.674V121.676C466.928 122.152 466.793 122.577 466.55 122.95C466.308 123.323 465.986 123.617 465.584 123.832C465.183 124.037 464.73 124.14 464.226 124.14ZM464.436 122.95C464.856 122.95 465.22 122.852 465.528 122.656C465.846 122.46 466.093 122.194 466.27 121.858C466.448 121.513 466.536 121.121 466.536 120.682C466.536 120.225 466.443 119.828 466.256 119.492C466.079 119.156 465.832 118.89 465.514 118.694C465.206 118.498 464.842 118.4 464.422 118.4C464.002 118.4 463.634 118.498 463.316 118.694C462.999 118.89 462.747 119.161 462.56 119.506C462.383 119.842 462.294 120.229 462.294 120.668C462.294 121.116 462.383 121.513 462.56 121.858C462.747 122.194 462.999 122.46 463.316 122.656C463.643 122.852 464.016 122.95 464.436 122.95ZM467.726 124H466.452V122.208L466.69 120.584L466.452 118.974V114.004H467.726V124ZM471.745 124.056L468.861 117.35H470.261L472.403 122.6H471.955L474.209 117.35H475.609L472.501 124.056H471.745ZM469.841 126.786L471.801 122.768L472.501 124.056L471.241 126.786H469.841ZM481.568 124L478.936 117.35H480.252L482.156 122.53H481.736L483.626 117.35H484.354L486.244 122.53H485.824L487.728 117.35H489.044L486.426 124H485.684L483.766 118.974H484.228L482.296 124H481.568ZM493.011 124.14C492.357 124.14 491.769 123.986 491.247 123.678C490.724 123.37 490.309 122.955 490.001 122.432C489.693 121.9 489.539 121.307 489.539 120.654C489.539 120.01 489.693 119.431 490.001 118.918C490.309 118.395 490.724 117.98 491.247 117.672C491.769 117.364 492.357 117.21 493.011 117.21C493.655 117.21 494.238 117.364 494.761 117.672C495.293 117.971 495.713 118.381 496.021 118.904C496.329 119.427 496.483 120.01 496.483 120.654C496.483 121.307 496.329 121.9 496.021 122.432C495.713 122.955 495.293 123.37 494.761 123.678C494.238 123.986 493.655 124.14 493.011 124.14ZM493.011 122.922C493.431 122.922 493.804 122.824 494.131 122.628C494.457 122.432 494.714 122.166 494.901 121.83C495.087 121.485 495.181 121.093 495.181 120.654C495.181 120.225 495.083 119.842 494.887 119.506C494.7 119.17 494.443 118.909 494.117 118.722C493.799 118.526 493.431 118.428 493.011 118.428C492.591 118.428 492.217 118.526 491.891 118.722C491.564 118.909 491.307 119.17 491.121 119.506C490.934 119.842 490.841 120.225 490.841 120.654C490.841 121.093 490.934 121.485 491.121 121.83C491.307 122.166 491.564 122.432 491.891 122.628C492.217 122.824 492.591 122.922 493.011 122.922ZM497.903 124V117.35H499.163V124H497.903ZM499.163 120.206L498.687 119.996C498.687 119.147 498.883 118.47 499.275 117.966C499.667 117.462 500.231 117.21 500.969 117.21C501.305 117.21 501.608 117.271 501.879 117.392C502.149 117.504 502.401 117.695 502.635 117.966L501.809 118.82C501.669 118.671 501.515 118.563 501.347 118.498C501.179 118.433 500.983 118.4 500.759 118.4C500.292 118.4 499.909 118.549 499.611 118.848C499.312 119.147 499.163 119.599 499.163 120.206ZM507.778 124L504.67 120.598L507.75 117.35H509.276L505.846 120.934L505.902 120.206L509.402 124H507.778ZM503.522 124V114.004H504.782V124H503.522ZM513.15 124.14C512.496 124.14 511.908 123.986 511.386 123.678C510.863 123.37 510.448 122.955 510.14 122.432C509.832 121.9 509.678 121.307 509.678 120.654C509.678 120.01 509.832 119.431 510.14 118.918C510.448 118.395 510.863 117.98 511.386 117.672C511.908 117.364 512.496 117.21 513.15 117.21C513.794 117.21 514.377 117.364 514.9 117.672C515.432 117.971 515.852 118.381 516.16 118.904C516.468 119.427 516.622 120.01 516.622 120.654C516.622 121.307 516.468 121.9 516.16 122.432C515.852 122.955 515.432 123.37 514.9 123.678C514.377 123.986 513.794 124.14 513.15 124.14ZM513.15 122.922C513.57 122.922 513.943 122.824 514.27 122.628C514.596 122.432 514.853 122.166 515.04 121.83C515.226 121.485 515.32 121.093 515.32 120.654C515.32 120.225 515.222 119.842 515.026 119.506C514.839 119.17 514.582 118.909 514.256 118.722C513.938 118.526 513.57 118.428 513.15 118.428C512.73 118.428 512.356 118.526 512.03 118.722C511.703 118.909 511.446 119.17 511.26 119.506C511.073 119.842 510.98 120.225 510.98 120.654C510.98 121.093 511.073 121.485 511.26 121.83C511.446 122.166 511.703 122.432 512.03 122.628C512.356 122.824 512.73 122.922 513.15 122.922ZM520.715 124.14C520.174 124.14 519.684 124.019 519.245 123.776C518.816 123.524 518.48 123.179 518.237 122.74C517.995 122.301 517.873 121.793 517.873 121.214V117.35H519.133V121.158C519.133 121.522 519.194 121.839 519.315 122.11C519.446 122.371 519.633 122.572 519.875 122.712C520.118 122.852 520.403 122.922 520.729 122.922C521.224 122.922 521.611 122.768 521.891 122.46C522.171 122.143 522.311 121.709 522.311 121.158V117.35H523.571V121.214C523.571 121.793 523.45 122.301 523.207 122.74C522.965 123.179 522.629 123.524 522.199 123.776C521.779 124.019 521.285 124.14 520.715 124.14ZM526.282 124V114.564H527.542V124H526.282ZM524.644 118.498V117.35H529.18V118.498H524.644Z" fill="#1D1D1D"/>
<circle cx="361" cy="165" r="15" fill="#C6FF53"/>
<path d="M362.313 158.484C361.556 157.839 360.444 157.839 359.687 158.484L358.829 159.215C358.721 159.307 358.586 159.363 358.445 159.374L357.321 159.464C356.33 159.543 355.543 160.33 355.464 161.321L355.374 162.445C355.363 162.586 355.307 162.721 355.215 162.829L354.484 163.687C353.839 164.444 353.839 165.556 354.484 166.313L355.215 167.171C355.307 167.279 355.363 167.414 355.374 167.555L355.464 168.679C355.543 169.67 356.33 170.457 357.321 170.536L358.445 170.626C358.586 170.637 358.721 170.693 358.829 170.785L359.687 171.516C360.444 172.161 361.556 172.161 362.313 171.516L363.171 170.785C363.279 170.693 363.414 170.637 363.555 170.626L364.679 170.536C365.67 170.457 366.457 169.67 366.536 168.679L366.626 167.555C366.637 167.414 366.693 167.279 366.785 167.171L367.516 166.313C368.161 165.556 368.161 164.444 367.516 163.687L366.785 162.829C366.693 162.721 366.637 162.586 366.626 162.445L366.536 161.321C366.457 160.33 365.67 159.543 364.679 159.464L363.555 159.374C363.414 159.363 363.279 159.307 363.171 159.215L362.313 158.484Z" fill="#1D1D1D"/>
<circle cx="358.637" cy="162.639" r="1.01231" fill="white"/>
<circle cx="363.364" cy="167.362" r="1.01231" fill="white"/>
<path fill-rule="evenodd" clip-rule="evenodd" d="M363.684 161.783C363.971 162.022 364.009 162.448 363.771 162.734L359.271 168.133C359.033 168.419 358.607 168.458 358.321 168.219C358.035 167.981 357.996 167.555 358.235 167.269L362.734 161.87C362.972 161.583 363.398 161.545 363.684 161.783Z" fill="white"/>
<path d="M390.03 170V168.852H392.97C393.53 168.852 393.969 168.689 394.286 168.362C394.603 168.026 394.762 167.625 394.762 167.158C394.762 166.841 394.692 166.556 394.552 166.304C394.412 166.043 394.207 165.837 393.936 165.688C393.675 165.539 393.367 165.464 393.012 165.464H390.03V164.316H392.816C393.283 164.316 393.651 164.195 393.922 163.952C394.202 163.7 394.342 163.341 394.342 162.874C394.342 162.407 394.197 162.053 393.908 161.81C393.619 161.558 393.236 161.432 392.76 161.432H390.03V160.284H392.788C393.423 160.284 393.95 160.401 394.37 160.634C394.799 160.858 395.121 161.157 395.336 161.53C395.56 161.903 395.672 162.314 395.672 162.762C395.672 163.285 395.527 163.742 395.238 164.134C394.958 164.526 394.543 164.834 393.992 165.058L394.104 164.638C394.729 164.862 395.215 165.203 395.56 165.66C395.915 166.108 396.092 166.64 396.092 167.256C396.092 167.769 395.966 168.231 395.714 168.642C395.462 169.053 395.098 169.384 394.622 169.636C394.155 169.879 393.581 170 392.9 170H390.03ZM389.148 170V160.284H390.464V170H389.148ZM400.727 170.14C400.064 170.14 399.467 169.991 398.935 169.692C398.403 169.384 397.983 168.969 397.675 168.446C397.367 167.923 397.213 167.331 397.213 166.668C397.213 166.015 397.362 165.427 397.661 164.904C397.969 164.381 398.379 163.971 398.893 163.672C399.415 163.364 399.999 163.21 400.643 163.21C401.259 163.21 401.8 163.35 402.267 163.63C402.743 163.91 403.111 164.297 403.373 164.792C403.643 165.287 403.779 165.847 403.779 166.472C403.779 166.565 403.774 166.668 403.765 166.78C403.755 166.883 403.737 167.004 403.709 167.144H398.095V166.094H403.037L402.575 166.5C402.575 166.052 402.495 165.674 402.337 165.366C402.178 165.049 401.954 164.806 401.665 164.638C401.375 164.461 401.025 164.372 400.615 164.372C400.185 164.372 399.807 164.465 399.481 164.652C399.154 164.839 398.902 165.1 398.725 165.436C398.547 165.772 398.459 166.169 398.459 166.626C398.459 167.093 398.552 167.503 398.739 167.858C398.925 168.203 399.191 168.474 399.537 168.67C399.882 168.857 400.279 168.95 400.727 168.95C401.1 168.95 401.441 168.885 401.749 168.754C402.066 168.623 402.337 168.427 402.561 168.166L403.373 168.992C403.055 169.365 402.663 169.65 402.197 169.846C401.739 170.042 401.249 170.14 400.727 170.14ZM407.911 172.926C407.229 172.926 406.623 172.8 406.091 172.548C405.568 172.296 405.148 171.941 404.831 171.484L405.643 170.658C405.913 171.003 406.235 171.265 406.609 171.442C406.982 171.629 407.425 171.722 407.939 171.722C408.62 171.722 409.157 171.54 409.549 171.176C409.95 170.821 410.151 170.341 410.151 169.734V168.082L410.375 166.584L410.151 165.1V163.35H411.411V169.734C411.411 170.369 411.261 170.924 410.963 171.4C410.673 171.876 410.263 172.249 409.731 172.52C409.208 172.791 408.601 172.926 407.911 172.926ZM407.911 169.888C407.304 169.888 406.758 169.743 406.273 169.454C405.797 169.165 405.419 168.768 405.139 168.264C404.859 167.751 404.719 167.177 404.719 166.542C404.719 165.907 404.859 165.343 405.139 164.848C405.419 164.344 405.797 163.947 406.273 163.658C406.758 163.359 407.304 163.21 407.911 163.21C408.433 163.21 408.895 163.313 409.297 163.518C409.698 163.723 410.015 164.013 410.249 164.386C410.491 164.75 410.622 165.179 410.641 165.674V167.438C410.613 167.923 410.477 168.353 410.235 168.726C410.001 169.09 409.684 169.375 409.283 169.58C408.881 169.785 408.424 169.888 407.911 169.888ZM408.163 168.698C408.573 168.698 408.933 168.609 409.241 168.432C409.558 168.255 409.801 168.007 409.969 167.69C410.137 167.363 410.221 166.985 410.221 166.556C410.221 166.127 410.132 165.753 409.955 165.436C409.787 165.109 409.549 164.857 409.241 164.68C408.933 164.493 408.569 164.4 408.149 164.4C407.729 164.4 407.36 164.493 407.043 164.68C406.725 164.857 406.473 165.109 406.287 165.436C406.109 165.753 406.021 166.122 406.021 166.542C406.021 166.962 406.109 167.335 406.287 167.662C406.473 167.989 406.725 168.245 407.043 168.432C407.369 168.609 407.743 168.698 408.163 168.698ZM413.274 170V163.35H414.534V170H413.274ZM413.904 162.02C413.671 162.02 413.479 161.945 413.33 161.796C413.181 161.637 413.106 161.441 413.106 161.208C413.106 160.984 413.181 160.797 413.33 160.648C413.479 160.489 413.671 160.41 413.904 160.41C414.137 160.41 414.329 160.489 414.478 160.648C414.627 160.797 414.702 160.984 414.702 161.208C414.702 161.441 414.627 161.637 414.478 161.796C414.329 161.945 414.137 162.02 413.904 162.02ZM421.095 170V166.122C421.095 165.618 420.936 165.203 420.619 164.876C420.301 164.549 419.891 164.386 419.387 164.386C419.051 164.386 418.752 164.461 418.491 164.61C418.229 164.759 418.024 164.965 417.875 165.226C417.725 165.487 417.651 165.786 417.651 166.122L417.133 165.828C417.133 165.324 417.245 164.876 417.469 164.484C417.693 164.092 418.005 163.784 418.407 163.56C418.808 163.327 419.261 163.21 419.765 163.21C420.269 163.21 420.712 163.336 421.095 163.588C421.487 163.84 421.795 164.171 422.019 164.582C422.243 164.983 422.355 165.413 422.355 165.87V170H421.095ZM416.391 170V163.35H417.651V170H416.391ZM428.765 170V166.122C428.765 165.618 428.606 165.203 428.289 164.876C427.971 164.549 427.561 164.386 427.057 164.386C426.721 164.386 426.422 164.461 426.161 164.61C425.899 164.759 425.694 164.965 425.545 165.226C425.395 165.487 425.321 165.786 425.321 166.122L424.803 165.828C424.803 165.324 424.915 164.876 425.139 164.484C425.363 164.092 425.675 163.784 426.077 163.56C426.478 163.327 426.931 163.21 427.435 163.21C427.939 163.21 428.382 163.336 428.765 163.588C429.157 163.84 429.465 164.171 429.689 164.582C429.913 164.983 430.025 165.413 430.025 165.87V170H428.765ZM424.061 170V163.35H425.321V170H424.061ZM434.811 170.14C434.148 170.14 433.551 169.991 433.019 169.692C432.487 169.384 432.067 168.969 431.759 168.446C431.451 167.923 431.297 167.331 431.297 166.668C431.297 166.015 431.446 165.427 431.745 164.904C432.053 164.381 432.463 163.971 432.977 163.672C433.499 163.364 434.083 163.21 434.727 163.21C435.343 163.21 435.884 163.35 436.351 163.63C436.827 163.91 437.195 164.297 437.457 164.792C437.727 165.287 437.863 165.847 437.863 166.472C437.863 166.565 437.858 166.668 437.849 166.78C437.839 166.883 437.821 167.004 437.793 167.144H432.179V166.094H437.121L436.659 166.5C436.659 166.052 436.579 165.674 436.421 165.366C436.262 165.049 436.038 164.806 435.749 164.638C435.459 164.461 435.109 164.372 434.699 164.372C434.269 164.372 433.891 164.465 433.565 164.652C433.238 164.839 432.986 165.1 432.809 165.436C432.631 165.772 432.543 166.169 432.543 166.626C432.543 167.093 432.636 167.503 432.823 167.858C433.009 168.203 433.275 168.474 433.621 168.67C433.966 168.857 434.363 168.95 434.811 168.95C435.184 168.95 435.525 168.885 435.833 168.754C436.15 168.623 436.421 168.427 436.645 168.166L437.457 168.992C437.139 169.365 436.747 169.65 436.281 169.846C435.823 170.042 435.333 170.14 434.811 170.14ZM439.236 170V163.35H440.497V170H439.236ZM440.497 166.206L440.021 165.996C440.021 165.147 440.217 164.47 440.609 163.966C441.001 163.462 441.565 163.21 442.303 163.21C442.639 163.21 442.942 163.271 443.213 163.392C443.483 163.504 443.735 163.695 443.969 163.966L443.143 164.82C443.003 164.671 442.849 164.563 442.681 164.498C442.513 164.433 442.317 164.4 442.093 164.4C441.626 164.4 441.243 164.549 440.945 164.848C440.646 165.147 440.497 165.599 440.497 166.206ZM449.036 170V160.564H450.296V170H449.036ZM447.398 164.498V163.35H451.934V164.498H447.398ZM456.001 170.14C455.348 170.14 454.76 169.986 454.237 169.678C453.714 169.37 453.299 168.955 452.991 168.432C452.683 167.9 452.529 167.307 452.529 166.654C452.529 166.01 452.683 165.431 452.991 164.918C453.299 164.395 453.714 163.98 454.237 163.672C454.76 163.364 455.348 163.21 456.001 163.21C456.645 163.21 457.228 163.364 457.751 163.672C458.283 163.971 458.703 164.381 459.011 164.904C459.319 165.427 459.473 166.01 459.473 166.654C459.473 167.307 459.319 167.9 459.011 168.432C458.703 168.955 458.283 169.37 457.751 169.678C457.228 169.986 456.645 170.14 456.001 170.14ZM456.001 168.922C456.421 168.922 456.794 168.824 457.121 168.628C457.448 168.432 457.704 168.166 457.891 167.83C458.078 167.485 458.171 167.093 458.171 166.654C458.171 166.225 458.073 165.842 457.877 165.506C457.69 165.17 457.434 164.909 457.107 164.722C456.79 164.526 456.421 164.428 456.001 164.428C455.581 164.428 455.208 164.526 454.881 164.722C454.554 164.909 454.298 165.17 454.111 165.506C453.924 165.842 453.831 166.225 453.831 166.654C453.831 167.093 453.924 167.485 454.111 167.83C454.298 168.166 454.554 168.432 454.881 168.628C455.208 168.824 455.581 168.922 456.001 168.922ZM462.918 170L466.894 160.284H467.846L471.808 170H470.38L467.118 161.782H467.608L464.318 170H462.918ZM464.808 167.802V166.654H469.918V167.802H464.808ZM475.547 170.14C474.931 170.14 474.38 169.991 473.895 169.692C473.409 169.384 473.022 168.969 472.733 168.446C472.453 167.923 472.313 167.335 472.313 166.682C472.313 166.029 472.453 165.441 472.733 164.918C473.022 164.395 473.409 163.98 473.895 163.672C474.38 163.364 474.931 163.21 475.547 163.21C476.041 163.21 476.489 163.317 476.891 163.532C477.292 163.737 477.614 164.027 477.857 164.4C478.109 164.764 478.249 165.189 478.277 165.674V167.676C478.249 168.152 478.113 168.577 477.871 168.95C477.628 169.323 477.306 169.617 476.905 169.832C476.503 170.037 476.051 170.14 475.547 170.14ZM475.757 168.95C476.177 168.95 476.541 168.852 476.849 168.656C477.166 168.46 477.413 168.194 477.591 167.858C477.768 167.513 477.857 167.121 477.857 166.682C477.857 166.225 477.763 165.828 477.577 165.492C477.399 165.156 477.152 164.89 476.835 164.694C476.527 164.498 476.163 164.4 475.743 164.4C475.323 164.4 474.954 164.498 474.637 164.694C474.319 164.89 474.067 165.161 473.881 165.506C473.703 165.842 473.615 166.229 473.615 166.668C473.615 167.116 473.703 167.513 473.881 167.858C474.067 168.194 474.319 168.46 474.637 168.656C474.963 168.852 475.337 168.95 475.757 168.95ZM479.047 170H477.773V168.208L478.011 166.584L477.773 164.974V160.004H479.047V170ZM483.163 170L480.111 163.35H481.511L483.961 168.964H483.149L485.613 163.35H486.957L483.905 170H483.163ZM490.6 170.14C489.993 170.14 489.442 169.991 488.948 169.692C488.453 169.384 488.061 168.969 487.772 168.446C487.492 167.923 487.352 167.335 487.352 166.682C487.352 166.029 487.492 165.441 487.772 164.918C488.061 164.395 488.448 163.98 488.934 163.672C489.428 163.364 489.984 163.21 490.6 163.21C491.104 163.21 491.552 163.317 491.944 163.532C492.345 163.737 492.667 164.027 492.91 164.4C493.152 164.764 493.288 165.189 493.316 165.674V167.676C493.288 168.152 493.152 168.577 492.91 168.95C492.676 169.323 492.359 169.617 491.958 169.832C491.566 170.037 491.113 170.14 490.6 170.14ZM490.81 168.95C491.435 168.95 491.939 168.74 492.322 168.32C492.704 167.891 492.896 167.345 492.896 166.682C492.896 166.225 492.807 165.828 492.63 165.492C492.462 165.147 492.219 164.881 491.902 164.694C491.584 164.498 491.216 164.4 490.796 164.4C490.376 164.4 490.002 164.498 489.676 164.694C489.358 164.89 489.106 165.161 488.92 165.506C488.742 165.842 488.654 166.229 488.654 166.668C488.654 167.116 488.742 167.513 488.92 167.858C489.106 168.194 489.363 168.46 489.69 168.656C490.016 168.852 490.39 168.95 490.81 168.95ZM492.812 170V168.208L493.05 166.584L492.812 164.974V163.35H494.086V170H492.812ZM500.624 170V166.122C500.624 165.618 500.465 165.203 500.148 164.876C499.831 164.549 499.42 164.386 498.916 164.386C498.58 164.386 498.281 164.461 498.02 164.61C497.759 164.759 497.553 164.965 497.404 165.226C497.255 165.487 497.18 165.786 497.18 166.122L496.662 165.828C496.662 165.324 496.774 164.876 496.998 164.484C497.222 164.092 497.535 163.784 497.936 163.56C498.337 163.327 498.79 163.21 499.294 163.21C499.798 163.21 500.241 163.336 500.624 163.588C501.016 163.84 501.324 164.171 501.548 164.582C501.772 164.983 501.884 165.413 501.884 165.87V170H500.624ZM495.92 170V163.35H497.18V170H495.92ZM506.628 170.14C505.975 170.14 505.382 169.986 504.85 169.678C504.327 169.37 503.912 168.955 503.604 168.432C503.305 167.9 503.156 167.312 503.156 166.668C503.156 166.015 503.305 165.427 503.604 164.904C503.912 164.381 504.327 163.971 504.85 163.672C505.382 163.364 505.975 163.21 506.628 163.21C507.141 163.21 507.617 163.308 508.056 163.504C508.495 163.691 508.873 163.966 509.19 164.33L508.35 165.17C508.145 164.927 507.893 164.745 507.594 164.624C507.305 164.493 506.983 164.428 506.628 164.428C506.208 164.428 505.835 164.526 505.508 164.722C505.181 164.909 504.925 165.17 504.738 165.506C504.551 165.842 504.458 166.229 504.458 166.668C504.458 167.107 504.551 167.494 504.738 167.83C504.925 168.166 505.181 168.432 505.508 168.628C505.835 168.824 506.208 168.922 506.628 168.922C506.983 168.922 507.305 168.861 507.594 168.74C507.893 168.609 508.149 168.423 508.364 168.18L509.19 169.02C508.882 169.375 508.504 169.65 508.056 169.846C507.617 170.042 507.141 170.14 506.628 170.14ZM513.383 170.14C512.72 170.14 512.123 169.991 511.591 169.692C511.059 169.384 510.639 168.969 510.331 168.446C510.023 167.923 509.869 167.331 509.869 166.668C509.869 166.015 510.018 165.427 510.317 164.904C510.625 164.381 511.036 163.971 511.549 163.672C512.072 163.364 512.655 163.21 513.299 163.21C513.915 163.21 514.456 163.35 514.923 163.63C515.399 163.91 515.768 164.297 516.029 164.792C516.3 165.287 516.435 165.847 516.435 166.472C516.435 166.565 516.43 166.668 516.421 166.78C516.412 166.883 516.393 167.004 516.365 167.144H510.751V166.094H515.693L515.231 166.5C515.231 166.052 515.152 165.674 514.993 165.366C514.834 165.049 514.61 164.806 514.321 164.638C514.032 164.461 513.682 164.372 513.271 164.372C512.842 164.372 512.464 164.465 512.137 164.652C511.81 164.839 511.558 165.1 511.381 165.436C511.204 165.772 511.115 166.169 511.115 166.626C511.115 167.093 511.208 167.503 511.395 167.858C511.582 168.203 511.848 168.474 512.193 168.67C512.538 168.857 512.935 168.95 513.383 168.95C513.756 168.95 514.097 168.885 514.405 168.754C514.722 168.623 514.993 168.427 515.217 168.166L516.029 168.992C515.712 169.365 515.32 169.65 514.853 169.846C514.396 170.042 513.906 170.14 513.383 170.14ZM520.623 170.14C520.007 170.14 519.456 169.991 518.971 169.692C518.485 169.384 518.098 168.969 517.809 168.446C517.529 167.923 517.389 167.335 517.389 166.682C517.389 166.029 517.529 165.441 517.809 164.918C518.098 164.395 518.485 163.98 518.971 163.672C519.456 163.364 520.007 163.21 520.623 163.21C521.117 163.21 521.565 163.317 521.967 163.532C522.368 163.737 522.69 164.027 522.933 164.4C523.185 164.764 523.325 165.189 523.353 165.674V167.676C523.325 168.152 523.189 168.577 522.947 168.95C522.704 169.323 522.382 169.617 521.981 169.832C521.579 170.037 521.127 170.14 520.623 170.14ZM520.833 168.95C521.253 168.95 521.617 168.852 521.925 168.656C522.242 168.46 522.489 168.194 522.667 167.858C522.844 167.513 522.933 167.121 522.933 166.682C522.933 166.225 522.839 165.828 522.653 165.492C522.475 165.156 522.228 164.89 521.911 164.694C521.603 164.498 521.239 164.4 520.819 164.4C520.399 164.4 520.03 164.498 519.713 164.694C519.395 164.89 519.143 165.161 518.957 165.506C518.779 165.842 518.691 166.229 518.691 166.668C518.691 167.116 518.779 167.513 518.957 167.858C519.143 168.194 519.395 168.46 519.713 168.656C520.039 168.852 520.413 168.95 520.833 168.95ZM524.123 170H522.849V168.208L523.087 166.584L522.849 164.974V160.004H524.123V170Z" fill="#1D1D1D"/>
<circle cx="361" cy="211" r="15" fill="#2B6648"/>
<path d="M358.686 217.775L359.639 217.03L360.592 217.775C360.834 217.964 361.166 217.964 361.408 217.775L362.361 217.03L363.314 217.775C363.556 217.964 363.889 217.964 364.131 217.775L365.083 217.03L366.009 217.834C366.452 218.219 367.125 217.891 367.125 217.289V204.711C367.125 204.109 366.452 203.781 366.009 204.166L365.083 204.97L364.131 204.225C363.889 204.036 363.556 204.036 363.314 204.225L362.361 204.97L361.408 204.225C361.166 204.036 360.834 204.036 360.592 204.225L359.639 204.97L358.686 204.225C358.444 204.036 358.111 204.036 357.869 204.225L356.917 204.97L355.991 204.166C355.548 203.781 354.875 204.109 354.875 204.711V217.289C354.875 217.891 355.548 218.219 355.991 217.834L356.917 217.03L357.869 217.775C358.111 217.964 358.444 217.964 358.686 217.775Z" fill="white"/>
<path fill-rule="evenodd" clip-rule="evenodd" d="M357.594 209.582C357.594 209.191 357.898 208.873 358.274 208.873H363.719C364.095 208.873 364.399 209.191 364.399 209.582C364.399 209.974 364.095 210.292 363.719 210.292H358.274C357.898 210.292 357.594 209.974 357.594 209.582Z" fill="#2B6648"/>
<path fill-rule="evenodd" clip-rule="evenodd" d="M357.594 212.418C357.594 212.027 357.898 211.709 358.274 211.709H360.997C361.372 211.709 361.677 212.027 361.677 212.418C361.677 212.81 361.372 213.128 360.997 213.128H358.274C357.898 213.128 357.594 212.81 357.594 212.418Z" fill="#2B6648"/>
<path d="M388.434 216L392.41 206.284H393.362L397.324 216H395.896L392.634 207.782H393.124L389.834 216H388.434ZM390.324 213.802V212.654H395.434V213.802H390.324ZM401.062 216.14C400.446 216.14 399.896 215.991 399.41 215.692C398.925 215.384 398.538 214.969 398.248 214.446C397.968 213.923 397.828 213.335 397.828 212.682C397.828 212.029 397.968 211.441 398.248 210.918C398.538 210.395 398.925 209.98 399.41 209.672C399.896 209.364 400.446 209.21 401.062 209.21C401.557 209.21 402.005 209.317 402.406 209.532C402.808 209.737 403.13 210.027 403.372 210.4C403.624 210.764 403.764 211.189 403.792 211.674V213.676C403.764 214.152 403.629 214.577 403.386 214.95C403.144 215.323 402.822 215.617 402.42 215.832C402.019 216.037 401.566 216.14 401.062 216.14ZM401.272 214.95C401.692 214.95 402.056 214.852 402.364 214.656C402.682 214.46 402.929 214.194 403.106 213.858C403.284 213.513 403.372 213.121 403.372 212.682C403.372 212.225 403.279 211.828 403.092 211.492C402.915 211.156 402.668 210.89 402.35 210.694C402.042 210.498 401.678 210.4 401.258 210.4C400.838 210.4 400.47 210.498 400.152 210.694C399.835 210.89 399.583 211.161 399.396 211.506C399.219 211.842 399.13 212.229 399.13 212.668C399.13 213.116 399.219 213.513 399.396 213.858C399.583 214.194 399.835 214.46 400.152 214.656C400.479 214.852 400.852 214.95 401.272 214.95ZM404.562 216H403.288V214.208L403.526 212.584L403.288 210.974V206.004H404.562V216ZM409.211 216.14C408.595 216.14 408.044 215.991 407.559 215.692C407.073 215.384 406.686 214.969 406.397 214.446C406.117 213.923 405.977 213.335 405.977 212.682C405.977 212.029 406.117 211.441 406.397 210.918C406.686 210.395 407.073 209.98 407.559 209.672C408.044 209.364 408.595 209.21 409.211 209.21C409.705 209.21 410.153 209.317 410.555 209.532C410.956 209.737 411.278 210.027 411.521 210.4C411.773 210.764 411.913 211.189 411.941 211.674V213.676C411.913 214.152 411.777 214.577 411.535 214.95C411.292 215.323 410.97 215.617 410.569 215.832C410.167 216.037 409.715 216.14 409.211 216.14ZM409.421 214.95C409.841 214.95 410.205 214.852 410.513 214.656C410.83 214.46 411.077 214.194 411.255 213.858C411.432 213.513 411.521 213.121 411.521 212.682C411.521 212.225 411.427 211.828 411.241 211.492C411.063 211.156 410.816 210.89 410.499 210.694C410.191 210.498 409.827 210.4 409.407 210.4C408.987 210.4 408.618 210.498 408.301 210.694C407.983 210.89 407.731 211.161 407.545 211.506C407.367 211.842 407.279 212.229 407.279 212.668C407.279 213.116 407.367 213.513 407.545 213.858C407.731 214.194 407.983 214.46 408.301 214.656C408.627 214.852 409.001 214.95 409.421 214.95ZM412.711 216H411.437V214.208L411.675 212.584L411.437 210.974V206.004H412.711V216ZM417.625 216.14C416.962 216.14 416.365 215.991 415.833 215.692C415.301 215.384 414.881 214.969 414.573 214.446C414.265 213.923 414.111 213.331 414.111 212.668C414.111 212.015 414.26 211.427 414.559 210.904C414.867 210.381 415.278 209.971 415.791 209.672C416.314 209.364 416.897 209.21 417.541 209.21C418.157 209.21 418.698 209.35 419.165 209.63C419.641 209.91 420.01 210.297 420.271 210.792C420.542 211.287 420.677 211.847 420.677 212.472C420.677 212.565 420.672 212.668 420.663 212.78C420.654 212.883 420.635 213.004 420.607 213.144H414.993V212.094H419.935L419.473 212.5C419.473 212.052 419.394 211.674 419.235 211.366C419.076 211.049 418.852 210.806 418.563 210.638C418.274 210.461 417.924 210.372 417.513 210.372C417.084 210.372 416.706 210.465 416.379 210.652C416.052 210.839 415.8 211.1 415.623 211.436C415.446 211.772 415.357 212.169 415.357 212.626C415.357 213.093 415.45 213.503 415.637 213.858C415.824 214.203 416.09 214.474 416.435 214.67C416.78 214.857 417.177 214.95 417.625 214.95C417.998 214.95 418.339 214.885 418.647 214.754C418.964 214.623 419.235 214.427 419.459 214.166L420.271 214.992C419.954 215.365 419.562 215.65 419.095 215.846C418.638 216.042 418.148 216.14 417.625 216.14ZM424.865 216.14C424.249 216.14 423.698 215.991 423.213 215.692C422.728 215.384 422.34 214.969 422.051 214.446C421.771 213.923 421.631 213.335 421.631 212.682C421.631 212.029 421.771 211.441 422.051 210.918C422.34 210.395 422.728 209.98 423.213 209.672C423.698 209.364 424.249 209.21 424.865 209.21C425.36 209.21 425.808 209.317 426.209 209.532C426.61 209.737 426.932 210.027 427.175 210.4C427.427 210.764 427.567 211.189 427.595 211.674V213.676C427.567 214.152 427.432 214.577 427.189 214.95C426.946 215.323 426.624 215.617 426.223 215.832C425.822 216.037 425.369 216.14 424.865 216.14ZM425.075 214.95C425.495 214.95 425.859 214.852 426.167 214.656C426.484 214.46 426.732 214.194 426.909 213.858C427.086 213.513 427.175 213.121 427.175 212.682C427.175 212.225 427.082 211.828 426.895 211.492C426.718 211.156 426.47 210.89 426.153 210.694C425.845 210.498 425.481 210.4 425.061 210.4C424.641 210.4 424.272 210.498 423.955 210.694C423.638 210.89 423.386 211.161 423.199 211.506C423.022 211.842 422.933 212.229 422.933 212.668C422.933 213.116 423.022 213.513 423.199 213.858C423.386 214.194 423.638 214.46 423.955 214.656C424.282 214.852 424.655 214.95 425.075 214.95ZM428.365 216H427.091V214.208L427.329 212.584L427.091 210.974V206.004H428.365V216ZM433.126 216V209.35H434.386V216H433.126ZM433.756 208.02C433.522 208.02 433.331 207.945 433.182 207.796C433.032 207.637 432.958 207.441 432.958 207.208C432.958 206.984 433.032 206.797 433.182 206.648C433.331 206.489 433.522 206.41 433.756 206.41C433.989 206.41 434.18 206.489 434.33 206.648C434.479 206.797 434.554 206.984 434.554 207.208C434.554 207.441 434.479 207.637 434.33 207.796C434.18 207.945 433.989 208.02 433.756 208.02ZM440.946 216V212.122C440.946 211.618 440.788 211.203 440.47 210.876C440.153 210.549 439.742 210.386 439.238 210.386C438.902 210.386 438.604 210.461 438.342 210.61C438.081 210.759 437.876 210.965 437.726 211.226C437.577 211.487 437.502 211.786 437.502 212.122L436.984 211.828C436.984 211.324 437.096 210.876 437.32 210.484C437.544 210.092 437.857 209.784 438.258 209.56C438.66 209.327 439.112 209.21 439.616 209.21C440.12 209.21 440.564 209.336 440.946 209.588C441.338 209.84 441.646 210.171 441.87 210.582C442.094 210.983 442.206 211.413 442.206 211.87V216H440.946ZM436.242 216V209.35H437.502V216H436.242ZM444.852 216V206.564H446.112V216H444.852ZM443.214 210.498V209.35H447.75V210.498H443.214ZM451.859 216.14C451.197 216.14 450.599 215.991 450.067 215.692C449.535 215.384 449.115 214.969 448.807 214.446C448.499 213.923 448.345 213.331 448.345 212.668C448.345 212.015 448.495 211.427 448.793 210.904C449.101 210.381 449.512 209.971 450.025 209.672C450.548 209.364 451.131 209.21 451.775 209.21C452.391 209.21 452.933 209.35 453.399 209.63C453.875 209.91 454.244 210.297 454.505 210.792C454.776 211.287 454.911 211.847 454.911 212.472C454.911 212.565 454.907 212.668 454.897 212.78C454.888 212.883 454.869 213.004 454.841 213.144H449.227V212.094H454.169L453.707 212.5C453.707 212.052 453.628 211.674 453.469 211.366C453.311 211.049 453.087 210.806 452.797 210.638C452.508 210.461 452.158 210.372 451.747 210.372C451.318 210.372 450.94 210.465 450.613 210.652C450.287 210.839 450.035 211.1 449.857 211.436C449.68 211.772 449.591 212.169 449.591 212.626C449.591 213.093 449.685 213.503 449.871 213.858C450.058 214.203 450.324 214.474 450.669 214.67C451.015 214.857 451.411 214.95 451.859 214.95C452.233 214.95 452.573 214.885 452.881 214.754C453.199 214.623 453.469 214.427 453.693 214.166L454.505 214.992C454.188 215.365 453.796 215.65 453.329 215.846C452.872 216.042 452.382 216.14 451.859 216.14ZM456.285 216V209.35H457.545V216H456.285ZM457.545 212.206L457.069 211.996C457.069 211.147 457.265 210.47 457.657 209.966C458.049 209.462 458.614 209.21 459.351 209.21C459.687 209.21 459.991 209.271 460.261 209.392C460.532 209.504 460.784 209.695 461.017 209.966L460.191 210.82C460.051 210.671 459.897 210.563 459.729 210.498C459.561 210.433 459.365 210.4 459.141 210.4C458.675 210.4 458.292 210.549 457.993 210.848C457.695 211.147 457.545 211.599 457.545 212.206ZM464.766 216.14C464.103 216.14 463.506 215.991 462.974 215.692C462.442 215.384 462.022 214.969 461.714 214.446C461.406 213.923 461.252 213.331 461.252 212.668C461.252 212.015 461.401 211.427 461.7 210.904C462.008 210.381 462.418 209.971 462.932 209.672C463.454 209.364 464.038 209.21 464.682 209.21C465.298 209.21 465.839 209.35 466.306 209.63C466.782 209.91 467.15 210.297 467.412 210.792C467.682 211.287 467.818 211.847 467.818 212.472C467.818 212.565 467.813 212.668 467.804 212.78C467.794 212.883 467.776 213.004 467.748 213.144H462.134V212.094H467.076L466.614 212.5C466.614 212.052 466.534 211.674 466.376 211.366C466.217 211.049 465.993 210.806 465.704 210.638C465.414 210.461 465.064 210.372 464.654 210.372C464.224 210.372 463.846 210.465 463.52 210.652C463.193 210.839 462.941 211.1 462.764 211.436C462.586 211.772 462.498 212.169 462.498 212.626C462.498 213.093 462.591 213.503 462.778 213.858C462.964 214.203 463.23 214.474 463.576 214.67C463.921 214.857 464.318 214.95 464.766 214.95C465.139 214.95 465.48 214.885 465.788 214.754C466.105 214.623 466.376 214.427 466.6 214.166L467.412 214.992C467.094 215.365 466.702 215.65 466.236 215.846C465.778 216.042 465.288 216.14 464.766 216.14ZM471.306 216.14C470.932 216.14 470.578 216.093 470.242 216C469.915 215.897 469.612 215.757 469.332 215.58C469.052 215.393 468.809 215.174 468.604 214.922L469.416 214.11C469.658 214.409 469.938 214.633 470.256 214.782C470.573 214.922 470.928 214.992 471.32 214.992C471.712 214.992 472.015 214.927 472.23 214.796C472.444 214.656 472.552 214.465 472.552 214.222C472.552 213.979 472.463 213.793 472.286 213.662C472.118 213.522 471.898 213.41 471.628 213.326C471.357 213.233 471.068 213.144 470.76 213.06C470.461 212.967 470.176 212.85 469.906 212.71C469.635 212.57 469.411 212.379 469.234 212.136C469.066 211.893 468.982 211.571 468.982 211.17C468.982 210.769 469.08 210.423 469.276 210.134C469.472 209.835 469.742 209.607 470.088 209.448C470.442 209.289 470.867 209.21 471.362 209.21C471.884 209.21 472.346 209.303 472.748 209.49C473.158 209.667 473.494 209.938 473.756 210.302L472.944 211.114C472.757 210.871 472.524 210.685 472.244 210.554C471.973 210.423 471.665 210.358 471.32 210.358C470.956 210.358 470.676 210.423 470.48 210.554C470.293 210.675 470.2 210.848 470.2 211.072C470.2 211.296 470.284 211.469 470.452 211.59C470.62 211.711 470.839 211.814 471.11 211.898C471.39 211.982 471.679 212.071 471.978 212.164C472.276 212.248 472.561 212.365 472.832 212.514C473.102 212.663 473.322 212.864 473.49 213.116C473.667 213.368 473.756 213.699 473.756 214.11C473.756 214.735 473.532 215.23 473.084 215.594C472.645 215.958 472.052 216.14 471.306 216.14ZM476.188 216V206.564H477.448V216H476.188ZM474.55 210.498V209.35H479.086V210.498H474.55ZM485.515 216L482.463 209.35H483.863L486.313 214.964H485.501L487.965 209.35H489.309L486.257 216H485.515ZM493.161 216.14C492.508 216.14 491.92 215.986 491.397 215.678C490.875 215.37 490.459 214.955 490.151 214.432C489.843 213.9 489.689 213.307 489.689 212.654C489.689 212.01 489.843 211.431 490.151 210.918C490.459 210.395 490.875 209.98 491.397 209.672C491.92 209.364 492.508 209.21 493.161 209.21C493.805 209.21 494.389 209.364 494.911 209.672C495.443 209.971 495.863 210.381 496.171 210.904C496.479 211.427 496.633 212.01 496.633 212.654C496.633 213.307 496.479 213.9 496.171 214.432C495.863 214.955 495.443 215.37 494.911 215.678C494.389 215.986 493.805 216.14 493.161 216.14ZM493.161 214.922C493.581 214.922 493.955 214.824 494.281 214.628C494.608 214.432 494.865 214.166 495.051 213.83C495.238 213.485 495.331 213.093 495.331 212.654C495.331 212.225 495.233 211.842 495.037 211.506C494.851 211.17 494.594 210.909 494.267 210.722C493.95 210.526 493.581 210.428 493.161 210.428C492.741 210.428 492.368 210.526 492.041 210.722C491.715 210.909 491.458 211.17 491.271 211.506C491.085 211.842 490.991 212.225 490.991 212.654C490.991 213.093 491.085 213.485 491.271 213.83C491.458 214.166 491.715 214.432 492.041 214.628C492.368 214.824 492.741 214.922 493.161 214.922ZM498.053 216V206.004H499.313V216H498.053ZM503.83 216.14C503.289 216.14 502.799 216.019 502.36 215.776C501.931 215.524 501.595 215.179 501.352 214.74C501.11 214.301 500.988 213.793 500.988 213.214V209.35H502.248V213.158C502.248 213.522 502.309 213.839 502.43 214.11C502.561 214.371 502.748 214.572 502.99 214.712C503.233 214.852 503.518 214.922 503.844 214.922C504.339 214.922 504.726 214.768 505.006 214.46C505.286 214.143 505.426 213.709 505.426 213.158V209.35H506.686V213.214C506.686 213.793 506.565 214.301 506.322 214.74C506.08 215.179 505.744 215.524 505.314 215.776C504.894 216.019 504.4 216.14 503.83 216.14ZM513.079 216V212.122C513.079 211.618 512.921 211.203 512.603 210.876C512.286 210.549 511.875 210.386 511.371 210.386C511.035 210.386 510.737 210.461 510.475 210.61C510.214 210.759 510.009 210.965 509.859 211.226C509.71 211.487 509.635 211.786 509.635 212.122L509.117 211.828C509.117 211.324 509.229 210.876 509.453 210.484C509.677 210.092 509.99 209.784 510.391 209.56C510.793 209.327 511.245 209.21 511.749 209.21C512.253 209.21 512.697 209.336 513.079 209.588C513.471 209.84 513.779 210.171 514.003 210.582C514.227 210.983 514.339 211.413 514.339 211.87V216H513.079ZM508.375 216V209.35H509.635V216H508.375ZM516.985 216V206.564H518.245V216H516.985ZM515.347 210.498V209.35H519.883V210.498H515.347ZM523.992 216.14C523.33 216.14 522.732 215.991 522.2 215.692C521.668 215.384 521.248 214.969 520.94 214.446C520.632 213.923 520.478 213.331 520.478 212.668C520.478 212.015 520.628 211.427 520.926 210.904C521.234 210.381 521.645 209.971 522.158 209.672C522.681 209.364 523.264 209.21 523.908 209.21C524.524 209.21 525.066 209.35 525.532 209.63C526.008 209.91 526.377 210.297 526.638 210.792C526.909 211.287 527.044 211.847 527.044 212.472C527.044 212.565 527.04 212.668 527.03 212.78C527.021 212.883 527.002 213.004 526.974 213.144H521.36V212.094H526.302L525.84 212.5C525.84 212.052 525.761 211.674 525.602 211.366C525.444 211.049 525.22 210.806 524.93 210.638C524.641 210.461 524.291 210.372 523.88 210.372C523.451 210.372 523.073 210.465 522.746 210.652C522.42 210.839 522.168 211.1 521.99 211.436C521.813 211.772 521.724 212.169 521.724 212.626C521.724 213.093 521.818 213.503 522.004 213.858C522.191 214.203 522.457 214.474 522.802 214.67C523.148 214.857 523.544 214.95 523.992 214.95C524.366 214.95 524.706 214.885 525.014 214.754C525.332 214.623 525.602 214.427 525.826 214.166L526.638 214.992C526.321 215.365 525.929 215.65 525.462 215.846C525.005 216.042 524.515 216.14 523.992 216.14ZM531.498 216.14C530.835 216.14 530.238 215.991 529.706 215.692C529.174 215.384 528.754 214.969 528.446 214.446C528.138 213.923 527.984 213.331 527.984 212.668C527.984 212.015 528.133 211.427 528.432 210.904C528.74 210.381 529.151 209.971 529.664 209.672C530.187 209.364 530.77 209.21 531.414 209.21C532.03 209.21 532.571 209.35 533.038 209.63C533.514 209.91 533.883 210.297 534.144 210.792C534.415 211.287 534.55 211.847 534.55 212.472C534.55 212.565 534.545 212.668 534.536 212.78C534.527 212.883 534.508 213.004 534.48 213.144H528.866V212.094H533.808L533.346 212.5C533.346 212.052 533.267 211.674 533.108 211.366C532.949 211.049 532.725 210.806 532.436 210.638C532.147 210.461 531.797 210.372 531.386 210.372C530.957 210.372 530.579 210.465 530.252 210.652C529.925 210.839 529.673 211.1 529.496 211.436C529.319 211.772 529.23 212.169 529.23 212.626C529.23 213.093 529.323 213.503 529.51 213.858C529.697 214.203 529.963 214.474 530.308 214.67C530.653 214.857 531.05 214.95 531.498 214.95C531.871 214.95 532.212 214.885 532.52 214.754C532.837 214.623 533.108 214.427 533.332 214.166L534.144 214.992C533.827 215.365 533.435 215.65 532.968 215.846C532.511 216.042 532.021 216.14 531.498 216.14ZM535.924 216V209.35H537.184V216H535.924ZM537.184 212.206L536.708 211.996C536.708 211.147 536.904 210.47 537.296 209.966C537.688 209.462 538.253 209.21 538.99 209.21C539.326 209.21 539.629 209.271 539.9 209.392C540.171 209.504 540.423 209.695 540.656 209.966L539.83 210.82C539.69 210.671 539.536 210.563 539.368 210.498C539.2 210.433 539.004 210.4 538.78 210.4C538.313 210.4 537.931 210.549 537.632 210.848C537.333 211.147 537.184 211.599 537.184 212.206Z" fill="#1D1D1D"/>
<defs>
<filter id="filter0_d_1477_4474" x="318" y="0" width="256" height="250" filterUnits="userSpaceOnUse" color-interpolation-filters="sRGB">
<feFlood flood-opacity="0" result="BackgroundImageFix"/>
<feColorMatrix in="SourceAlpha" type="matrix" values="0 0 0 0 0 0 0 0 0 0 0 0 0 0 0 0 0 0 127 0" result="hardAlpha"/>
<feOffset dx="-8" dy="8"/>
<feComposite in2="hardAlpha" operator="out"/>
<feColorMatrix type="matrix" values="0 0 0 0 0 0 0 0 0 0 0 0 0 0 0 0 0 0 0.4 0"/>
<feBlend mode="normal" in2="BackgroundImageFix" result="effect1_dropShadow_1477_4474"/>
<feBlend mode="normal" in="SourceGraphic" in2="effect1_dropShadow_1477_4474" result="shape"/>
</filter>
</defs>
</svg>
