<svg width="81" height="80" viewBox="0 0 81 80" fill="none" xmlns="http://www.w3.org/2000/svg">
<circle cx="40.5" cy="40" r="40" fill="#FFF1E8"/>
<ellipse cx="43.6956" cy="31.6667" rx="6.39875" ry="6.66667" fill="#FFAE7F"/>
<path d="M40.5044 41.666C35.2035 41.666 30.9062 46.1432 30.9062 51.666C30.9062 53.507 32.3387 54.9993 34.1056 54.9993H53.3019C55.0688 54.9993 56.5013 53.507 56.5013 51.666V49.9993C56.5013 45.397 52.9202 41.666 48.5028 41.666H40.5044Z" fill="#FFAE7F"/>
<path d="M32.4984 41.666C28.081 41.666 24.5 45.397 24.5 49.9993V51.666C24.5 53.507 25.9324 54.9993 27.6994 54.9993H46.8956C48.6626 54.9993 50.095 53.507 50.095 51.666V49.9993C50.095 45.397 46.514 41.666 42.0966 41.666H32.4984Z" fill="#EB742E"/>
<ellipse cx="37.305" cy="31.6667" rx="6.39875" ry="6.66667" fill="#EB742E"/>
</svg>
