<svg width="60" height="60" viewBox="0 0 60 60" fill="none" xmlns="http://www.w3.org/2000/svg">
<circle cx="30" cy="30" r="30" fill="#1D1D1D"/>
<path d="M35.0969 28.3547L40.9635 19.5547C41.4066 18.8901 40.9302 18 40.1315 18H34.6704C34.0017 18 33.3772 18.3342 33.0063 18.8906L27.4365 27.2453C26.9934 27.9099 27.4698 28.8 28.2685 28.8H34.2648C34.5992 28.8 34.9114 28.6329 35.0969 28.3547Z" fill="white"/>
<path d="M24.9031 28.3547L19.0365 19.5547C18.5934 18.8901 19.0698 18 19.8685 18H25.3296C25.9983 18 26.6228 18.3342 26.9937 18.8906L32.5635 27.2453C33.0066 27.9099 32.5302 28.8 31.7315 28.8H25.7352C25.4008 28.8 25.0886 28.6329 24.9031 28.3547Z" fill="white"/>
<path fill-rule="evenodd" clip-rule="evenodd" d="M30.0016 41.9992C34.6408 41.9992 38.4016 38.2384 38.4016 33.5992C38.4016 28.96 34.6408 25.1992 30.0016 25.1992C25.3624 25.1992 21.6016 28.96 21.6016 33.5992C21.6016 38.2384 25.3624 41.9992 30.0016 41.9992Z" fill="white"/>
<path fill-rule="evenodd" clip-rule="evenodd" d="M29.9984 37.2C31.9867 37.2 33.5984 35.5882 33.5984 33.6C33.5984 31.6118 31.9867 30 29.9984 30C28.0102 30 26.3984 31.6118 26.3984 33.6C26.3984 35.5882 28.0102 37.2 29.9984 37.2Z" fill="#1D1D1D"/>
</svg>
