<svg width="80" height="80" viewBox="0 0 80 80" fill="none" xmlns="http://www.w3.org/2000/svg">
<circle cx="40" cy="40" r="40" fill="#FFF1E8"/>
<path fill-rule="evenodd" clip-rule="evenodd" d="M24 30.2222C24 26.7858 26.7858 24 30.2222 24C33.6587 24 36.4444 26.7858 36.4444 30.2222V32.8889H43.5556V30.2222C43.5556 26.7858 46.3413 24 49.7778 24C53.2142 24 56 26.7858 56 30.2222C56 33.6587 53.2142 36.4444 49.7778 36.4444H47.1111V43.5556H49.7778C53.2142 43.5556 56 46.3413 56 49.7778C56 53.2142 53.2142 56 49.7778 56C46.3413 56 43.5556 53.2142 43.5556 49.7778V47.1111H36.4444V49.7778C36.4444 53.2142 33.6587 56 30.2222 56C26.7858 56 24 53.2142 24 49.7778C24 46.3413 26.7858 43.5556 30.2222 43.5556H32.8889V36.4444H30.2222C26.7858 36.4444 24 33.6587 24 30.2222ZM32.8889 32.8889V30.2222C32.8889 28.7495 31.695 27.5556 30.2222 27.5556C28.7495 27.5556 27.5556 28.7495 27.5556 30.2222C27.5556 31.695 28.7495 32.8889 30.2222 32.8889H32.8889ZM36.4444 36.4444V43.5556H43.5556V36.4444H36.4444ZM32.8889 47.1111H30.2222C28.7495 47.1111 27.5556 48.305 27.5556 49.7778C27.5556 51.2505 28.7495 52.4444 30.2222 52.4444C31.695 52.4444 32.8889 51.2505 32.8889 49.7778V47.1111ZM47.1111 47.1111V49.7778C47.1111 51.2505 48.305 52.4444 49.7778 52.4444C51.2505 52.4444 52.4444 51.2505 52.4444 49.7778C52.4444 48.305 51.2505 47.1111 49.7778 47.1111H47.1111ZM47.1111 32.8889H49.7778C51.2505 32.8889 52.4444 31.695 52.4444 30.2222C52.4444 28.7495 51.2505 27.5556 49.7778 27.5556C48.305 27.5556 47.1111 28.7495 47.1111 30.2222V32.8889Z" fill="#EB742E"/>
</svg>
