<svg width="650" height="650" viewBox="0 0 550 550" fill="none" xmlns="http://www.w3.org/2000/svg">
<rect x="9" y="106.679" width="344.279" height="360.321" rx="14.7285" fill="black" fill-opacity="0.31"/>
<rect x="513.694" y="290.542" width="160.417" height="2.46795" transform="rotate(-90 513.694 290.542)" fill="white" fill-opacity="0.62"/>
<rect x="243.454" y="372.407" width="241.155" height="2.25379" transform="rotate(-90 243.454 372.407)" fill="white" fill-opacity="0.62"/>
<rect x="297.546" y="372.407" width="241.155" height="2.25379" transform="rotate(-90 297.546 372.407)" fill="white" fill-opacity="0.62"/>
<rect x="351.638" y="371.28" width="240.028" height="2.25379" transform="rotate(-90 351.638 371.28)" fill="white" fill-opacity="0.62"/>
<rect x="406.34" y="290.542" width="160.417" height="1.23397" transform="rotate(-90 406.34 290.542)" fill="white" fill-opacity="0.62"/>
<rect x="459.4" y="290.542" width="160.417" height="2.46795" transform="rotate(-90 459.4 290.542)" fill="white" fill-opacity="0.62"/>
<rect x="516.163" y="292.398" width="272.708" height="2.25379" transform="rotate(-180 516.163 292.398)" fill="white" fill-opacity="0.62"/>
<rect x="516.163" y="187.709" width="272.708" height="2.25379" transform="rotate(-180 516.163 187.709)" fill="white" fill-opacity="0.62"/>
<rect x="516.163" y="132.379" width="272.708" height="2.25379" transform="rotate(-180 516.163 132.379)" fill="white" fill-opacity="0.62"/>
<rect x="21.3389" y="82" width="347.092" height="372.046" rx="12.0991" fill="white"/>
<path d="M119.642 147.789C119.642 166.165 104.745 181.061 86.3691 181.061C67.9933 181.061 53.0967 166.165 53.0967 147.789C53.0967 129.413 67.9933 114.516 86.3691 114.516C104.745 114.516 119.642 129.413 119.642 147.789ZM58.4965 147.789C58.4965 163.182 70.9755 175.661 86.3691 175.661C101.763 175.661 114.242 163.182 114.242 147.789C114.242 132.395 101.763 119.916 86.3691 119.916C70.9755 119.916 58.4965 132.395 58.4965 147.789Z" fill="#D6D6D6"/>
<g filter="url(#filter0_d_520_2)">
<path d="M116.942 147.789C118.433 147.789 119.653 146.578 119.532 145.092C119.094 139.709 117.351 134.5 114.437 129.921C111.038 124.582 106.186 120.323 100.452 117.644C94.7169 114.965 88.337 113.977 82.0606 114.796C75.7843 115.616 69.872 118.209 65.0175 122.271C60.1631 126.333 56.568 131.695 54.6541 137.728C52.7402 143.762 52.587 150.216 54.2125 156.333C55.838 162.451 59.1746 167.977 63.8309 172.265C67.8233 175.941 72.6439 178.576 77.8647 179.956C79.3063 180.337 80.7134 179.35 80.9764 177.882V177.882C81.2394 176.414 80.2576 175.024 78.8222 174.62C74.6112 173.436 70.7251 171.273 67.4886 168.293C63.588 164.701 60.7929 160.071 59.4312 154.947C58.0696 149.822 58.1979 144.415 59.8012 139.361C61.4044 134.307 64.4161 129.815 68.4827 126.412C72.5493 123.01 77.5021 120.837 82.7599 120.151C88.0176 119.464 93.3621 120.292 98.1662 122.536C102.97 124.78 107.034 128.348 109.882 132.821C112.244 136.532 113.688 140.739 114.111 145.093C114.255 146.577 115.451 147.789 116.942 147.789V147.789Z" fill="#DC7B40"/>
</g>
<path d="M85.1139 144.024L81.091 153.446H78.9434L82.9966 144.266H77.8243V142.451H85.1139V144.024ZM93.7928 144.251H88.8927V146.837C89.1044 146.575 89.4069 146.363 89.8001 146.201C90.1933 146.03 90.6117 145.944 91.0554 145.944C91.862 145.944 92.5224 146.121 93.0366 146.474C93.5508 146.827 93.9238 147.28 94.1557 147.835C94.3876 148.379 94.5036 148.964 94.5036 149.589C94.5036 150.749 94.1709 151.681 93.5054 152.387C92.8501 153.093 91.9124 153.446 90.6924 153.446C89.543 153.446 88.6255 153.158 87.9399 152.584C87.2542 152.009 86.8661 151.258 86.7753 150.33H88.8322C88.9229 150.734 89.1246 151.056 89.4371 151.298C89.7598 151.54 90.1681 151.661 90.6621 151.661C91.257 151.661 91.7057 151.475 92.0082 151.102C92.3106 150.729 92.4619 150.235 92.4619 149.619C92.4619 148.994 92.3056 148.52 91.993 148.198C91.6906 147.865 91.2419 147.699 90.647 147.699C90.2236 147.699 89.8707 147.805 89.5884 148.016C89.306 148.228 89.1044 148.51 88.9834 148.863H86.9568V142.39H93.7928V144.251Z" fill="#121212"/>
<path d="M57.4217 194.906C56.8349 194.906 56.2995 194.769 55.8155 194.497C55.3316 194.219 54.9474 193.835 54.6631 193.345C54.3848 192.849 54.2457 192.292 54.2457 191.675C54.2457 191.058 54.3848 190.505 54.6631 190.015C54.9474 189.518 55.3316 189.134 55.8155 188.862C56.2995 188.584 56.8349 188.445 57.4217 188.445C58.0145 188.445 58.5529 188.584 59.0369 188.862C59.5209 189.134 59.902 189.515 60.1803 190.005C60.4585 190.495 60.5977 191.052 60.5977 191.675C60.5977 192.298 60.4585 192.855 60.1803 193.345C59.902 193.835 59.5209 194.219 59.0369 194.497C58.5529 194.769 58.0145 194.906 57.4217 194.906ZM57.4217 194.189C57.8633 194.189 58.2595 194.086 58.6104 193.88C58.9673 193.675 59.2456 193.381 59.4452 193C59.6509 192.619 59.7538 192.177 59.7538 191.675C59.7538 191.167 59.6509 190.725 59.4452 190.35C59.2456 189.969 58.9703 189.676 58.6195 189.47C58.2686 189.264 57.8693 189.162 57.4217 189.162C56.974 189.162 56.5747 189.264 56.2239 189.47C55.873 189.676 55.5947 189.969 55.389 190.35C55.1894 190.725 55.0896 191.167 55.0896 191.675C55.0896 192.177 55.1894 192.619 55.389 193C55.5947 193.381 55.873 193.675 56.2239 193.88C56.5808 194.086 56.9801 194.189 57.4217 194.189ZM63.9019 194.08L65.4446 189.869H66.3248L64.3738 194.842H63.4119L61.4609 189.869H62.3502L63.9019 194.08ZM72.0375 192.165C72.0375 192.322 72.0284 192.489 72.0102 192.664H68.0357C68.0659 193.154 68.2323 193.538 68.5348 193.817C68.8433 194.089 69.2153 194.225 69.6509 194.225C70.0078 194.225 70.3043 194.143 70.5402 193.98C70.7822 193.811 70.9516 193.587 71.0484 193.309H71.9376C71.8045 193.786 71.5384 194.177 71.1391 194.479C70.7398 194.776 70.2438 194.924 69.6509 194.924C69.1791 194.924 68.7556 194.818 68.3805 194.606C68.0115 194.394 67.7211 194.095 67.5094 193.708C67.2976 193.315 67.1918 192.861 67.1918 192.347C67.1918 191.832 67.2946 191.382 67.5003 190.995C67.706 190.607 67.9933 190.311 68.3624 190.105C68.7374 189.894 69.167 189.788 69.6509 189.788C70.1228 189.788 70.5402 189.891 70.9032 190.096C71.2661 190.302 71.5444 190.586 71.738 190.949C71.9376 191.306 72.0375 191.711 72.0375 192.165ZM71.1845 191.993C71.1845 191.678 71.1149 191.409 70.9758 191.185C70.8366 190.955 70.6461 190.783 70.4041 190.668C70.1682 190.547 69.905 190.486 69.6146 190.486C69.1972 190.486 68.8403 190.62 68.5439 190.886C68.2535 191.152 68.0871 191.521 68.0448 191.993H71.1845ZM74.3162 190.677C74.4614 190.393 74.667 190.172 74.9332 190.015C75.2055 189.857 75.5352 189.779 75.9223 189.779V190.632H75.7045C74.779 190.632 74.3162 191.134 74.3162 192.138V194.842H73.4904V189.869H74.3162V190.677ZM76.93 192.338C76.93 191.829 77.0328 191.385 77.2385 191.004C77.4442 190.616 77.7255 190.317 78.0824 190.105C78.4454 189.894 78.8477 189.788 79.2893 189.788C79.7249 189.788 80.103 189.881 80.4236 190.069C80.7442 190.257 80.9832 190.492 81.1405 190.777V189.869H81.9753V194.842H81.1405V193.917C80.9771 194.207 80.7321 194.449 80.4055 194.642C80.0848 194.83 79.7098 194.924 79.2802 194.924C78.8386 194.924 78.4394 194.815 78.0824 194.597C77.7255 194.379 77.4442 194.074 77.2385 193.681C77.0328 193.287 76.93 192.84 76.93 192.338ZM81.1405 192.347C81.1405 191.972 81.0648 191.645 80.9136 191.367C80.7624 191.088 80.5567 190.877 80.2966 190.731C80.0425 190.58 79.7612 190.505 79.4526 190.505C79.1441 190.505 78.8628 190.577 78.6087 190.722C78.3547 190.868 78.152 191.079 78.0008 191.358C77.8495 191.636 77.7739 191.963 77.7739 192.338C77.7739 192.719 77.8495 193.051 78.0008 193.336C78.152 193.614 78.3547 193.829 78.6087 193.98C78.8628 194.125 79.1441 194.198 79.4526 194.198C79.7612 194.198 80.0425 194.125 80.2966 193.98C80.5567 193.829 80.7624 193.614 80.9136 193.336C81.0648 193.051 81.1405 192.722 81.1405 192.347ZM84.5595 188.127V194.842H83.7337V188.127H84.5595ZM87.1556 188.127V194.842H86.3298V188.127H87.1556ZM93.7135 194.906C93.2961 194.906 92.9211 194.833 92.5883 194.688C92.2617 194.537 92.0046 194.331 91.817 194.071C91.6295 193.805 91.5327 193.499 91.5266 193.154H92.4068C92.4371 193.451 92.5581 193.702 92.7698 193.907C92.9876 194.107 93.3022 194.207 93.7135 194.207C94.1068 194.207 94.4153 194.11 94.6391 193.917C94.869 193.717 94.984 193.463 94.984 193.154C94.984 192.912 94.9174 192.716 94.7843 192.564C94.6512 192.413 94.4849 192.298 94.2852 192.22C94.0856 192.141 93.8164 192.056 93.4776 191.966C93.0602 191.857 92.7244 191.748 92.4704 191.639C92.2223 191.53 92.0076 191.361 91.8261 191.131C91.6507 190.895 91.5629 190.58 91.5629 190.187C91.5629 189.842 91.6507 189.537 91.8261 189.27C92.0015 189.004 92.2465 188.799 92.5611 188.653C92.8817 188.508 93.2477 188.436 93.6591 188.436C94.252 188.436 94.7359 188.584 95.111 188.88C95.4921 189.177 95.7069 189.57 95.7553 190.06H94.8478C94.8176 189.818 94.6905 189.606 94.4667 189.425C94.2429 189.237 93.9465 189.143 93.5774 189.143C93.2326 189.143 92.9513 189.234 92.7335 189.416C92.5157 189.591 92.4068 189.839 92.4068 190.16C92.4068 190.39 92.4704 190.577 92.5974 190.722C92.7305 190.868 92.8908 190.979 93.0783 191.058C93.2719 191.131 93.5411 191.215 93.886 191.312C94.3034 191.427 94.6391 191.542 94.8932 191.657C95.1473 191.766 95.3651 191.938 95.5466 192.174C95.728 192.404 95.8188 192.719 95.8188 193.118C95.8188 193.426 95.7371 193.717 95.5738 193.989C95.4104 194.261 95.1685 194.482 94.8478 194.652C94.5272 194.821 94.1491 194.906 93.7135 194.906ZM97.0884 192.347C97.0884 191.832 97.1912 191.385 97.3969 191.004C97.6026 190.616 97.8869 190.317 98.2499 190.105C98.6189 189.894 99.0394 189.788 99.5112 189.788C100.122 189.788 100.624 189.936 101.018 190.232C101.417 190.529 101.68 190.94 101.807 191.466H100.918C100.833 191.164 100.667 190.925 100.419 190.75C100.177 190.574 99.8742 190.486 99.5112 190.486C99.0394 190.486 98.6583 190.65 98.3679 190.976C98.0775 191.297 97.9323 191.754 97.9323 192.347C97.9323 192.946 98.0775 193.408 98.3679 193.735C98.6583 194.062 99.0394 194.225 99.5112 194.225C99.8742 194.225 100.177 194.14 100.419 193.971C100.661 193.802 100.827 193.56 100.918 193.245H101.807C101.674 193.753 101.408 194.162 101.009 194.47C100.609 194.773 100.11 194.924 99.5112 194.924C99.0394 194.924 98.6189 194.818 98.2499 194.606C97.8869 194.394 97.6026 194.095 97.3969 193.708C97.1912 193.321 97.0884 192.867 97.0884 192.347ZM105.441 194.924C104.975 194.924 104.551 194.818 104.17 194.606C103.795 194.394 103.499 194.095 103.281 193.708C103.069 193.315 102.963 192.861 102.963 192.347C102.963 191.838 103.072 191.391 103.29 191.004C103.514 190.61 103.816 190.311 104.197 190.105C104.579 189.894 105.005 189.788 105.477 189.788C105.949 189.788 106.375 189.894 106.756 190.105C107.137 190.311 107.437 190.607 107.655 190.995C107.879 191.382 107.99 191.832 107.99 192.347C107.99 192.861 107.876 193.315 107.646 193.708C107.422 194.095 107.116 194.394 106.729 194.606C106.342 194.818 105.912 194.924 105.441 194.924ZM105.441 194.198C105.737 194.198 106.015 194.128 106.275 193.989C106.536 193.85 106.744 193.641 106.902 193.363C107.065 193.085 107.147 192.746 107.147 192.347C107.147 191.947 107.068 191.609 106.911 191.33C106.753 191.052 106.548 190.846 106.294 190.713C106.039 190.574 105.764 190.505 105.468 190.505C105.165 190.505 104.887 190.574 104.633 190.713C104.385 190.846 104.185 191.052 104.034 191.33C103.883 191.609 103.807 191.947 103.807 192.347C103.807 192.752 103.88 193.094 104.025 193.372C104.176 193.65 104.376 193.859 104.624 193.998C104.872 194.131 105.144 194.198 105.441 194.198ZM110.265 190.677C110.41 190.393 110.616 190.172 110.882 190.015C111.154 189.857 111.484 189.779 111.871 189.779V190.632H111.653C110.728 190.632 110.265 191.134 110.265 192.138V194.842H109.439V189.869H110.265V190.677ZM117.724 192.165C117.724 192.322 117.715 192.489 117.697 192.664H113.723C113.753 193.154 113.919 193.538 114.222 193.817C114.53 194.089 114.902 194.225 115.338 194.225C115.695 194.225 115.991 194.143 116.227 193.98C116.469 193.811 116.639 193.587 116.735 193.309H117.625C117.492 193.786 117.225 194.177 116.826 194.479C116.427 194.776 115.931 194.924 115.338 194.924C114.866 194.924 114.443 194.818 114.067 194.606C113.698 194.394 113.408 194.095 113.196 193.708C112.985 193.315 112.879 192.861 112.879 192.347C112.879 191.832 112.982 191.382 113.187 190.995C113.393 190.607 113.68 190.311 114.049 190.105C114.424 189.894 114.854 189.788 115.338 189.788C115.81 189.788 116.227 189.891 116.59 190.096C116.953 190.302 117.231 190.586 117.425 190.949C117.625 191.306 117.724 191.711 117.724 192.165ZM116.871 191.993C116.871 191.678 116.802 191.409 116.663 191.185C116.524 190.955 116.333 190.783 116.091 190.668C115.855 190.547 115.592 190.486 115.302 190.486C114.884 190.486 114.527 190.62 114.231 190.886C113.94 191.152 113.774 191.521 113.732 191.993H116.871Z" fill="black"/>
<path d="M156.683 130.414L153.827 135.919V138.859H152.133V135.919L149.266 130.414H151.178L152.992 134.274L154.795 130.414H156.683ZM161.12 138.968C160.475 138.968 159.894 138.827 159.378 138.545C158.861 138.254 158.454 137.847 158.156 137.323C157.865 136.798 157.72 136.193 157.72 135.508C157.72 134.822 157.869 134.217 158.168 133.693C158.474 133.169 158.89 132.765 159.414 132.483C159.938 132.193 160.523 132.047 161.168 132.047C161.814 132.047 162.398 132.193 162.923 132.483C163.447 132.765 163.858 133.169 164.157 133.693C164.463 134.217 164.616 134.822 164.616 135.508C164.616 136.193 164.459 136.798 164.145 137.323C163.838 137.847 163.419 138.254 162.886 138.545C162.362 138.827 161.773 138.968 161.12 138.968ZM161.12 137.492C161.426 137.492 161.713 137.419 161.979 137.274C162.253 137.121 162.471 136.895 162.632 136.597C162.794 136.298 162.874 135.935 162.874 135.508C162.874 134.871 162.705 134.383 162.366 134.044C162.035 133.697 161.628 133.523 161.144 133.523C160.66 133.523 160.253 133.697 159.922 134.044C159.599 134.383 159.438 134.871 159.438 135.508C159.438 136.145 159.595 136.637 159.91 136.984C160.233 137.323 160.636 137.492 161.12 137.492ZM172.671 132.156V138.859H170.965V138.012C170.747 138.303 170.461 138.532 170.106 138.702C169.759 138.863 169.38 138.944 168.968 138.944C168.444 138.944 167.98 138.835 167.577 138.617C167.174 138.391 166.855 138.065 166.621 137.637C166.395 137.202 166.282 136.685 166.282 136.088V132.156H167.976V135.846C167.976 136.379 168.109 136.79 168.376 137.081C168.642 137.363 169.005 137.504 169.465 137.504C169.932 137.504 170.299 137.363 170.566 137.081C170.832 136.79 170.965 136.379 170.965 135.846V132.156H172.671ZM176.52 133.197C176.738 132.842 177.02 132.564 177.367 132.362C177.722 132.16 178.125 132.059 178.577 132.059V133.838H178.129C177.597 133.838 177.193 133.963 176.919 134.213C176.653 134.463 176.52 134.899 176.52 135.52V138.859H174.826V132.156H176.52V133.197ZM187.924 138.859L186.061 135.568H185.262V138.859H183.569V130.414H186.738C187.392 130.414 187.948 130.531 188.408 130.765C188.868 130.991 189.211 131.301 189.437 131.697C189.671 132.084 189.787 132.519 189.787 133.003C189.787 133.56 189.626 134.064 189.303 134.516C188.981 134.959 188.501 135.266 187.864 135.435L189.884 138.859H187.924ZM185.262 134.298H186.678C187.138 134.298 187.481 134.189 187.706 133.971C187.932 133.745 188.045 133.435 188.045 133.04C188.045 132.652 187.932 132.354 187.706 132.144C187.481 131.926 187.138 131.818 186.678 131.818H185.262V134.298ZM198.034 135.363C198.034 135.605 198.018 135.822 197.986 136.016H193.086C193.126 136.5 193.296 136.879 193.594 137.153C193.893 137.427 194.26 137.565 194.695 137.565C195.324 137.565 195.772 137.294 196.038 136.754H197.865C197.672 137.399 197.3 137.932 196.752 138.351C196.203 138.762 195.53 138.968 194.731 138.968C194.086 138.968 193.505 138.827 192.989 138.545C192.481 138.254 192.082 137.847 191.791 137.323C191.509 136.798 191.368 136.193 191.368 135.508C191.368 134.814 191.509 134.205 191.791 133.681C192.074 133.156 192.469 132.753 192.977 132.471C193.485 132.189 194.07 132.047 194.731 132.047C195.369 132.047 195.937 132.185 196.437 132.459C196.946 132.733 197.337 133.124 197.611 133.632C197.893 134.132 198.034 134.709 198.034 135.363ZM196.28 134.879C196.272 134.443 196.115 134.096 195.808 133.838C195.502 133.572 195.127 133.439 194.683 133.439C194.264 133.439 193.909 133.568 193.618 133.826C193.336 134.076 193.163 134.427 193.098 134.879H196.28ZM202.32 138.968C201.771 138.968 201.279 138.871 200.844 138.678C200.408 138.476 200.061 138.206 199.803 137.867C199.553 137.528 199.416 137.153 199.392 136.742H201.098C201.13 137 201.255 137.214 201.473 137.383C201.699 137.552 201.977 137.637 202.308 137.637C202.63 137.637 202.88 137.573 203.058 137.444C203.243 137.315 203.336 137.149 203.336 136.948C203.336 136.73 203.223 136.568 202.997 136.464C202.78 136.351 202.429 136.23 201.945 136.101C201.445 135.98 201.033 135.855 200.711 135.726C200.396 135.596 200.122 135.399 199.888 135.133C199.662 134.866 199.549 134.508 199.549 134.056C199.549 133.685 199.654 133.346 199.864 133.04C200.081 132.733 200.388 132.491 200.783 132.314C201.187 132.136 201.658 132.047 202.199 132.047C202.997 132.047 203.635 132.249 204.11 132.652C204.586 133.048 204.849 133.584 204.897 134.262H203.276C203.251 133.995 203.139 133.786 202.937 133.632C202.743 133.471 202.481 133.39 202.15 133.39C201.844 133.39 201.606 133.447 201.437 133.56C201.275 133.673 201.195 133.83 201.195 134.032C201.195 134.257 201.308 134.431 201.533 134.552C201.759 134.665 202.11 134.782 202.586 134.903C203.07 135.024 203.469 135.149 203.784 135.278C204.098 135.407 204.369 135.609 204.594 135.883C204.828 136.149 204.949 136.504 204.957 136.948C204.957 137.335 204.849 137.682 204.631 137.988C204.421 138.295 204.115 138.537 203.711 138.714C203.316 138.883 202.852 138.968 202.32 138.968ZM213.16 132.156V138.859H211.454V138.012C211.236 138.303 210.95 138.532 210.595 138.702C210.248 138.863 209.869 138.944 209.457 138.944C208.933 138.944 208.469 138.835 208.066 138.617C207.663 138.391 207.344 138.065 207.11 137.637C206.884 137.202 206.771 136.685 206.771 136.088V132.156H208.465V135.846C208.465 136.379 208.598 136.79 208.864 137.081C209.131 137.363 209.494 137.504 209.953 137.504C210.421 137.504 210.788 137.363 211.054 137.081C211.321 136.79 211.454 136.379 211.454 135.846V132.156H213.16ZM223.639 132.059C224.462 132.059 225.123 132.314 225.623 132.822C226.131 133.322 226.386 134.024 226.386 134.927V138.859H224.692V135.157C224.692 134.633 224.559 134.233 224.292 133.959C224.026 133.677 223.663 133.536 223.203 133.536C222.744 133.536 222.377 133.677 222.102 133.959C221.836 134.233 221.703 134.633 221.703 135.157V138.859H220.009V135.157C220.009 134.633 219.876 134.233 219.61 133.959C219.344 133.677 218.981 133.536 218.521 133.536C218.053 133.536 217.682 133.677 217.408 133.959C217.142 134.233 217.009 134.633 217.009 135.157V138.859H215.315V132.156H217.009V132.967C217.227 132.685 217.505 132.463 217.844 132.301C218.19 132.14 218.57 132.059 218.981 132.059C219.505 132.059 219.973 132.172 220.384 132.398C220.796 132.616 221.114 132.931 221.34 133.342C221.558 132.955 221.873 132.644 222.284 132.41C222.703 132.176 223.155 132.059 223.639 132.059ZM234.708 135.363C234.708 135.605 234.692 135.822 234.659 136.016H229.759C229.8 136.5 229.969 136.879 230.268 137.153C230.566 137.427 230.933 137.565 231.369 137.565C231.998 137.565 232.445 137.294 232.712 136.754H234.538C234.345 137.399 233.974 137.932 233.425 138.351C232.877 138.762 232.203 138.968 231.405 138.968C230.76 138.968 230.179 138.827 229.663 138.545C229.154 138.254 228.755 137.847 228.465 137.323C228.182 136.798 228.041 136.193 228.041 135.508C228.041 134.814 228.182 134.205 228.465 133.681C228.747 133.156 229.142 132.753 229.65 132.471C230.159 132.189 230.743 132.047 231.405 132.047C232.042 132.047 232.611 132.185 233.111 132.459C233.619 132.733 234.01 133.124 234.284 133.632C234.567 134.132 234.708 134.709 234.708 135.363ZM232.954 134.879C232.945 134.443 232.788 134.096 232.482 133.838C232.175 133.572 231.8 133.439 231.356 133.439C230.937 133.439 230.582 133.568 230.292 133.826C230.009 134.076 229.836 134.427 229.771 134.879H232.954ZM242.36 138.968C241.812 138.968 241.32 138.871 240.884 138.678C240.449 138.476 240.102 138.206 239.844 137.867C239.594 137.528 239.456 137.153 239.432 136.742H241.138C241.17 137 241.295 137.214 241.513 137.383C241.739 137.552 242.017 137.637 242.348 137.637C242.671 137.637 242.921 137.573 243.098 137.444C243.284 137.315 243.376 137.149 243.376 136.948C243.376 136.73 243.264 136.568 243.038 136.464C242.82 136.351 242.469 136.23 241.985 136.101C241.485 135.98 241.074 135.855 240.751 135.726C240.436 135.596 240.162 135.399 239.928 135.133C239.702 134.866 239.589 134.508 239.589 134.056C239.589 133.685 239.694 133.346 239.904 133.04C240.122 132.733 240.428 132.491 240.824 132.314C241.227 132.136 241.699 132.047 242.239 132.047C243.038 132.047 243.675 132.249 244.151 132.652C244.627 133.048 244.889 133.584 244.937 134.262H243.316C243.292 133.995 243.179 133.786 242.977 133.632C242.784 133.471 242.521 133.39 242.191 133.39C241.884 133.39 241.646 133.447 241.477 133.56C241.316 133.673 241.235 133.83 241.235 134.032C241.235 134.257 241.348 134.431 241.574 134.552C241.8 134.665 242.15 134.782 242.626 134.903C243.11 135.024 243.51 135.149 243.824 135.278C244.139 135.407 244.409 135.609 244.635 135.883C244.869 136.149 244.99 136.504 244.998 136.948C244.998 137.335 244.889 137.682 244.671 137.988C244.461 138.295 244.155 138.537 243.752 138.714C243.356 138.883 242.893 138.968 242.36 138.968ZM246.437 135.508C246.437 134.814 246.578 134.209 246.86 133.693C247.142 133.169 247.534 132.765 248.034 132.483C248.534 132.193 249.106 132.047 249.752 132.047C250.583 132.047 251.268 132.257 251.809 132.677C252.357 133.088 252.724 133.669 252.91 134.419H251.083C250.986 134.128 250.82 133.903 250.587 133.741C250.361 133.572 250.078 133.487 249.74 133.487C249.256 133.487 248.873 133.665 248.59 134.02C248.308 134.366 248.167 134.862 248.167 135.508C248.167 136.145 248.308 136.641 248.59 136.996C248.873 137.343 249.256 137.516 249.74 137.516C250.425 137.516 250.873 137.21 251.083 136.597H252.91C252.724 137.323 252.357 137.899 251.809 138.327C251.26 138.754 250.574 138.968 249.752 138.968C249.106 138.968 248.534 138.827 248.034 138.545C247.534 138.254 247.142 137.851 246.86 137.335C246.578 136.81 246.437 136.201 246.437 135.508ZM257.611 138.968C256.966 138.968 256.385 138.827 255.869 138.545C255.352 138.254 254.945 137.847 254.647 137.323C254.356 136.798 254.211 136.193 254.211 135.508C254.211 134.822 254.36 134.217 254.659 133.693C254.965 133.169 255.381 132.765 255.905 132.483C256.429 132.193 257.014 132.047 257.659 132.047C258.305 132.047 258.889 132.193 259.414 132.483C259.938 132.765 260.349 133.169 260.648 133.693C260.954 134.217 261.107 134.822 261.107 135.508C261.107 136.193 260.95 136.798 260.636 137.323C260.329 137.847 259.91 138.254 259.377 138.545C258.853 138.827 258.264 138.968 257.611 138.968ZM257.611 137.492C257.917 137.492 258.204 137.419 258.47 137.274C258.744 137.121 258.962 136.895 259.123 136.597C259.285 136.298 259.365 135.935 259.365 135.508C259.365 134.871 259.196 134.383 258.857 134.044C258.526 133.697 258.119 133.523 257.635 133.523C257.151 133.523 256.744 133.697 256.413 134.044C256.09 134.383 255.929 134.871 255.929 135.508C255.929 136.145 256.086 136.637 256.401 136.984C256.724 137.323 257.127 137.492 257.611 137.492ZM264.528 133.197C264.746 132.842 265.028 132.564 265.375 132.362C265.73 132.16 266.133 132.059 266.585 132.059V133.838H266.137C265.605 133.838 265.201 133.963 264.927 134.213C264.661 134.463 264.528 134.899 264.528 135.52V138.859H262.834V132.156H264.528V133.197ZM274.441 135.363C274.441 135.605 274.424 135.822 274.392 136.016H269.492C269.532 136.5 269.702 136.879 270 137.153C270.299 137.427 270.666 137.565 271.101 137.565C271.73 137.565 272.178 137.294 272.444 136.754H274.271C274.078 137.399 273.707 137.932 273.158 138.351C272.61 138.762 271.936 138.968 271.137 138.968C270.492 138.968 269.911 138.827 269.395 138.545C268.887 138.254 268.488 137.847 268.197 137.323C267.915 136.798 267.774 136.193 267.774 135.508C267.774 134.814 267.915 134.205 268.197 133.681C268.48 133.156 268.875 132.753 269.383 132.471C269.891 132.189 270.476 132.047 271.137 132.047C271.775 132.047 272.343 132.185 272.843 132.459C273.352 132.733 273.743 133.124 274.017 133.632C274.299 134.132 274.441 134.709 274.441 135.363ZM272.686 134.879C272.678 134.443 272.521 134.096 272.214 133.838C271.908 133.572 271.533 133.439 271.089 133.439C270.67 133.439 270.315 133.568 270.024 133.826C269.742 134.076 269.569 134.427 269.504 134.879H272.686ZM275.725 135.484C275.725 134.806 275.858 134.205 276.125 133.681C276.399 133.156 276.77 132.753 277.238 132.471C277.706 132.189 278.226 132.047 278.798 132.047C279.234 132.047 279.649 132.144 280.045 132.338C280.44 132.523 280.754 132.773 280.988 133.088V129.906H282.706V138.859H280.988V137.867C280.779 138.198 280.484 138.464 280.105 138.666C279.726 138.867 279.286 138.968 278.786 138.968C278.222 138.968 277.706 138.823 277.238 138.532C276.77 138.242 276.399 137.835 276.125 137.31C275.858 136.778 275.725 136.169 275.725 135.484ZM281.001 135.508C281.001 135.096 280.92 134.745 280.759 134.455C280.597 134.157 280.379 133.931 280.105 133.778C279.831 133.616 279.537 133.536 279.222 133.536C278.907 133.536 278.617 133.612 278.351 133.765C278.085 133.919 277.867 134.145 277.697 134.443C277.536 134.733 277.455 135.08 277.455 135.484C277.455 135.887 277.536 136.242 277.697 136.548C277.867 136.847 278.085 137.077 278.351 137.238C278.625 137.399 278.915 137.48 279.222 137.48C279.537 137.48 279.831 137.403 280.105 137.25C280.379 137.089 280.597 136.863 280.759 136.572C280.92 136.274 281.001 135.919 281.001 135.508ZM155.388 149.321L152.17 156.859H150.452L153.694 149.515H149.556V148.063H155.388V149.321ZM162.815 149.503H158.895V151.572C159.064 151.362 159.306 151.193 159.621 151.064C159.935 150.927 160.27 150.858 160.625 150.858C161.27 150.858 161.799 150.999 162.21 151.281C162.621 151.564 162.92 151.927 163.105 152.37C163.291 152.806 163.384 153.274 163.384 153.774C163.384 154.701 163.118 155.448 162.585 156.012C162.061 156.577 161.311 156.859 160.335 156.859C159.415 156.859 158.681 156.629 158.133 156.17C157.584 155.71 157.274 155.109 157.201 154.367H158.847C158.919 154.689 159.08 154.948 159.331 155.141C159.589 155.335 159.915 155.431 160.311 155.431C160.786 155.431 161.145 155.282 161.387 154.984C161.629 154.685 161.75 154.29 161.75 153.798C161.75 153.298 161.625 152.919 161.375 152.661C161.133 152.395 160.774 152.262 160.298 152.262C159.96 152.262 159.677 152.346 159.452 152.516C159.226 152.685 159.064 152.911 158.968 153.193H157.346V148.015H162.815V149.503ZM171.694 156.968C171.048 156.968 170.468 156.827 169.952 156.545C169.435 156.254 169.028 155.847 168.73 155.323C168.439 154.798 168.294 154.193 168.294 153.508C168.294 152.822 168.443 152.217 168.742 151.693C169.048 151.169 169.464 150.765 169.988 150.483C170.512 150.193 171.097 150.047 171.742 150.047C172.387 150.047 172.972 150.193 173.497 150.483C174.021 150.765 174.432 151.169 174.731 151.693C175.037 152.217 175.19 152.822 175.19 153.508C175.19 154.193 175.033 154.798 174.719 155.323C174.412 155.847 173.993 156.254 173.46 156.545C172.936 156.827 172.347 156.968 171.694 156.968ZM171.694 155.492C172 155.492 172.287 155.419 172.553 155.274C172.827 155.121 173.045 154.895 173.206 154.597C173.367 154.298 173.448 153.935 173.448 153.508C173.448 152.871 173.279 152.383 172.94 152.044C172.609 151.697 172.202 151.523 171.718 151.523C171.234 151.523 170.827 151.697 170.496 152.044C170.173 152.383 170.012 152.871 170.012 153.508C170.012 154.145 170.169 154.637 170.484 154.984C170.807 155.323 171.21 155.492 171.694 155.492ZM183.245 150.156V156.859H181.539V156.012C181.321 156.303 181.035 156.532 180.68 156.702C180.333 156.863 179.954 156.944 179.542 156.944C179.018 156.944 178.554 156.835 178.151 156.617C177.748 156.391 177.429 156.065 177.195 155.637C176.969 155.202 176.856 154.685 176.856 154.088V150.156H178.55V153.846C178.55 154.379 178.683 154.79 178.95 155.081C179.216 155.363 179.579 155.504 180.038 155.504C180.506 155.504 180.873 155.363 181.139 155.081C181.406 154.79 181.539 154.379 181.539 153.846V150.156H183.245ZM187.372 151.548V154.79C187.372 155.016 187.425 155.181 187.529 155.286C187.642 155.383 187.828 155.431 188.086 155.431H188.872V156.859H187.808C186.38 156.859 185.666 156.165 185.666 154.778V151.548H184.868V150.156H185.666V148.499H187.372V150.156H188.872V151.548H187.372ZM196.918 156.968C196.273 156.968 195.692 156.827 195.176 156.545C194.659 156.254 194.252 155.847 193.954 155.323C193.663 154.798 193.518 154.193 193.518 153.508C193.518 152.822 193.667 152.217 193.966 151.693C194.272 151.169 194.688 150.765 195.212 150.483C195.736 150.193 196.321 150.047 196.966 150.047C197.612 150.047 198.196 150.193 198.721 150.483C199.245 150.765 199.656 151.169 199.955 151.693C200.261 152.217 200.415 152.822 200.415 153.508C200.415 154.193 200.257 154.798 199.943 155.323C199.636 155.847 199.217 156.254 198.684 156.545C198.16 156.827 197.571 156.968 196.918 156.968ZM196.918 155.492C197.224 155.492 197.511 155.419 197.777 155.274C198.051 155.121 198.269 154.895 198.43 154.597C198.592 154.298 198.672 153.935 198.672 153.508C198.672 152.871 198.503 152.383 198.164 152.044C197.833 151.697 197.426 151.523 196.942 151.523C196.458 151.523 196.051 151.697 195.72 152.044C195.398 152.383 195.236 152.871 195.236 153.508C195.236 154.145 195.393 154.637 195.708 154.984C196.031 155.323 196.434 155.492 196.918 155.492ZM205.214 151.548H204.041V156.859H202.323V151.548H201.56V150.156H202.323V149.818C202.323 148.995 202.556 148.39 203.024 148.003C203.492 147.615 204.198 147.434 205.142 147.458V148.886C204.73 148.878 204.444 148.946 204.283 149.092C204.121 149.237 204.041 149.499 204.041 149.878V150.156H205.214V151.548ZM209.764 149.6V148.039H212.679V156.859H210.937V149.6H209.764ZM214.837 152.334C214.837 150.939 215.087 149.846 215.587 149.055C216.095 148.265 216.934 147.87 218.104 147.87C219.273 147.87 220.108 148.265 220.608 149.055C221.116 149.846 221.37 150.939 221.37 152.334C221.37 153.738 221.116 154.839 220.608 155.637C220.108 156.436 219.273 156.835 218.104 156.835C216.934 156.835 216.095 156.436 215.587 155.637C215.087 154.839 214.837 153.738 214.837 152.334ZM219.701 152.334C219.701 151.737 219.66 151.237 219.58 150.834C219.507 150.422 219.354 150.088 219.12 149.83C218.894 149.571 218.555 149.442 218.104 149.442C217.652 149.442 217.309 149.571 217.075 149.83C216.849 150.088 216.696 150.422 216.615 150.834C216.543 151.237 216.506 151.737 216.506 152.334C216.506 152.947 216.543 153.463 216.615 153.883C216.688 154.294 216.841 154.629 217.075 154.887C217.309 155.137 217.652 155.262 218.104 155.262C218.555 155.262 218.898 155.137 219.132 154.887C219.366 154.629 219.519 154.294 219.592 153.883C219.664 153.463 219.701 152.947 219.701 152.334ZM223.143 152.334C223.143 150.939 223.393 149.846 223.893 149.055C224.401 148.265 225.24 147.87 226.409 147.87C227.579 147.87 228.414 148.265 228.914 149.055C229.422 149.846 229.676 150.939 229.676 152.334C229.676 153.738 229.422 154.839 228.914 155.637C228.414 156.436 227.579 156.835 226.409 156.835C225.24 156.835 224.401 156.436 223.893 155.637C223.393 154.839 223.143 153.738 223.143 152.334ZM228.006 152.334C228.006 151.737 227.966 151.237 227.885 150.834C227.813 150.422 227.66 150.088 227.426 149.83C227.2 149.571 226.861 149.442 226.409 149.442C225.958 149.442 225.615 149.571 225.381 149.83C225.155 150.088 225.002 150.422 224.921 150.834C224.849 151.237 224.812 151.737 224.812 152.334C224.812 152.947 224.849 153.463 224.921 153.883C224.994 154.294 225.147 154.629 225.381 154.887C225.615 155.137 225.958 155.262 226.409 155.262C226.861 155.262 227.204 155.137 227.438 154.887C227.672 154.629 227.825 154.294 227.898 153.883C227.97 153.463 228.006 152.947 228.006 152.334ZM232.392 156.944C232.086 156.944 231.832 156.851 231.63 156.666C231.436 156.472 231.34 156.234 231.34 155.952C231.34 155.669 231.436 155.436 231.63 155.25C231.832 155.056 232.086 154.96 232.392 154.96C232.691 154.96 232.937 155.056 233.13 155.25C233.324 155.436 233.421 155.669 233.421 155.952C233.421 156.234 233.324 156.472 233.13 156.666C232.937 156.851 232.691 156.944 232.392 156.944Z" fill="#121212"/>
<rect x="149.134" y="171.231" width="173.924" height="4.53715" rx="2.26857" fill="#F5F6F7"/>
<rect x="149.134" y="183.33" width="111.16" height="4.53715" rx="2.26857" fill="#F5F6F7"/>
<path d="M53.8015 247.679V255.069H52.3193V247.679H53.8015ZM63.7458 247.679V255.069H62.2636V250.262L60.2839 255.069H59.1617L57.1714 250.262V255.069H55.6893V247.679H57.3726L59.7228 253.174L62.0731 247.679H63.7458ZM71.0232 249.966C71.0232 250.361 70.9279 250.732 70.7374 251.077C70.5539 251.423 70.261 251.702 69.8587 251.914C69.4634 252.126 68.9623 252.231 68.3554 252.231H67.1167V255.069H65.6346V247.679H68.3554C68.927 247.679 69.414 247.778 69.8163 247.976C70.2186 248.173 70.5186 248.445 70.7162 248.791C70.9209 249.137 71.0232 249.528 71.0232 249.966ZM68.2918 251.035C68.7012 251.035 69.0047 250.943 69.2023 250.76C69.3999 250.569 69.4987 250.305 69.4987 249.966C69.4987 249.246 69.0964 248.886 68.2918 248.886H67.1167V251.035H68.2918ZM77.0301 253.661H74.087L73.6 255.069H72.0437L74.701 247.669H76.4266L79.0839 255.069H77.5171L77.0301 253.661ZM76.6278 252.475L75.5585 249.384L74.4893 252.475H76.6278ZM80.1406 251.363C80.1406 250.636 80.303 249.987 80.6276 249.415C80.9594 248.837 81.4075 248.388 81.9721 248.071C82.5438 247.746 83.1826 247.584 83.8883 247.584C84.7141 247.584 85.4375 247.796 86.0586 248.219C86.6797 248.643 87.1137 249.228 87.3608 249.976H85.6563C85.4869 249.624 85.247 249.359 84.9364 249.182C84.6329 249.006 84.28 248.918 83.8777 248.918C83.4472 248.918 83.0626 249.02 82.7238 249.225C82.3921 249.422 82.1309 249.705 81.9404 250.072C81.7569 250.439 81.6651 250.869 81.6651 251.363C81.6651 251.85 81.7569 252.281 81.9404 252.655C82.1309 253.022 82.3921 253.308 82.7238 253.512C83.0626 253.71 83.4472 253.809 83.8777 253.809C84.28 253.809 84.6329 253.721 84.9364 253.544C85.247 253.361 85.4869 253.092 85.6563 252.74H87.3608C87.1137 253.495 86.6797 254.084 86.0586 254.508C85.4446 254.924 84.7212 255.132 83.8883 255.132C83.1826 255.132 82.5438 254.973 81.9721 254.656C81.4075 254.331 80.9594 253.883 80.6276 253.311C80.303 252.74 80.1406 252.09 80.1406 251.363ZM94.0788 247.679V248.875H92.1097V255.069H90.6276V248.875H88.6585V247.679H94.0788Z" fill="#6BBC89"/>
<rect x="59.1504" y="266.51" width="111.16" height="4.53715" rx="2.26857" fill="#F4F6FD"/>
<rect x="59.1504" y="278.609" width="91.4992" height="4.53715" rx="2.26857" fill="#F4F6FD"/>
<rect x="59.1504" y="290.709" width="74.1068" height="4.53715" rx="2.26857" fill="#F4F6FD"/>
<rect x="59.1504" y="302.808" width="94.5239" height="4.53715" rx="2.26857" fill="#F4F6FD"/>
<circle cx="53.1012" cy="268.779" r="1.51238" fill="#626262" fill-opacity="0.2"/>
<circle cx="53.1012" cy="280.878" r="1.51238" fill="#626262" fill-opacity="0.2"/>
<circle cx="53.1012" cy="292.977" r="1.51238" fill="#626262" fill-opacity="0.2"/>
<circle cx="53.1012" cy="305.076" r="1.51238" fill="#626262" fill-opacity="0.2"/>
<path d="M54.8707 352.691C54.3555 352.691 53.8897 352.603 53.4733 352.427C53.0639 352.25 52.7393 351.996 52.4993 351.665C52.2594 351.333 52.1358 350.941 52.1288 350.489H53.7168C53.738 350.793 53.8438 351.033 54.0344 351.209C54.232 351.386 54.5002 351.474 54.839 351.474C55.1848 351.474 55.4565 351.393 55.6542 351.231C55.8518 351.061 55.9506 350.842 55.9506 350.574C55.9506 350.355 55.8835 350.175 55.7494 350.034C55.6153 349.893 55.4459 349.784 55.2413 349.706C55.0437 349.621 54.7684 349.53 54.4155 349.431C53.9356 349.29 53.5439 349.152 53.2404 349.018C52.944 348.877 52.6864 348.669 52.4676 348.393C52.2558 348.111 52.15 347.737 52.15 347.271C52.15 346.834 52.2594 346.452 52.4781 346.128C52.6969 345.803 53.004 345.556 53.3992 345.387C53.7944 345.21 54.2461 345.122 54.7543 345.122C55.5165 345.122 56.1341 345.309 56.607 345.683C57.0869 346.05 57.3516 346.565 57.401 347.229H55.7706C55.7565 346.975 55.6471 346.766 55.4424 346.604C55.2448 346.435 54.9801 346.35 54.6484 346.35C54.359 346.35 54.1261 346.424 53.9497 346.572C53.7803 346.721 53.6956 346.936 53.6956 347.218C53.6956 347.416 53.7591 347.582 53.8862 347.716C54.0203 347.843 54.1826 347.949 54.3732 348.033C54.5708 348.111 54.846 348.203 55.1989 348.309C55.6789 348.45 56.0706 348.591 56.374 348.732C56.6775 348.873 56.9387 349.085 57.1575 349.367C57.3763 349.65 57.4856 350.02 57.4856 350.479C57.4856 350.874 57.3833 351.241 57.1786 351.58C56.974 351.919 56.674 352.19 56.2788 352.395C55.8835 352.593 55.4142 352.691 54.8707 352.691ZM64.2227 345.228V346.424H62.2536V352.617H60.7715V346.424H58.8024V345.228H64.2227ZM71.6032 345.228L69.1048 350.045V352.617H67.6226V350.045L65.1136 345.228H66.7863L68.3743 348.605L69.9517 345.228H71.6032ZM74.3636 351.442H76.7986V352.617H72.8815V345.228H74.3636V351.442ZM79.6462 346.424V348.277H82.1341V349.452H79.6462V351.411H82.4517V352.617H78.1641V345.217H82.4517V346.424H79.6462Z" fill="#484BBE"/>
<rect x="59.1504" y="364.059" width="111.16" height="4.53715" rx="2.26857" fill="#F4F6FD"/>
<rect x="59.1504" y="376.158" width="91.4992" height="4.53715" rx="2.26857" fill="#F4F6FD"/>
<rect x="59.1504" y="388.257" width="74.1068" height="4.53715" rx="2.26857" fill="#F4F6FD"/>
<rect x="59.1504" y="400.357" width="94.5239" height="4.53715" rx="2.26857" fill="#F4F6FD"/>
<circle cx="53.1012" cy="366.328" r="1.51238" fill="#626262" fill-opacity="0.2"/>
<circle cx="53.1012" cy="378.427" r="1.51238" fill="#626262" fill-opacity="0.2"/>
<circle cx="53.1012" cy="390.526" r="1.51238" fill="#626262" fill-opacity="0.2"/>
<circle cx="53.1012" cy="402.625" r="1.51238" fill="#626262" fill-opacity="0.2"/>
<path d="M214.555 251.279C214.971 251.356 215.313 251.564 215.582 251.903C215.85 252.242 215.984 252.63 215.984 253.068C215.984 253.463 215.885 253.812 215.687 254.116C215.497 254.412 215.218 254.645 214.851 254.815C214.484 254.984 214.05 255.069 213.549 255.069H210.362V247.679H213.411C213.912 247.679 214.343 247.76 214.703 247.923C215.07 248.085 215.345 248.311 215.529 248.6C215.719 248.89 215.814 249.218 215.814 249.585C215.814 250.015 215.698 250.375 215.465 250.665C215.239 250.954 214.936 251.159 214.555 251.279ZM211.844 250.728H213.2C213.552 250.728 213.824 250.65 214.015 250.495C214.205 250.333 214.301 250.104 214.301 249.807C214.301 249.511 214.205 249.281 214.015 249.119C213.824 248.957 213.552 248.875 213.2 248.875H211.844V250.728ZM213.337 253.862C213.697 253.862 213.976 253.777 214.174 253.608C214.378 253.438 214.481 253.198 214.481 252.888C214.481 252.57 214.375 252.323 214.163 252.147C213.951 251.963 213.665 251.871 213.305 251.871H211.844V253.862H213.337ZM221.4 255.069L219.769 252.189H219.071V255.069H217.589V247.679H220.362C220.934 247.679 221.421 247.782 221.823 247.986C222.226 248.184 222.525 248.456 222.723 248.801C222.928 249.14 223.03 249.521 223.03 249.945C223.03 250.432 222.889 250.873 222.607 251.268C222.324 251.656 221.904 251.924 221.347 252.073L223.115 255.069H221.4ZM219.071 251.077H220.309C220.712 251.077 221.012 250.982 221.209 250.792C221.407 250.594 221.506 250.322 221.506 249.976C221.506 249.638 221.407 249.377 221.209 249.193C221.012 249.003 220.712 248.907 220.309 248.907H219.071V251.077ZM226.276 248.875V250.728H228.764V251.903H226.276V253.862H229.082V255.069H224.794V247.669H229.082V248.875H226.276ZM237.49 247.679L234.78 255.069H232.98L230.27 247.679H231.858L233.89 253.555L235.913 247.679H237.49ZM240.284 247.679V255.069H238.802V247.679H240.284ZM247.201 247.679V248.875H245.232V255.069H243.749V248.875H241.78V247.679H247.201ZM254.581 247.679L252.083 252.496V255.069H250.601V252.496L248.092 247.679H249.764L251.352 251.056L252.93 247.679H254.581Z" fill="#DC7B40"/>
<rect x="217.193" y="266.511" width="111.16" height="4.53715" rx="2.26857" fill="#F4F6FD"/>
<rect x="217.193" y="278.61" width="91.4992" height="4.53715" rx="2.26857" fill="#F4F6FD"/>
<rect x="217.193" y="290.709" width="74.1068" height="4.53715" rx="2.26857" fill="#F4F6FD"/>
<rect x="217.193" y="302.808" width="94.5239" height="4.53715" rx="2.26857" fill="#F4F6FD"/>
<circle cx="211.144" cy="268.779" r="1.51238" fill="#626262" fill-opacity="0.2"/>
<circle cx="211.144" cy="280.878" r="1.51238" fill="#626262" fill-opacity="0.2"/>
<circle cx="211.144" cy="292.977" r="1.51238" fill="#626262" fill-opacity="0.2"/>
<circle cx="211.144" cy="305.076" r="1.51238" fill="#626262" fill-opacity="0.2"/>
<path d="M212.914 352.691C212.398 352.691 211.933 352.603 211.516 352.427C211.107 352.25 210.782 351.996 210.542 351.665C210.302 351.333 210.179 350.941 210.172 350.489H211.76C211.781 350.793 211.887 351.033 212.077 351.209C212.275 351.386 212.543 351.474 212.882 351.474C213.228 351.474 213.5 351.393 213.697 351.23C213.895 351.061 213.994 350.842 213.994 350.574C213.994 350.355 213.926 350.175 213.792 350.034C213.658 349.893 213.489 349.784 213.284 349.706C213.087 349.621 212.811 349.53 212.458 349.431C211.979 349.29 211.587 349.152 211.283 349.018C210.987 348.877 210.729 348.669 210.511 348.393C210.299 348.111 210.193 347.737 210.193 347.271C210.193 346.833 210.302 346.452 210.521 346.128C210.74 345.803 211.047 345.556 211.442 345.387C211.837 345.21 212.289 345.122 212.797 345.122C213.559 345.122 214.177 345.309 214.65 345.683C215.13 346.05 215.395 346.565 215.444 347.229H213.814C213.799 346.975 213.69 346.766 213.485 346.604C213.288 346.435 213.023 346.35 212.691 346.35C212.402 346.35 212.169 346.424 211.993 346.572C211.823 346.721 211.739 346.936 211.739 347.218C211.739 347.416 211.802 347.582 211.929 347.716C212.063 347.843 212.226 347.949 212.416 348.033C212.614 348.111 212.889 348.203 213.242 348.309C213.722 348.45 214.114 348.591 214.417 348.732C214.721 348.873 214.982 349.085 215.2 349.367C215.419 349.65 215.529 350.02 215.529 350.479C215.529 350.874 215.426 351.241 215.222 351.58C215.017 351.919 214.717 352.19 214.322 352.395C213.926 352.593 213.457 352.691 212.914 352.691ZM221.408 352.617L218.719 349.325V352.617H217.237V345.228H218.719V348.541L221.408 345.228H223.197L220.148 348.891L223.282 352.617H221.408ZM226.163 345.228V352.617H224.68V345.228H226.163ZM229.532 351.442H231.967V352.617H228.05V345.228H229.532V351.442ZM234.815 351.442H237.25V352.617H233.333V345.228H234.815V351.442ZM241.167 352.691C240.652 352.691 240.186 352.603 239.769 352.427C239.36 352.25 239.035 351.996 238.795 351.665C238.556 351.333 238.432 350.941 238.425 350.489H240.013C240.034 350.793 240.14 351.033 240.331 351.209C240.528 351.386 240.796 351.474 241.135 351.474C241.481 351.474 241.753 351.393 241.95 351.23C242.148 351.061 242.247 350.842 242.247 350.574C242.247 350.355 242.18 350.175 242.046 350.034C241.912 349.893 241.742 349.784 241.537 349.706C241.34 349.621 241.065 349.53 240.712 349.431C240.232 349.29 239.84 349.152 239.537 349.018C239.24 348.877 238.983 348.669 238.764 348.393C238.552 348.111 238.446 347.737 238.446 347.271C238.446 346.833 238.556 346.452 238.774 346.128C238.993 345.803 239.3 345.556 239.695 345.387C240.091 345.21 240.542 345.122 241.05 345.122C241.813 345.122 242.43 345.309 242.903 345.683C243.383 346.05 243.648 346.565 243.697 347.229H242.067C242.053 346.975 241.943 346.766 241.739 346.604C241.541 346.435 241.276 346.35 240.945 346.35C240.655 346.35 240.422 346.424 240.246 346.572C240.076 346.721 239.992 346.936 239.992 347.218C239.992 347.416 240.055 347.582 240.182 347.716C240.316 347.843 240.479 347.949 240.669 348.033C240.867 348.111 241.142 348.203 241.495 348.309C241.975 348.45 242.367 348.591 242.67 348.732C242.974 348.873 243.235 349.085 243.454 349.367C243.672 349.65 243.782 350.02 243.782 350.479C243.782 350.874 243.679 351.241 243.475 351.58C243.27 351.919 242.97 352.19 242.575 352.395C242.18 352.593 241.71 352.691 241.167 352.691Z" fill="#2252D5"/>
<rect x="217.193" y="364.059" width="111.16" height="4.53715" rx="2.26857" fill="#F4F6FD"/>
<rect x="217.193" y="376.158" width="91.4992" height="4.53715" rx="2.26857" fill="#F4F6FD"/>
<rect x="217.193" y="388.258" width="74.1068" height="4.53715" rx="2.26857" fill="#F4F6FD"/>
<rect x="217.193" y="400.357" width="94.5239" height="4.53715" rx="2.26857" fill="#F4F6FD"/>
<circle cx="211.144" cy="366.328" r="1.51238" fill="#626262" fill-opacity="0.2"/>
<circle cx="211.144" cy="378.427" r="1.51238" fill="#626262" fill-opacity="0.2"/>
<circle cx="211.144" cy="390.526" r="1.51238" fill="#626262" fill-opacity="0.2"/>
<circle cx="211.144" cy="402.625" r="1.51238" fill="#626262" fill-opacity="0.2"/>
<g filter="url(#filter1_d_520_2)">
<path d="M311.717 223.408C311.717 216.726 317.134 211.309 323.816 211.309H528.744C535.426 211.309 540.843 216.726 540.843 223.408V333.056C540.843 339.738 535.426 345.155 528.744 345.155H323.816C317.134 345.155 311.717 339.738 311.717 333.056V223.408Z" fill="white"/>
</g>
<circle cx="369.944" cy="270.292" r="31.76" stroke="#7ED6C2" stroke-width="3.02477"/>
<path d="M359.795 266.958V265.397H362.711V274.217H360.969V266.958H359.795ZM364.384 269.692C364.384 268.297 364.634 267.204 365.134 266.414C365.642 265.623 366.481 265.228 367.651 265.228C368.82 265.228 369.655 265.623 370.155 266.414C370.664 267.204 370.918 268.297 370.918 269.692C370.918 271.096 370.664 272.197 370.155 272.995C369.655 273.794 368.82 274.193 367.651 274.193C366.481 274.193 365.642 273.794 365.134 272.995C364.634 272.197 364.384 271.096 364.384 269.692ZM369.248 269.692C369.248 269.095 369.208 268.595 369.127 268.192C369.054 267.781 368.901 267.446 368.667 267.188C368.441 266.93 368.103 266.801 367.651 266.801C367.199 266.801 366.856 266.93 366.622 267.188C366.397 267.446 366.243 267.781 366.163 268.192C366.09 268.595 366.054 269.095 366.054 269.692C366.054 270.305 366.09 270.822 366.163 271.241C366.235 271.652 366.389 271.987 366.622 272.245C366.856 272.495 367.199 272.62 367.651 272.62C368.103 272.62 368.445 272.495 368.679 272.245C368.913 271.987 369.067 271.652 369.139 271.241C369.212 270.822 369.248 270.305 369.248 269.692ZM372.206 269.692C372.206 268.297 372.456 267.204 372.956 266.414C373.464 265.623 374.303 265.228 375.473 265.228C376.642 265.228 377.477 265.623 377.977 266.414C378.485 267.204 378.74 268.297 378.74 269.692C378.74 271.096 378.485 272.197 377.977 272.995C377.477 273.794 376.642 274.193 375.473 274.193C374.303 274.193 373.464 273.794 372.956 272.995C372.456 272.197 372.206 271.096 372.206 269.692ZM377.07 269.692C377.07 269.095 377.03 268.595 376.949 268.192C376.876 267.781 376.723 267.446 376.489 267.188C376.263 266.93 375.924 266.801 375.473 266.801C375.021 266.801 374.678 266.93 374.444 267.188C374.219 267.446 374.065 267.781 373.985 268.192C373.912 268.595 373.876 269.095 373.876 269.692C373.876 270.305 373.912 270.822 373.985 271.241C374.057 271.652 374.21 271.987 374.444 272.245C374.678 272.495 375.021 272.62 375.473 272.62C375.924 272.62 376.267 272.495 376.501 272.245C376.735 271.987 376.888 271.652 376.961 271.241C377.034 270.822 377.07 270.305 377.07 269.692Z" fill="#121212"/>
<path d="M343.992 310.831V316.101H343.304V310.831H343.992ZM350.451 311.882C350.773 311.882 351.061 311.95 351.313 312.086C351.565 312.217 351.764 312.416 351.91 312.683C352.056 312.95 352.129 313.276 352.129 313.659V316.101H351.449V313.757C351.449 313.344 351.345 313.029 351.139 312.812C350.937 312.59 350.662 312.479 350.315 312.479C349.957 312.479 349.672 312.595 349.46 312.827C349.248 313.054 349.142 313.384 349.142 313.818V316.101H348.462V313.757C348.462 313.344 348.359 313.029 348.152 312.812C347.95 312.59 347.675 312.479 347.328 312.479C346.97 312.479 346.685 312.595 346.473 312.827C346.261 313.054 346.155 313.384 346.155 313.818V316.101H345.467V311.957H346.155V312.555C346.292 312.338 346.473 312.172 346.7 312.056C346.932 311.94 347.186 311.882 347.464 311.882C347.812 311.882 348.119 311.96 348.386 312.116C348.653 312.272 348.853 312.502 348.984 312.804C349.1 312.512 349.291 312.285 349.558 312.124C349.826 311.962 350.123 311.882 350.451 311.882ZM354.249 312.721C354.385 312.484 354.587 312.288 354.854 312.131C355.126 311.97 355.441 311.889 355.799 311.889C356.167 311.889 356.5 311.978 356.797 312.154C357.1 312.33 357.337 312.58 357.508 312.903C357.679 313.22 357.765 313.591 357.765 314.014C357.765 314.433 357.679 314.806 357.508 315.133C357.337 315.461 357.1 315.716 356.797 315.897C356.5 316.079 356.167 316.169 355.799 316.169C355.446 316.169 355.134 316.091 354.861 315.935C354.594 315.774 354.39 315.574 354.249 315.338V318.067H353.561V311.957H354.249V312.721ZM357.062 314.014C357.062 313.702 356.999 313.429 356.873 313.198C356.747 312.966 356.575 312.789 356.359 312.668C356.147 312.547 355.912 312.487 355.655 312.487C355.403 312.487 355.169 312.55 354.952 312.676C354.74 312.797 354.569 312.976 354.438 313.213C354.312 313.445 354.249 313.714 354.249 314.022C354.249 314.334 354.312 314.609 354.438 314.846C354.569 315.078 354.74 315.257 354.952 315.383C355.169 315.504 355.403 315.564 355.655 315.564C355.912 315.564 356.147 315.504 356.359 315.383C356.575 315.257 356.747 315.078 356.873 314.846C356.999 314.609 357.062 314.332 357.062 314.014ZM358.716 314.014C358.716 313.591 358.802 313.22 358.973 312.903C359.145 312.58 359.379 312.33 359.677 312.154C359.979 311.978 360.314 311.889 360.682 311.889C361.045 311.889 361.36 311.967 361.628 312.124C361.895 312.28 362.094 312.477 362.225 312.714V311.957H362.921V316.101H362.225V315.33C362.089 315.572 361.885 315.774 361.612 315.935C361.345 316.091 361.033 316.169 360.675 316.169C360.307 316.169 359.974 316.079 359.677 315.897C359.379 315.716 359.145 315.461 358.973 315.133C358.802 314.806 358.716 314.433 358.716 314.014ZM362.225 314.022C362.225 313.709 362.162 313.437 362.036 313.205C361.91 312.973 361.738 312.797 361.522 312.676C361.31 312.55 361.076 312.487 360.818 312.487C360.561 312.487 360.327 312.547 360.115 312.668C359.903 312.789 359.735 312.966 359.609 313.198C359.483 313.429 359.42 313.702 359.42 314.014C359.42 314.332 359.483 314.609 359.609 314.846C359.735 315.078 359.903 315.257 360.115 315.383C360.327 315.504 360.561 315.564 360.818 315.564C361.076 315.564 361.31 315.504 361.522 315.383C361.738 315.257 361.91 315.078 362.036 314.846C362.162 314.609 362.225 314.334 362.225 314.022ZM364.129 314.022C364.129 313.593 364.215 313.22 364.386 312.903C364.557 312.58 364.794 312.33 365.097 312.154C365.404 311.978 365.755 311.889 366.148 311.889C366.657 311.889 367.076 312.013 367.403 312.26C367.736 312.507 367.955 312.85 368.061 313.288H367.32C367.249 313.036 367.111 312.837 366.904 312.691C366.703 312.545 366.45 312.472 366.148 312.472C365.755 312.472 365.437 312.608 365.195 312.88C364.953 313.147 364.832 313.528 364.832 314.022C364.832 314.521 364.953 314.906 365.195 315.179C365.437 315.451 365.755 315.587 366.148 315.587C366.45 315.587 366.703 315.516 366.904 315.375C367.106 315.234 367.244 315.033 367.32 314.77H368.061C367.95 315.194 367.728 315.534 367.396 315.791C367.063 316.043 366.647 316.169 366.148 316.169C365.755 316.169 365.404 316.081 365.097 315.905C364.794 315.728 364.557 315.479 364.386 315.156C364.215 314.833 364.129 314.455 364.129 314.022ZM370.121 312.524V314.967C370.121 315.169 370.164 315.312 370.25 315.398C370.335 315.479 370.484 315.519 370.696 315.519H371.203V316.101H370.582C370.199 316.101 369.912 316.013 369.72 315.837C369.529 315.66 369.433 315.37 369.433 314.967V312.524H368.896V311.957H369.433V310.914H370.121V311.957H371.203V312.524H370.121ZM376.328 316.154C375.981 316.154 375.668 316.094 375.391 315.973C375.119 315.847 374.904 315.675 374.748 315.459C374.592 315.237 374.511 314.982 374.506 314.695H375.24C375.265 314.942 375.366 315.151 375.542 315.322C375.723 315.489 375.986 315.572 376.328 315.572C376.656 315.572 376.913 315.491 377.1 315.33C377.291 315.164 377.387 314.952 377.387 314.695C377.387 314.493 377.332 314.329 377.221 314.203C377.11 314.077 376.971 313.981 376.805 313.916C376.638 313.85 376.414 313.78 376.132 313.704C375.784 313.613 375.504 313.523 375.292 313.432C375.086 313.341 374.907 313.2 374.756 313.008C374.609 312.812 374.536 312.55 374.536 312.222C374.536 311.935 374.609 311.68 374.756 311.458C374.902 311.236 375.106 311.065 375.368 310.944C375.635 310.823 375.94 310.763 376.283 310.763C376.777 310.763 377.18 310.886 377.493 311.133C377.811 311.38 377.99 311.708 378.03 312.116H377.274C377.248 311.914 377.143 311.738 376.956 311.587C376.77 311.431 376.523 311.352 376.215 311.352C375.928 311.352 375.693 311.428 375.512 311.579C375.33 311.725 375.24 311.932 375.24 312.199C375.24 312.391 375.292 312.547 375.398 312.668C375.509 312.789 375.643 312.882 375.799 312.948C375.96 313.008 376.185 313.079 376.472 313.16C376.82 313.255 377.1 313.351 377.311 313.447C377.523 313.538 377.705 313.681 377.856 313.878C378.007 314.07 378.083 314.332 378.083 314.665C378.083 314.922 378.015 315.164 377.879 315.39C377.743 315.617 377.541 315.801 377.274 315.942C377.006 316.084 376.691 316.154 376.328 316.154ZM379.141 314.022C379.141 313.593 379.227 313.22 379.398 312.903C379.569 312.58 379.806 312.33 380.109 312.154C380.416 311.978 380.767 311.889 381.16 311.889C381.669 311.889 382.087 312.013 382.415 312.26C382.748 312.507 382.967 312.85 383.073 313.288H382.332C382.261 313.036 382.123 312.837 381.916 312.691C381.714 312.545 381.462 312.472 381.16 312.472C380.767 312.472 380.449 312.608 380.207 312.88C379.965 313.147 379.844 313.528 379.844 314.022C379.844 314.521 379.965 314.906 380.207 315.179C380.449 315.451 380.767 315.587 381.16 315.587C381.462 315.587 381.714 315.516 381.916 315.375C382.118 315.234 382.256 315.033 382.332 314.77H383.073C382.962 315.194 382.74 315.534 382.408 315.791C382.075 316.043 381.659 316.169 381.16 316.169C380.767 316.169 380.416 316.081 380.109 315.905C379.806 315.728 379.569 315.479 379.398 315.156C379.227 314.833 379.141 314.455 379.141 314.022ZM386.101 316.169C385.713 316.169 385.36 316.081 385.042 315.905C384.73 315.728 384.483 315.479 384.301 315.156C384.125 314.828 384.037 314.45 384.037 314.022C384.037 313.598 384.127 313.225 384.309 312.903C384.495 312.575 384.747 312.325 385.065 312.154C385.383 311.978 385.738 311.889 386.131 311.889C386.524 311.889 386.88 311.978 387.197 312.154C387.515 312.325 387.765 312.572 387.946 312.895C388.133 313.218 388.226 313.593 388.226 314.022C388.226 314.45 388.13 314.828 387.939 315.156C387.752 315.479 387.497 315.728 387.175 315.905C386.852 316.081 386.494 316.169 386.101 316.169ZM386.101 315.564C386.348 315.564 386.58 315.506 386.797 315.39C387.013 315.275 387.187 315.101 387.318 314.869C387.455 314.637 387.523 314.354 387.523 314.022C387.523 313.689 387.457 313.407 387.326 313.175C387.195 312.943 387.024 312.772 386.812 312.661C386.6 312.545 386.371 312.487 386.124 312.487C385.872 312.487 385.64 312.545 385.428 312.661C385.221 312.772 385.055 312.943 384.929 313.175C384.803 313.407 384.74 313.689 384.74 314.022C384.74 314.36 384.8 314.644 384.921 314.876C385.047 315.108 385.214 315.282 385.42 315.398C385.627 315.509 385.854 315.564 386.101 315.564ZM390.121 312.63C390.242 312.393 390.414 312.209 390.635 312.078C390.862 311.947 391.137 311.882 391.46 311.882V312.593H391.278C390.507 312.593 390.121 313.011 390.121 313.848V316.101H389.433V311.957H390.121V312.63ZM396.337 313.871C396.337 314.002 396.33 314.14 396.315 314.286H393.003C393.028 314.695 393.167 315.015 393.419 315.247C393.676 315.474 393.986 315.587 394.349 315.587C394.646 315.587 394.893 315.519 395.09 315.383C395.291 315.242 395.433 315.055 395.513 314.823H396.254C396.143 315.222 395.922 315.547 395.589 315.799C395.256 316.046 394.843 316.169 394.349 316.169C393.955 316.169 393.603 316.081 393.29 315.905C392.983 315.728 392.741 315.479 392.564 315.156C392.388 314.828 392.299 314.45 392.299 314.022C392.299 313.593 392.385 313.218 392.557 312.895C392.728 312.572 392.967 312.325 393.275 312.154C393.587 311.978 393.945 311.889 394.349 311.889C394.742 311.889 395.09 311.975 395.392 312.146C395.695 312.318 395.927 312.555 396.088 312.857C396.254 313.155 396.337 313.492 396.337 313.871ZM395.627 313.727C395.627 313.465 395.569 313.24 395.453 313.054C395.337 312.862 395.178 312.719 394.976 312.623C394.78 312.522 394.56 312.472 394.318 312.472C393.971 312.472 393.673 312.582 393.426 312.804C393.184 313.026 393.046 313.334 393.01 313.727H395.627Z" fill="#121212" fill-opacity="0.8"/>
<path d="M428.93 244.581L431.576 246.85L436.492 242.312" stroke="#7FDDB8" stroke-width="1.51238"/>
<path d="M449.276 247.806L448.538 247.008C448.356 247.06 448.157 247.086 447.939 247.086C447.548 247.086 447.187 246.996 446.856 246.814C446.529 246.629 446.269 246.372 446.076 246.046C445.886 245.715 445.791 245.344 445.791 244.933C445.791 244.521 445.886 244.152 446.076 243.826C446.269 243.499 446.529 243.245 446.856 243.063C447.187 242.878 447.548 242.785 447.939 242.785C448.334 242.785 448.695 242.878 449.022 243.063C449.352 243.245 449.613 243.499 449.802 243.826C449.992 244.152 450.086 244.521 450.086 244.933C450.086 245.32 450.002 245.671 449.832 245.985C449.667 246.296 449.437 246.546 449.143 246.735L450.153 247.806H449.276ZM446.499 244.933C446.499 245.243 446.56 245.517 446.68 245.755C446.806 245.989 446.977 246.171 447.195 246.3C447.412 246.425 447.661 246.487 447.939 246.487C448.217 246.487 448.465 246.425 448.683 246.3C448.901 246.171 449.07 245.989 449.191 245.755C449.316 245.517 449.379 245.243 449.379 244.933C449.379 244.622 449.316 244.35 449.191 244.116C449.07 243.882 448.901 243.703 448.683 243.578C448.465 243.453 448.217 243.39 447.939 243.39C447.661 243.39 447.412 243.453 447.195 243.578C446.977 243.703 446.806 243.882 446.68 244.116C446.56 244.35 446.499 244.622 446.499 244.933ZM454.043 243.711V247.044H453.354V246.651C453.245 246.788 453.102 246.897 452.924 246.977C452.751 247.054 452.565 247.092 452.368 247.092C452.106 247.092 451.87 247.038 451.66 246.929C451.454 246.82 451.291 246.659 451.17 246.445C451.053 246.231 450.994 245.973 450.994 245.671V243.711H451.678V245.568C451.678 245.866 451.753 246.096 451.902 246.258C452.051 246.415 452.255 246.493 452.513 246.493C452.771 246.493 452.975 246.415 453.124 246.258C453.277 246.096 453.354 245.866 453.354 245.568V243.711H454.043ZM454.965 245.362C454.965 245.027 455.034 244.731 455.171 244.473C455.312 244.215 455.502 244.015 455.74 243.874C455.982 243.729 456.248 243.656 456.538 243.656C456.8 243.656 457.028 243.709 457.222 243.814C457.42 243.914 457.577 244.041 457.694 244.195V243.711H458.39V247.044H457.694V246.548C457.577 246.705 457.418 246.836 457.216 246.941C457.014 247.046 456.784 247.098 456.526 247.098C456.24 247.098 455.978 247.026 455.74 246.881C455.502 246.731 455.312 246.526 455.171 246.264C455.034 245.997 454.965 245.697 454.965 245.362ZM457.694 245.374C457.694 245.144 457.645 244.945 457.549 244.775C457.456 244.606 457.333 244.477 457.18 244.388C457.026 244.299 456.861 244.255 456.684 244.255C456.506 244.255 456.341 244.299 456.187 244.388C456.034 244.473 455.909 244.6 455.812 244.769C455.72 244.935 455.673 245.132 455.673 245.362C455.673 245.592 455.72 245.794 455.812 245.967C455.909 246.141 456.034 246.274 456.187 246.366C456.345 246.455 456.51 246.499 456.684 246.499C456.861 246.499 457.026 246.455 457.18 246.366C457.333 246.278 457.456 246.149 457.549 245.979C457.645 245.806 457.694 245.604 457.694 245.374ZM461.219 243.656C461.481 243.656 461.715 243.711 461.921 243.82C462.131 243.928 462.294 244.09 462.411 244.304C462.528 244.517 462.586 244.775 462.586 245.078V247.044H461.903V245.181C461.903 244.882 461.828 244.654 461.679 244.497C461.53 244.336 461.326 244.255 461.068 244.255C460.81 244.255 460.604 244.336 460.451 244.497C460.302 244.654 460.227 244.882 460.227 245.181V247.044H459.537V243.711H460.227V244.092C460.34 243.955 460.483 243.848 460.656 243.771C460.834 243.695 461.021 243.656 461.219 243.656ZM464.513 244.273V246.118C464.513 246.243 464.541 246.334 464.597 246.391C464.658 246.443 464.759 246.469 464.9 246.469H465.323V247.044H464.779C464.468 247.044 464.23 246.971 464.065 246.826C463.9 246.681 463.817 246.445 463.817 246.118V244.273H463.424V243.711H463.817V242.882H464.513V243.711H465.323V244.273H464.513ZM466.552 243.269C466.427 243.269 466.322 243.227 466.237 243.142C466.152 243.057 466.11 242.952 466.11 242.827C466.11 242.702 466.152 242.598 466.237 242.513C466.322 242.428 466.427 242.386 466.552 242.386C466.673 242.386 466.775 242.428 466.86 242.513C466.945 242.598 466.987 242.702 466.987 242.827C466.987 242.952 466.945 243.057 466.86 243.142C466.775 243.227 466.673 243.269 466.552 243.269ZM466.89 243.711V247.044H466.201V243.711H466.89ZM469.435 244.273H468.818V247.044H468.123V244.273H467.729V243.711H468.123V243.475C468.123 243.092 468.223 242.813 468.425 242.64C468.631 242.462 468.951 242.374 469.387 242.374V242.948C469.177 242.948 469.03 242.989 468.945 243.069C468.861 243.146 468.818 243.281 468.818 243.475V243.711H469.435V244.273ZM473.289 243.711L471.244 248.611H470.53L471.208 246.99L469.895 243.711H470.664L471.601 246.251L472.575 243.711H473.289ZM474.402 243.269C474.277 243.269 474.172 243.227 474.088 243.142C474.003 243.057 473.961 242.952 473.961 242.827C473.961 242.702 474.003 242.598 474.088 242.513C474.172 242.428 474.277 242.386 474.402 242.386C474.523 242.386 474.626 242.428 474.711 242.513C474.796 242.598 474.838 242.702 474.838 242.827C474.838 242.952 474.796 243.057 474.711 243.142C474.626 243.227 474.523 243.269 474.402 243.269ZM474.741 243.711V247.044H474.051V243.711H474.741ZM477.57 243.656C477.832 243.656 478.066 243.711 478.272 243.82C478.482 243.928 478.645 244.09 478.762 244.304C478.879 244.517 478.937 244.775 478.937 245.078V247.044H478.254V245.181C478.254 244.882 478.179 244.654 478.03 244.497C477.881 244.336 477.677 244.255 477.419 244.255C477.161 244.255 476.955 244.336 476.802 244.497C476.653 244.654 476.578 244.882 476.578 245.181V247.044H475.889V243.711H476.578V244.092C476.691 243.955 476.834 243.848 477.008 243.771C477.185 243.695 477.373 243.656 477.57 243.656ZM481.402 243.656C481.66 243.656 481.888 243.709 482.086 243.814C482.287 243.914 482.445 244.041 482.558 244.195V243.711H483.253V247.098C483.253 247.405 483.189 247.677 483.06 247.915C482.931 248.157 482.743 248.347 482.497 248.484C482.255 248.621 481.965 248.689 481.626 248.689C481.174 248.689 480.799 248.583 480.501 248.369C480.202 248.159 480.033 247.873 479.993 247.51H480.676C480.729 247.683 480.84 247.822 481.009 247.927C481.182 248.036 481.388 248.091 481.626 248.091C481.904 248.091 482.128 248.006 482.297 247.836C482.471 247.667 482.558 247.421 482.558 247.098V246.542C482.441 246.699 482.281 246.832 482.08 246.941C481.882 247.046 481.656 247.098 481.402 247.098C481.112 247.098 480.846 247.026 480.604 246.881C480.366 246.731 480.176 246.526 480.035 246.264C479.898 245.997 479.829 245.697 479.829 245.362C479.829 245.027 479.898 244.731 480.035 244.473C480.176 244.215 480.366 244.015 480.604 243.874C480.846 243.729 481.112 243.656 481.402 243.656ZM482.558 245.374C482.558 245.144 482.509 244.945 482.412 244.775C482.32 244.606 482.197 244.477 482.043 244.388C481.89 244.299 481.725 244.255 481.547 244.255C481.37 244.255 481.205 244.299 481.051 244.388C480.898 244.473 480.773 244.6 480.676 244.769C480.583 244.935 480.537 245.132 480.537 245.362C480.537 245.592 480.583 245.794 480.676 245.967C480.773 246.141 480.898 246.274 481.051 246.366C481.209 246.455 481.374 246.499 481.547 246.499C481.725 246.499 481.89 246.455 482.043 246.366C482.197 246.278 482.32 246.149 482.412 245.979C482.509 245.806 482.558 245.604 482.558 245.374ZM486.565 243.269C486.44 243.269 486.336 243.227 486.251 243.142C486.166 243.057 486.124 242.952 486.124 242.827C486.124 242.702 486.166 242.598 486.251 242.513C486.336 242.428 486.44 242.386 486.565 242.386C486.686 242.386 486.789 242.428 486.874 242.513C486.959 242.598 487.001 242.702 487.001 242.827C487.001 242.952 486.959 243.057 486.874 243.142C486.789 243.227 486.686 243.269 486.565 243.269ZM486.904 243.711V247.044H486.215V243.711H486.904ZM492.087 243.656C492.349 243.656 492.583 243.711 492.788 243.82C492.998 243.928 493.161 244.09 493.278 244.304C493.399 244.517 493.46 244.775 493.46 245.078V247.044H492.776V245.181C492.776 244.882 492.702 244.654 492.552 244.497C492.403 244.336 492.2 244.255 491.941 244.255C491.683 244.255 491.478 244.336 491.324 244.497C491.175 244.654 491.101 244.882 491.101 245.181V247.044H490.417V245.181C490.417 244.882 490.342 244.654 490.193 244.497C490.044 244.336 489.84 244.255 489.582 244.255C489.324 244.255 489.118 244.336 488.965 244.497C488.816 244.654 488.741 244.882 488.741 245.181V247.044H488.052V243.711H488.741V244.092C488.854 243.955 488.997 243.848 489.171 243.771C489.344 243.695 489.53 243.656 489.727 243.656C489.994 243.656 490.231 243.713 490.441 243.826C490.651 243.939 490.812 244.102 490.925 244.316C491.026 244.114 491.183 243.955 491.397 243.838C491.611 243.717 491.841 243.656 492.087 243.656ZM495.269 244.201C495.386 244.047 495.545 243.918 495.747 243.814C495.949 243.709 496.177 243.656 496.431 243.656C496.721 243.656 496.985 243.729 497.223 243.874C497.465 244.015 497.655 244.215 497.792 244.473C497.929 244.731 497.997 245.027 497.997 245.362C497.997 245.697 497.929 245.997 497.792 246.264C497.655 246.526 497.465 246.731 497.223 246.881C496.985 247.026 496.721 247.098 496.431 247.098C496.177 247.098 495.951 247.048 495.753 246.947C495.555 246.842 495.394 246.713 495.269 246.56V248.629H494.579V243.711H495.269V244.201ZM497.296 245.362C497.296 245.132 497.247 244.935 497.151 244.769C497.058 244.6 496.933 244.473 496.775 244.388C496.622 244.299 496.457 244.255 496.279 244.255C496.106 244.255 495.941 244.299 495.783 244.388C495.63 244.477 495.505 244.606 495.408 244.775C495.315 244.945 495.269 245.144 495.269 245.374C495.269 245.604 495.315 245.806 495.408 245.979C495.505 246.149 495.63 246.278 495.783 246.366C495.941 246.455 496.106 246.499 496.279 246.499C496.457 246.499 496.622 246.455 496.775 246.366C496.933 246.274 497.058 246.141 497.151 245.967C497.247 245.794 497.296 245.592 497.296 245.362ZM498.692 245.362C498.692 245.027 498.76 244.731 498.897 244.473C499.038 244.215 499.228 244.015 499.466 243.874C499.708 243.729 499.974 243.656 500.264 243.656C500.527 243.656 500.754 243.709 500.948 243.814C501.146 243.914 501.303 244.041 501.42 244.195V243.711H502.116V247.044H501.42V246.548C501.303 246.705 501.144 246.836 500.942 246.941C500.74 247.046 500.51 247.098 500.252 247.098C499.966 247.098 499.704 247.026 499.466 246.881C499.228 246.731 499.038 246.526 498.897 246.264C498.76 245.997 498.692 245.697 498.692 245.362ZM501.42 245.374C501.42 245.144 501.371 244.945 501.275 244.775C501.182 244.606 501.059 244.477 500.906 244.388C500.752 244.299 500.587 244.255 500.41 244.255C500.232 244.255 500.067 244.299 499.914 244.388C499.76 244.473 499.635 244.6 499.538 244.769C499.446 244.935 499.399 245.132 499.399 245.362C499.399 245.592 499.446 245.794 499.538 245.967C499.635 246.141 499.76 246.274 499.914 246.366C500.071 246.455 500.236 246.499 500.41 246.499C500.587 246.499 500.752 246.455 500.906 246.366C501.059 246.278 501.182 246.149 501.275 245.979C501.371 245.806 501.42 245.604 501.42 245.374ZM503.033 245.374C503.033 245.031 503.102 244.731 503.239 244.473C503.38 244.211 503.574 244.009 503.82 243.868C504.066 243.727 504.348 243.656 504.667 243.656C505.07 243.656 505.403 243.753 505.665 243.947C505.931 244.136 506.111 244.408 506.203 244.763H505.459C505.399 244.598 505.302 244.469 505.169 244.376C505.036 244.283 504.869 244.237 504.667 244.237C504.385 244.237 504.159 244.338 503.989 244.539C503.824 244.737 503.741 245.015 503.741 245.374C503.741 245.733 503.824 246.014 503.989 246.215C504.159 246.417 504.385 246.518 504.667 246.518C505.066 246.518 505.33 246.342 505.459 245.991H506.203C506.107 246.33 505.925 246.6 505.659 246.802C505.393 247 505.062 247.098 504.667 247.098C504.348 247.098 504.066 247.028 503.82 246.887C503.574 246.741 503.38 246.54 503.239 246.282C503.102 246.02 503.033 245.717 503.033 245.374ZM507.937 244.273V246.118C507.937 246.243 507.966 246.334 508.022 246.391C508.082 246.443 508.183 246.469 508.324 246.469H508.748V247.044H508.203C507.893 247.044 507.655 246.971 507.49 246.826C507.324 246.681 507.242 246.445 507.242 246.118V244.273H506.848V243.711H507.242V242.882H507.937V243.711H508.748V244.273H507.937Z" fill="#121212"/>
<rect x="445.565" y="253.655" width="70.3258" height="3.02477" rx="1.51238" fill="#F4F6FD"/>
<path d="M428.93 274.829L431.576 277.097L436.492 272.56" stroke="#7FDDB8" stroke-width="1.51238"/>
<path d="M447.406 277.334C447.124 277.334 446.87 277.286 446.644 277.189C446.418 277.088 446.241 276.947 446.112 276.765C445.983 276.584 445.918 276.372 445.918 276.13H446.656C446.672 276.312 446.743 276.461 446.868 276.578C446.997 276.695 447.177 276.753 447.406 276.753C447.644 276.753 447.83 276.697 447.963 276.584C448.096 276.467 448.163 276.318 448.163 276.136C448.163 275.995 448.12 275.88 448.036 275.791C447.955 275.703 447.852 275.634 447.727 275.586C447.606 275.537 447.437 275.485 447.219 275.428C446.945 275.356 446.721 275.283 446.547 275.211C446.378 275.134 446.233 275.017 446.112 274.86C445.991 274.702 445.93 274.493 445.93 274.231C445.93 273.989 445.991 273.777 446.112 273.595C446.233 273.414 446.402 273.275 446.62 273.178C446.838 273.081 447.09 273.033 447.376 273.033C447.784 273.033 448.116 273.136 448.374 273.341C448.637 273.543 448.782 273.821 448.81 274.176H448.048C448.036 274.023 447.963 273.892 447.83 273.783C447.697 273.674 447.521 273.62 447.304 273.62C447.106 273.62 446.945 273.67 446.82 273.771C446.695 273.872 446.632 274.017 446.632 274.206C446.632 274.335 446.67 274.442 446.747 274.527C446.828 274.608 446.929 274.672 447.05 274.721C447.171 274.769 447.336 274.821 447.546 274.878C447.824 274.954 448.05 275.031 448.223 275.108C448.401 275.184 448.55 275.303 448.671 275.465C448.796 275.622 448.858 275.834 448.858 276.1C448.858 276.314 448.8 276.515 448.683 276.705C448.57 276.894 448.403 277.048 448.181 277.165C447.963 277.277 447.705 277.334 447.406 277.334ZM450.719 274.521V276.366C450.719 276.491 450.747 276.582 450.803 276.638C450.864 276.691 450.965 276.717 451.106 276.717H451.529V277.292H450.985C450.674 277.292 450.436 277.219 450.271 277.074C450.106 276.929 450.023 276.693 450.023 276.366V274.521H449.63V273.958H450.023V273.13H450.719V273.958H451.529V274.521H450.719ZM453.097 274.442C453.197 274.273 453.33 274.142 453.496 274.049C453.665 273.952 453.865 273.904 454.095 273.904V274.618H453.919C453.649 274.618 453.443 274.686 453.302 274.823C453.165 274.961 453.097 275.198 453.097 275.537V277.292H452.407V273.958H453.097V274.442ZM456.416 277.346C456.102 277.346 455.818 277.275 455.563 277.134C455.309 276.989 455.11 276.787 454.965 276.529C454.819 276.267 454.747 275.965 454.747 275.622C454.747 275.283 454.821 274.983 454.971 274.721C455.12 274.458 455.324 274.257 455.582 274.116C455.84 273.974 456.128 273.904 456.447 273.904C456.765 273.904 457.054 273.974 457.312 274.116C457.57 274.257 457.774 274.458 457.923 274.721C458.072 274.983 458.147 275.283 458.147 275.622C458.147 275.961 458.07 276.261 457.917 276.523C457.763 276.785 457.554 276.989 457.288 277.134C457.025 277.275 456.735 277.346 456.416 277.346ZM456.416 276.747C456.594 276.747 456.759 276.705 456.913 276.62C457.07 276.535 457.197 276.408 457.294 276.239C457.39 276.07 457.439 275.864 457.439 275.622C457.439 275.38 457.392 275.176 457.3 275.011C457.207 274.842 457.084 274.714 456.931 274.63C456.777 274.545 456.612 274.503 456.435 274.503C456.257 274.503 456.092 274.545 455.939 274.63C455.789 274.714 455.67 274.842 455.582 275.011C455.493 275.176 455.449 275.38 455.449 275.622C455.449 275.981 455.539 276.259 455.721 276.457C455.906 276.65 456.138 276.747 456.416 276.747ZM460.752 273.904C461.014 273.904 461.248 273.958 461.454 274.067C461.664 274.176 461.827 274.337 461.944 274.551C462.061 274.765 462.119 275.023 462.119 275.325V277.292H461.436V275.428C461.436 275.13 461.361 274.902 461.212 274.745C461.063 274.583 460.859 274.503 460.601 274.503C460.343 274.503 460.137 274.583 459.984 274.745C459.835 274.902 459.76 275.13 459.76 275.428V277.292H459.07V273.958H459.76V274.339C459.873 274.202 460.016 274.095 460.19 274.019C460.367 273.942 460.555 273.904 460.752 273.904ZM464.584 273.904C464.842 273.904 465.07 273.956 465.268 274.061C465.469 274.162 465.627 274.289 465.739 274.442V273.958H466.435V277.346C466.435 277.653 466.371 277.925 466.242 278.163C466.113 278.405 465.925 278.594 465.679 278.731C465.437 278.869 465.147 278.937 464.808 278.937C464.356 278.937 463.981 278.83 463.683 278.616C463.384 278.407 463.215 278.12 463.174 277.757H463.858C463.91 277.931 464.021 278.07 464.191 278.175C464.364 278.284 464.57 278.338 464.808 278.338C465.086 278.338 465.31 278.253 465.479 278.084C465.653 277.915 465.739 277.669 465.739 277.346V276.789C465.622 276.947 465.463 277.08 465.262 277.189C465.064 277.294 464.838 277.346 464.584 277.346C464.294 277.346 464.027 277.273 463.785 277.128C463.548 276.979 463.358 276.773 463.217 276.511C463.08 276.245 463.011 275.945 463.011 275.61C463.011 275.275 463.08 274.979 463.217 274.721C463.358 274.462 463.548 274.263 463.785 274.122C464.027 273.976 464.294 273.904 464.584 273.904ZM465.739 275.622C465.739 275.392 465.691 275.192 465.594 275.023C465.502 274.854 465.378 274.725 465.225 274.636C465.072 274.547 464.907 274.503 464.729 274.503C464.552 274.503 464.386 274.547 464.233 274.636C464.08 274.721 463.955 274.848 463.858 275.017C463.765 275.182 463.719 275.38 463.719 275.61C463.719 275.84 463.765 276.041 463.858 276.215C463.955 276.388 464.08 276.521 464.233 276.614C464.39 276.703 464.556 276.747 464.729 276.747C464.907 276.747 465.072 276.703 465.225 276.614C465.378 276.525 465.502 276.396 465.594 276.227C465.691 276.053 465.739 275.852 465.739 275.622ZM471.931 276.433H470.171L469.868 277.292H469.148L470.655 273.081H471.453L472.96 277.292H472.234L471.931 276.433ZM471.738 275.87L471.054 273.916L470.364 275.87H471.738ZM473.627 275.622C473.627 275.279 473.695 274.979 473.832 274.721C473.973 274.458 474.167 274.257 474.413 274.116C474.659 273.974 474.941 273.904 475.26 273.904C475.663 273.904 475.996 274.001 476.258 274.194C476.524 274.384 476.704 274.656 476.797 275.011H476.052C475.992 274.846 475.895 274.717 475.762 274.624C475.629 274.531 475.462 274.485 475.26 274.485C474.978 274.485 474.752 274.585 474.582 274.787C474.417 274.985 474.334 275.263 474.334 275.622C474.334 275.981 474.417 276.261 474.582 276.463C474.752 276.664 474.978 276.765 475.26 276.765C475.659 276.765 475.923 276.59 476.052 276.239H476.797C476.7 276.578 476.518 276.848 476.252 277.05C475.986 277.247 475.655 277.346 475.26 277.346C474.941 277.346 474.659 277.275 474.413 277.134C474.167 276.989 473.973 276.787 473.832 276.529C473.695 276.267 473.627 275.965 473.627 275.622ZM478.53 274.521V276.366C478.53 276.491 478.559 276.582 478.615 276.638C478.676 276.691 478.776 276.717 478.918 276.717H479.341V277.292H478.797C478.486 277.292 478.248 277.219 478.083 277.074C477.917 276.929 477.835 276.693 477.835 276.366V274.521H477.442V273.958H477.835V273.13H478.53V273.958H479.341V274.521H478.53ZM480.57 273.517C480.445 273.517 480.34 273.474 480.255 273.39C480.17 273.305 480.128 273.2 480.128 273.075C480.128 272.95 480.17 272.845 480.255 272.76C480.34 272.676 480.445 272.633 480.57 272.633C480.691 272.633 480.793 272.676 480.878 272.76C480.963 272.845 481.005 272.95 481.005 273.075C481.005 273.2 480.963 273.305 480.878 273.39C480.793 273.474 480.691 273.517 480.57 273.517ZM480.908 273.958V277.292H480.219V273.958H480.908ZM483.502 277.346C483.187 277.346 482.903 277.275 482.649 277.134C482.395 276.989 482.195 276.787 482.05 276.529C481.905 276.267 481.832 275.965 481.832 275.622C481.832 275.283 481.907 274.983 482.056 274.721C482.205 274.458 482.409 274.257 482.667 274.116C482.925 273.974 483.213 273.904 483.532 273.904C483.85 273.904 484.139 273.974 484.397 274.116C484.655 274.257 484.859 274.458 485.008 274.721C485.157 274.983 485.232 275.283 485.232 275.622C485.232 275.961 485.155 276.261 485.002 276.523C484.849 276.785 484.639 276.989 484.373 277.134C484.111 277.275 483.82 277.346 483.502 277.346ZM483.502 276.747C483.679 276.747 483.844 276.705 483.998 276.62C484.155 276.535 484.282 276.408 484.379 276.239C484.476 276.07 484.524 275.864 484.524 275.622C484.524 275.38 484.478 275.176 484.385 275.011C484.292 274.842 484.169 274.714 484.016 274.63C483.863 274.545 483.697 274.503 483.52 274.503C483.342 274.503 483.177 274.545 483.024 274.63C482.874 274.714 482.755 274.842 482.667 275.011C482.578 275.176 482.534 275.38 482.534 275.622C482.534 275.981 482.624 276.259 482.806 276.457C482.991 276.65 483.223 276.747 483.502 276.747ZM487.837 273.904C488.099 273.904 488.333 273.958 488.539 274.067C488.749 274.176 488.912 274.337 489.029 274.551C489.146 274.765 489.204 275.023 489.204 275.325V277.292H488.521V275.428C488.521 275.13 488.446 274.902 488.297 274.745C488.148 274.583 487.944 274.503 487.686 274.503C487.428 274.503 487.222 274.583 487.069 274.745C486.92 274.902 486.845 275.13 486.845 275.428V277.292H486.155V273.958H486.845V274.339C486.958 274.202 487.101 274.095 487.275 274.019C487.452 273.942 487.64 273.904 487.837 273.904ZM495.763 273.087L494.184 277.292H493.386L491.801 273.087H492.539L493.785 276.584L495.037 273.087H495.763ZM499.637 275.543C499.637 275.668 499.629 275.781 499.613 275.882H497.066C497.086 276.148 497.185 276.362 497.362 276.523C497.54 276.685 497.758 276.765 498.016 276.765C498.387 276.765 498.649 276.61 498.802 276.299H499.546C499.445 276.606 499.262 276.858 498.996 277.056C498.734 277.249 498.407 277.346 498.016 277.346C497.697 277.346 497.411 277.275 497.157 277.134C496.907 276.989 496.709 276.787 496.564 276.529C496.423 276.267 496.352 275.965 496.352 275.622C496.352 275.279 496.421 274.979 496.558 274.721C496.699 274.458 496.895 274.257 497.145 274.116C497.399 273.974 497.689 273.904 498.016 273.904C498.33 273.904 498.611 273.972 498.857 274.11C499.103 274.247 499.294 274.44 499.431 274.69C499.568 274.936 499.637 275.221 499.637 275.543ZM498.917 275.325C498.913 275.071 498.822 274.868 498.645 274.714C498.467 274.561 498.248 274.485 497.985 274.485C497.747 274.485 497.544 274.561 497.374 274.714C497.205 274.864 497.104 275.067 497.072 275.325H498.917ZM501.247 274.442C501.348 274.273 501.481 274.142 501.647 274.049C501.816 273.952 502.016 273.904 502.245 273.904V274.618H502.07C501.8 274.618 501.594 274.686 501.453 274.823C501.316 274.961 501.247 275.198 501.247 275.537V277.292H500.558V273.958H501.247V274.442ZM503.811 274.454C503.928 274.293 504.087 274.162 504.289 274.061C504.495 273.956 504.722 273.904 504.973 273.904C505.267 273.904 505.533 273.974 505.771 274.116C506.009 274.257 506.197 274.458 506.334 274.721C506.471 274.979 506.539 275.275 506.539 275.61C506.539 275.945 506.471 276.245 506.334 276.511C506.197 276.773 506.007 276.979 505.765 277.128C505.527 277.273 505.263 277.346 504.973 277.346C504.714 277.346 504.485 277.296 504.283 277.195C504.085 277.094 503.928 276.965 503.811 276.808V277.292H503.121V272.815H503.811V274.454ZM505.838 275.61C505.838 275.38 505.789 275.182 505.692 275.017C505.6 274.848 505.475 274.721 505.317 274.636C505.164 274.547 504.999 274.503 504.821 274.503C504.648 274.503 504.482 274.547 504.325 274.636C504.172 274.725 504.047 274.854 503.95 275.023C503.857 275.192 503.811 275.392 503.811 275.622C503.811 275.852 503.857 276.053 503.95 276.227C504.047 276.396 504.172 276.525 504.325 276.614C504.482 276.703 504.648 276.747 504.821 276.747C504.999 276.747 505.164 276.703 505.317 276.614C505.475 276.521 505.6 276.388 505.692 276.215C505.789 276.041 505.838 275.84 505.838 275.61ZM508.673 277.346C508.411 277.346 508.175 277.3 507.965 277.207C507.76 277.11 507.596 276.981 507.475 276.82C507.354 276.654 507.29 276.471 507.282 276.269H507.996C508.008 276.41 508.074 276.529 508.195 276.626C508.32 276.719 508.476 276.765 508.661 276.765C508.855 276.765 509.004 276.729 509.109 276.656C509.218 276.58 509.272 276.483 509.272 276.366C509.272 276.241 509.212 276.148 509.091 276.088C508.974 276.027 508.786 275.961 508.528 275.888C508.278 275.82 508.074 275.753 507.917 275.688C507.76 275.624 507.623 275.525 507.506 275.392C507.393 275.259 507.336 275.084 507.336 274.866C507.336 274.688 507.389 274.527 507.494 274.382C507.598 274.233 507.748 274.116 507.941 274.031C508.139 273.946 508.365 273.904 508.619 273.904C508.998 273.904 509.302 274.001 509.532 274.194C509.766 274.384 509.891 274.644 509.907 274.975H509.218C509.206 274.825 509.145 274.706 509.036 274.618C508.927 274.529 508.78 274.485 508.595 274.485C508.413 274.485 508.274 274.519 508.177 274.587C508.08 274.656 508.032 274.747 508.032 274.86C508.032 274.948 508.064 275.023 508.129 275.084C508.193 275.144 508.272 275.192 508.365 275.229C508.457 275.261 508.595 275.303 508.776 275.356C509.018 275.42 509.216 275.487 509.369 275.555C509.526 275.62 509.661 275.717 509.774 275.846C509.887 275.975 509.946 276.146 509.95 276.36C509.95 276.55 509.897 276.719 509.792 276.868C509.688 277.017 509.538 277.134 509.345 277.219C509.155 277.304 508.931 277.346 508.673 277.346Z" fill="#121212"/>
<rect x="445.565" y="283.903" width="70.3258" height="3.02477" rx="1.51238" fill="#F4F6FD"/>
<path d="M428.93 305.076L431.576 307.345L436.492 302.808" stroke="#7FDDB8" stroke-width="1.51238"/>
<path d="M449.475 307.539H448.786L446.711 304.399V307.539H446.021V303.329H446.711L448.786 306.462V303.329H449.475V307.539ZM452.069 307.594C451.754 307.594 451.47 307.523 451.216 307.382C450.962 307.237 450.762 307.035 450.617 306.777C450.472 306.515 450.399 306.212 450.399 305.869C450.399 305.531 450.474 305.23 450.623 304.968C450.772 304.706 450.976 304.504 451.234 304.363C451.492 304.222 451.78 304.151 452.099 304.151C452.418 304.151 452.706 304.222 452.964 304.363C453.222 304.504 453.426 304.706 453.575 304.968C453.724 305.23 453.799 305.531 453.799 305.869C453.799 306.208 453.722 306.509 453.569 306.771C453.416 307.033 453.206 307.237 452.94 307.382C452.678 307.523 452.387 307.594 452.069 307.594ZM452.069 306.995C452.246 306.995 452.412 306.952 452.565 306.868C452.722 306.783 452.849 306.656 452.946 306.486C453.043 306.317 453.091 306.111 453.091 305.869C453.091 305.627 453.045 305.424 452.952 305.258C452.859 305.089 452.736 304.962 452.583 304.877C452.43 304.793 452.264 304.75 452.087 304.75C451.91 304.75 451.744 304.793 451.591 304.877C451.442 304.962 451.323 305.089 451.234 305.258C451.145 305.424 451.101 305.627 451.101 305.869C451.101 306.228 451.192 306.507 451.373 306.704C451.559 306.898 451.791 306.995 452.069 306.995ZM457.746 307.594C457.484 307.594 457.248 307.547 457.038 307.454C456.833 307.358 456.669 307.229 456.548 307.067C456.427 306.902 456.363 306.718 456.355 306.517H457.069C457.081 306.658 457.147 306.777 457.268 306.874C457.393 306.966 457.548 307.013 457.734 307.013C457.928 307.013 458.077 306.976 458.182 306.904C458.291 306.827 458.345 306.73 458.345 306.614C458.345 306.488 458.284 306.396 458.164 306.335C458.047 306.275 457.859 306.208 457.601 306.136C457.351 306.067 457.147 306.001 456.99 305.936C456.833 305.871 456.695 305.773 456.579 305.64C456.466 305.506 456.409 305.331 456.409 305.113C456.409 304.936 456.462 304.774 456.566 304.629C456.671 304.48 456.821 304.363 457.014 304.278C457.212 304.194 457.438 304.151 457.692 304.151C458.071 304.151 458.375 304.248 458.605 304.442C458.839 304.631 458.964 304.891 458.98 305.222H458.291C458.278 305.073 458.218 304.954 458.109 304.865C458 304.776 457.853 304.732 457.667 304.732C457.486 304.732 457.347 304.766 457.25 304.835C457.153 304.904 457.105 304.994 457.105 305.107C457.105 305.196 457.137 305.271 457.202 305.331C457.266 305.392 457.345 305.44 457.438 305.476C457.53 305.508 457.667 305.551 457.849 305.603C458.091 305.668 458.289 305.734 458.442 305.803C458.599 305.867 458.734 305.964 458.847 306.093C458.96 306.222 459.019 306.394 459.023 306.607C459.023 306.797 458.97 306.966 458.865 307.116C458.76 307.265 458.611 307.382 458.418 307.467C458.228 307.551 458.004 307.594 457.746 307.594ZM460.699 304.696C460.816 304.543 460.976 304.414 461.177 304.309C461.379 304.204 461.607 304.151 461.861 304.151C462.151 304.151 462.415 304.224 462.653 304.369C462.895 304.51 463.085 304.71 463.222 304.968C463.359 305.226 463.428 305.523 463.428 305.857C463.428 306.192 463.359 306.493 463.222 306.759C463.085 307.021 462.895 307.227 462.653 307.376C462.415 307.521 462.151 307.594 461.861 307.594C461.607 307.594 461.381 307.543 461.183 307.442C460.986 307.337 460.824 307.208 460.699 307.055V309.124H460.01V304.206H460.699V304.696ZM462.726 305.857C462.726 305.627 462.678 305.43 462.581 305.264C462.488 305.095 462.363 304.968 462.206 304.883C462.052 304.795 461.887 304.75 461.71 304.75C461.536 304.75 461.371 304.795 461.214 304.883C461.06 304.972 460.935 305.101 460.838 305.271C460.746 305.44 460.699 305.64 460.699 305.869C460.699 306.099 460.746 306.301 460.838 306.474C460.935 306.644 461.06 306.773 461.214 306.862C461.371 306.95 461.536 306.995 461.71 306.995C461.887 306.995 462.052 306.95 462.206 306.862C462.363 306.769 462.488 306.636 462.581 306.462C462.678 306.289 462.726 306.087 462.726 305.857ZM467.407 305.791C467.407 305.916 467.399 306.029 467.382 306.13H464.836C464.856 306.396 464.955 306.609 465.132 306.771C465.309 306.932 465.527 307.013 465.785 307.013C466.156 307.013 466.419 306.858 466.572 306.547H467.316C467.215 306.853 467.032 307.106 466.765 307.303C466.503 307.497 466.177 307.594 465.785 307.594C465.467 307.594 465.18 307.523 464.926 307.382C464.676 307.237 464.479 307.035 464.334 306.777C464.192 306.515 464.122 306.212 464.122 305.869C464.122 305.527 464.19 305.226 464.327 304.968C464.469 304.706 464.664 304.504 464.914 304.363C465.168 304.222 465.459 304.151 465.785 304.151C466.1 304.151 466.38 304.22 466.626 304.357C466.872 304.494 467.064 304.688 467.201 304.938C467.338 305.184 467.407 305.468 467.407 305.791ZM466.687 305.573C466.683 305.319 466.592 305.115 466.415 304.962C466.237 304.809 466.017 304.732 465.755 304.732C465.517 304.732 465.314 304.809 465.144 304.962C464.975 305.111 464.874 305.315 464.842 305.573H466.687ZM469.017 303.062V307.539H468.327V303.062H469.017ZM470.854 303.062V307.539H470.164V303.062H470.854ZM472.352 303.764C472.227 303.764 472.122 303.722 472.038 303.637C471.953 303.552 471.911 303.448 471.911 303.323C471.911 303.198 471.953 303.093 472.038 303.008C472.122 302.923 472.227 302.881 472.352 302.881C472.473 302.881 472.576 302.923 472.661 303.008C472.746 303.093 472.788 303.198 472.788 303.323C472.788 303.448 472.746 303.552 472.661 303.637C472.576 303.722 472.473 303.764 472.352 303.764ZM472.691 304.206V307.539H472.001V304.206H472.691ZM475.52 304.151C475.782 304.151 476.016 304.206 476.222 304.315C476.432 304.424 476.595 304.585 476.712 304.799C476.829 305.012 476.888 305.271 476.888 305.573V307.539H476.204V305.676C476.204 305.377 476.129 305.15 475.98 304.992C475.831 304.831 475.627 304.75 475.369 304.75C475.111 304.75 474.905 304.831 474.752 304.992C474.603 305.15 474.528 305.377 474.528 305.676V307.539H473.839V304.206H474.528V304.587C474.641 304.45 474.784 304.343 474.958 304.266C475.135 304.19 475.323 304.151 475.52 304.151ZM479.352 304.151C479.61 304.151 479.838 304.204 480.036 304.309C480.237 304.409 480.395 304.537 480.508 304.69V304.206H481.203V307.594C481.203 307.9 481.139 308.172 481.01 308.41C480.881 308.652 480.693 308.842 480.447 308.979C480.205 309.116 479.915 309.185 479.576 309.185C479.124 309.185 478.749 309.078 478.451 308.864C478.152 308.654 477.983 308.368 477.943 308.005H478.626C478.679 308.178 478.79 308.317 478.959 308.422C479.132 308.531 479.338 308.586 479.576 308.586C479.854 308.586 480.078 308.501 480.248 308.332C480.421 308.162 480.508 307.916 480.508 307.594V307.037C480.391 307.194 480.231 307.327 480.03 307.436C479.832 307.541 479.606 307.594 479.352 307.594C479.062 307.594 478.796 307.521 478.554 307.376C478.316 307.227 478.126 307.021 477.985 306.759C477.848 306.493 477.779 306.192 477.779 305.857C477.779 305.523 477.848 305.226 477.985 304.968C478.126 304.71 478.316 304.51 478.554 304.369C478.796 304.224 479.062 304.151 479.352 304.151ZM480.508 305.869C480.508 305.64 480.459 305.44 480.362 305.271C480.27 305.101 480.147 304.972 479.993 304.883C479.84 304.795 479.675 304.75 479.497 304.75C479.32 304.75 479.155 304.795 479.001 304.883C478.848 304.968 478.723 305.095 478.626 305.264C478.533 305.43 478.487 305.627 478.487 305.857C478.487 306.087 478.533 306.289 478.626 306.462C478.723 306.636 478.848 306.769 479.001 306.862C479.159 306.95 479.324 306.995 479.497 306.995C479.675 306.995 479.84 306.95 479.993 306.862C480.147 306.773 480.27 306.644 480.362 306.474C480.459 306.301 480.508 306.099 480.508 305.869ZM484.854 303.891V305.125H486.306V305.688H484.854V306.976H486.488V307.539H484.165V303.329H486.488V303.891H484.854ZM488.269 304.69C488.369 304.52 488.503 304.389 488.668 304.297C488.837 304.2 489.037 304.151 489.267 304.151V304.865H489.091C488.821 304.865 488.616 304.934 488.474 305.071C488.337 305.208 488.269 305.446 488.269 305.785V307.539H487.579V304.206H488.269V304.69ZM490.832 304.69C490.933 304.52 491.066 304.389 491.232 304.297C491.401 304.2 491.601 304.151 491.831 304.151V304.865H491.655C491.385 304.865 491.179 304.934 491.038 305.071C490.901 305.208 490.832 305.446 490.832 305.785V307.539H490.143V304.206H490.832V304.69ZM494.152 307.594C493.838 307.594 493.553 307.523 493.299 307.382C493.045 307.237 492.846 307.035 492.7 306.777C492.555 306.515 492.483 306.212 492.483 305.869C492.483 305.531 492.557 305.23 492.706 304.968C492.856 304.706 493.059 304.504 493.317 304.363C493.576 304.222 493.864 304.151 494.183 304.151C494.501 304.151 494.79 304.222 495.048 304.363C495.306 304.504 495.509 304.706 495.659 304.968C495.808 305.23 495.882 305.531 495.882 305.869C495.882 306.208 495.806 306.509 495.653 306.771C495.499 307.033 495.29 307.237 495.023 307.382C494.761 307.523 494.471 307.594 494.152 307.594ZM494.152 306.995C494.33 306.995 494.495 306.952 494.648 306.868C494.806 306.783 494.933 306.656 495.029 306.486C495.126 306.317 495.175 306.111 495.175 305.869C495.175 305.627 495.128 305.424 495.036 305.258C494.943 305.089 494.82 304.962 494.667 304.877C494.513 304.793 494.348 304.75 494.17 304.75C493.993 304.75 493.828 304.793 493.674 304.877C493.525 304.962 493.406 305.089 493.317 305.258C493.229 305.424 493.184 305.627 493.184 305.869C493.184 306.228 493.275 306.507 493.457 306.704C493.642 306.898 493.874 306.995 494.152 306.995ZM497.496 304.69C497.597 304.52 497.73 304.389 497.895 304.297C498.065 304.2 498.264 304.151 498.494 304.151V304.865H498.319C498.048 304.865 497.843 304.934 497.702 305.071C497.564 305.208 497.496 305.446 497.496 305.785V307.539H496.806V304.206H497.496V304.69ZM500.58 307.594C500.318 307.594 500.082 307.547 499.872 307.454C499.666 307.358 499.503 307.229 499.382 307.067C499.261 306.902 499.197 306.718 499.188 306.517H499.902C499.914 306.658 499.981 306.777 500.102 306.874C500.227 306.966 500.382 307.013 500.568 307.013C500.761 307.013 500.911 306.976 501.015 306.904C501.124 306.827 501.179 306.73 501.179 306.614C501.179 306.488 501.118 306.396 500.997 306.335C500.88 306.275 500.693 306.208 500.435 306.136C500.185 306.067 499.981 306.001 499.824 305.936C499.666 305.871 499.529 305.773 499.412 305.64C499.299 305.506 499.243 305.331 499.243 305.113C499.243 304.936 499.295 304.774 499.4 304.629C499.505 304.48 499.654 304.363 499.848 304.278C500.045 304.194 500.271 304.151 500.525 304.151C500.904 304.151 501.209 304.248 501.439 304.442C501.673 304.631 501.798 304.891 501.814 305.222H501.124C501.112 305.073 501.052 304.954 500.943 304.865C500.834 304.776 500.687 304.732 500.501 304.732C500.32 304.732 500.181 304.766 500.084 304.835C499.987 304.904 499.939 304.994 499.939 305.107C499.939 305.196 499.971 305.271 500.035 305.331C500.1 305.392 500.179 305.44 500.271 305.476C500.364 305.508 500.501 305.551 500.683 305.603C500.925 305.668 501.122 305.734 501.276 305.803C501.433 305.867 501.568 305.964 501.681 306.093C501.794 306.222 501.852 306.394 501.856 306.607C501.856 306.797 501.804 306.966 501.699 307.116C501.594 307.265 501.445 307.382 501.251 307.467C501.062 307.551 500.838 307.594 500.58 307.594Z" fill="#121212"/>
<rect x="445.565" y="314.151" width="70.3258" height="3.02477" rx="1.51238" fill="#F4F6FD"/>
<defs>
<filter id="filter0_d_520_2" x="45.5348" y="109.979" width="81.5672" height="80.6457" filterUnits="userSpaceOnUse" color-interpolation-filters="sRGB">
<feFlood flood-opacity="0" result="BackgroundImageFix"/>
<feColorMatrix in="SourceAlpha" type="matrix" values="0 0 0 0 0 0 0 0 0 0 0 0 0 0 0 0 0 0 127 0" result="hardAlpha"/>
<feOffset dy="3.02477"/>
<feGaussianBlur stdDeviation="3.78096"/>
<feComposite in2="hardAlpha" operator="out"/>
<feColorMatrix type="matrix" values="0 0 0 0 0.862745 0 0 0 0 0.482353 0 0 0 0 0.25098 0 0 0 0.12 0"/>
<feBlend mode="normal" in2="BackgroundImageFix" result="effect1_dropShadow_520_2"/>
<feBlend mode="normal" in="SourceGraphic" in2="effect1_dropShadow_520_2" result="shape"/>
</filter>
<filter id="filter1_d_520_2" x="308.692" y="211.309" width="235.176" height="139.895" filterUnits="userSpaceOnUse" color-interpolation-filters="sRGB">
<feFlood flood-opacity="0" result="BackgroundImageFix"/>
<feColorMatrix in="SourceAlpha" type="matrix" values="0 0 0 0 0 0 0 0 0 0 0 0 0 0 0 0 0 0 127 0" result="hardAlpha"/>
<feOffset dy="3.02477"/>
<feGaussianBlur stdDeviation="1.51238"/>
<feComposite in2="hardAlpha" operator="out"/>
<feColorMatrix type="matrix" values="0 0 0 0 0 0 0 0 0 0 0 0 0 0 0 0 0 0 0.25 0"/>
<feBlend mode="normal" in2="BackgroundImageFix" result="effect1_dropShadow_520_2"/>
<feBlend mode="normal" in="SourceGraphic" in2="effect1_dropShadow_520_2" result="shape"/>
</filter>
</defs>
</svg>
