<svg width="32" height="32" viewBox="0 0 32 32" fill="none" xmlns="http://www.w3.org/2000/svg">
<path d="M9.34055 25V21.8395L15.9723 16.0334C16.4695 15.5836 16.8926 15.1722 17.2418 14.7994C17.591 14.4206 17.8574 14.0418 18.0408 13.663C18.2243 13.2783 18.3161 12.861 18.3161 12.4112C18.3161 11.9081 18.2066 11.479 17.9876 11.1239C17.7686 10.7629 17.4667 10.4847 17.082 10.2894C16.6973 10.0941 16.2564 9.99645 15.7592 9.99645C15.2562 9.99645 14.8152 10.1 14.4364 10.3072C14.0576 10.5084 13.7617 10.8014 13.5487 11.1861C13.3415 11.5708 13.2379 12.0384 13.2379 12.5888H9.07422C9.07422 11.3518 9.35239 10.2835 9.90874 9.38388C10.4651 8.48426 11.2463 7.79178 12.2525 7.30646C13.2646 6.81522 14.4394 6.5696 15.777 6.5696C17.156 6.5696 18.3545 6.80043 19.3725 7.26207C20.3905 7.72372 21.1777 8.36884 21.734 9.19744C22.2963 10.0201 22.5774 10.976 22.5774 12.065C22.5774 12.7575 22.4383 13.444 22.1602 14.1246C21.882 14.8053 21.3819 15.5569 20.6598 16.3796C19.9437 17.2023 18.9257 18.1877 17.6058 19.3359L15.4308 21.3423V21.4577H22.7994V25H9.34055Z" fill="white"/>
</svg>
