<svg width="32" height="32" viewBox="0 0 32 32" fill="none" xmlns="http://www.w3.org/2000/svg">
<path d="M16.2564 25.2486C14.8714 25.2486 13.6433 25.0118 12.5721 24.5384C11.5067 24.0589 10.6663 23.399 10.0508 22.5586C9.43525 21.7182 9.12157 20.7505 9.10973 19.6555H13.5309C13.5487 20.0521 13.6759 20.4042 13.9126 20.712C14.1494 21.0138 14.4719 21.2506 14.8803 21.4222C15.2887 21.5939 15.7533 21.6797 16.2741 21.6797C16.795 21.6797 17.2537 21.5879 17.6502 21.4045C18.0527 21.2151 18.3664 20.9576 18.5913 20.6321C18.8162 20.3007 18.9257 19.9219 18.9197 19.4957C18.9257 19.0696 18.8043 18.6908 18.5558 18.3594C18.3072 18.0279 17.955 17.7705 17.4993 17.587C17.0495 17.4035 16.5168 17.3118 15.9013 17.3118H14.1346V14.1868H15.9013C16.4399 14.1868 16.9134 14.098 17.3217 13.9205C17.736 13.7429 18.0586 13.4943 18.2894 13.1747C18.5202 12.8492 18.6327 12.4763 18.6268 12.0561C18.6327 11.6477 18.535 11.2897 18.3338 10.9819C18.1385 10.6682 17.8633 10.4255 17.5082 10.2539C17.159 10.0823 16.7536 9.99645 16.2919 9.99645C15.8066 9.99645 15.3656 10.0823 14.9691 10.2539C14.5785 10.4255 14.2678 10.6682 14.0369 10.9819C13.8061 11.2956 13.6848 11.6596 13.6729 12.0739H9.47372C9.48556 10.9908 9.78741 10.0379 10.3793 9.2152C10.9711 8.3866 11.776 7.73852 12.794 7.27095C13.8179 6.80338 14.9839 6.5696 16.2919 6.5696C17.594 6.5696 18.7392 6.79747 19.7276 7.2532C20.716 7.70892 21.4854 8.33037 22.0359 9.11754C22.5863 9.89879 22.8615 10.7836 22.8615 11.772C22.8674 12.7959 22.533 13.6393 21.8583 14.3022C21.1895 14.9651 20.3284 15.3735 19.2749 15.5273V15.6694C20.6835 15.8351 21.7459 16.2908 22.462 17.0366C23.1841 17.7823 23.5421 18.7145 23.5362 19.8331C23.5362 20.8866 23.2255 21.8217 22.604 22.6385C21.9885 23.4493 21.1303 24.0885 20.0295 24.5561C18.9345 25.0178 17.6768 25.2486 16.2564 25.2486Z" fill="white"/>
</svg>
